<?xml version="1.0" encoding="utf-8"?><svg width="24" height="24" viewBox="0 0 24 24" fill="none" xmlns="http://www.w3.org/2000/svg"><g clip-path="url(#clip0)" fill-rule="evenodd" clip-rule="evenodd" fill="white"><path opacity=".3" d="M6.411 15.352a7.936 7.936 0 01-2.364-4.08 7.948 7.948 0 005.856 8.363 7.177 7.177 0 01-3.492-4.283z"/><path opacity=".6" d="M6.411 15.352A7.157 7.157 0 016.12 13.4a7.126 7.126 0 01-.824-3.335c0-1.357.377-2.625 1.033-3.706a7.92 7.92 0 00-2.28 4.915 7.936 7.936 0 002.363 4.08z"/><path d="M19.908 11.96c0-.606-.07-1.196-.199-1.764a7.908 7.908 0 01-.315 1.64 7.174 7.174 0 01-4.012 4.762 7.909 7.909 0 01-3.588.857 7.917 7.917 0 01-5.383-2.103 7.177 7.177 0 003.492 4.284 7.949 7.949 0 0010.005-7.675z"/><path opacity=".6" d="M6.12 13.399c.006.678.108 1.333.291 1.953a7.917 7.917 0 005.383 2.103 7.91 7.91 0 003.588-.857 7.158 7.158 0 01-9.263-3.2z"/><path d="M13.277 6.16c2.75 0 5.136 1.551 6.336 3.825 0-.062-.002-.124-.005-.186a7.948 7.948 0 00-13.28-3.441 7.126 7.126 0 00-1.033 3.706c0 1.205.299 2.339.824 3.335l-.002-.079a7.16 7.16 0 017.16-7.16z"/></g><defs><clipPath id="clip0"><rect width="16" height="16" fill="white" transform="translate(4 4)"/></clipPath></defs></svg>