<?xml version="1.0" encoding="utf-8"?>
<!-- Generator: Adobe Illustrator 23.0.3, SVG Export Plug-In . SVG Version: 6.00 Build 0)  -->
<svg version="1.1" id="Capa_1" xmlns="http://www.w3.org/2000/svg" xmlns:xlink="http://www.w3.org/1999/xlink" x="0px" y="0px"
	 viewBox="0 0 24 24" style="enable-background:new 0 0 24 24;" xml:space="preserve">
<style type="text/css">
	.st0{fill:#FFFFFF;}
</style>
<g>
	<path class="st0" d="M19.2,5.9l-1.9,1l-0.1-0.1l0,0l0,0c-1.4-1.3-3.2-2.1-5.1-2.1c-4.1,0-7.3,3.2-7.3,7.3c0,1,0.3,2.1,0.6,2.9
		l1.2-0.6C6.1,13.6,6,12.8,6,12c0-3.3,2.7-6,6-6c2.1,0,3.8,1,5,2.6l1.2-0.6L23.5,5l-5.1-0.6L19.2,5.9z"/>
	<path class="st0" d="M17.5,9.7c0.3,0.8,0.5,1.5,0.5,2.3c0,3.3-2.7,6-6,6c-2.1,0-3.8-1-5-2.6L5.8,16l-5.4,2.9l5.1,0.6L4.8,18l1.9-1
		l0.1,0.1l0,0l0,0c1.4,1.3,3.2,2.1,5.1,2.1c4,0,7.3-3.3,7.3-7.3c0-1-0.3-2.1-0.6-2.9L17.5,9.7z"/>
	<path class="st0" d="M13.9,16.6c1.2-0.5,2.1-1.4,2.7-2.4l0,0c-0.1,0.1-0.4,0.1-0.5,0.3l0,0l0,0c-0.9,1.4-2.2,2.2-3.8,2.2
		c-0.3,0-0.5,0-0.8,0h-0.1v-0.1c0,0,0-0.1,0.1-0.1l0.3-0.1c-0.1-0.3,0-0.4,0.1-0.4s0.1,0,0.3,0c0.3,0.1,0.4,0,0.5-0.1
		c0.1-0.1,0.3-0.4,0.1-0.5c0-0.4-0.3-0.5-0.5-0.5c-0.3,0-0.5,0.3-0.5,0.5c0,0,0,0.1-0.1,0.1c-0.4,0.4-0.8,0.8-1.3,1.2l-0.1,0.1
		C11.4,17.1,12.6,17.1,13.9,16.6z"/>
	<path class="st0" d="M10.2,15.2c0.9-0.8,1.9-1.4,2.9-1.9c0.1,0,0.1,0,0.3,0c0.1,0,0.3,0.1,0.3,0.1l0,0c0.3,0,0.5-0.3,0.5-0.5
		c0-0.3-0.3-0.5-0.5-0.5s-0.5,0.1-0.6,0.4c0,0.1,0,0.1-0.1,0.3c-0.9,0.4-1.8,1-2.7,1.7c-0.4,0.4-0.9,0.8-1.4,1.2
		C8.9,16,9.1,16,9.2,16.1C9.4,15.9,9.8,15.5,10.2,15.2z"/>
	<path class="st0" d="M16.9,13.2c0-0.1,0-0.3,0.1-0.5c-0.4,0.1-0.6,0.3-1,0.4c-0.9,0.4-1.8,0.9-2.7,1.4c0.1,0.1,0.1,0.3,0.3,0.4
		c0.4-0.3,0.8-0.4,1.2-0.6C15.2,13.8,16,13.6,16.9,13.2L16.9,13.2z"/>
	<path class="st0" d="M8.8,8.2c-1.3,0.9-1.9,2.4-1.8,4c0.4-0.3,0.8-0.6,1.2-0.9c0.6-0.4,1.2-0.9,1.9-1.3c0.1,0,0.1,0,0.3,0
		c0.3,0.1,0.4,0,0.6-0.1c0.1-0.1,0.3-0.4,0.1-0.5c-0.1-0.4-0.4-0.5-0.6-0.5c-0.3,0.1-0.5,0.3-0.5,0.5c0,0.1,0,0.1-0.1,0.3
		C9.1,10,8.4,10.5,7.8,11c0,0-0.1,0-0.1,0.1H7.5V11c0-0.1,0-0.1,0-0.1v-0.1c0-0.1,0-0.1,0.1-0.3c0.3-0.9,0.8-1.7,1.5-2.2
		c0.9-0.6,1.9-1,2.9-0.9h0.1c0.3-0.1,0.4-0.1,0.6-0.3l0,0C12.6,7,12.3,7,12,7C10.8,7,9.7,7.4,8.8,8.2z"/>
	<path class="st0" d="M14.2,7.5c-0.5,0.1-1,0.4-1.5,0.5c-0.5,0.3-0.9,0.4-1.3,0.6c0.1,0.1,0.1,0.3,0.3,0.4c0.1-0.1,0.3-0.1,0.4-0.3
		c0.8-0.4,1.5-0.6,2.3-1c0.1,0,0.3-0.1,0.4-0.1C14.6,7.7,14.4,7.5,14.2,7.5L14.2,7.5z"/>
	<path class="st0" d="M15.3,10.2c-1.3,0.4-2.4,1-3.5,1.7c-0.5,0.1-0.9,0.4-1.2,0.6c0.1,0.1,0.1,0.3,0.3,0.4c0.5-0.4,1-0.6,1.5-1
		c1-0.5,2.1-1,3.1-1.4c0.4-0.1,0.8-0.3,1-0.4c0-0.1-0.1-0.3-0.1-0.4C16.1,10,15.7,10.1,15.3,10.2z"/>
	<path class="st0" d="M17,11.2C16.9,11.2,16.9,11.2,17,11.2c-0.5,0-1,0.3-1.7,0.5c-0.3,0.1-0.5,0.3-0.8,0.4l0.1,0.1
		c0,0.1,0.1,0.1,0.1,0.3c0.8-0.4,1.5-0.6,2.3-0.9C17,11.5,17,11.4,17,11.2z"/>
	<path class="st0" d="M12.4,10.2c0.1,0,0.1,0,0.3,0c0.1,0,0.3,0.1,0.3,0c0.3,0,0.5-0.3,0.5-0.5s-0.1-0.5-0.5-0.5l0,0
		c-0.3,0-0.5,0.1-0.5,0.4c0,0.1-0.1,0.3-0.3,0.3l0,0c-0.8,0.4-1.5,0.9-2.3,1.3c-0.6,0.6-1.3,1-1.8,1.5c-0.4,0.3-0.6,0.5-0.9,0.8
		c0,0.1,0.1,0.3,0.1,0.4c0.4-0.4,0.9-0.8,1.3-1.2c0.6-0.5,1.3-1,2.1-1.4C11.2,11,11.7,10.6,12.4,10.2z"/>
	<path class="st0" d="M8,15.1c0.4-0.4,0.9-0.8,1.4-1.2c0.1-0.1,0.1-0.1,0.3,0c0.1,0,0.4,0,0.5-0.1c0.1-0.1,0.3-0.3,0.3-0.5v-0.1
		c-0.1-0.3-0.4-0.4-0.6-0.4c-0.3,0.1-0.5,0.4-0.5,0.6c0,0.1,0,0.1-0.1,0.3c-0.4,0.4-0.9,0.8-1.4,1.3c0.1-0.1,0.1,0,0.3,0
		C8,15.1,8,15.1,8,15.1z"/>
	<path class="st0" d="M14.8,8.8c-0.3,0.1-0.6,0.3-0.9,0.4c0.1,0.1,0.1,0.3,0.1,0.4l0.3-0.1c0.5-0.3,1-0.4,1.7-0.6
		c-0.1-0.1-0.1-0.3-0.3-0.4C15.3,8.7,15.1,8.7,14.8,8.8z"/>
</g>
</svg>
