<?xml version="1.0" encoding="utf-8"?>
<!-- Generator: Adobe Illustrator 23.0.3, SVG Export Plug-In . SVG Version: 6.00 Build 0)  -->
<svg version="1.1" id="Capa_1" xmlns="http://www.w3.org/2000/svg" xmlns:xlink="http://www.w3.org/1999/xlink" x="0px" y="0px"
	 viewBox="0 0 72.1 12" style="enable-background:new 0 0 72.1 12;" xml:space="preserve">
<style type="text/css">
	.st0{fill:none;}
	.st1{fill:#FFFFFF;}
</style>
<rect class="st0" width="72.1" height="12"/>
<g>
	<path class="st1" d="M26,9l-0.7-1c-2.6-3.9-3.9-5.9-4.1-6.1l0,0h-0.6v8.2h0.6V3l4.8,7.1l0,0h0.5V1.9H26V9z"/>
	<path class="st1" d="M35.1,3.7c-0.2-0.5-0.6-0.9-1.1-1.3C33.4,2.1,32.8,2,32.1,2l0,0c-0.3,0-0.6,0.1-1,0.2
		c-0.7,0.2-1.3,0.7-1.7,1.3c-0.3,0.6-0.5,1.2-0.5,1.9v1.4c0,1.1,0.4,2.1,1.2,2.7c0.6,0.4,1.3,0.6,1.8,0.6h0.2c0.9,0,1.7-0.3,2.4-0.9
		c0.6-0.6,0.9-1.4,0.9-2.3V5.1V4.7C35.3,4.3,35.2,3.9,35.1,3.7z M34.4,8.3C34.3,8.5,34,8.8,33.8,9c-0.5,0.3-1,0.5-1.5,0.5h-0.2
		c-0.1,0-0.4,0-0.7-0.1c-1.3-0.4-1.9-1.3-1.9-2.7V5.3c0-0.4,0.1-0.8,0.2-1.2c0.3-0.6,0.8-1,1.4-1.3c0.4-0.1,0.8-0.2,1-0.2h0.3
		c0.4,0,0.8,0.2,1.4,0.5c0.7,0.6,1.1,1.3,1.1,2.1V7C34.8,7.7,34.6,8.1,34.4,8.3z"/>
	<path class="st1" d="M40.2,2.2c-0.9,0.4-1.6,1-2,1.9c-0.3,0.7-0.5,1.3-0.5,1.9c0,0.4,0.1,1,0.3,1.6c0.1,0.3,0.4,0.7,0.7,1.1
		c0.9,0.9,1.9,1.4,3,1.4h2.5V9.6H42c-0.6,0-1.2-0.1-1.5-0.3C40,9.1,39.4,8.6,39,8c-0.3-0.5-0.5-1.1-0.6-1.7h4.1V5.7h-4.1V5.5
		C38.5,5,38.7,4.4,39,3.9c0.8-1,1.7-1.5,2.9-1.5h2.3V1.9H42C41.4,1.9,40.8,2,40.2,2.2z"/>
	<path class="st1" d="M52,9l-0.7-1c-2.6-3.9-3.9-5.9-4.1-6.1l0,0h-0.6v8.2h0.6V3l4.8,7.1l0,0h0.5V1.9H52V9z"/>
	<path class="st1" d="M60,2.4c-0.5-0.3-1-0.5-1.6-0.5l0,0c-0.6,0-0.8,0-0.8,0.1c-0.8,0.2-1.4,0.4-1.7,0.8C55.3,3.4,55,4.3,55,5.3
		v4.8h0.6V6.3h5.3v3.8h0.6v-5C61.4,4,60.9,3.1,60,2.4z M60.8,5.8h-5.3V5.3c0-0.7,0.2-1.4,0.7-1.9c0.5-0.6,1.2-0.9,2.1-0.9
		c0.6,0,1.2,0.2,1.8,0.6c0.5,0.6,0.8,1.2,0.8,1.9L60.8,5.8L60.8,5.8z"/>
	<path class="st1" d="M65.2,2.6c0.2-0.1,0.6-0.2,1.1-0.2h3.9V1.9H66c-0.5,0-0.9,0.1-1.3,0.4c-0.6,0.5-0.9,1.1-0.9,1.8v0.1
		c0,0.5,0.2,1,0.5,1.4c0.4,0.4,0.9,0.7,1.3,0.7h2.5l0.3,0.1c0.4,0.1,0.7,0.4,0.9,0.6c0.2,0.4,0.3,0.7,0.3,0.9c0,0.8-0.3,1.3-0.9,1.6
		c-0.2,0.1-0.5,0.1-1.1,0.1h-3.9v0.5h4.5c0.2,0,0.5-0.1,0.9-0.2c0.7-0.4,1.1-1.1,1.1-2c0-0.7-0.3-1.3-0.8-1.8
		c-0.4-0.3-0.7-0.4-1-0.4h-2.6c-0.2,0-0.4,0-0.6-0.1c-0.6-0.3-0.9-0.8-0.9-1.5C64.4,3.4,64.6,2.9,65.2,2.6z"/>
</g>
</svg>
