<?xml version="1.0" encoding="utf-8"?><svg width="64" height="64" viewBox="0 0 64 64" fill="none" xmlns="http://www.w3.org/2000/svg"><path d="M3.563 42.2c1.702 2.692 4.71 4.394 8.074 4.394 2.653 0 5.067-.99 6.848-2.771 1.821-1.82 2.85-4.236 2.85-7.006V26.723c0-2.613-.87-4.869-2.533-6.73-1.781-1.9-4.314-3.087-7.046-3.047-2.691-.04-5.185 1.069-6.887 2.929a9.413 9.413 0 00-2.692 6.57 9.615 9.615 0 002.77 6.77c1.743 1.662 4.118 2.691 6.65 2.691 3.049 0 5.7-1.544 7.403-3.84v4.75c0 1.94-.712 3.761-1.98 5.107-1.266 1.504-3.245 2.454-5.383 2.454-2.612 0-4.947-1.425-6.214-3.523L3.563 42.2zm7.64-22.84a7.288 7.288 0 015.343 1.9 7.183 7.183 0 012.256 4.632c.119 1.9-.435 3.68-1.583 5.027-1.188 1.464-2.93 2.414-4.948 2.573-1.94.118-3.681-.475-5.067-1.623a7.109 7.109 0 01-2.533-4.909 7.333 7.333 0 011.504-4.908c1.188-1.544 3.008-2.533 5.027-2.692zm22.67 27.234c-2.572 0-5.027-1.069-6.65-2.89-1.543-1.702-2.335-3.76-2.335-6.214V25.97c0-2.453.831-4.59 2.454-6.332 1.623-1.703 3.998-2.732 6.531-2.732 2.534 0 4.83.99 6.492 2.732 1.663 1.702 2.494 3.84 2.494 6.333V37.49c0 2.375-.792 4.472-2.296 6.175-1.663 1.86-4.077 2.929-6.69 2.929zm0-27.471c-2.256 0-4.314 1.187-5.502 2.93-.791 1.107-1.187 2.453-1.187 3.918V37.49c0 1.385.356 2.73 1.148 3.879 1.187 1.82 3.246 3.008 5.541 2.968 2.296.04 4.355-1.147 5.582-2.968.752-1.148 1.108-2.415 1.108-3.88V25.972c0-1.465-.396-2.771-1.148-3.919-1.227-1.742-3.285-2.93-5.542-2.93zm15.834 18.674a3.935 3.935 0 003.938-3.938 3.935 3.935 0 00-3.938-3.937c-2.1 0-3.938 1.794-3.938 3.937a3.935 3.935 0 003.938 3.938zm-2.078 7.831l13.803-13.781-1.203-1.203-13.803 13.781 1.203 1.203zm2.078-9.275c-1.356 0-2.494-1.137-2.494-2.494 0-1.356 1.138-2.493 2.494-2.493 1.356 0 2.494 1.137 2.494 2.493 0 1.357-1.138 2.494-2.494 2.494zm8.444 9.975a3.935 3.935 0 003.937-3.937 3.935 3.935 0 00-3.937-3.938c-2.1 0-3.938 1.794-3.938 3.938a3.935 3.935 0 003.938 3.937zm0-1.444c-1.357 0-2.494-1.137-2.494-2.493 0-1.357 1.138-2.494 2.494-2.494 1.356 0 2.493 1.137 2.493 2.494 0 1.356-1.137 2.493-2.493 2.493z" fill="#0D0D0D"/></svg>