<?xml version="1.0" encoding="utf-8"?><svg width="24" height="24" viewBox="0 0 24 24" fill="none" xmlns="http://www.w3.org/2000/svg"><g clip-path="url(#clip0)"><path d="M19.968 11.33c-.343-3.962-3.605-7.119-7.554-7.32C7.806 3.78 4 7.454 4 12.047a8.035 8.035 0 006.897 7.95c.172.029.315-.144.229-.287a3.942 3.942 0 01-.286-1.292c-.029-.43.028-.918.229-1.377.171-.488.543-.919.944-1.177.4-.287.6-.402 1.173-.574.544-.172.945-.46 1.317-.861.171-.201.343-.402.486-.632.143-.23.258-.459.343-.717a3.164 3.164 0 00.144-1.55 3.369 3.369 0 00-1.689-2.526c-.458-.258-.944-.43-1.488-.459a3.824 3.824 0 00-1.517.23c-.944.401-1.745 1.234-2.003 2.238a3.428 3.428 0 00-.086 1.521c.086.517.287 1.005.601 1.407.258.373.287.89 0 1.263-.458.631-1.373.602-1.774 0-.486-.69-.83-1.493-.944-2.325a5.274 5.274 0 01.171-2.497c.487-1.636 1.746-2.956 3.291-3.588.802-.287 1.631-.43 2.461-.344.83.057 1.66.344 2.376.775a5.655 5.655 0 011.774 1.722c.458.689.744 1.492.858 2.325.115.832 0 1.664-.257 2.468a5.062 5.062 0 01-.544 1.12 6.431 6.431 0 01-.772.975c-.573.574-1.088.976-2.09 1.32-.744.259-1.001.947-.744 1.55.401.976 1.746.919 2.118.747 3.005-1.32 5.065-4.535 4.75-8.123zm-7.955-.69a1.407 1.407 0 010 2.813 1.407 1.407 0 010-2.813z" fill="white"/></g><defs><clipPath id="clip0"><rect width="16" height="16" fill="white" transform="translate(4 4)"/></clipPath></defs></svg>