<?xml version="1.0" encoding="utf-8"?>
<!-- Generator: Adobe Illustrator 23.0.3, SVG Export Plug-In . SVG Version: 6.00 Build 0)  -->
<svg version="1.1" id="Capa_1" xmlns="http://www.w3.org/2000/svg" xmlns:xlink="http://www.w3.org/1999/xlink" x="0px" y="0px"
	 viewBox="0 0 347.4 81.1" style="enable-background:new 0 0 347.4 81.1;" xml:space="preserve">
<style type="text/css">
	.st0{fill:#FFFFFF;}
	.st1{fill:url(#SVGID_1_);}
</style>
<rect y="0" width="347.4" height="81.1"/>
<polygon class="st0" points="23.2,76.2 7.3,4.7 5.8,4.7 22.1,77.6 343.3,77.6 343.3,76.2 "/>
<linearGradient id="SVGID_1_" gradientUnits="userSpaceOnUse" x1="302.1281" y1="63.3873" x2="302.1281" y2="136.324" gradientTransform="matrix(0.3452 -6.075521e-02 -0.1733 -0.9849 -72.3718 155.7593)">
	<stop  offset="0" style="stop-color:#000000;stop-opacity:0"/>
	<stop  offset="0.3101" style="stop-color:#000000;stop-opacity:0.6"/>
	<stop  offset="0.6899" style="stop-color:#000000"/>
	<stop  offset="1" style="stop-color:#000000"/>
</linearGradient>
<polygon class="st1" points="28.5,73.6 13.4,76.3 0.7,4.5 15.9,1.8 "/>
<g>
	<g>
		<path class="st0" d="M53.6,45.4c-0.4-1-0.7-2.1-0.7-3.3c-0.1-4.6,3.7-8.4,8.3-8.4c2.8,0,5.3,1.3,6.9,3.6l1.6-0.8l7.6-4.1L70,31.7
			l1.1,2.1l-2.6,1.5c-0.1-0.1-0.1-0.1-0.1-0.2l-0.1-0.1c-1.9-1.9-4.4-2.9-7-2.9c-5.6,0-10.1,4.6-10.1,10.1c0,1.4,0.3,2.8,0.9,4.1
			L53.6,45.4z"/>
		<path class="st0" d="M68.8,38.9c0.4,1,0.7,2.1,0.7,3.3c0,4.7-3.8,8.4-8.4,8.4c-2.8,0-5.3-1.3-6.9-3.6l-1.6,0.8l-7.5,4.1l7.2,0.8
			l-1.1-2.1l2.6-1.5c0.1,0.1,0.1,0.1,0.1,0.2l0.1,0.1c1.9,1.9,4.4,2.9,7,2.9c5.6,0,10.1-4.6,10.1-10.1c0-1.4-0.3-2.8-0.9-4.1
			L68.8,38.9z"/>
		<path class="st0" d="M63.8,48.7c1.6-0.7,2.9-1.9,3.6-3.5c-0.1,0.1-0.4,0.1-0.7,0.3c-1.3,2-3.2,3-5.5,3.1c-0.4,0-0.7,0-1-0.1h-0.1
			v-0.1c0-0.1,0-0.1,0.1-0.1l0.4-0.2c0.2-0.1,0.4-0.3,0.6-0.4c0.1-0.1,0.2-0.1,0.3-0.1c0.3,0.1,0.6,0.1,0.8-0.1
			c0.2-0.2,0.3-0.4,0.2-0.7c-0.1-0.4-0.4-0.6-0.8-0.5S61,46.5,61,46.9c0,0.1,0,0.1-0.1,0.3c-0.7,0.4-1.3,1-1.9,1.4
			c-0.1,0.1-0.1,0.1-0.3,0.2C60.3,49.5,62.1,49.5,63.8,48.7z"/>
		<path class="st0" d="M58.8,46.7c1.3-1,2.7-1.9,4.1-2.7c0.1-0.1,0.2-0.1,0.3,0c0.1,0.1,0.3,0.1,0.4,0.1c0.4,0,0.8-0.3,0.8-0.7
			c0-0.4-0.3-0.7-0.7-0.7c-0.4-0.1-0.7,0.2-0.8,0.6c0,0.1-0.1,0.2-0.2,0.3c-1.3,0.7-2.6,1.6-3.8,2.4c-0.7,0.5-1.3,1-2,1.6
			c0.1,0.1,0.3,0.2,0.4,0.4C57.7,47.5,58.2,47.1,58.8,46.7z"/>
		<path class="st0" d="M68.2,43.2c-0.4,0.1-1,0.4-1.5,0.6c-1.3,0.4-2.6,1.1-3.8,1.9c0.1,0.1,0.2,0.3,0.3,0.5c0.5-0.3,1-0.6,1.6-0.9
			c1-0.5,2.1-1,3.2-1.4C68.1,43.8,68.1,43.5,68.2,43.2z"/>
		<path class="st0" d="M56.7,36.9c-1.7,1.4-2.6,3.5-2.5,5.7c0.5-0.4,1.1-1,1.6-1.3c0.9-0.7,1.8-1.3,2.7-1.9c0.1-0.1,0.2-0.1,0.4,0
			c0.3,0.1,0.6,0.1,0.8-0.1s0.3-0.4,0.2-0.8c-0.1-0.4-0.4-0.6-0.8-0.5c-0.4,0-0.7,0.3-0.7,0.7c0,0.1-0.1,0.2-0.2,0.3
			c-1,0.6-1.9,1.3-2.7,1.9c-0.1,0.1-0.1,0.1-0.1,0.1L55.1,41l-0.1-0.1c-0.1-0.1,0-0.1,0-0.2v-0.1c0-0.1,0.1-0.2,0.1-0.4
			c0.4-1.3,1.2-2.3,2.2-3c1.3-0.9,2.7-1.3,4.1-1.3c0.1,0,0.1,0,0.1,0c0.3-0.1,0.6-0.2,0.9-0.4h0.1c-0.4-0.1-1-0.1-1.5-0.1
			C59.6,35.2,58,35.8,56.7,36.9z"/>
		<path class="st0" d="M64.2,36c-0.7,0.3-1.5,0.5-2.1,0.8c-0.6,0.3-1.2,0.6-1.8,0.9c0.1,0.1,0.2,0.3,0.3,0.5
			c0.2-0.1,0.4-0.2,0.6-0.3c1-0.5,2.1-1,3.3-1.4c0.1-0.1,0.3-0.1,0.4-0.1C64.8,36.1,64.5,36.1,64.2,36C64.3,35.9,64.2,35.9,64.2,36z
			"/>
		<path class="st0" d="M59.4,43c0.1,0.1,0.2,0.3,0.3,0.4c0.7-0.5,1.5-1,2.2-1.3c1.4-0.7,2.8-1.4,4.3-1.9c0.6-0.2,1-0.4,1.5-0.5
			c-0.1-0.1-0.1-0.4-0.2-0.5c-0.6,0.1-1.1,0.4-1.6,0.5c-1.7,0.7-3.3,1.4-4.8,2.3C60.5,42.3,59.9,42.6,59.4,43z"/>
		<path class="st0" d="M68.2,41.2C68.1,41.2,68.1,41.2,68.2,41.2c-0.8,0.1-1.6,0.4-2.3,0.7c-0.4,0.1-0.7,0.3-1.1,0.5
			c0.1,0.1,0.1,0.1,0.1,0.1c0.1,0.1,0.1,0.2,0.1,0.3c1-0.4,2.1-0.9,3.2-1.3C68.2,41.4,68.2,41.3,68.2,41.2z"/>
		<path class="st0" d="M56.5,43.2c0.9-0.7,1.8-1.4,2.8-2c0.8-0.5,1.6-1,2.6-1.5c0.1-0.1,0.2-0.1,0.3,0c0.1,0.1,0.3,0.1,0.4,0.1
			c0.4-0.1,0.7-0.4,0.7-0.7c0-0.4-0.2-0.7-0.7-0.7h-0.1c-0.4,0-0.7,0.2-0.7,0.6c-0.1,0.3-0.2,0.4-0.4,0.4h-0.1
			c-1,0.5-2.1,1.1-3.1,1.9c-0.9,0.6-1.7,1.2-2.5,1.9c-0.4,0.4-0.8,0.7-1.2,1c0.1,0.1,0.1,0.4,0.2,0.6C55.3,44.3,55.9,43.8,56.5,43.2
			z"/>
		<path class="st0" d="M55.8,46.6c0.6-0.6,1.3-1.1,1.9-1.7c0.1-0.1,0.3-0.1,0.4-0.1c0.2,0.1,0.4,0,0.7-0.1s0.3-0.4,0.3-0.6
			c0-0.1,0-0.1-0.1-0.2c-0.1-0.4-0.5-0.6-0.8-0.5c-0.4,0.1-0.7,0.4-0.7,0.8c0,0.1,0,0.2-0.1,0.3c-0.6,0.4-1.3,1-2,1.7
			c0.1,0.1,0.1,0.2,0.2,0.3C55.7,46.5,55.7,46.6,55.8,46.6z"/>
		<path class="st0" d="M65.2,37.8c-0.4,0.1-0.9,0.3-1.3,0.5c0.1,0.1,0.1,0.3,0.2,0.5l0.3-0.1c0.7-0.3,1.5-0.6,2.4-0.8
			c-0.1-0.1-0.2-0.3-0.4-0.4C66,37.6,65.6,37.6,65.2,37.8z"/>
	</g>
</g>
</svg>
