<?xml version="1.0" encoding="utf-8"?><svg width="92" height="12" viewBox="0 0 92 12" fill="none" xmlns="http://www.w3.org/2000/svg"><g clip-path="url(#clip0)" fill="white"><path d="M12.574 2.88L0 7.68V5.349l12.574-4.8V2.88z"/><path d="M25.078 2.4L0 12V9.6L25.078 0v2.4z"/><path d="M25.078 6.651L12.155 11.59V9.256l12.923-5.006v2.4z"/><path d="M34.02 11.52V0h3.982c1.327 0 2.305.274 3.073.823.629.548 1.048 1.303 1.048 2.4 0 .548-.21 1.028-.489 1.44-.28.411-.768.754-1.327 1.028.628.206 1.117.48 1.467.892.35.48.559 1.028.559 1.646 0 1.097-.35 1.92-1.048 2.468-.769.549-1.677.892-3.074.892H33.95v-.069h.07zm2.026-6.72h1.956c.628 0 1.117-.206 1.467-.48.349-.206.558-.617.558-1.097 0-.549-.21-1.029-.489-1.303-.349-.274-.838-.343-1.606-.343h-1.956V4.8h.07zm0 1.509v3.565h2.235c.629 0 1.118-.205 1.467-.48.35-.274.559-.754.559-1.303 0-1.165-.629-1.851-1.886-1.851l-2.375.069z"/><path d="M55.326 0v7.68c0 1.166-.35 2.194-1.188 2.949-.838.754-1.886 1.097-3.143 1.097-1.258 0-2.445-.343-3.144-1.097-.768-.755-1.187-1.646-1.187-2.949V0h2.026v7.68c0 .754.21 1.371.559 1.714.349.343 1.047.617 1.746.617 1.607 0 2.305-.822 2.305-2.468V0h2.026z"/><path d="M64.128 7.131h-2.236v4.389h-2.026V0h4.122c1.397 0 2.445.274 3.144.891.698.618 1.117 1.44 1.117 2.538 0 .754-.21 1.44-.559 1.92-.349.548-.908.891-1.606 1.165l2.584 4.8v.069h-2.165L64.128 7.13zm-2.236-1.645h2.166a2.52 2.52 0 0 0 1.606-.549c.35-.343.56-.823.56-1.371 0-.617-.21-1.097-.56-1.44-.349-.343-.908-.549-1.606-.549h-2.166v3.909z"/><path d="M79.147 6.651h-4.75v4.8H72.37V0h7.404v1.646h-5.379v3.497h4.75V6.65z"/><path d="M88.856 8.846h-4.54l-.908 2.674h-2.166L85.643 0h1.886L92 11.52h-2.166l-.978-2.674zM84.945 7.2h3.423L86.69 2.469 84.945 7.2z"/></g><defs><clipPath id="clip0"><rect width="92" height="12" fill="white"/></clipPath></defs></svg>