<?xml version="1.0" encoding="utf-8"?>
<!-- Generator: Adobe Illustrator 23.0.3, SVG Export Plug-In . SVG Version: 6.00 Build 0)  -->
<svg version="1.1" id="Capa_1" xmlns="http://www.w3.org/2000/svg" xmlns:xlink="http://www.w3.org/1999/xlink" x="0px" y="0px"
	 viewBox="0 0 1280 599.4" style="enable-background:new 0 0 1280 599.4;" xml:space="preserve">
<style type="text/css">
	.st0{fill:url(#SVGID_1_);}
</style>
<linearGradient id="SVGID_1_" gradientUnits="userSpaceOnUse" x1="639.9" y1="350.8667" x2="639.9" y2="-356.706" gradientTransform="matrix(1 0 0 -1 0 398.7894)">
	<stop  offset="0" style="stop-color:#78776B;stop-opacity:0"/>
	<stop  offset="0.5563" style="stop-color:#79786B;stop-opacity:0.6"/>
	<stop  offset="1" style="stop-color:#78776B"/>
</linearGradient>
<path class="st0" d="M914.1,564c77.3-38.6,313.4-151.2,365.9-176.3v-7.6c-46.7,22.2-297.7,142-372.5,179.5c-1.7-1-3.4-2-5.2-2.9
	c-5.8-5.1-18.5-16-22.1-17.5c-3.3-1.4-10.1-2.7-13.8-3.3c2.9-2.3,7.3-5.9,10.2-8.5l0,0l0,0c1.3-1.2,2.3-2.2,2.8-2.8
	c1.4-2,0.2-12.4-1.2-20.7c0-0.1,0-0.3-0.1-0.4c-0.9-5.3-1.8-9.7-2-10.3c-0.7-1.8-8.7-10-12.9-14.2c3.3-3,10.2-9.6,10.2-12
	c0-1.1-0.8-4.6-2.1-10.7c-1.4-6.4-3.1-14.3-3.2-17.1c-0.1-2.6-0.9-4.4-2.2-5.3c-1-0.6-2.2-0.7-3.3-0.3c-1.4,0.6-22.6,22.6-22.8,24.7
	c-0.1,0.7-0.2,1.5,9.7,10.8c0.5,0.4,0.9,0.9,1.4,1.3L821,500.8c-1.7-6.7-3.8-15.1-5.9-23.4c-3.7-14.6-7.5-29.7-7.7-31.5
	c-0.5-4.1,4.8-97.7,5.4-101.8c0.3-2.2,2-23,3.9-47.1c1.7,0,5.4,0.1,7.6,0.1c0.6,0,1.6,0.1,2.8,0.2c2,0.2,4.2,0.4,6.2,0.4
	c3.4,0,6.4-0.6,6.7-3c0.5-3.7,0-5.9-2-8.9c-1-1.5-0.9-2.1-0.8-4.5c0.1-1.2,0.2-2.7,0.2-4.9c0-3.1,0.4-5.8,0.9-9.1
	c0.5-3.5,1.1-7.4,1.2-12.3c0.2-7.1,0.1-7.7-1-9.7c-0.3-0.6-0.7-1.2-1.1-2.4c-1.8-4.4-0.8-8.5,0.4-13.2v-0.1c0.8-3,2.3-4.3,3.5-5.3
	c0.6-0.5,1.2-1,1.6-1.6c0.5-0.9,1.2-2.9,0.8-10.7c-0.2-4-2.4-4.3-6.4-5c-3.4-0.5-10.8-0.5-13.8-0.4c0.1-1.4,0.2-2.9,0.4-4.6
	c0.3,0.1,0.7,0.1,1.1,0.1c0.6,0,1.3-0.1,2-0.4c1.3-0.5,2.2-1.5,2.8-3c1.2-2.8,1.7-20.1,2.1-39.1c0.1-6.1,0.3-11.4,0.4-12.3
	c1.2-8.6,3.4-13,5.1-15.2c1.3-1.7,2.4-2.3,3.4-2.8c1.8-0.9,2.9-1.7,2.8-5.9c0-0.5-0.1-1.1-0.1-1.6c4.9-2.8,10.9-6,15.5-8.4
	c0.8-0.3,1.6-0.6,2.3-0.9c7-2.6,160.1-83.1,165.4-86.9c0.4-0.3,0.9-0.6,1.4-1c0.2,0.1,0.4,0.2,0.6,0.1c5.9-0.7,12.5-1.3,13.4-1.1
	c0.2,0.2-0.1,1.4-0.9,2.2c-0.2,0.1-1.3,0.1-2,0.1c-2.6-0.1-7.1-0.2-9.9,4c-1.5,2.2-1.3,4.7,0.4,7.1c2.1,2.8,6.7,5.4,8.6,4.8
	c1.8-0.6,2.4-3.7,3.1-8.8c0.2-1.4,0.4-2.7,0.6-3.7c0.1-0.4,0.2-0.7,0.4-0.8c0.5-0.3,1.7,0.1,2.6,0.4c1.2,0.4,2.3,0.7,3.1-0.1
	c0.5-0.5,0.7-1.8,0.8-3.9c7.1,2.2,26.1,5.9,40.1,8.6c4,0.8,7.5,1.5,10.2,2l-2.5,8.1l0,0l0,0c0,0.2-3.8,16.7-5.1,37
	c-1.3,20.7,0,57.5,3.5,71c3.7,14.4,9.7,20.1,14.1,20.6c1.7,0.2,3.5-0.3,5.4-0.8c3.2-0.9,6.3-1.7,9.2,0.6c3.6,2.9,2.9,16.2,2.5,23.3
	c-0.1,2-0.2,3.8-0.2,5c0,6.1,0,18.8,3.1,24.2c3.1,5.6,9.7,13.3,14.5,15.9c4.2,2.3,14.4,15.6,19.6,23.7c3.4,5.4,2.4,9,1.4,12.4
	c-0.3,0.9-0.5,1.8-0.7,2.7c-0.7,3.4,0.2,4.1,4.1,7.6c2,1.7,4.7,4.1,8.6,7.9c5.9,5.7,13.8,12.7,21.8,19.2
	c9.4,7.7,17.4,13.5,22.6,16.4c11,6.2,26.1,14,32.5,15.6c6.2,1.6,23.6,3.4,24.4,3.5h0.1c0.5,0,1-0.4,1-0.9c0.1-0.6-0.4-1.1-0.9-1.1
	c-0.2,0-18-1.8-24.1-3.4c-5.8-1.5-20.2-8.9-32-15.4c-3.9-2.2-9.6-6.2-16.3-11.4c6.1,2.1,15.6,5.3,22.8,6.6c2.3,0.4,4.2,0.6,5.8,0.6
	c2.7,0,4.6-0.6,6-1.7c2.3-1.9,2.6-5.1,2.6-8.3c0-4.2-2.2-16.1-4.1-26.6c-1.3-7.2-2.6-13.9-2.9-17.1c-0.3-3-0.5-6.6-0.8-10.3
	c-0.4-5.8-0.8-12.4-1.7-19.1c-0.5-3.9-2.9-13.2-5.7-24c-4.7-18.3-11.2-43.5-9.7-48.6c2.1-7.6,1.2-12.3-0.2-19.6
	c-0.2-1-0.4-2-0.6-3.1c-1.6-8.9-29-132.3-29.3-133.6c-0.1-0.6-0.7-0.9-1.2-0.8c-0.6,0.1-0.9,0.7-0.8,1.2
	c0.2,1.1,21.3,96.1,27.6,125.4c-2.3-0.2-5.6,0.3-6.6,3.6c-1.2,4,13.6,70.9,16.5,84.3c0,0.2,4.8,23,5.5,34.3c0.4,6.8-0.7,18-1.5,27
	c-0.6,6.2-1.1,11.1-0.9,13.1c0.4,5.9,3.7,7.9,5.6,8.6s7,2.7,8.7,3.4c0.1,0.7,0.1,1.4,0.1,1.9c0,3.6-0.5,5.6-1.9,6.7
	c-1.7,1.4-5,1.6-10.2,0.6c-10.7-2-26.6-8-28.2-8.6c-0.3-0.3-0.6-0.5-1-0.8c-7.8-6.4-15.9-13.5-21.7-19.1c-4-3.9-6.8-6.3-8.7-8
	c-3.9-3.4-3.9-3.4-3.4-5.7c0.2-0.8,0.4-1.6,0.6-2.5c1-3.5,2.3-8-1.6-14.1c-4.6-7.3-15.4-21.7-20.3-24.4c-4.5-2.5-10.7-9.8-13.7-15.2
	c-2.8-5-2.8-17.8-2.8-23.2c0-1.2,0.1-2.9,0.2-4.9c0.5-8.5,1.2-21.4-3.2-25c-3.7-3-7.7-1.9-11-1c-1.7,0.5-3.3,0.9-4.6,0.7
	c-3.6-0.4-9-5.6-12.4-19c-3.4-13.3-4.7-49.8-3.4-70.4c1.1-17.6,4.1-32.2,4.9-35.8c0.6,0,1.6,0,2.6,0c1.9,0,4.3-0.1,5.8-0.4
	c1.7-0.4,2.9-2,2.9-4.1c0-2.2-1.3-5-5.3-6c-0.6-0.1-1.5-0.3-2.7-0.6l0.4-1.2c0.1,0,0.2,0.1,0.4,0.1l0,0h0.1
	c15.3,4.2,37.5,10,46.7,11.2c2.4,0.3,4.7,0.5,6.9,0.5c3.6,1.2,7.7,3.1,8.3,4.1c0.3,0.6,0,1.5-0.2,2.4c-0.3,1.2-0.8,2.8,0.6,3.7
	c0.4,0.3,0.8,0.4,1.1,0.6c0.8,0.4,0.8,0.4,0.8,0.9c0,0.4-0.1,1.1-0.2,1.8c-0.4,2.5-0.9,5.6,0.5,7c0.7,0.7,1.7,1,2.7,1.4
	c1.5,0.5,2.4,0.9,2.8,1.9c0.6,1.6,0.3,7.3,0,11c-1.6,0.4-5.1,1.3-6.7,2.8c-1.7,1.6-2.2,1.9-3.1,2.2c-0.4,0.1-0.8,0.4-1.3,0.8
	s-1,0.9-1.3,1.5c-0.4,0.6-0.7,1.2-0.8,1.9c-0.2,1-0.1,2.5,1.4,3.9c0.9,0.8,1.8,1.1,2.7,1.1c0.8,0,1.5-0.3,2-0.7
	c0.1-0.1,0.1-0.1,0.2-0.2c1.6,0.2,5.6,0.7,9.7,0.7c2.7,0,5.4-0.2,7.5-0.8c1.9-0.5,3.3-1.6,4.1-3.1c1-1.8,0.9-3.8,0.7-4.9
	c0.1-0.3,0.2-0.7,0.2-1c0.4-2.3,1.6-5.2,2.9-8.2c1.4-3.4,3-7.2,3.9-11.1c1.2-5.3,0-7.3-1.4-8.8c-0.3-0.3-0.5-0.5-0.5-0.7
	c0-0.3,0-0.8,0-1.4c0-2.8-0.1-8.5-3.3-14.1c-0.8-1.5-1.8-2.6-2.8-3.5c-0.8-1.7-2.6-3-5.5-4.1c0.6-1.7,1.3-3.4,1.8-3.7
	c0.4-0.3,0.5-1,0.2-1.4s-1-0.5-1.4-0.2c-1,0.8-1.9,3.2-2.4,4.7h-0.1c-1.3-0.4-2.3-0.7-3.2-1c-0.7-1.5-1.5-3-2.2-4.3
	c-2.7-4.6-6.2-7.1-10.2-7.1h-0.1c-4.8,0-24.8-3.6-26.6-4c-0.5-0.1-1.1,0.2-1.2,0.7s0.2,1.1,0.7,1.2c1.9,0.5,22,4.1,27.1,4.1
	c0,0,0,0,0.1,0c4.1,0,6.9,3.3,8.5,6.1c0.5,0.8,0.9,1.6,1.3,2.3c-0.2-0.1-0.4-0.1-0.5-0.2c-1.6-0.6-2.4-0.9-3.3,0.5
	c-0.6,0.9-2.6,3-3.2,3.7c-0.2,0.3-0.3,0.6-0.3,0.9c0.1,0.3,0.3,0.6,0.7,0.7l1.4,0.5c-1.5,1.5-3.8,4.3-4,7.1
	c-2.2,0.3-4.7,0.5-7.4,0.5c-0.1,0-0.1,0-0.2,0c-2.1,0-4.3-0.2-6.6-0.5c-7.9-1-25.8-5.6-40.3-9.5c0.6-0.2,1.2-0.5,1.7-0.8
	c2.7-1.6,4.7-4.3,5.4-7.2c1.1-5-1.8-10-1.9-10.2c-0.3-0.5-0.9-0.6-1.4-0.4c-0.5,0.3-0.6,0.9-0.4,1.4c0,0,2.6,4.5,1.7,8.7
	c-0.5,2.3-2.2,4.6-4.4,5.9c-1.5,0.9-3.8,1.7-6.8,0.9c-0.1,0-0.3-0.1-0.4-0.1l5-16.1c0.2-0.5-0.1-1.1-0.7-1.3
	c-0.5-0.2-1.1,0.1-1.3,0.7l-5,16.1c-4.4-1.2-8-2.2-10.4-2.9l-0.4-0.1c-3.7-1-40.9-8.5-47.9-8.8c-7.7-0.4-13,2.7-16.8,5.4
	c-5.3,3.9-158,84.1-165,86.7c-1.6,0.6-10,3.8-18,8.1c-1-2.7-2.8-4.6-4.4-5c-1.1-0.3-2.1,0-2.6,0.9c-0.9,1.4-0.3,4.2,0.9,7.8
	c-4.3,2.9-7.9,6-9.1,9.1c-3,7.2-5.7,63-6.5,81.3c-0.1,2.7-0.2,4.5-0.2,5c-0.1,1-9.3,120.4-10.1,125.9c-0.6,4.6-6,97.9-5.4,102.4
	c0.2,2,3.7,15.8,7.8,31.8c2.1,8.5,4.5,17.6,6.2,24.6l-1.1,1.1l-3.4,2.2c-0.1,0.1-0.2,0.1-0.2,0.2c-1.4,0.2-2.3,0.3-2.3,0.4
	c-0.6,0.1-1,0.6-0.9,1.1s0.5,0.9,1,0.9h0.1c0.2,0,4.2-0.5,7.9-1.7c0.9,3.9,1.6,6.7,1.7,7.6c0.4,3.2-0.3,7.9-0.7,10.4
	c-7.6-1.9-15.3-3.9-22.2-5.6c0.6-7,3.4-43.6,2.7-57.2c-0.3-4.8-0.6-8.5-0.8-11.7c-0.6-7-1-12-0.5-21.9c0.4-7.8,2.5-35.4,4.5-62.1
	c1.7-22.9,3.4-44.5,3.9-52.3c1-16.8,10.1-129.1,10.1-130.2c0-0.6-0.4-1.1-0.9-1.1c-0.6,0-1.1,0.4-1.1,0.9
	c-0.1,1.1-9.2,113.4-10.1,130.3c-0.5,7.8-2.1,29.4-3.9,52.3c-0.8,10.8-1.7,21.7-2.4,31.5c-12.9-0.5-33-1.7-35.2-2.8
	c-0.4-0.2-0.7-0.3-1-0.5c-2.2-1-3-1.3-3-9.7c0-10,5-75.5,5.1-76.2c0-0.6-0.4-1.1-0.9-1.1c-0.6-0.1-1.1,0.4-1.1,0.9
	c-0.1,1.2-1.1,13.8-2.1,28.5c-6.9-0.3-7.5-2.8-7.5-6.8c0-6.1,4.9-75.6,5.9-79.5c0.8-0.7,5.7,0,7.6,0.2c0.8,0.1,1.6,0.2,2.2,0.3
	c0.3,0,0.6,0.1,0.8,0.1c2.4,0.2,2.9,0.3,5.3,5.2c0.4,0.9,0.9,1.7,1.3,2.5c2.3,4.4,3.8,7.4,2.5,14.1l-0.3,1.7
	c-1.4,7.5-2.7,14.6-8.2,18.7c-6.4,4.8-6.5,7.8-6.4,8.3c0.1,0.6,0.5,1,1.1,0.9s1-0.5,0.9-1.1c0,0,0.1-2.4,5.6-6.5
	c6.2-4.6,7.6-12,9-19.9l0.3-1.7c1.4-7.4-0.4-11-2.7-15.4c-0.4-0.8-0.8-1.6-1.3-2.5c-2.8-5.7-3.9-6.1-7-6.4c-0.3,0-0.5,0-0.8-0.1
	c-0.6-0.1-1.3-0.2-2.1-0.3c-5-0.7-8.6-1.1-9.7,0.8c-0.2,0.4-0.8,1.4-3.5,39.2c-1.4,19.9-2.6,38.8-2.6,41.4c0,5.3,1.6,8.5,9.4,8.8
	c-1.4,18.8-2.8,40.3-2.8,45.8c0,9.2,1.1,10.2,4.2,11.6c0.3,0.1,0.6,0.3,1,0.5c3.1,1.6,29.6,2.7,35.9,3c-1,13.4-1.8,24.1-2,28.6
	c-0.5,10-0.1,15.1,0.5,22.2c0.3,3.2,0.6,6.9,0.8,11.7c0.7,13.2-2,48.9-2.7,56.6c-13-3.2-23.1-5.5-25-5.5c-3.4,0-6.5,2.5-8,4
	c-12.6-2.8-23.9-5.3-33.5-7.7c-3.2-3.2-8.5-8.3-10.4-9.3c-1.4-0.8-3.3-0.9-5.1-1s-3.9-0.2-4.5-1.1c-0.9-1.2-1-5.9-0.8-9.3
	c3.2-0.8,5.3-4.8,5.9-6.1c1.3-2.8-2.8-9.6-4.1-11.6c-0.3-0.5-0.9-0.6-1.4-0.3s-0.6,0.9-0.3,1.4c2.3,3.7,4.5,8.4,3.9,9.7
	c-1.1,2.4-3,5-5,5c-1.9,0.1-15.9-1.3-24.2-2.2l8.3-77.1c0.5-3.4,4.5-33.3,3.7-38s-9-9.6-17.7-14.8c-1.3-0.8-2.6-1.5-3.8-2.3
	c-7.1-4.3-14.1-8.8-16.2-10.1c0.2-8,1.5-75.9,1.8-82.9c0.4-7.7-2.2-11.6-5.2-16l-0.3-0.4c-0.7-1-1.4-2.6-2.1-4.5
	c3.5-1.3,13-5.4,13.4-5.6c0.5-0.2,0.8-0.8,0.5-1.3c-0.2-0.5-0.8-0.8-1.3-0.5c-3,1.3-10.4,4.5-13.3,5.5c-2.1-6.4-4.3-15.6-5.9-22.9
	c-1.5-6.7-2.5-19.1-3.2-30.6c6-0.3,11.9-1.2,13.6-1.6c0.2,0,0.5-0.1,1-0.2l0,0c6-1.1,34.2-4.6,51.2-5.9c17.7-1.3,31.6-5.2,31.7-5.2
	c0.5-0.2,0.9-0.7,0.7-1.3c-0.2-0.5-0.7-0.9-1.3-0.7c-0.1,0-13.9,3.8-31.3,5.1c-15.3,1.2-41.9,4.4-50.2,5.7v-7c0-3.3,5.2-34.4,8-50.4
	c0.1-0.6-0.3-1.1-0.8-1.2c-0.6-0.1-1.1,0.3-1.2,0.8c-0.3,1.9-8,46.5-8,50.8v7.4c-0.1,0-0.2,0.1-0.3,0.1c-1.5,0.4-7.4,1.2-13.2,1.6
	c-0.3-5.9-0.5-11.5-0.6-15.8c-0.2-9.7,1.1-20.8,3.4-29.7c1.2-4.7,5.3-19.7,9-32.1l13.4,12.7c0.2,0.2,0.4,0.3,0.7,0.3h0.1l75-6
	c0.6,0,1-0.5,0.9-1.1c0-0.6-0.5-1-1.1-0.9l-74.5,6l-13.8-13.1c1.5-5.1,3-9.6,4-12.6c3.8-10.3,17.5-45,21.4-52.5
	c3.9-7.6,9-20.8,9.3-21.4c0.3-0.7-0.1-1.5-0.8-1.8s-1.5,0.1-1.8,0.8c0,0.1-2.3,5.9-5,12.1l-7.7-3.3c1.5-4.1,2.7-7.3,2.7-7.4
	c0.2-0.5-0.1-1.1-0.6-1.3s-1.1,0.1-1.3,0.6s-5,13.1-6.9,20.9c-0.1,0.4-0.2,0.8-0.3,1.2L654.4,28l6.5-10.7c0.3-0.5,0.1-1.1-0.3-1.4
	c-0.5-0.3-1.1-0.1-1.4,0.3l-6.5,10.7l-10.5-6.1c4.7-8.1,8.6-15.1,9-15.7c0.6-1,0.2-2.2-0.8-2.8s-2.2-0.2-2.8,0.8
	c-0.2,0.3-19,33.4-23.7,41c-0.9,1.5-2.6,4.5-4.9,8.5l-11.4-6.7c-0.5-0.3-1.1-0.1-1.4,0.4c-0.3,0.5-0.1,1.1,0.4,1.4l11.4,6.7
	c-3.2,5.7-7.2,13.1-11.4,20.6l-25.3-16c1-1.7,1.6-3,1.9-3.5c2.9-6.4,24-51.2,24.2-51.7c0.6-1.4,0.1-3-1.3-3.6
	c-1.4-0.6-3-0.1-3.6,1.3c-0.9,1.8-21.3,45.3-24.2,51.8c-0.2,0.5-0.7,1.4-1.5,2.8l-22.6-14.4c0.2-0.2,0.3-0.5,0.4-0.6
	c4.4-6.8,18-28.5,18.2-28.7c0.7-1.1,0.4-2.6-0.7-3.3c-1.1-0.7-2.6-0.4-3.3,0.7c-0.1,0.1-5.9,9.3-11.1,17.6l-23.3-13.6
	c-0.5-0.3-1.1-0.1-1.4,0.4c-0.3,0.5-0.1,1.1,0.4,1.4l23.2,13.6c-2.4,3.8-4.6,7.3-6,9.4c-0.1,0.2-0.3,0.4-0.4,0.7l-41.4-26.2
	c-1-0.6-2.2-0.3-2.8,0.6c-0.6,1-0.3,2.2,0.6,2.8l41.3,26.2c-0.8,1.1-1.6,2.4-2.6,3.8c-0.9,1.4-2,2.9-3,4.4
	c-5.2-3.1-28.6-17.3-32.4-20.1c-3.4-2.4-13-9.6-17.3-12.8c3-5.6,5-9.2,5.5-10.1c0.7-1.3,0.2-2.9-1-3.7c-1.3-0.7-2.9-0.3-3.7,0.9
	L451,72.2c0,0.1-0.1,0.1-0.1,0.2c-0.1,0.1-0.9,1.6-2.2,4.2l-36.5-24.2c14.5-22.7,25.6-39.9,25.9-40.4c0.5-0.8,0.3-1.8-0.5-2.4
	c-0.8-0.5-1.8-0.3-2.4,0.5c-0.2,0.3-5.4,8.4-13.3,20.7c-5.2-2.3-17.8-7.8-19.8-7.8l0,0c-0.5,0-1.4,0.1-2.4,0.2
	c-2.8,0.3-8,0.9-9.8,0.3c-1.7-0.6-8.5-4.6-12.5-7c-0.9-0.5-1.6-1-2.2-1.3c0.8-1.9,1.3-3.2,1.4-3.5c0.4-1-0.1-2.2-1.1-2.7
	c-1-0.4-2.2,0.1-2.7,1.1c-0.1,0.1-2.2,5.4-5.2,12.2L354,13.2c-0.8-0.5-1.8-0.3-2.4,0.5c-0.5,0.8-0.3,1.8,0.5,2.4l7.4,5L347,41.8
	l-29.9-20.4c1.4-3.3,2.3-5.3,2.4-5.4c0.6-1.4,0-3-1.4-3.6s-3,0-3.6,1.4c0,0.1-0.8,1.7-2,4.5L296.8,7.6c-0.8-0.5-1.8-0.3-2.4,0.5
	c-0.5,0.8-0.3,1.8,0.5,2.4l16.2,11c-1.7,3.8-3.9,8.8-6.3,14.4l-39.1-23.7c-0.6-0.4-1.5-0.2-1.9,0.5c-0.4,0.6-0.2,1.5,0.5,1.9
	l39.5,23.9c-2.2,5.1-4.6,10.5-6.9,15.8l-47.6-30l5.3-7.9c0.4-0.6,0.3-1.5-0.4-1.9c-0.6-0.4-1.5-0.3-1.9,0.4l-5.3,8l-16.7-10.6
	c-0.6-0.4-1.5-0.2-1.9,0.4c-0.4,0.6-0.2,1.5,0.4,1.9l16.7,10.5l-9.9,14.7l-17.8-12.1l4-5.4l10,6.2c0.2,0.1,0.4,0.2,0.5,0.2
	c0.3,0,0.7-0.2,0.9-0.5c0.3-0.5,0.1-1.1-0.3-1.4L210,12.4c-0.5-0.3-1.1-0.1-1.4,0.3c-0.3,0.5-0.2,1.1,0.3,1.4L220,21l-3.9,5.2
	L195.3,12c-0.6-0.4-1.5-0.3-1.9,0.4c-0.4,0.6-0.3,1.5,0.4,1.9l0.9,0.6L187.9,25l-15-10.7c-0.6-0.4-1.5-0.3-1.9,0.3s-0.3,1.5,0.3,1.9
	l15,10.8l-10.8,16L150,25.7c2.3-7.1,4-12.1,4-12.2c0.4-1.1-0.2-2.2-1.3-2.6c-1.1-0.4-2.2,0.2-2.6,1.3c0,0.1-1.5,4.3-3.5,10.5
	l-18.2-10.8c-0.5-0.3-1.1-0.1-1.4,0.4s-0.1,1.1,0.4,1.4l18.6,11c-3.9,12-9.6,29.8-12.6,41.1c-4.5,16.9-10.1,34.7-10.9,37.3
	c-0.6,0.8-1.9,2.6-3.5,4.9c-1.6-1.2-3.3-2.7-4.8-4.2c0.1-0.9,0.4-2.9,1-4.6c0.3-0.8,1.2-2.2,2.2-3.6c1.8-2.7,3.9-5.9,4.1-8.4
	c0.3-4-3.9-9-4.1-9.2c-0.4-0.4-1-0.5-1.4-0.1s-0.5,1-0.1,1.4c1.1,1.3,3.8,5.1,3.6,7.7c-0.1,2-2.1,5-3.8,7.4c-1.1,1.6-2,3-2.4,4.1
	s-0.7,2.3-0.9,3.3c-0.7-0.9-1.2-1.7-1.3-2.3c-0.3-2.1,0.6-4.2,1.9-7.2c0.6-1.3,1.2-2.7,1.8-4.3c2.1-5.7-4-13.6-4.3-14
	s-1-0.5-1.4-0.2s-0.5,1-0.2,1.4c0.1,0.1,5.6,7.4,4,12c-0.6,1.5-1.2,2.9-1.7,4.2c-1.4,3.1-2.4,5.6-2,8.3c0.2,1.5,1.6,3.3,3.2,5l0,0
	c1.9,1.9,4.1,3.8,5.4,4.8c-2.1,2.9-4.6,6.4-6.9,9.6c-4.4-3-18-12-28.8-15.8C71.8,99.7,20.3,88.4-0.1,84v2.8
	c20.7,4.5,71.3,15.6,81.3,19.1c10.3,3.6,23.8,12.5,28.2,15.5c-2.8,4-5.2,7.4-5.7,8.4c-0.2,0.3-1.2,2.1-2.8,4.8
	c-8.5,14.7-16,27.9-22.5,39.5c0.9-4.5,2.7-9.8,4.6-14.7c1.7-4.6,1.8-8.1,0.4-10.6c-1-1.6-2.7-2.7-4.9-3c-5.3-0.7-8.5,8.1-11.4,15.9
	l-0.3,0.8c-2.5,6.8-6.5,9.2-10.4,11.5l-0.2,0.1c-0.8,0.4-1.4,0.9-1.9,1.3c-1.6,0.6-13.7,5.1-23,15.2c-6.7,7.3-9.6,12.6-9.2,16.9
	c0.2,2.2,1.3,4.2,3.3,5.7c1.7,1.3,3.5,1.9,5.4,1.9s3.9-0.6,6-1.9c-0.5,0.8-0.9,1.7-1.4,2.6c-1.8,3.9-3.1,12-3.2,12.4
	c-0.1,0.6,0.3,1.1,0.8,1.2c0.1,0,0.1,0,0.2,0c0.5,0,0.9-0.4,1-0.9c0-0.1,1.4-8.2,3-11.9c1.3-2.9,2.9-5,5.2-8
	c0.6-0.8,1.3-1.7,2.1-2.7c3.6-4.8,7.9-13.6,8.8-20.4c0.2-1.2,0.3-2.2,0.4-3.1c0.3-3.1,0.5-4.3,1.7-5.4c0,0,0.1,0,0.1-0.1
	c0.4-0.4,1-0.7,1.7-1.2l0.2-0.1c4-2.4,8.6-5.1,11.3-12.5l0.3-0.8c2.3-6.4,5.5-15.1,9.1-14.6c1.6,0.2,2.8,0.9,3.4,2
	c1.1,1.8,0.9,4.9-0.6,8.8c-2.7,7.1-5.2,14.5-5.2,20c-15.2,27.2-24.5,44.9-27.7,52.9c-0.6,1.4-1.1,2.8-1.6,4.2
	c-3.9,2.3-15.8,9.1-24.4,14c-6,3.6-15.2,11-22,16.6v3.6c6.8-5.8,17-14.1,23.5-17.8c7.1-4,16.4-9.4,21.6-12.4
	c-2.7,7.9-4.8,15.4-6.5,21.8c-2,7.4-3.7,13.8-5.6,17.1c-3,5.5-22.8,40.6-33.1,58.9v9.5c5.4-3.8,10.8-7,12.4-7.2c0.5,0.3,1.1,2,1.5,3
	c0.7,2,1.6,4.4,3.4,5.7c-0.7,1.1-1.2,2-1.6,2.7c-1.9,3-8.9,8.3-15.6,12.8v4.9c7.2-4.8,16.5-11.4,19.1-15.6c0.5-0.8,1.3-2.1,2.2-3.7
	c1.9,0,3.7-0.5,5.8-1.1c2.3-0.7,5.2-1.5,9.3-2.1c5.3-0.7,25.9-2.6,44.5-4.2c1.2,1.1,3.2,2.7,5.7,4.9l-4.5,8.2
	c-0.3,0.5-0.1,1.1,0.4,1.4c0.2,0.1,0.3,0.1,0.5,0.1c0.4,0,0.7-0.2,0.9-0.5l4.3-7.8c3.2,2.8,7.1,6.2,11.4,10
	C93.1,369.3,86,381,80.5,389.5c-0.4,0.2-0.7,0.5-1,0.9s-0.5,0.9-0.5,1.4c-0.8,1.1-1.5,2.2-2.2,3.2c-1.7,2.4-3.2,4.6-4.6,6.5
	c-1-0.6-1.7-1-2.3-1.2c0.8-5.5-1.3-8.5-6.9-10.1c-2.2-0.6-4.3,0.2-5.4,2.3c-1.2,2.3-1.1,6,1.6,8.4c2.5,2.1,5.5,2.4,9,0.9
	c0.5,0.2,1.6,0.8,2.7,1.5c-1.3,1.9-2.6,3.6-3.7,5.1c-2.8-0.8-7.4-2.5-8.9-3.7c-3-2.6-6.1-2.9-9-0.8c-1.1,0.8-1.8,1.9-1.9,3.3
	c-0.3,2.8,1.5,5.8,3.2,7.5c1.4,1.5,2.9,5.4,3.8,8.2c-2.2-0.9-5.2-1.8-6.9-0.2c-2.2,2.2-9.4,5.9-10.6,5.1
	c-1.8-1.6-27.3-21.8-28.4-22.6c-0.4-0.3-1.1-0.3-1.4,0.2c-0.4,0.4-0.3,1.1,0.2,1.4c0.3,0.2,26.6,21,28.4,22.6c0.4,0.4,1,0.5,1.7,0.5
	c3.6,0,10.2-4.3,11.6-5.7c0.6-0.6,2.5-0.2,4.3,0.5c-0.2,0.2-0.5,0.5-0.7,0.7c-5.3,5.2-36.2,32.7-52.8,47.3v10.9
	c20,15.6,47,36.9,60.4,48.4c-7.5,9.3-13.2,16.5-14,17.4C44,552.3,14,584,0,598.8v0.6h4.1C18.7,584,46.5,554.5,48.8,552
	c0.9-0.9,5.4-6.6,14.1-17.4c2.4,2.1,4.1,3.8,4.9,4.8c1.9,2.2,4.1,5.2,6.5,8.5c-0.7,0.8-1.5,1.6-2.2,2.4c-15,16.3-29.1,31.7-31,33.4
	c-1.5,1.4-2.1,0.8-3.1-0.2c-0.6-0.6-1.7-1.7-3-0.6c-0.9,0.9-8.7,10.3-13.8,16.6H24c5.4-6.6,11-13.4,12.3-14.8
	c0.1,0.1,0.3,0.2,0.4,0.3c1,0.9,3,2.9,5.9,0.2c1.9-1.8,16.1-17.2,31.1-33.5c0.7-0.7,1.3-1.4,2-2.1c1,1.4,2.1,2.9,3.1,4.3
	c2.4,3.3,4.8,6.6,7,9.6c-1.5,1.1-3.1,2.1-4.6,3.2c-13.7,10-27.5,23-37.2,32.7h7.8c5-4.9,10.7-10.3,16.8-15.6
	c2.6,2.2,6.6,5.4,8.7,6.2c0.8,0.3,1.5,0.4,2,0.4c0.3,0,0.6-0.1,0.9-0.1c1.4,3.2,7.1,6.6,9.1,7.7c-0.1,0.5-0.1,0.9-0.1,1.4h2
	c-0.1-0.6,0-1.3,0.4-1.8c1.3-1.6,3.6-2.4,6.3-2.4c0.6,0,1-0.5,1-1c0-0.6-0.5-1-1-1c-1.8,0-3.4,0.3-4.8,0.9c-2.4-2.5-4.8-5.1-5.1-5.7
	c-0.3-0.5-0.8-2.9-1.1-4.9c0-1.5-0.5-3-1.1-4.5c-0.1-0.3-0.2-0.5-0.3-0.8c-0.7-2-2.4-4-3.7-5.4c0.8-0.6,1.6-1.2,2.5-1.8
	c1.5-1.1,3.1-2.2,4.7-3.3c2.2,2.8,4.2,5,5.7,6.1c3,2.3,12.4,14.7,20.3,25.6h6.7c-2-2.8-4.7-6.5-7.7-10.5c17.8-4.2,18.2-4.4,18.3-4.4
	c0.2-0.1,0.5-0.3,20.3-19c0.4-0.4,0.4-1,0-1.4s-1-0.4-1.4,0c-5,4.8-11.8,11.2-16,15.2l-6.5-6.9c0.1-0.1,0.2-0.1,0.3-0.2
	c1.9-1.5,18.8-15.7,19-15.9c0.4-0.4,0.5-1,0.1-1.4s-1-0.5-1.4-0.1c-0.1,0.1-11,9.2-16.3,13.7l-9.8-15.3c2.4-1.3,4-2.1,4.2-2.3
	c0,0,0.2-0.1,0.5-0.3c8.9-5.7,33.4-21.9,51.3-38.2c5.5,5,16.2,15,19.7,20.9c-0.7,0.8-1.4,1.5-1.9,2c-10.4,10.9-47.1,46.2-66,64.3
	h10.8c19.8-19,50.9-49,60.6-59.1c14.2-14.9,81.4-93.6,85.1-98l4.4,3c-1.8,2.2-3.3,4-4.3,5.4c-8.6,11-96.4,113.5-126.6,148.8h7.2
	c6.7-7.8,15.5-18.1,25.3-29.6l6,7.5L177,599.4h2.8l18.7-20.5l4.5,5.6c-4.7,5-9.8,11-13,14.9h2.7c3.2-3.8,7.5-8.9,11.7-13.3l4.5,5.6
	c-1.6,2-4,5.1-5.8,7.7h2.5c1.6-2.2,3.3-4.4,4.6-6l4.8,6h2.6l-6.1-7.6c0.2-0.2,0.3-0.3,0.4-0.4c1.6-1.5,18.9-16.5,22.6-19.8
	c3.4,3.3,6.4,6.2,8.6,8.2c-4.4,5.7-14.7,14.9-20.1,19.6h3.1c5.7-4.9,14.4-12.9,18.5-18.2c0.7,0.6,1.2,1,1.5,1.2
	c2.6,1.6,6.6,7.1,8.7,10.1c-1.9,2.4-3.8,4.7-5.6,6.9h7c7.5-9.2,15.8-19.6,18.1-22.8c1.3-1.8,11.3-16.7,24.6-36.7l17.9,11
	c-10.9,16.5-21.4,32.3-22.5,34c-1.5,2.3-7.3,9.6-11.1,14.4h2.6c2.8-3.5,6.2-7.9,8.4-10.8l12.2,7.7l-1.7,3.2h2.3l1.1-2.1l3.3,2.1h3.9
	l-20-12.5c0.2-0.3,0.4-0.6,0.6-0.8c0.7-1,4.9-7.4,10.6-16l25.3,18.4l-6.6,11h2.4l18.3-30.3l9.7,6c-4.6,10-8.9,18.1-12.3,24.4h4.7
	c3.2-5.9,7-13.3,11.1-22.1l10.9,7.6l-9.9,14.4h2.5l9.1-13.3l14.3,10.1l-2.1,3.2h2.5l1.9-2.9l0,0l0,0l9.9-14.6l10.2,11.5l-7.1,6h3.2
	l23.7-20l7.6,8.7c0.2,0.2,0.5,0.3,0.8,0.3c0.2,0,0.5-0.1,0.7-0.3c0.4-0.4,0.5-1,0.1-1.4l-7.6-8.7l88.7-74.9l16,18.5
	c0.2,0.2,0.5,0.4,0.8,0.4c0.2,0,0.5-0.1,0.7-0.2c0.4-0.4,0.5-1,0.1-1.4l-6.3-7.4l32.7-28.8c5.9,13.2,6.5,14.2,7.3,14.2
	c0.1,0,0.1,0,0.2,0c0.3,0,1.4-0.3,2.5-0.7c3.6,13.3,7.1,30.4,8.2,37.9c-1.8,1.7-10.1,9.2-12.7,12.7c-0.6,0.8-4.7,4.7-10.8,10.4
	c-1.2-0.6-2.9-1.3-3.9-1.3c-0.8,0-1.9-0.1-2.7-0.1c-0.3-0.7-0.9-1.5-2-2.6c-2.7-2.6-6.2-6.6-6.3-6.7c-0.4-0.4-1-0.5-1.4-0.1
	s-0.5,1-0.1,1.4c0.1,0.2,3.6,4.2,6.4,6.8c1.3,1.2,1.6,1.8,1.6,2.1l0,0v0.1c0,0.3-0.1,0.6-0.3,1c-0.1,0.3-0.2,0.5-0.3,0.8
	c-0.5,1.7,0.8,3.6,1.9,4.8c-10.1,9.2-22.9,20.8-34.7,31.3l-8.7-12.3c-0.3-0.5-1-0.6-1.4-0.2c-0.5,0.3-0.6,1-0.2,1.4l8.8,12.5
	c-0.6,0.5-1.1,1-1.7,1.5h5.1c5.4-4.9,12.3-11.1,19.4-17.4l38.3,4.7c-0.6,4.5-1.2,8.8-1.7,12.8h2.8c0.4-3.1,1-7.5,1.7-12.4l92,11.2
	l-0.1,1.2h2.7l0.1-0.9l7.1,0.9h16.9l-23.8-2.9l10.4-96.6c9.8,7.8,28.3,13.9,51.4,19.6c0,0.1,0.1,0.2,0.1,0.3c0.2,0.5,0.2,1,0.3,1.6
	c0.3,1.8,0.6,4.3,4.7,4.9c4.7,0.7,21.3,5,23.4,6.1c1.4,0.7,4.5,4.5,6.4,7.1c-0.4,0.4-0.7,0.7-0.9,1.1c-1.3,2.2-1,7.8-0.4,14.9
	c0.2,2.6,0.4,5.1,0.3,6.3c-0.2,3.2-2.5,4.7-2.6,4.7c-0.5,0.3-0.6,0.9-0.3,1.4c0.2,0.3,0.5,0.5,0.9,0.5c0.2,0,0.4,0,0.5-0.1
	s3.3-2,3.6-6.3c0.1-1.3-0.1-3.8-0.3-6.6c-0.4-4.7-0.9-11.9,0.2-13.7c0.2-0.4,0.6-0.7,1-1.1l0,0l2.3-1.6l0,0c3.9-2.3,10.3-4.3,13.8-3
	c4.9,1.8,7.2,6,7.9,14.5l0,0c0.6,8.1,1.5,16.2,2.3,20.8c0,0.2,0.1,0.4,0.1,0.6l0,0c0,0.1,0.8,5.5-2.1,13.2c-1.4,3.8-3.5,6.3-5.2,7.8
	c-6.3,2.3-11.6,4.6-15.8,6.5h13.9c2.3-0.9,4.8-1.8,7.4-2.6c-1.3,0.9-2.6,1.8-3.8,2.6h9.9c7.3-4.5,16.2-8.7,25.4-10.1
	c7.7-1.1,12.2-0.7,15.4,0.2c-6.2,2.7-16,7.1-22.1,9.8h5c6.6-3,15.1-6.8,19.9-8.8c0.7,0.3,1.4,0.7,2,1c0.3,0.2,0.7,0.4,1,0.5
	l-10.5,7.3h13.7l4-5.1c1.5,0.1,3.2,0.1,5.2-0.2c8.2-1.1,17.4-8.2,26.3-15.2c4.1-3.1,8.2-6.4,11.7-8.5c0.9,0.9,1.7,2,2.3,3.1
	c2.4,4.4,2.7,10.2,0.8,15.8c-1.4,4.3-4.5,7.6-7.4,10h3.1l0.1-0.1c0.8-0.6,6.2-4.6,11.3-7.1c0.7-0.3,1.3-0.7,2-1
	c4.2-2.1,6.9-3.5,9.2-2.6c2.1,0.9,8.2,6.1,12.5,10.8h6.8c-1.5-5.7-4-12-8.6-18.6C926.8,574.6,921.1,569.1,914.1,564z M1040.2,28.8
	c-0.2,1.1-0.4,2.4-0.6,3.9c-0.3,2.3-0.9,6.6-1.7,7.1c-0.8,0.1-4.9-1.7-6.7-4.4c-1-1.6-1.1-3-0.1-4.3c1.9-2.8,4.7-3.1,7-3.1
	c0.4,0,0.8,0,1.1,0c0.4,0,0.8,0,1.2,0C1040.4,28.2,1040.3,28.5,1040.2,28.8z M1232.9,307.3c-1.8-0.6-3.9-2.3-4.2-6.8
	c-0.1-1.8,0.4-6.9,0.9-12.7c0.9-9.1,1.9-20.4,1.5-27.4c-0.7-11.4-5.5-34.4-5.5-34.6c-7-31.7-17.2-80-16.5-83.3
	c0.8-2.6,4.2-2.2,5.1-2c0.6,3,1.1,5,1.2,5.9c0.2,1.1,0.4,2.1,0.6,3.1c1.3,7,2.2,11.6,0.3,18.7c-1.4,5.2,3.3,24.7,9.7,49.7
	c2.7,10.7,5.1,19.9,5.6,23.7c0.9,6.6,1.3,13.2,1.7,19c0.2,3.8,0.5,7.4,0.8,10.4c0.3,3.2,1.6,10,2.9,17.2c1.5,7.9,3.1,16.6,3.8,22.1
	C1238.5,309.5,1234.6,307.9,1232.9,307.3z M1167.5,53.6c-0.1-0.1-0.3-0.1-0.4-0.2c-0.3-0.1-0.6-0.3-0.9-0.4
	c-0.1-0.2,0.2-0.9,0.3-1.4c0.1-0.5,0.3-1,0.4-1.5c0.4,0.4,0.7,0.8,0.8,1.4C1167.8,52.4,1167.7,53.1,1167.5,53.6z M1170.6,64.5
	c-0.8-0.3-1.5-0.5-1.9-0.9c-0.6-0.6-0.2-3.9,0.1-5.3c0.1-0.9,0.2-1.6,0.2-2.1c0-0.3,0-0.6-0.1-0.8c0.4-0.7,1-2.2,0.7-4.1
	c-0.2-1.3-0.9-2.1-1.5-2.7c-0.1-0.1-0.3-0.3-0.4-0.5c0.1-0.1,0.2-0.2,0.4-0.3c1.9-1.4,10.9-0.2,12.1,0.9c1.3,1.2,2,1.8,2,4.2
	c0.1,2.3,0.2,5,2.9,5.4c-0.4,0.8-0.8,2-1.1,3.8c-0.4,2.7-0.1,4.3,0.1,5.4s0.2,1.2-0.2,1.5c-1.6,1.5-3.1,3.2-2.8,5.6
	c0,0.3,0.1,0.7,0.2,1.3c0.4,1.9,1.5,7.9-0.1,9.1c-0.6,0.5-1.7,0.1-2.6-0.3c-1.2-1.2-2.7-3-4.1-4.8c0.2-2,0.9-9.8-0.1-12.3
	C1173.9,65.6,1172,64.9,1170.6,64.5z M1164.4,91c-0.8,0.6-1.6,0.1-2.1-0.3c-0.7-0.6-0.9-1.2-0.8-1.9c0.1-0.4,0.3-0.8,0.5-1.2
	c0,0,0-0.1,0.1-0.1c0.2-0.3,0.5-0.6,0.8-0.9c0.2-0.1,0.4-0.2,0.7-0.2c0.7,0,1.1,0.6,1.3,1.1C1165.6,89,1165.2,90.5,1164.4,91z
	 M1165.6,85.2c0.5-0.4,1.1-0.9,1.9-1.6c1.1-1,4.2-1.9,5.8-2.3c1,1.3,2.7,3.4,4.2,4.8c0,0.1,0.1,0.1,0.2,0.2c0.9,0.9,1.8,1.6,2.4,1.7
	c0,0,0.1,0,0.2,0c-0.2,0.1-0.4,0.2-0.6,0.3c-0.7,0.2-6.6,0.3-12.2,0.4c-0.1-0.6-0.2-1.3-0.5-1.9
	C1166.5,86.1,1166.1,85.5,1165.6,85.2z M1185.9,88.6c-0.6,1.2-1.7,2-3.3,2.4c-4.6,1.3-12.5,0.6-15.8,0.2c0.2-0.4,0.3-0.8,0.4-1.3
	c3.3,0,11.6-0.1,12.7-0.4c0.8-0.2,1.7-0.9,2.3-1.3c0.1,0,0.1,0,0.2,0c1.1,0,2.3-0.2,3.4-1c0.3-0.2,0.5-0.4,0.7-0.6
	C1186.5,87.3,1186.3,88,1185.9,88.6z M1186.1,41c0.5-0.8,0.8-1.5,1-2.3c0.3,0.4,0.6,0.8,0.8,1.3c2.9,5.1,3,10.3,3,13.1
	c0,0.8,0,1.3,0.1,1.7c0.1,0.7,0.6,1.3,1,1.7c0.8,1,2,2.3,0.9,7c-0.8,3.7-2.4,7.4-3.8,10.7c-1.3,3.2-2.6,6.2-3,8.7
	c-0.2,1.2-0.7,2.1-1.4,2.6c-0.5,0.3-1,0.5-1.6,0.5c2-2.3,1-7.7,0.4-10.7c-0.1-0.5-0.2-1-0.2-1.2c-0.1-1.2,0.5-2.3,2.2-3.9
	c1.2-1.1,1-2.2,0.8-3.4c-0.2-1-0.4-2.4-0.1-4.8c0.3-2.5,1.1-3.5,1.4-4.1c0.2-0.2,0.4-0.6,0.4-1.1c0,0,0-0.1,0.1-0.1
	c0.1-0.3,2-7.1-1.1-11.8c-0.9-1.3-1.6-2.3-2.3-3.1C1185.2,41.9,1185.7,41.5,1186.1,41z M1180.7,35c1.3,0,2.9,0.5,4.5,1.7
	c0.2,0.9,0,1.9-0.8,3.2c-0.5,0.8-2.4,0.7-4.2-0.1c-1.3-0.6-2.6-1.8-2.5-2.8v-0.1v-0.1c0.3-0.9,1.3-1.5,2.6-1.7
	C1180.4,35,1180.5,35,1180.7,35z M1178.8,32.6c0.4,0.1,0.7,0.2,1.1,0.3c-0.9,0.1-1.7,0.4-2.4,0.8c-0.1-0.5-0.3-1.1-0.4-1.7
	C1177.6,32.3,1178.2,32.5,1178.8,32.6z M1176.4,39.4c0.4,0.5,0.9,1,1.6,1.5c-1-0.1-2.1-0.2-3.2-0.2c0.3-0.2,0.6-0.4,0.9-0.6l0.1-0.1
	C1176,39.7,1176.2,39.6,1176.4,39.4z M1171.3,30.1L1171.3,30.1c0.2,0.1,0.5,0.2,0.9,0.3c0.6,0.2,1.4,0.5,2.5,0.9
	c0.8,2,1.1,3.5,1.1,4.5c-0.1-0.3-0.3-0.6-0.6-0.8c-1-1.2-2.7-1.7-4.9-1.5l-1.4-0.5C1169.7,32.1,1170.8,30.9,1171.3,30.1z
	 M1170.5,35.5c1.5-0.1,2.5,0.2,3.1,0.8c0.6,0.7,0.6,1.8,0.6,2.3c-1.3,0.9-3.4,1.9-6.2,2.6c-0.6,0.1-1.2,0.2-1.7,0.3
	C1166.7,39.2,1169.2,36.6,1170.5,35.5z M1168.3,43.2c4.8-0.8,11.8-1.2,14.2,1.8c3.3,4,3.5,9.5,3.5,11.2h-0.2c-1.2,0-1.4-0.4-1.5-3.5
	c-0.1-3-1.1-4.2-2.7-5.6c-1.9-1.7-11.9-3-14.7-1c-0.3,0.2-0.7,0.5-0.9,0.9c-0.9-0.9-2.6-1.9-4.4-2.7
	C1164.1,44.1,1166.4,43.7,1168.3,43.2z M1101.5,35.9c1.2,0.3,2.2,0.5,2.8,0.6c2.8,0.7,3.8,2.5,3.8,4c0,1.1-0.6,1.9-1.3,2.1
	c-1.9,0.4-5.5,0.4-7.4,0.3L1101.5,35.9z M1089.7,29.1l0.4,0.1c2.4,0.7,6,1.7,10.4,2.9l-0.4,1.3c-2.7-0.5-6.3-1.2-10.4-2
	c-14.4-2.8-34.2-6.6-40.5-8.7c0-0.4,0-0.9-0.1-1.4C1062,23.3,1086.8,28.3,1089.7,29.1z M1046.9,27.1c-0.3-0.1-0.7-0.2-1-0.3
	c-0.7-0.2-1.6-0.5-2.4-0.6c0.5-0.9,0.8-1.8,0.8-2.7c0.9,0.1,1.9,0.3,2.8,0.6C1047.1,25.5,1047,26.6,1046.9,27.1z M1042.3,20.4
	c1,0,2.6,0.2,4.7,0.6c0,0.4,0,0.8,0,1.1c-4.7-1.2-9.4-1-13-0.6C1036.5,20.7,1039.2,20.3,1042.3,20.4z M841.6,123.3
	c0.1,2.8-0.3,3.3-1.4,3.9c-0.1-0.6-0.4-1.5-0.9-3c0.7-0.4,1.5-0.9,2.3-1.4C841.6,123,841.6,123.2,841.6,123.3z M837.3,115.6
	c0-0.1,0.1-0.1,0.2-0.1c0,0,0.1,0,0.2,0c0.9,0.3,2.3,1.7,3.2,4.1c-0.9,0.5-1.8,1-2.6,1.5C837.6,118.8,836.9,116.3,837.3,115.6z
	 M828.4,145.4c1-12.1,3-14.2,4.9-16.3c0.4-0.5,0.9-0.9,1.3-1.5c0.4-0.5,1.4-1.3,3-2.3c0.4,1,0.7,2.1,0.7,2.3c0,0.2,0,0.4,0.1,0.6
	c-0.8,0.5-1.7,1.3-2.6,2.5c-2.6,3.4-4.5,9-5.5,16.2c-0.1,1-0.2,5.2-0.4,12.5c-0.3,13.3-0.9,35.7-2,38.4c-1,2.3-2.9,2.3-3.9,2
	C825.3,183.4,827.5,155.6,828.4,145.4z M822.6,217.9c0-0.5,0.1-2.3,0.3-5v-0.1c0,0,0.1-1.6,0.3-4.2c2.8,0,10.4-0.1,13.7,0.4
	c4.2,0.7,4.6,0.9,4.7,3.1c0.4,7.4-0.3,9.1-0.5,9.5c-0.2,0.3-0.6,0.7-1.2,1.1c-1.4,1.1-3.3,2.7-4.2,6.4v0.1
	c-1.2,4.9-2.4,9.5-0.3,14.5c0.5,1.2,0.9,2,1.2,2.5c0.8,1.6,1,1.8,0.8,8.7c-0.1,4.8-0.7,8.7-1.2,12.1c-0.5,3.2-0.9,6.2-0.9,9.4
	c0,2.1-0.1,3.6-0.2,4.8c-0.2,2.5-0.3,3.7,1.1,5.8c1.5,2.3,2.1,4,1.6,7.5c-0.2,1.8-7.8,1.1-10.7,0.8c-1.3-0.1-2.3-0.2-3-0.2
	c-2.1,0-5.7-0.1-7.4-0.1C819.4,259.6,822.6,218.5,822.6,217.9z M51.9,182.3c-0.1,0.9-0.2,1.9-0.4,3.1c-0.8,6.5-5,14.9-8.4,19.5
	c-0.3,0.4-0.6,0.9-0.9,1.3c-4.1,4.8-10.2,9.6-15.4,5.5c-1.6-1.2-2.4-2.6-2.5-4.3c-0.3-3.6,2.5-8.6,8.7-15.3
	c6.7-7.3,15.3-11.7,19.6-13.6C52.2,179.5,52.1,180.7,51.9,182.3z M68,400c-0.1,0-0.2,0.1-0.4,0.2c-1,0.5-4.1,1.8-6.9-0.5
	c-1.8-1.6-2-4.2-1.2-5.8c0.3-0.6,1-1.4,2.2-1.4c0.3,0,0.6,0,0.9,0.1C67,393.8,68.5,395.7,68,400z M86.3,589.4c0.5,0.9,3.4,4,5,5.7
	c-0.4,0.3-0.8,0.7-1.1,1c-3.3-1.8-7.6-4.9-8.2-6.8c0.2-0.1,0.4-0.3,0.6-0.4c0.6-0.4,1.2-0.9,2-1.5c0.4-0.2,0.7-0.4,0.9-0.7
	C85.8,587.8,86,588.9,86.3,589.4z M83.7,578.9c0.1,0.3,0.2,0.6,0.3,0.8c1.1,3.1,1.6,4.8-0.5,6c-1,0.6-1.7,1.1-2.2,1.6
	c-0.2,0.2-0.4,0.3-0.6,0.5c-0.1,0.1-0.2,0.1-0.3,0.2l-0.1,0.1c-0.6,0.4-1.1,0.5-2.3,0c-1.7-0.6-5.2-3.4-7.9-5.6
	c3.3-2.9,6.8-5.7,10.2-8.4C81.5,575.3,83.1,577.2,83.7,578.9z M652.8,244.4l0.3,0.4c2.9,4.2,5.1,7.5,4.8,14.3
	c-0.1,3-0.5,17-0.8,32.8l-28.1-15c1.7-3.3,3.5-6.9,5.3-10.6l0,0l0,0c2.3-4.5,4.6-9,6.6-12.9l0,0l0,0c3.2-6.2,5.6-10.9,6-11.4
	c0.7-0.9,2.1-2,3.6-2.6C651.2,241.5,652,243.2,652.8,244.4z M637.5,402c-0.2-1.3-5.2-27.8-13-41.8c1.6,0.1,3.1,0.2,3.8,0.5
	c0.1,0,0.2,0.1,0.3,0.1s0.1,0.1,0.2,0.1c1.1,1.1,5.2,13.3,6.1,16.7l0,0c0.1,0.3,0.1,0.6,0.2,0.7c0.1,0.6,0.3,1.9,21,11.7
	c-1,4.6-2,9.3-3,13.8c0,0.1,0,0.1,0,0.2c-0.8,8.7-2.1,18.8-3,20.5c-0.7,0.4-2.8,0.8-5.7,1.3c-2.4-7.8-4.8-15.8-6.7-22.7v-0.8
	C637.6,402.4,637.6,402.2,637.5,402z M557.3,459.8c-0.3,2-0.2,3.6,0,5.1c-6.6-1-32.7-4.8-46.7-6.8l0,0c-0.6-0.1-1.2-0.2-1.8-0.3
	c3.5-6.5,7.7-14.3,12.3-22.8c13.2,7.1,26.4,14.1,37.4,20C557.9,456.9,557.5,458.5,557.3,459.8z M557.8,467.2l-24.1,20.3l-20.9-27
	c11.8,1.7,30.7,4.4,45,6.5C557.8,467.1,557.8,467.2,557.8,467.2z M98.1,522.1l-15.2-12.5c12.1-15.1,25.2-31.3,35.3-43.5
	c6.7,5.4,11.6,9.3,12.7,10c0.7,0.4,2.4,1.6,4.7,3.3c-9.3,11.6-20.2,24.3-28.7,33.2C104.6,515.1,101.6,518.3,98.1,522.1z
	 M104.6,518.1l14.2,10.4L100,523C101.7,521.2,103.2,519.6,104.6,518.1z M103.4,301.3c0.5,0.1,1,0.2,1.6,0.2s1.2-0.1,1.7-0.4
	c0.4-0.2,0.8-0.5,1.2-1.1c0.6,0.7,1.3,1.5,1.9,2.2c0.2,0.3,0.5,0.4,0.8,0.4c0.2,0,0.4-0.1,0.6-0.2c0.4-0.3,0.5-1,0.2-1.4
	c-0.9-1.1-3.9-4.9-5.6-5.5c-1.3-0.5-2.7-0.3-3.5-0.1c-0.1-0.4-0.3-0.8-0.3-1c-0.2-0.5-0.8-0.8-1.3-0.6c-0.5,0.2-0.8,0.8-0.6,1.3
	c0.6,1.8,1.5,4.8,1.3,5.7c-0.1,0.5-0.4,1-0.7,1.4c-17.1-11.2-28.6-18.8-36.4-23.8c4.4-6.6,9.2-13.6,13.5-19.9l45.9,31.6l-12.6,19
	c-3-2-5.9-3.9-8.7-5.7C102.9,302.8,103.3,302.1,103.4,301.3z M102.9,297.4c0.6-0.1,1.5-0.2,2.2,0.1c0.3,0.1,0.7,0.5,1.2,1
	c-0.1,0.6-0.4,0.8-0.6,0.9c-0.7,0.4-2,0-2.5-0.2C103.2,298.5,103.1,297.9,102.9,297.4z M104.4,197.2c-0.1-0.2-0.3-0.5-0.3-0.6
	c-0.2-0.4-0.1-1.5,0.1-2.1c0.1-0.4-0.1-0.7-0.5-0.8c-0.4-0.1-0.7,0.1-0.8,0.5c-0.1,0.3-0.5,2,0.1,3c0.1,0.2,0.2,0.4,0.4,0.7
	c0.4,0.7,1.3,2.3,1.1,2.8c-0.2,0.6-1,2.6-1.6,3.9l-8.2-5.6c0.8-1.5,2.4-4.6,3.6-7.1c1.4-3.1,7.8-11.8,8.4-12.5
	c4.9,3.5,10.9,7.8,16.9,12c-4.7,5.7-9.6,11.9-14.2,17.8l-5.4-3.7c0.5-1.2,1.5-3.6,1.8-4.3C105.9,200.1,105.2,198.7,104.4,197.2z
	 M107.3,173.5c1.6-0.8,5.2-2.8,5.8-4.4c0.5-1.4-0.4-6.4-1-8.9c4.9-6.4,12.9-16.4,18.1-22.9c7.8,5.9,16.8,12.7,24.9,18.4
	c-0.7,0.7-1.4,1.5-2.1,2.3c-2.9,3.3-6.3,7-10.8,11.4c-3.8,3.7-10.6,11.7-18,20.9c-7.2-5-14.4-10.1-19.6-14c1.1-1.1,1.9-2,2.4-2.7
	C107.1,173.6,107.2,173.6,107.3,173.5z M107.9,166c0.3-0.6,1.3-1.9,2.6-3.6c0.5,2.7,0.9,5.4,0.7,6c-0.2,0.5-1.8,1.6-3.7,2.7
	c0-0.1,0-0.1,0-0.2C107.1,169.8,106.6,168.2,107.9,166z M177.2,137.6l20.8,14.8l-7.1,10l0,0l0,0l-6.9,9.8
	c-5.2-3.7-10.6-7.5-15.8-10.9c-2.4-1.5-5-3.3-7.8-5.3c1.8-1.9,3.5-3.5,5.3-4.6c0.5-0.3,0.9-0.6,1.4-0.9
	C171,147.9,174.8,145.4,177.2,137.6z M174.1,133l-15-10.3c-0.5-1.2-2.8-6.1-3.5-7.7c-0.4-0.9-2.6-2.6-8.3-6.8
	c-4.5-3.3-12-8.8-12.4-10.3c-0.7-2.6,6.1-29.2,8.8-30.6c2.4-0.7,19.4,8.6,21.5,11.7c1.1,1.6,1.9,15.6,2.4,23.9
	c0.4,6.8,0.7,11,1,12.2c0.6,2.4,4.4,7.3,6.7,10.1c-0.1,1-0.2,2-0.3,3C174.7,130,174.4,131.6,174.1,133z M203.3,92.8
	c-1.3-1.1-3-2.5-4.6-3.8l4.9-7.5l4,2.8c0.2,0.8,0.7,3,0.1,5.4c-0.6,2.5-3,8.4-4,10.8l-1.6-1l0,0l0,0l-1.5-0.9
	c-0.1-0.1-0.2-0.1-0.3-0.1l-5.7-3.3l2.9-4.4c1.4,1.2,2.9,2.4,4.4,3.7c0.2,0.2,0.4,0.2,0.7,0.2s0.6-0.1,0.8-0.4
	C203.8,93.8,203.8,93.2,203.3,92.8z M232.1,98.9c2.4,2,5.5,4.5,6.2,4.8c0.1,0,0.3,0.1,0.4,0.1c1,0,2.2-1.1,4.7-4.2
	c0.8-1,2.4-3.3,3.3-4.5l21.9,15.2c-6.4,9.8-13.9,20.9-21.3,31.7l-8.2-6l4.1-8.3l3.7-1c0.2-0.1,0.5-0.2,0.6-0.4l8.1-12.3
	c0.2-0.4,0.2-0.8,0-1.2l-3.4-4.4c-0.2-0.3-0.5-0.4-0.8-0.4s-0.6,0.2-0.8,0.5l-2.5,3.9l-4.4-2.5c-0.5-0.3-1.1-0.1-1.4,0.4l-2.4,4
	h-0.1l-4.8,0.4c-1.3-1.5-6.2-6.8-11.1-8c-4.4-1.1-7,0.2-8.2,1l-9.7-5.9c1-2.3,3.6-8.7,4.2-11.4c0.6-2.7,0.1-5.2-0.1-6.3l6.5-9.8
	l28.8,19.9c-0.9,1.2-2.4,3.5-3.2,4.4c-1.9,2.3-2.7,3.1-3.1,3.3c-0.8-0.6-3.3-2.5-5.4-4.3c-0.4-0.4-1.1-0.3-1.4,0.1
	C231.6,97.9,231.6,98.5,232.1,98.9z M264.4,90.4c-1.2-1-3.1-4.2-4.1-5.9c2-3,3.5-5.2,3.7-5.5c0.4-0.5,0.5-1.2,0.3-2.3
	c-0.2-1.2-0.7-2.6-1.4-3.7l6.6-7l17.2,11.8c-0.8,1.9-1.5,3.6-2.1,5.1c-1.8,4.5-7.5,14-15,25.5l-17.4-12c2.1-3.2,4.6-6.9,6.8-10.1
	c1,1.7,2.8,4.5,4,5.6c0.8,0.7,1.5,4.4,1.6,7.4c0,0.6,0.5,1,1,1l0,0c0.6,0,1-0.5,1-1.1C266.7,98.1,266.4,92.1,264.4,90.4z
	 M261.4,71.7c-0.3-0.2-0.6-0.4-0.9-0.7c-13-9.3-20.3-14.6-21.7-15.8c0.4-1.1,2.3-4.4,4.2-7.4l24.9,17L261.4,71.7z M404.9,57.4
	c-0.7,1.2-1.5,2.3-2.3,3.5c-14.2-9.5-18.4-12.2-19.8-13l1.1-1.6L404.9,57.4z M385.1,44.7l3-4.4l19.4,13.1c-0.5,0.8-1,1.6-1.5,2.3
	L385.1,44.7z M401.5,62.7c-2.4,3.7-4.8,7.4-7.2,11.2l-20-13.6l7.3-10.7C383.2,50.5,394,57.6,401.5,62.7z M639.8,165.1
	c0.1,4.3,0.3,9.9,0.6,15.9c-2.7,0.1-5.3,0-7.2-0.3c-0.7-0.1-1.5-0.3-2.6-0.8c-0.1,0-0.1-0.1-0.2-0.1c-1.1-0.5-2.5-1.2-4.2-2.2
	c2-3.5,8.8-11.8,13.6-17.5C639.8,161.8,639.8,163.5,639.8,165.1z M640.5,183c0.3,4.9,0.6,9.9,1,14.5c-2.7-0.5-9.7-2-16.6-3.8
	c2.9-6.7,4.8-10.3,5.5-11.7c0.9,0.3,1.7,0.6,2.4,0.7c1.5,0.2,3.3,0.3,5.3,0.3C639,183.1,639.7,183.1,640.5,183z M628.6,181.3
	c-0.9,1.6-2.7,5.2-5.7,12c-1.2-0.3-2.4-0.7-3.6-1c2.6-5.5,4.8-10.4,5.9-12.8C626.6,180.2,627.6,180.8,628.6,181.3z M597.4,401.6
	c0.5,1.1,1,2.3,0.9,3.9c-0.2,2.2-0.7,3.4-1.1,4.5c-0.4,0.8-0.7,1.7-0.8,2.8c0,0.4-0.2,1.3-0.3,2.4l-12.6-6.8
	c1.7-3.4,4.2-8.5,6.9-14.1l6.7,3.5C596.3,399.1,596.9,400.4,597.4,401.6z M386.5,491.9c-0.5-0.3-1.1-0.1-1.4,0.3
	c-0.2,0.3-4.1,6.6-5.8,9.8c-17.3-11.7-32.6-22.1-38.1-25.8c8.6-13,16.6-25,22.9-34.5l14.9,9.7c-0.4,0.6-0.9,1.2-1.3,1.9
	c-12.6,17.6-11.9,18.5-11.3,19.3c1.3,1.8,14.5,12.3,17.8,12.7c0.1,0,0.2,0,0.3,0c0.4,0,0.7-0.1,0.9-0.3c1-0.8,7.5-11.5,10.5-16.5
	l11.4,7.2c-6.4,10.7-12.9,21.9-19,32.6c-2.5-1.7-5-3.4-7.4-5c1.7-3,5.8-9.8,5.9-9.9C387.1,492.9,387,492.2,386.5,491.9z M99.2,443.4
	c0.8-0.9,1.5-1.9,2.3-2.8c2.2-2.7,4.3-5.3,6.3-7.8l19.7,17.2c-2.3,2.5-5.2,5.9-8.5,9.8C113.4,455.2,106.5,449.5,99.2,443.4z
	 M115.6,464c-5.3,6.3-11.4,13.8-17.7,21.6l-20.2-15.7c5.8-7.1,11.9-14.6,18.2-22.2C102.7,453.4,109.6,459.2,115.6,464z M109.1,431.3
	c2.7-3.3,5.2-6.4,7.7-9.4c3.5,2.7,6.8,5.2,9.7,7.5c2.9,2.3,6.9,5.6,11.4,9.4c-2.8,3.2-5.2,5.9-7.1,7.7c-0.6,0.6-1.2,1.3-2,2
	L109.1,431.3z M130.3,424.6c-2.9-2.3-6.2-4.8-9.7-7.5c7.7-9.5,13.9-17.2,19-23.6c8.3,7.3,15.7,13.7,20.7,18
	c-6.6,8.3-13,16.2-18.5,22.7C137.3,430.3,133.3,426.9,130.3,424.6z M158.3,362.3c-0.9,2-8.8,12.1-20.5,26.9c-4.8-4.2-9.9-8.6-15-13
	c9.2-11.2,17-20.8,19.9-24.3c4,2,7.6,3.9,10.1,5.4l5.8,3.6C158.5,361.4,158.4,361.9,158.3,362.3z M162.3,363.2L162.3,363.2l14.6,9
	l-9.3,12.9L154.1,375C162,364.7,162.2,363.8,162.3,363.2z M140.9,391.9c4.9-6.2,8.7-11,11.6-14.7l14.7,11l0,0l0,0l7.2,5.4
	c-4.2,5.4-8.5,11-12.8,16.4C156.6,405.5,149.2,399.1,140.9,391.9z M169.9,386.7l9.4-13l7,4.3c-3.1,4.2-6.6,8.7-10.2,13.4
	L169.9,386.7z M163.4,359c1.1-3.5,2.8-8.1,4.4-12c13.8,9.7,16.1,10.5,16.9,10.5c0.1,0,0.1,0,0.2,0c0.6-0.1,1.6-0.2,7.5-7.7
	c2.9,2,6.1,4.2,9.3,6.5c-0.2,0.4-0.4,0.7-0.6,0.9c-2.3,3.6-6.8,9.8-12.4,17.3L163.4,359z M147.2,237.7l22.7,15.6
	c-4.7,6.8-9.4,13.6-13.9,20.1l-23.7-15.5L147.2,237.7z M136.8,248.4c-0.9-1-1.8-2.5-1.5-3.4c0.2-0.7,2.4-0.9,4.5-0.7L136.8,248.4z
	 M221.1,148.9l-20.6-14.1c0.3-3.5,1.7-5.5,3.9-8.6l0.6-0.9c1.9-2.7,8.3-3.5,11.1-3.6l20.5,15c0.1,0.2,0.2,0.4,0.4,0.5l9,6.4
	c-6.7,9.8-13.3,19.2-18.8,27.1l-12.9-9.2l7.1-11.3C221.7,149.8,221.6,149.2,221.1,148.9z M232,118.8l3.6,3.2l0,0l5.5,4.9l-3.8,7.7
	L217.4,120l-1-11c0.8-0.5,2.8-1.6,6.5-0.7c4.2,1,8.5,5.7,9.9,7.2l-1.1,1.9C231.6,118,231.7,118.5,232,118.8z M250.9,117.1l-5,7.6
	l-3.3,0.9l-5-4.5l5.6-9.1l4.3,2.5L250.9,117.1z M249.5,113.3l1.8-2.7l2.1,2.7l-1.3,2L249.5,113.3z M236.1,119.7l-2.1-1.8l0.8-1.4
	l3.4-0.3L236.1,119.7z M481.8,117.3l15.3,10.4c-2,4.3-4.2,8.8-6.3,13L475.4,130c0.4-0.7,0.7-1.4,1.1-2.1
	C478.5,123.8,480.4,120.1,481.8,117.3z M477.6,121.1c-4-3.5-9.9-8.7-11.2-9.9c0.1-0.6,0.6-2.1,1.2-3.5l12.4,8.4
	C479.4,117.6,478.6,119.2,477.6,121.1z M489.9,142.5c-2.7,5.4-5.3,10.4-7.3,14.3l-15.8-9.9c2.5-5,5.2-10.3,7.7-15.1L489.9,142.5z
	 M374,426.9c3.6,2.3,9.8,6.2,15.8,10c-1.2,1.5-5.2,6.8-9.5,12.8l-15-9.7C368.9,434.6,371.8,430.1,374,426.9z M361.4,436l-4.2-2.7
	l8.4-12.3l4,2.8C367.5,426.8,364.7,431,361.4,436z M381.3,451.7C381.3,451.7,381.4,451.7,381.3,451.7c0.1-0.1,0.1-0.1,0.1-0.2
	c3.2-4.4,6.7-9.1,10.1-13.6c6.4,4,12.2,7.7,14.3,9c-2.1,4.7-19,33.3-21.5,36.3c-2.5-0.6-14.1-9.4-16.1-11.7
	C368.7,469.6,374.3,461.4,381.3,451.7z M397.4,466.1c7.5-12.6,9.7-17,10.4-18.6c1.2,0.1,4.4,0.3,5.5,0.4c0.8,0.4,3.8,3.7,6.6,7
	c-3.7,6-7.5,12.4-11.5,19l-11.4-7.2C397.2,466.4,397.3,466.2,397.4,466.1z M413.7,445.9c-1.5-0.3-6.1-0.5-6.3-0.5
	c-0.1,0-0.2,0-0.3,0c-2.4-1.4-19.5-12.2-32.1-20.2c1.2-1.8,2-3,2.3-3.5c0,0,0,0,0-0.1c0.1-0.2,5.1-8.3,11.2-17.9l44.1,30.2
	c-3.5,5.6-7.5,12.1-11.8,19.1C418.1,449.6,415,446.1,413.7,445.9z M374.6,307.5l-3.5-2.5c1.1-0.4,2.2-0.9,3.4-1.4
	C374.4,304.7,374.5,306.1,374.6,307.5z M369.1,303.6l-2.3-1.6c6.3-2,15.7-5.1,19.2-6.7l1.4,1C383.4,297.8,375.4,300.9,369.1,303.6z
	 M212.6,297.1c-0.5-0.3-1.1-0.2-1.4,0.3l-4.4,6.7l-8.9-6.1c3.8-5.9,7.7-11.8,11.3-17.3l30.5,21c-4.1,5.9-8.1,11.6-11.8,16.9
	l-19.5-13.3l4.4-6.7C213.2,298,213,297.4,212.6,297.1z M171.1,251.6l-8.8-6.1l12.5-21c3.3,2.3,6.7,4.6,10.2,7
	C180.4,238.2,175.7,245,171.1,251.6z M189.4,234.7c9.3,6.5,18.9,13.2,27.9,19.5c1,0.7,2,1.4,3.1,2.1c-3.2,4.7-7.6,11.5-12.6,19.1
	l-31.5-21.6C180.7,247.3,185.2,240.8,189.4,234.7z M174.3,256.6l31.6,21.7c-3.6,5.5-7.5,11.5-11.3,17.3l-32-21.9
	C166.3,268.1,170.3,262.3,174.3,256.6z M211.1,277.8c5-7.6,9.4-14.3,12.6-19.1c14,9.8,25.4,17.7,28.7,19.7c0.6,0.4,1.4,0.9,2.5,1.6
	c-4.5,6.4-8.9,12.7-13.1,18.8L211.1,277.8z M253,277.3c-3.3-2-14.6-9.9-28.6-19.7c1.4-2.1,2.6-3.8,3.3-4.8c0.9-1.3,2.8-3.9,5.4-7.5
	c0.9-1.2,1.8-2.6,2.9-4c10.2,7.1,20.8,14.5,30.9,21.5c-3.8,5.4-7.5,10.8-11.3,16.1C254.5,278.2,253.6,277.6,253,277.3z M215.8,196.4
	c0.5-0.8,0.9-1.3,1.1-1.6c0.6-0.9,4.6-6.4,10.3-14.6c5.3,3.7,19.3,13.4,31.8,22c-3.8,5.4-7.7,10.7-11.3,15.8
	C233.8,208.7,221.4,200.3,215.8,196.4z M243.4,218.4C243.4,218.4,243.3,218.5,243.4,218.4C243.3,218.5,243.3,218.5,243.4,218.4
	l-2.8-1.9C241.5,217.1,242.4,217.8,243.4,218.4z M289.7,146.6l-8.4-5.8l10-15.1l13.5,9.5c-3.2,5.4-6.1,10.3-8.3,13.7
	c-1.9,3-6.4,9.5-12.2,17.9l-14-9.3l10-15.1l8.3,5.7c0.2,0.1,0.4,0.2,0.6,0.2c0.3,0,0.6-0.2,0.8-0.4
	C290.3,147.5,290.2,146.9,289.7,146.6z M352.4,145.5l13.3,9.8c-3.6,5.4-6.9,10.5-9.4,14.1l-13.2-9.5
	C344.7,157.5,348,152.4,352.4,145.5z M346.5,148.3c-1.3-0.8-3.2-2.4-3.3-4.8c-0.1-2.1,0.2-3.3,0.4-3.9l5.9,4
	C348.5,145.3,347.5,146.8,346.5,148.3z M597,192.8c-0.5-0.3-1.1-0.1-1.4,0.4c-4,7.8-3.5,8.6-3.2,9.1c0.2,0.2,0.6,0.9,7.1,4.1
	l-0.8,1.2c-0.8,1.2-1.5,2.4-2.3,3.5c-4.8-3.2-9.2-6.2-10.9-7.6c-0.2-0.1-0.3-0.3-0.6-0.5l11-17.5c3.4,1.3,7.1,2.7,10.4,4.1
	c-2.8,7-5,12.6-6,15c-2.6-1.3-5.3-2.7-6.2-3.3c0.3-1.1,1.8-4.4,3.1-7.1C597.7,193.6,597.5,193,597,192.8z M528.5,236.3
	c0.9-1.8,1.8-3.6,2.7-5.5l17.7,9.8c-1.5,2.8-2.8,5.3-3.3,6.2c-0.1,0.2-0.4,0.6-0.7,1.1L528.5,236.3z M543.7,249.6
	c-5,7.4-18.9,27.2-27.7,39.8c-0.4-0.2-0.7-0.4-1-0.5c-1.3-0.6-5.6-3-10.7-5.8c2.3-4.5,4.8-8.8,7.1-12.7c2.7-4.4,9-17,16.3-32.2
	L543.7,249.6z M532.1,228.9c1.3-2.7,2.6-5.4,3.9-8.1l18.7,8.8c-0.9,1.6-2.9,5.5-4.8,9.2L532.1,228.9z M555.9,206.3
	c0.9-1.3,1.5-2.1,1.7-2.3c0.8-0.9,5.4-9.2,7.2-12.6c7.2,4.9,14,9.5,17.5,12l-9,14.4L555.9,206.3z M572.2,219.6l-7.7,12.3l-20-9.4
	c3.3-4.7,7.5-10.7,10.2-14.6L572.2,219.6z M556.1,202.6c-0.2,0.2-0.9,1.2-1.9,2.5l-8.2-5.5c2.7-5.7,5.2-11.1,7.5-15.9
	c3.1,2.1,6.4,4.3,9.7,6.5C560,196,556.6,202,556.1,202.6z M553,206.8c-3.4,4.8-8.6,12.3-10.4,14.8l-5.8-2.7
	c2.8-5.9,5.6-11.7,8.2-17.4L553,206.8z M556.5,230.4l21,9.8c-0.1,0.2-0.2,0.4-0.3,0.5c-0.9,1.3-3.6,4.8-7,9.3l-18.6-10.3
	C553.6,236,555.7,232,556.5,230.4z M566.3,232.8l17.6-28.1c0.1,0.1,0.3,0.2,0.4,0.3c1.8,1.5,6.3,4.6,11.1,7.8
	c-8.5,13.1-14.1,21.7-16.7,25.8L566.3,232.8z M597.1,213.9c2.4,1.6,4.8,3.2,7,4.6c-0.2,0.2-0.3,0.5-0.4,0.7
	c-3.3,4.8-13,20.6-15.2,24.1l-7.9-3.8C583.3,235.3,588.8,226.7,597.1,213.9z M583.4,201.8c-2.1-1.6-5.4-3.8-9.2-6.4l11.2-13.8
	c1.4,0.5,4.8,1.7,8.7,3.2L583.4,201.8z M584.5,179.3c-0.9,0.1-4.4,0.1-8.4-4c-1.1-1.2-3-2.8-5.3-4.6c2.1-1.8,4.4-3.7,6.1-5.1
	c0.2,0.1,4.2,0.9,6.7,1.2c0.7,0.1,3.9,1.6,8.1,3.6L584.5,179.3z M574.6,176.7c3.2,3.4,6.3,4.4,8.2,4.6l-3.2,3.9l-14.5-9.7
	c0.8-0.7,2.3-2,4.1-3.5C571.6,173.9,573.5,175.6,574.6,176.7z M563.4,174.4l-4.2-2.8c1-2.1,1.8-3.9,2.5-5.3c2,1.5,4.1,3.1,5.9,4.5
	C565.5,172.5,563.9,173.9,563.4,174.4z M578.4,186.8l-5.9,7.3c-5.7-3.9-12.3-8.3-18.1-12.2c1.5-3.2,2.8-6,4-8.5L578.4,186.8z
	 M550.9,179.7c-4.2-2.8-7.7-5.1-9.6-6.4c2-4.2,3.4-7.2,3.6-7.6c0-0.1,1.7-3.5,4.2-8.7c1.9,1.4,5.5,3.9,9.3,6.7
	C556.9,166.8,554.3,172.4,550.9,179.7z M550,181.5c-4.7,10-10.7,22.7-16.6,35.2l-11.4-5.8c3.5-4.7,12.8-23.9,18.4-35.8
	C542.6,176.6,546,178.9,550,181.5z M532.5,218.6c-4,8.4-8,16.8-11.6,24.2l-16.6-8.3c0.4-0.4,0.7-0.8,1-1.1
	c3.8-4.1,7.6-9.5,10.9-14.3c1.6-2.4,3.2-4.6,4.7-6.5L532.5,218.6z M519.9,244.6c-5.5,11.3-10,20.1-12.1,23.6
	c-0.1,0.1-0.2,0.3-0.2,0.4l-21.7-10.7c6-7.9,12.9-16.9,17-21.8L519.9,244.6z M506.6,270.4c-2,3.4-4,7-5.9,10.7
	c-8.5-4.8-18-10.3-20.1-12.1c-0.5-0.4-1.1-0.9-1.8-1.6c1.3-1.7,2.7-3.6,4.3-5.8c0.1-0.1,0.2-0.2,0.3-0.4c0.4-0.5,0.8-1.1,1.2-1.6
	L506.6,270.4z M507,335.3c-4.9-3.4-10.3-7.2-15.1-10.6c1.8-2.6,3.1-4.7,3.4-5.1c0.4-0.7,4.8-4.5,9.2-8.3c3.2,1.8,5.8,3.6,8.5,5.2
	c1.8,1.1,3.5,2.2,5.3,3.3C514.7,324.7,510.6,330.3,507,335.3z M520,320.9c2.4,1.4,4.9,2.7,7.8,4.1c2.2,1,5.7,2.6,10,4.6l-13.7,17.6
	c-1.6-1.1-7.9-5.5-15.5-10.8C512.9,330.8,517.4,324.6,520,320.9z M490.7,326.5c4.8,3.4,10.1,7.1,15,10.5c-4.1,5.6-7.5,10.2-8.5,11.3
	c-1.8-0.5-8.6-4.7-14.9-8.8c0.1-0.4,0.2-0.7,0.3-1.1C484.5,335.8,487.9,330.7,490.7,326.5z M485.2,331c0.8-2,1.8-4.2,2.8-6.4
	c0.3,0.2,0.7,0.5,1,0.7C487.8,327.1,486.5,329.1,485.2,331z M493.5,318.5c-0.3,0.4-1.6,2.4-3.3,5c-0.4-0.3-0.9-0.6-1.3-0.9
	c2.8-6.4,5.8-12.9,7.3-16.2c1.3,0.9,2.6,1.7,4.1,2.5c0.8,0.4,1.6,0.9,2.3,1.3C499.3,313.1,494.2,317.5,493.5,318.5z M496.7,288.8
	c-1.4,2.7-2.6,5.4-3.8,8c-3.7-3.6-6.1-7.2-8-9.9c-0.4-0.6-0.8-1.2-1.2-1.7c-1.2-1.8-3.7-4.5-6.6-7.8c1.6,0.9,3.2,1.8,4.8,2.8
	C486.7,283,491.8,285.9,496.7,288.8z M476.3,265c-1.4-1.3-2.9-2.8-4.5-4.3l7.2,0.8C478,262.7,477.1,263.9,476.3,265z M479.2,288.3
	c0.4,0.5,0.7,1.1,1.1,1.6c2.3,3.3,5.3,7.8,10.1,12.2c-1.5,3.4-2.7,6.5-3.6,9c-0.7,2.1-1.6,4.9-2.6,8.4c-2.6-1.8-4.8-3.4-6.3-4.4
	c2.2-3.5,3.8-6.5,3.8-7.7c0-3-11.7-11.9-18.2-16.7c2.5-3.7,5.3-8.2,7.5-11.7C474.7,282.9,477.9,286.4,479.2,288.3z M479.7,307.3
	c0,0.8-1.4,3.4-3.4,6.5c-0.1-0.1-0.3-0.2-0.4-0.3c-3.3-2.4-7.1-2.1-10.4-1.8c-1.1,0.1-2.1,0.2-3.1,0.2c-2.8,0-9.6-1-13.6-1.6
	c4.9-6.3,9.9-12.9,12.7-16.7c0.3-0.4,0.5-0.7,0.8-1.1C470.8,298.5,479.4,305.7,479.7,307.3z M450.8,312.6c4,0.6,9.2,1.3,11.6,1.3
	c1.1,0,2.2-0.1,3.3-0.2c3.2-0.3,6.3-0.5,9,1.5c0.1,0.1,0.3,0.2,0.5,0.3c-3.5,5.3-7.9,11.4-9.5,12.9c-1.9-1-8.7-5.5-13.1-8.3
	c-0.5-0.3-1.1-0.2-1.4,0.3s-0.2,1.1,0.3,1.4c3.8,2.5,12.9,8.4,13.9,8.7c0.1,0,0.2,0.1,0.3,0.1c0.3,0,0.5-0.1,0.8-0.3
	c1.2-0.9,6.3-7.6,10.2-13.6c1.6,1.2,4,2.8,6.8,4.8c0,0.2-0.1,0.3-0.1,0.5c-2.6,8.6-6,20-10.3,31.2c-5.4-3.8-20.3-14.4-27.2-19.1l0,0
	l0,0c-1.7-1.1-2.9-1.9-3.3-2.2c-1.5-0.9-2.7-1.4-3.5-1.7L450.8,312.6z M445.7,336.3c7.3,5.1,22,15.5,26.7,18.8
	c-1.3,3.4-2.7,6.7-4.2,9.9c-1.6-0.9-3.3-1.8-4.9-2.7l-0.4-0.2c-1.2-0.7-14.4-7-26-12.4L445.7,336.3z M435,348.8
	c-2.2-1.1-4.4-2.1-6.4-3l9.4-13.9c0.7,0.3,2,0.8,3.7,1.7c0.4,0.2,1.2,0.8,2.4,1.6L435,348.8z M426.7,344.9c-0.1-0.1-0.3-0.1-0.4-0.2
	c5.3-9.6,10.3-18.7,12.9-22.1c1.1-1.4,2.4-3.1,3.8-4.9c1.4-1.8,2.9-3.7,4.4-5.7c0.4,0.1,0.7,0.1,1.2,0.2L426.7,344.9z M419.5,341.7
	c-1-0.4-8.9-5.9-19.4-13.4c0.1-0.2,0.3-0.3,0.4-0.5c3.8-4.4,8.1-9.3,12.6-14.5l17.9,11.8c-2.7,4.5-6.1,10.7-9.6,17
	c-0.1,0.1-0.1,0.2-0.2,0.3C420.5,342.1,419.9,341.8,419.5,341.7z M420,344.8c-2,3.6-4,7.2-5.9,10.6l-6.1-4.6l5.6-9.7
	c2.6,1.8,4.4,2.9,4.8,3.1C418.8,344.3,419.4,344.5,420,344.8z M414.6,311.8c2.4-2.7,4.8-5.5,7.2-8.2l16.5,11.4
	c-1.2,1.6-2.4,3.1-3.4,4.4c-0.8,1-1.7,2.4-2.7,4L414.6,311.8z M439.6,313.3l-16.4-11.4c1.9-2.2,3.8-4.4,5.7-6.5l15.9,11.1
	C443,308.9,441.2,311.2,439.6,313.3z M410,308.7l-19.6-12.9c0.9-1.2,1.5-2.1,1.7-2.6c0.9-2,6.7-13.1,8.9-17.3l23.3,16.3
	C419.6,297.8,414.7,303.4,410,308.7z M337.9,196.1l-5.6,8l-2.8-1.8l-11.3-6.8c3.7-5.3,7.1-10.2,10.1-14.5c1.9,1.1,4,2.3,6.2,3.7
	c-1.1,1.9-1.8,3.5-1.8,4.4C332.8,192.3,336.1,195,337.9,196.1z M370.3,207.3c-1.4-0.2-2.6,1.5-4.6,4.5c-0.7,1-1.7,2.5-2.2,3
	c-1.5-0.6-7.4-4.3-12.9-7.9c7.3-9.7,6.6-10.5,6.2-11.1c-0.3-0.4-2.2-1.6-11.3-7l2.8-4c0.2,0.3,0.4,0.5,0.7,0.7
	c0.2,0.1,7.1,4.4,16.3,10c2.7,2.2,5.2,4.1,7.1,5.6c1.6,1.3,3,2.6,4.5,4c-0.8,1.3-1.7,2.6-2.7,4C373,208.3,371.4,207.4,370.3,207.3z
	 M373,210.8c-2.7,4.1-5.8,8.6-9,13.3l-17.9-11.5c1.2-1.5,2.2-2.9,3.2-4.1c4.9,3.2,12.7,8.1,14,8.3c0.1,0,0.1,0,0.2,0
	c1.1,0,2-1.3,3.8-4c0.8-1.2,2.2-3.3,2.8-3.6C370.9,209.4,372,210.1,373,210.8z M354.8,196.9c-0.8,1.9-5.7,8.7-10.5,14.8l-10.3-6.5
	l10.3-14.7C349.2,193.5,353.5,196.1,354.8,196.9z M362.9,225.9c-2.9,4.2-5.8,8.7-8.8,13.1l-29.2-20.7l8-11.4L362.9,225.9z
	 M382.5,211c3.9,3.9,9.1,8.6,17.9,14l-22.9,30.4l-17.9-12.5C365.5,234.5,374.8,221.5,382.5,211z M394.1,194.2
	c2.1-3.4,4.5-7.6,7.2-12.3l18.3,13.8l-6.2,10.4L394.1,194.2z M411.3,209.7l-3.2,5.4c-4.8-2.8-12-7.2-19.7-11.8
	c0.9-1.3,2.2-3.3,3.8-5.8l8.1,5c0,0,0.1,0,0.1,0.1C403.6,204.2,407.4,206.8,411.3,209.7z M387,189.8l-17.7-10.9l-11.3-8.2
	c3-4.5,6.2-9.4,9.3-14.1l20.9,15.5c0.1,0.1,0.2,0.1,0.2,0.1c2.3,0.9,4.6,1.8,6.9,2.8C391.7,181.6,388.7,186.8,387,189.8z
	 M358.4,175.1c1.9,1.9,3.5,3.2,4.7,4.1c0.1,0.3,0.4,0.6,0.7,0.8l21.1,13c-0.9,1.4-2.3,3.4-3.9,5.8c-4.4-2.7-8.7-5.3-12.7-7.7
	c-5.2-4.2-11.3-9.1-15.6-12.6l1.4-1.9c0.7-1.1,1.5-2.2,2.2-3.4C357.1,173.9,357.9,174.6,358.4,175.1z M352.4,175.4l-1.3,1.8
	c-2.4-2-4-3.3-4.1-3.3c-0.7-0.6-1.6-0.7-2.4-0.5c1.5-2,3-4.1,4.5-6.1c1.9,1.5,3.9,3.1,5.6,4.5C353.3,174.1,352.4,175.4,352.4,175.4z
	 M348,181.7l-4.3,6.1c-0.9-0.5-1.9-1.1-2.9-1.7c-1.1-0.6-2.3-1.3-3.5-2c1.4-2.2,3.2-5,5.3-7.9c0.1,0.7,0.4,1.4,1,1.9
	C343.7,178.2,345.4,179.6,348,181.7z M339.7,187.9c0.9,0.5,1.9,1.1,2.8,1.6l-3.5,4.9c-1.6-1.1-4.2-3.3-4.2-5.3
	c0-0.5,0.5-1.7,1.5-3.3C337.4,186.5,338.5,187.2,339.7,187.9z M328.4,204.1l2.7,1.7l-7.9,11.3l-13.4-9.5c2.5-3.6,4.9-7.1,7.3-10.3
	L328.4,204.1z M315.3,193.8l-31.6-19c0.6-0.9,1.3-1.8,1.9-2.6l31,19.9C316.1,192.7,315.7,193.3,315.3,193.8z M314.1,195.5
	c-2.3,3.2-4.7,6.7-7.1,10.2l-30.6-20.6c2.1-3,4.1-5.8,6.1-8.6L314.1,195.5z M305,208.5c-2.8,4-5.8,8.2-8.8,12.6
	c-0.7,1-1.4,2-2.1,2.9c-5.2-3.2-9.8-6.1-11.5-7.5s-9.7-7-19-13.6c3.6-5.1,7.3-10.2,10.8-15.1L305,208.5z M309.8,236.2l-10.2,16.5
	c-3.7-2.4-8.7-5.8-14.6-9.8c3.7-5.3,7.3-10.5,10.9-15.5l0,0C300.6,230.4,305.7,233.6,309.8,236.2z M281.3,218.1
	c0.7,0.6,1.8,1.3,3.1,2.2l-9.9,15.7c-7.5-5-15.7-10.5-23.5-15.7c3.6-5,7.4-10.3,11.3-15.7C271.7,211.2,279.6,216.7,281.3,218.1z
	 M286.2,221.5c1.9,1.2,4.2,2.7,6.7,4.2c-3.5,5-7.1,10.2-10.8,15.4c-1.9-1.3-3.8-2.6-5.8-3.9L286.2,221.5z M302.6,265.4l-9.5,13.3
	c-6.7-4.7-14.3-9.9-22.3-15.5c3.2-4.6,6.4-9.2,9.6-13.7L302.6,265.4z M304.2,266.6l21,15.1c-0.4,0.5-0.7,1.1-1.1,1.6
	c-0.2,0.3-3.2,4.5-8.1,11.5c-4-2.8-11.7-8.1-21.4-14.9L304.2,266.6z M303.2,255.1c-0.5-0.4-1.2-0.8-1.9-1.3l10.2-16.5
	c2.1,1.4,3.8,2.6,4.9,3.6c5,4.3,18.7,16.1,23.1,19.8c-3.4,5-6.6,9.7-9.4,13.9C320.9,267,305.3,256.5,303.2,255.1z M317.7,239.4
	c-1.3-1.1-3.4-2.6-6-4.3l0,0l0,0c-4.2-2.8-9.6-6.1-14.7-9.2c0.7-0.9,1.3-1.9,1.9-2.8c3-4.3,6-8.5,8.8-12.6l44.4,31.4
	c-3.9,5.8-7.9,11.7-11.6,17.2C336,255.1,322.6,243.6,317.7,239.4z M353.5,251.4c0.1-0.1,1.6-2.3,4.1-5.8l40.9,28.6
	c-4.5,6.9-10.9,16.6-12.5,18.5l-41.1-29.2L353.5,251.4z M394.1,284.8c-1.8,3.5-3.4,6.6-3.9,7.6c-0.2,0.4-0.7,1.2-1.5,2.3l-1-0.7
	C388.9,292.4,391.5,288.7,394.1,284.8z M399.7,270.9l-20.6-14.4l23-30.4c0.7,0.4,1.4,0.8,2.1,1.3c5.1,2.9,9.8,6,14.2,9.1
	L399.7,270.9z M407.1,222.7c-7.8-4.6-13-8.4-16.9-11.9c7.2,4.4,13.6,8.2,17.4,10.4c5.5,3.2,13.5,9.4,21.4,16.2
	C422.6,232.5,415.3,227.5,407.1,222.7z M410.4,216.5c-0.2-0.1-0.4-0.2-0.6-0.3l3.1-5.2c11.5,8.9,23.4,20.5,27.7,24.7
	c-0.9,0.9-1.7,1.7-2.5,2.4C428.5,229.5,417.8,220.8,410.4,216.5z M414.7,208l7.2-12l10.7-14.7c3.7,2.3,7.9,4.3,12.3,5.1
	c-6.4,12.7-14.1,27.7-16.7,32.8C423.9,215.5,419.3,211.5,414.7,208z M426,186.8c-0.7-0.4-10-4.9-21.7-10.1c1.9-3.3,3.9-6.9,6.1-10.6
	c5.7,3.6,10,6.3,11.3,7.3c0.7,0.5,1.4,1.1,2.1,1.7c2.1,1.6,4.4,3.4,6.9,5.1L426,186.8z M424.2,188.1l-3.5,5.8l-18.4-13.8
	c0.3-0.6,0.6-1.1,1-1.7C413.2,182.8,421.4,186.8,424.2,188.1z M396.3,173.2c-2.3-1-4.6-1.9-7-2.8l-20.9-15.5
	c2.4-3.6,4.7-7.1,6.9-10.3c8.5,5.2,18.7,11.4,27.4,16.7C400.5,165.6,398.3,169.6,396.3,173.2z M369.2,150c-0.8,1.2-1.6,2.5-2.5,3.7
	l-13.3-9.9c1.8-2.8,3.7-5.8,5.8-9c2.7,1.7,8,4.8,14.3,8.7C372.3,145.5,370.8,147.6,369.2,150z M347.5,166.1
	c-2.4,3.2-8.4,11.1-11.9,17c-2-1.2-4-2.4-6.1-3.6c6.5-9.3,11-15.7,12.4-17.8C343.2,162.7,345.3,164.3,347.5,166.1z M326.6,177.7
	c-6.7-4-12.4-7.5-13.4-8.5c0.2-1.9,6.5-10.9,12.7-18.5l12.9,9.5C337.1,162.6,332.8,168.9,326.6,177.7z M317.6,158.1
	c-7.5,10.3-6.7,11.4-6.2,12.2c0.6,0.9,4.8,3.6,14,9.1c-2.4,3.4-5,7.1-7.8,11.1l-31-19.9c6.4-9.1,11.3-16.2,13.3-19.4
	c2.2-3.4,5-8.2,8.2-13.5l16.1,11.9C323,151.1,320.3,154.5,317.6,158.1z M283.1,168.5c-0.8,1.1-1.6,2.3-2.4,3.4l-13.7-9.4l2.2-3.3
	L283.1,168.5z M279.5,173.6c-2.1,2.9-4.3,6-6.5,9.2l-13.4-9l6.3-9.5L279.5,173.6z M271,185.6c-3.5,4.9-7.1,10-10.7,15
	c-12.4-8.7-26.4-18.3-31.8-22c3.1-4.3,6.5-9.3,10.3-14.7L271,185.6z M277.7,247.4c-3.2,4.6-6.4,9.2-9.6,13.8
	c-10.1-7-20.7-14.4-30.8-21.5c3-4.1,6.4-8.9,10.2-14.1L277.7,247.4z M269.6,264.8c20.5,14.3,38.4,26.7,45.3,31.6
	c-3.2,4.6-7.2,10.3-11.7,16.7c-4.9-3.6-10-7.3-15-10.9l0,0l0,0c-11.9-8.6-23.1-16.7-29.9-21.3C262.1,275.6,265.9,270.2,269.6,264.8z
	 M322,300.5l28.3,19c-4.5,5.2-9.8,11.5-14.7,17.3c-1.7-1.2-6.7-4.9-13.4-9.9l0,0c-3.6-2.6-7.6-5.6-12-8.8
	C314.5,311.6,318.5,305.6,322,300.5z M322.7,299.3c3.7-5.5,6.7-10,8.8-13.1l29.5,21.2c-0.3,0.2-0.4,0.3-0.6,0.4
	c-0.6,0.6-4.3,4.8-9.2,10.6L322.7,299.3z M335.4,279.7c-0.1-0.1-0.2-0.2-0.2-0.3c-0.2-0.2-0.5-0.5-0.7-0.8l9.4-13.4l40.3,28.6
	c-3.5,1.4-11.5,4.1-19.3,6.6L335.4,279.7z M376.5,302.8c2.8-1.1,5.8-2.3,8.8-3.5c-2.4,3.1-5.4,6.9-8,10.1l-0.5-0.4
	C376.5,306.3,376.4,303.7,376.5,302.8z M389,297.8c0.2-0.1,0.3-0.1,0.5-0.2l19.2,12.6c-4.1,4.6-8,9.1-11.5,13.2L379,310.5
	C381.6,307.3,386,301.8,389,297.8z M398.4,330.4c5.4,3.8,10.1,7.1,13.6,9.6l-5.6,9.6l-14.9-11.3C393.5,336,395.8,333.3,398.4,330.4z
	 M413.1,357.2c-1.7,3-3.4,5.7-4.8,8l-24.1-18.6c0.3-0.4,0.6-0.7,0.8-0.9c0.6-0.7,2.4-2.8,5.1-5.9L413.1,357.2z M394.3,360.4
	l11.2,8.6c-0.2,0.2-0.3,0.4-0.5,0.6c-3.6,4.3-11.8,16.8-19.1,28.2l-7.5-5.1c5.5-3.6,10.3-8.1,11.9-13.1c1.6-5.2,2.1-9.4,2.6-12.8
	C393.4,364,393.6,361.9,394.3,360.4z M390.5,400.9c7.2-11.3,15.3-23.7,18.8-27.7c0.3-0.4,0.7-0.9,1.1-1.4l42,26.1
	c-3.5,7.9-5.7,13.6-6.2,14.7c-0.7,1.2-5.1,8.1-11.6,18.4L390.5,400.9z M411.5,370.2c3.6-5.3,8.6-14.1,13.5-23.1
	c11.9,5.5,35,16.5,36.6,17.4l0.4,0.2c1.5,0.8,3.2,1.8,5.1,2.8c-0.6,1.2-1.1,2.3-1.7,3.4c-4.7,8.9-8.9,17.8-12.2,25.2L411.5,370.2z
	 M468.9,372.8c0.6-1.1,1.1-2.2,1.7-3.3c8,4.4,18.1,10,29.1,16.1L486,414c-11.3-6.1-21.6-11.6-29.4-15.9
	C460,390.8,464.2,381.8,468.9,372.8z M471.8,367.1c3.8-8.2,7.1-17.2,9.9-25.6c11.4,7.5,14.7,8.9,16,8.9c0.4,0,0.6-0.1,0.7-0.3
	c0.5-0.4,4.5-5.7,9-11.9c7.4,5.2,13.7,9.5,15.4,10.8l-5,6.4l0,0l-9.1,11.6c0,0.1-0.1,0.1-0.1,0.2l-7.7,16
	C491.4,377.9,481.6,372.5,471.8,367.1z M509.3,370.5l34.3,18.5c-2.4,4.5-4.8,9-7.2,13.4c-10.4-5.7-21.8-11.9-33.6-18.3L509.3,370.5z
	 M510.2,368.7l0.3-0.6l8.5-10.9l32.8,16.7c-2.4,4.4-4.8,8.9-7.2,13.4L510.2,368.7z M520.2,355.6l9.8-12.7l29.7,16.2
	c-2.2,4.2-4.6,8.5-7,13L520.2,355.6z M531.3,341.3l8.4-10.8c8,3.7,18.3,8.5,28.3,13.1c-2.3,4.2-4.7,8.8-7.4,13.7L531.3,341.3z
	 M543,326c1-1.5,2.5-3.6,4.3-6.1c5.9,3,11.7,5.8,16.8,8.3l2.5,1.2c2.1,1,4.6,2.2,7.3,3.4c-1,1.9-2.1,3.9-3.2,6
	C560.9,334.3,550.9,329.7,543,326z M541.1,325.2c-0.2-0.1-0.4-0.2-0.6-0.3c-4.5-2.1-8.1-3.8-10.4-4.8c-5.6-2.6-9.6-5.1-14.2-8.1
	c-3.6-2.3-7.7-4.9-13-7.8c-2.6-1.4-4.8-2.9-6.8-4.5c1.3-2.8,2.7-5.8,4.2-8.8c9.1,5.4,17,10.3,20.8,13.2c6.6,5.1,15.5,10.2,24.4,14.9
	C543.6,321.6,542.1,323.7,541.1,325.2z M517.7,290.5c0.9-1.3,2.1-3,3.6-5.1l14.6,11.9c-1.1,1.6-2.2,3.1-3.1,4.3
	c-0.1-0.1-0.1-0.2-0.2-0.3C532.1,301,522.9,293.9,517.7,290.5z M522.4,283.7c7.2-10.3,18.4-26.2,22.9-32.9l15.8,11.3
	c-4.9,6.4-9.4,12.3-11.2,15.1c-2.3,3.5-8.1,11.7-12.8,18.5L522.4,283.7z M546.5,249.1c0.4-0.6,0.7-1.1,0.8-1.3
	c0.5-0.9,1.9-3.4,3.4-6.2l18.3,10.1c-0.7,0.9-1.4,1.8-2.1,2.8c-1.5,1.9-3,3.9-4.5,5.9L546.5,249.1z M570.8,252.7l17.1,8.5
	c-1.3,1.8-2.5,3.5-3.6,5l-15.5-10.8C569.5,254.4,570.2,253.5,570.8,252.7z M572.1,251c3.3-4.3,5.9-7.8,6.8-9.1
	c0.1-0.2,0.3-0.4,0.5-0.7l16.4,7.9c-0.1,0.2-0.2,0.4-0.3,0.6c-2.3,3.8-4.4,7-6.4,9.9L572.1,251z M590.3,244.1
	c2.4-3.9,11.8-19.2,15-23.8c0.1-0.2,0.3-0.4,0.5-0.7c1.8,1.2,3.3,2.1,4.2,2.7c-4.2,8.8-8.9,17.9-13.1,25L590.3,244.1z M605.1,216.7
	c-2.1-1.4-4.5-2.9-6.9-4.5c0.7-1.1,1.5-2.3,2.3-3.5l1.2-1.8c0-0.1,0.1-0.2,0.2-0.4c0,0,0,0,0-0.1s0.1-0.1,0.1-0.2
	c0.9-2,3.3-8,6.3-15.8c1,0.4,2,0.8,2.8,1.2c1.5,0.7,3.4,1.3,5.4,2C612.5,202.1,607.8,211.8,605.1,216.7z M607.2,187.6
	c-3.5-1.4-7.6-3-11.2-4.4l0,0c-3.9-1.5-7.4-2.7-9.2-3.4l7-8.6c5.3,2.6,11.6,5.9,16.6,8.5C609.2,182.5,608.2,185.1,607.2,187.6z
	 M583.9,164.7c-1.4-0.1-3.4-0.5-4.8-0.8c0.2-0.1,0.3-0.2,0.4-0.3c2-1.4,9.2-7.6,11.4-9.5c6.6,4.6,11.6,8.2,13,9.3
	c3.5,2.9,6.8,5.6,9.7,7.8c-0.9,2.2-1.7,4.4-2.6,6.6C605.2,174.8,586.3,164.9,583.9,164.7z M578.3,161.9c-1.3,0.9-5.5,4.4-9.1,7.5
	c-2.1-1.6-4.4-3.4-6.6-5.1c0.3-0.6,0.5-1,0.6-1.2c0.4-0.8,5.4-10,11-20.6c5.2,3.6,10.4,7.2,15,10.3
	C586.6,155,580.1,160.7,578.3,161.9z M571.7,138.4c-3.7-2.5-7.3-5-10.6-7.3c1.2-2.7,2.3-5.3,3.4-7.7c0.5-1.2,1.1-2.5,1.8-3.9
	l12.4,5.9C576.5,129.5,574.1,134,571.7,138.4z M570.8,140.2c-5.9,11-11.2,20.8-11.3,21c0,0,0,0.1-0.1,0.1c0,0-0.1,0.2-0.2,0.5
	c-3.9-2.9-7.5-5.4-9.3-6.7c3-6.2,6.8-14.4,10.3-22.2C563.6,135.3,567.2,137.7,570.8,140.2z M541.7,164.2c0,0.1-1.4,3-3.3,7.2
	c-1.8-1.2-4.7-3.2-7.9-5.4c3.2-5.5,13.9-24.1,14.2-25l0.1-0.3c0.4-1.3,1.7-5.3,3.8-7.5c0.3-0.3,0.2-0.7,0-1c-0.3-0.3-0.7-0.2-1,0
	c-1.8,1.9-3,4.9-3.7,6.8l-7.5-4c2.5-4.1,5.1-8.5,7.7-13.1c2.7,1.8,7.5,5.1,13.2,9C550.3,146.6,541.9,164,541.7,164.2z M543.4,140.4
	v0.1c-0.3,0.9-8.4,14.9-14.1,24.7c-2.4-1.7-5-3.5-7.6-5.3c2.7-4.6,7.9-13.2,14-23.7L543.4,140.4z M537.5,173.3
	c-5.6,11.9-15.2,31.8-18.4,35.8c-0.1,0.1-0.1,0.2-0.2,0.3l-20.7-10.6c10.3-16.9,19.3-31.7,21.5-35.4c0.1-0.2,0.5-0.8,1-1.7
	C527.3,166.3,534.3,171.1,537.5,173.3z M517.6,211c-1.4,1.9-2.9,4-4.4,6.2c-0.7,0.9-1.3,1.9-2,2.8l-19.1-11.5c1.6-2.7,3.3-5.4,4.9-8
	L517.6,211z M510.1,221.7c-0.6,0.9-1.2,1.7-1.9,2.6L489,213.8c0.7-1.2,1.4-2.4,2.2-3.6L510.1,221.7z M507,225.9
	c-1.4,1.8-2.8,3.6-4.3,5.1c-3.8,4.1-14.6,18.2-22.3,28.5l-10.9-1.2c-1.9-1.9-3.7-3.6-4.9-4.9c4.5-7,13.7-22.1,23.4-37.9L507,225.9z
	 M465.3,272.9c0.6,0.6,1.2,1.3,1.8,1.9c-2.7,4.4-7,11.4-10,15.5c-2.3,3.2-6.2,8.3-10.3,13.6l-15.8-11c9.7-11.2,18.8-21.5,24.5-28.1
	c1.4,0.9,2.9,1.8,4.6,2.8C461.9,269.3,463.6,271.1,465.3,272.9z M426.6,289.7L402,272.5l18.8-34.4c7.6,5.4,14.2,10.8,19.9,15.5
	c3.4,2.8,6.4,5.2,9.1,7.2c0.4,0.3,0.8,0.6,1.3,0.9C445.2,268.4,436.2,278.7,426.6,289.7z M429.7,220.6c2.4-4.8,10.6-20.7,17.3-34
	c7.1,0.8,14.3,4.2,17.3,5.7c-9,17.6-19.2,37.4-20.2,39.2c-0.3,0.5-0.7,1-1.2,1.6C440.4,230.7,435.6,225.9,429.7,220.6z M448,184.7
	c4.5-8.8,8.1-16.1,8.6-17.2c0.3-0.9,2.3-4.7,4.9-10c1.5,1,2.5,1.6,2.9,1.8c1.5,0.6,7.6,5.4,12.2,9.2c-2.4,4.6-6.6,13-11.3,22.1
	C462.3,189,455.2,185.7,448,184.7z M465.1,157.3c-0.3-0.1-1.3-0.7-2.7-1.7c1.1-2.1,2.2-4.5,3.5-6.9l15.8,9.9c-1.9,3.6-3.1,5.9-3.2,6
	c0,0.1-0.4,0.7-1,1.9C474.1,163.7,467.1,158.1,465.1,157.3z M460.7,154.5c-3.9-2.6-9.9-6.8-16.3-11.3l12.7-23.5l15.7,11
	C468.7,138.6,464.2,147.5,460.7,154.5z M459.8,156.3c-2.8,5.5-4.7,9.5-5.1,10.4c-0.5,1.2-4.2,8.7-8.8,17.7c-8-1.1-15.3-6.8-20.7-11
	c-0.2-0.2-0.5-0.4-0.7-0.5c1.8-2.6,7.4-10.8,8.1-11.9c0.9-1.5,0.7-5.8,0.6-7c0-0.4-0.2-0.7-0.6-0.9l-11.9-5.5
	c2.4-4.3,4.9-8.8,7.4-13.3C435.3,139.4,451.6,150.9,459.8,156.3z M431.2,154.7c0.1,2.2,0,4.7-0.4,5.2c-0.6,1-6.1,9-8,11.7
	c-1.5-1.1-5.8-3.9-11.4-7.4c2.7-4.7,5.5-9.7,8.3-14.8L431.2,154.7z M403.7,159.5c-8.7-5.3-18.8-11.5-27.2-16.6
	c6-8.9,10.8-15.7,12-17c0.9,0.2,3.3,1.7,5.1,2.8c5.1,3.1,7.4,4.3,8.7,3.5c1.6-1,6.4-7.2,8.1-9.6l9.6,6.5
	C414.5,139.5,408.8,150,403.7,159.5z M401.4,130.3L401.4,130.3c-1,0-4.5-2.1-6.7-3.4c-4-2.4-5.6-3.3-6.7-3.1
	c-0.6,0.1-1.3,0.3-13.3,18c-6.3-3.8-11.6-7-14.4-8.7c5.9-9.2,12.8-19.9,19.9-31l28.5,19.3C406.2,124.9,402.5,129.5,401.4,130.3z
	 M378.6,98.4l-20.7-14l14.6-21.3l20.1,13.6C387.9,84,383.2,91.3,378.6,98.4z M377.5,100.2c-3.5,5.5-7,10.9-10.3,16l-20.9-14.9
	l10.4-15.2L377.5,100.2z M366.1,117.9c-2.2,3.4-4.4,6.8-6.4,9.9l-18.5-12.7l-14.5-9.7c1-1.9,1.8-3.3,2.2-4c0.6-1.1,2.1-3.7,4.1-7.2
	L366.1,117.9z M340,116.8l18.6,12.7c-0.5,0.8-1,1.6-1.5,2.4c-0.1,0.1-0.1,0.1-0.2,0.2c0,0.1-0.1,0.2-0.1,0.2
	c-2.2,3.4-4.2,6.5-6.1,9.4L318.4,120c2.8-4.9,5.4-9.4,7.3-12.8L340,116.8z M341.9,138.4c-0.4,0.9-0.9,2.5-0.7,5.2
	c0.2,3.3,2.5,5.4,4.2,6.4c-2.6,4-4.5,6.9-5.5,8.5l-30.7-22.7c2.7-4.6,5.5-9.4,8.2-14L341.9,138.4z M305.8,133.5l-13.4-9.4L301,111
	l12.8,8.6C311.3,124.1,308.5,128.9,305.8,133.5z M290.8,122.9l-16.5-11.6c3-4.7,5.7-9,8.1-12.9l12.9,8.7l0,0l0,0l4.1,2.8
	L290.8,122.9z M289.7,124.6l-10,15.1l-16.6-11.4c3.5-5.3,7-10.4,10.1-15.3L289.7,124.6z M278.6,141.3l-10,15.1l-16.9-11.2
	c3.5-5.1,7-10.2,10.4-15.3L278.6,141.3z M267.4,158.1l-2.1,3.2l-16.8-11.6c0.7-1,1.3-1.9,2-2.9L267.4,158.1z M264.2,163.1l-6.3,9.6
	l-17.2-11.6c2.2-3.1,4.4-6.3,6.6-9.6L264.2,163.1z M215.2,164.6l-3.4,5l1.8-6.2L215.2,164.6z M208.4,174l-15.2-11.1l6.5-9.2
	l12.1,8.6L208.4,174z M207.6,175.9l-6.3,9.3c-4.5-3.5-9.9-7.6-15.7-11.7l6.3-8.9L207.6,175.9z M216.8,165.8l9.3,6.6
	c-7.9,11.3-13.4,19-13.6,19.3c-0.3,0.5-0.7,0.9-1,1.4c-1.9-1.6-4.9-3.9-8.6-6.7L216.8,165.8z M212.9,200.8l31.2,22.4
	c-3.8,5.2-7.2,10-10.2,14.1c-11.6-8.1-22.4-15.6-31.2-21.8C206.8,209.5,210.3,204.4,212.9,200.8z M232.6,239c-1,1.4-2,2.7-2.8,3.9
	c-2.6,3.6-4.4,6.2-5.4,7.5c-0.7,1-1.8,2.6-3.3,4.9c-1-0.7-2-1.4-3-2.1c-8.9-6.3-18.6-13-27.9-19.5c4.1-5.9,7.9-11.4,11.3-16.4
	C210.2,223.4,221.1,231,232.6,239z M185.7,230.5c-3.6-2.5-7.1-4.9-10.4-7.2c0-0.3-0.2-0.6-0.5-0.7c-0.2-0.1-0.5-0.2-0.8-0.1
	c-12.6-8.6-23.1-15.6-27.8-18.2c-5-2.7-11.7-7-18.5-11.7c4.8-5.9,9.3-11.3,12.8-15.3c5.7,3.5,36,22.2,40.5,25.5c1,0.7,7,5,16.1,11.3
	C193.3,219.4,189.6,224.9,185.7,230.5z M145.5,205.5c4.7,2.5,15,9.4,27.5,18l-6.2,10.5h-0.1c-0.1,0-1.4,0.2-1.8-1.3
	c-0.2-0.5-0.7-0.8-1.3-0.7c-0.5,0.2-0.9,0.7-0.7,1.3c0.5,1.7,1.7,2.4,2.7,2.6l-5.1,8.6l-13-8.9l0,0l0,0l-35-24
	c4.6-5.9,9.5-12,14.2-17.8C133.7,198.4,140.5,202.8,145.5,205.5z M161.3,275.4l32.1,22c-3.3,5.1-6.5,10.1-9.6,14.7l-24.2-16.6l0,0
	l0,0l-8.3-5.7C154.5,285.2,157.9,280.3,161.3,275.4z M153.1,306.7l6.2-9l23.4,16.1c-4.9,7.6-9.1,14.1-11.9,18.6l-17.3-12.1
	c1.3-2.1,4.5-7.6,4.8-8.4C158.6,311.3,159,310.3,153.1,306.7z M170.9,339.9c0.2-0.4,1-1.6,2.1-3.5c2.9,2,9.3,6.5,17.6,12.3
	c-3,3.7-5.2,6.3-6.1,6.8c-1.5-0.5-8.3-5-16-10.4C169.5,342.9,170.4,341.1,170.9,339.9z M174.2,334.7c2.7-4.3,7-10.9,11.9-18.6
	l19.1,13.1c-4.5,6.4-9.4,12.9-13.3,17.8C185.2,342.4,179.1,338.2,174.2,334.7z M157.6,296.6l-12.3,17.9l-7.4-5.2
	c3.7-5.3,7.9-11.4,12.3-17.8L157.6,296.6z M151.9,308.4c1.8,1.1,3.7,2.4,4.3,3.1c-0.7,1.2-2.8,4.9-4.4,7.6l-4.9-3.4L151.9,308.4z
	 M169.7,334.1c-1.3,2-2.1,3.4-2.4,3.9c-0.6,1.1-1.3,2.7-2.1,4.7c-9.3-6.6-18.9-13.7-21.2-15.8c0.8-1.2,3.1-4.2,5.4-7.1L169.7,334.1z
	 M193.6,348.3c1.1-1.4,2.4-3.1,3.8-5c4.1-5.4,8-10.8,9.4-12.8l8.6,5.9c-5.7,8.3-10.1,14.6-12.6,18.4
	C199.7,352.5,196.6,350.4,193.6,348.3z M187.2,314.4c3-4.7,6.3-9.7,9.6-14.7l30,20.5c-3.6,5.2-7,10.1-10.1,14.5L187.2,314.4z
	 M229.5,322.1l45.7,31.2c-3.5,5-7,10-10.4,15.1l-45.3-31.8C222.5,332.2,225.9,327.4,229.5,322.1z M230.7,320.4
	c3.7-5.3,7.7-11,11.8-16.9l45.6,31.3c-3.8,5.4-7.7,11.1-11.7,16.8L230.7,320.4z M244.5,300.8c4.2-6.1,8.7-12.4,13.2-18.8
	c6.6,4.5,17.6,12.4,29.3,20.9l-6.2,7.7c-0.2,0.3-0.2,0.7,0.1,1c0.1,0.1,0.3,0.2,0.4,0.2c0.2,0,0.4-0.1,0.5-0.3l6.3-7.8
	c4.8,3.5,9.8,7.1,14.5,10.6c-3.8,5.5-8,11.5-12.5,17.9L244.5,300.8z M309.4,319.2c4.2,3.1,8.2,6,11.7,8.6c0.1,0.8,0.3,3-0.6,4.8
	c-0.6,1.2-0.9,2.6-1.1,3.8s-0.4,2.4-0.9,3c-0.8,1-5.6,4.4-8.4,6.4l-12.6-8.7C301.6,330.9,305.6,324.9,309.4,319.2z M319.6,340.3
	c0.8-1,1-2.3,1.2-3.7c0.2-1.2,0.4-2.4,0.9-3.4c0.7-1.5,0.9-3.2,0.8-4.4c6.1,4.4,10.5,7.7,12.1,8.9c-5.9,7-11.2,13.2-13.3,15.8
	l-10.1-6.9C313.9,344.8,318.6,341.5,319.6,340.3z M361.8,309.3c0.1-0.1,0.5-0.3,1-0.6l29,20.9c-5.9,6.7-10,11.5-10.9,12.5
	c-3.3,3.8-23,24.7-29.8,31.9l-6-4.1L323,354.7C336.5,338.9,360.3,310.7,361.8,309.3z M381,350.1l11.7,9c-1,1.9-1.3,4.3-1.7,7.4
	c-0.4,3.3-1,7.4-2.5,12.5c-1.5,4.7-6.2,8.9-11.8,12.5l-21.1-14.4C361.4,371,374.1,357.5,381,350.1z M384.1,400.7
	c-5.9,9.2-10.8,17.1-11.3,18c-0.2,0.2-0.9,1.4-2.3,3.4l-20.6-14.7c4.1-2.2,7.2-3.9,8.7-4.6c0.6-0.3,1.2-0.5,2-0.9
	c3.8-1.7,9.4-4.1,14.8-7.3L384.1,400.7z M363.8,419.9l-8.4,12.4L332,417.5c5.6-3.2,11.2-6.3,15.9-8.9L363.8,419.9z M354.2,433.9
	l-10,14.4l-30.4-20.5c4.5-2.6,10.2-5.9,16.1-9.2L354.2,433.9z M356,435l4.3,2.7c-2.9,4.4-6.2,9.4-9.8,14.8l-4.5-3L356,435z
	 M403.3,490.6l13.3,9.5l-12,19.1c-4.2-2.9-8.5-5.8-12.9-8.7C395.5,504,399.4,497.3,403.3,490.6z M404.3,488.8
	c2.3-3.9,4.5-7.7,6.8-11.5l14.1,9l-7.5,12L404.3,488.8z M412.2,475.6c3.9-6.6,7.8-13,11.5-19l14.7,8.8l-12,19.3L412.2,475.6z
	 M424.8,454.8c3.9-6.4,7.6-12.4,10.9-17.7c2.4,1.9,6.9,5.3,10.8,7.8c0.6,0.4,1.2,0.8,1.9,1.2l-8.4,16.7l-0.5,0.8L424.8,454.8z
	 M447.6,443.2c-3.9-2.5-8.5-6-10.8-7.8c5.1-8.2,9-14.5,11.2-17.9l11.4,6.7l-10,20C448.7,443.9,448.1,443.5,447.6,443.2z
	 M461.1,425.3l15.3,9l-8.1,16.8c-1.3-0.2-2.2-0.3-2.6-0.4c-1.6-0.1-9-2.7-14.6-5.6L461.1,425.3z M449,415.8c0.4-0.7,0.7-1,0.7-1.1
	c0.1-0.1,0.1-0.2,0.2-0.4c0-0.1,2.3-5.9,6-14.3c5.1,2.7,15.9,8.6,29.4,15.8l-8,16.6L449,415.8z M487,416.8
	c9.9,5.3,21.1,11.3,32.2,17.3c-2.2,4.2-4.4,8.2-6.4,11.9l-31.6-17.2L487,416.8z M487.9,415l6.7-13.9l33.1,17.4
	c-2.6,4.7-5.1,9.4-7.5,13.8C509.3,426.5,498.2,420.5,487.9,415z M495.5,399.3l6.1-12.7c10.8,5.9,22.3,12.3,33.5,18.3
	c-2.1,4-4.3,7.9-6.4,11.8L495.5,399.3z M536.8,405.9c13,7,25.3,13.6,35.1,18.6c-1.8,3.7-3.8,7.7-5.8,11.9l-35.7-18.7
	C532.6,413.8,534.7,409.9,536.8,405.9z M538.1,403.5c2.4-4.5,4.8-9,7.2-13.4l34.7,18.8c-0.7,1.4-1.1,2.2-1.1,2.3
	c-0.3,0.5-2.7,5-5.8,11C563.9,417.3,551.8,410.9,538.1,403.5z M546.4,388.3c2.4-4.5,4.9-9,7.2-13.4l34.3,18.1
	c-2.8,5.6-5.3,10.7-6.9,14.1L546.4,388.3z M588.8,391.1L554.6,373c2.4-4.5,4.8-8.8,7-13l8.3,3.7c0.1,0.1,0.3,0.1,0.4,0.1
	c0.4,0,0.8-0.2,0.9-0.6c0.2-0.5,0-1.1-0.5-1.3l-8.2-3.6c2.6-4.9,5.1-9.5,7.4-13.7c9.8,4.5,19.1,8.9,25.7,11.9c2.2,1,4.2,2,6.1,2.8
	c0.7,0.3,1.4,0.6,2,0.9c-0.3,1.2-0.6,2.1-0.9,2.7C601.3,365.8,594.7,379.2,588.8,391.1z M597.9,351.5c-6.5-3-15.7-7.3-25.4-11.8
	c1.2-2.1,2.2-4.2,3.3-6c8.9,4.1,20.4,9.4,29.5,15.4c-0.2,1.9-0.4,3.8-0.7,5.5c-0.2-0.1-0.5-0.2-0.7-0.3
	C602.1,353.4,600.1,352.5,597.9,351.5z M578.4,328.9c3.1-5.7,5-9.3,5.3-9.9c0.4-0.8,1.1-2,2-3.4l21.3,11.7c-0.2,3.6-0.5,9.7-1,15.8
	C597.1,337.5,587,332.8,578.4,328.9z M585,312.8l-17.9-9.8c-0.5-0.3-1.1-0.1-1.4,0.4c-0.3,0.5-0.1,1.1,0.4,1.4l17.8,9.8
	c-0.9,1.4-1.6,2.7-2,3.5c-0.3,0.6-2.2,4.2-5.3,10c-2.8-1.3-5.3-2.5-7.5-3.5l-2.5-1.2c-4.9-2.3-10.4-5-16-7.9
	c6.5-9.4,15.2-21.6,20.9-29.4l22.3,13.6C592.2,301.7,588,308,585,312.8z M548.6,314.4c-5.5-2.9-11.1-5.9-16-9
	c3.8-5.4,15.4-21.8,19-27.2c1.8-2.7,6.3-8.6,11.1-15l15.3,10.9c-0.8,1-1.6,1.9-2.4,2.9l-1.6,1.9
	C569.5,284.7,557.2,302.2,548.6,314.4z M564,261.6c1.2-1.5,2.4-3.1,3.6-4.6l15.5,10.9c-1.2,1.6-2.5,3.2-3.7,4.7L564,261.6z
	 M591.7,259.3l24.1,12.8c-0.4,2.4-1.6,9.9-2.4,16.2l-30.4-17C585.8,267.7,588.5,264,591.7,259.3z M592.8,257.6
	c1.4-2.1,2.9-4.4,4.4-7c0.1-0.2,0.3-0.5,0.5-0.7l23,11l-4.3,9.2L592.8,257.6z M621.8,263.5l4.1,11.7l-7.7-4.1L621.8,263.5z
	 M623.5,262.3l8.5,4.1c-1.7,3.3-3.2,6.2-4.2,8.2L623.5,262.3z M598.7,248.2c1.9-3.2,3.9-6.8,5.9-10.6l33.9,15.8
	c-1.8,3.6-3.8,7.5-5.6,11.1L598.7,248.2z M605.6,235.7c2.1-4.1,4.2-8.3,6.2-12.4l32.8,18.4c-1,1.7-2.9,5.4-5.1,9.8L605.6,235.7z
	 M610.9,220.4c-0.9-0.6-2.3-1.5-4.1-2.6c2.8-5,7.6-14.9,11.7-23.7c1.2,0.4,2.4,0.7,3.6,1c-0.4,0.9-0.8,1.9-1.2,2.9
	C618.6,203.6,615,211.8,610.9,220.4z M617.5,191.7c-2.1-0.7-4-1.3-5.5-2c-0.9-0.4-1.9-0.8-2.9-1.3c1.1-2.7,2.2-5.6,3.4-8.6l0,0
	c0-0.1,0.1-0.2,0.1-0.2c0.9-2.3,1.8-4.6,2.7-7c1.5,1.2,3,2.2,4.4,3.2l0,0c1.4,1,2.7,1.9,3.9,2.6
	C622.5,180.8,620.2,185.8,617.5,191.7z M616,170.5c1.7-4.3,3.3-8.5,4.8-12.5l5.3,1.9c-0.4,0.8-0.7,1.5-0.8,1.7
	c-0.9,1.9-4.2,9-5.5,11.7C618.7,172.5,617.4,171.6,616,170.5z M621.6,156.2c4.2-10.9,7.5-19.5,7.8-20.6c0.2-0.7,0.9-3,1.9-6.3
	l8.1,3.1c-1.9,4-9,18.7-12.3,25.7L621.6,156.2z M627.4,135c-0.3,1.1-3.7,10.2-8.1,21.4l0,0l0,0c-1.6,4.1-3.3,8.4-5,12.8
	c-2.7-2.1-5.8-4.5-9.2-7.4c-2.6-2.1-16.2-11.6-30-21.1c5.6-10.4,11.6-21.5,14.5-26.8c0.1-0.2,0.2-0.4,0.3-0.6l39.4,15.2
	C628.4,131.8,627.6,134.3,627.4,135z M579.7,123.6l-12.4-5.9c1.5-2.8,3.2-5.9,5.1-9.1c4.6,3,9.5,4.8,12.4,5.6
	C583.4,116.7,581.6,120,579.7,123.6z M561.4,122.1c-1,2.2-2,4.6-3.1,7.1c-1.7-1.1-3.3-2.2-4.7-3.2c3.5-7.9,8.3-18.6,11.1-24.1
	c0.8,0.9,1.7,1.8,2.7,2.8c0.7,0.7,1.5,1.4,2.3,2C566.2,112.2,563.2,117.7,561.4,122.1z M551.8,124.7c-2.8-1.9-5-3.4-6.6-4.5
	c4.8-8.1,9.7-16.4,14.4-24.4c1,1.3,2.2,2.8,3.6,4.4C559.7,106.7,553.7,120.4,551.8,124.7z M517.2,156.8c-6.4-4.4-11.7-8.1-11.8-8.2
	c-0.5-0.3-1.1-0.2-1.4,0.3s-0.2,1.1,0.3,1.4c0.1,0.1,5.5,3.8,11.9,8.3c-0.4,0.7-0.8,1.4-1.2,2c-1.1,1.9-2.3,3.8-3.5,5.8
	c-2.9-1.9-8-5.3-11.5-7.7c-0.3-0.2-0.7-0.1-0.9,0.2s-0.1,0.7,0.2,0.9c2.2,1.5,8.2,5.5,11.6,7.7c-1.2,2-2.5,4.1-3.8,6.2l-4.4-2.6
	c-0.3-0.2-0.7-0.1-0.9,0.2c-0.2,0.3-0.1,0.7,0.2,0.9l4.4,2.6c-1.7,2.7-3.4,5.5-5.1,8.3l-11.5-7.6c-0.5-0.3-1.1-0.2-1.4,0.3
	s-0.2,1.1,0.3,1.4l11.5,7.6c-2.3,3.8-4.6,7.5-6.9,11.3l-10.8-6.4c-0.5-0.3-1.1-0.1-1.4,0.4s-0.1,1.1,0.4,1.4l10.7,6.4
	c-1.5,2.5-3.1,5.1-4.6,7.6l-9.7-5.9c-0.5-0.3-1.1-0.1-1.4,0.3c-0.3,0.5-0.1,1.1,0.3,1.4l9.7,5.9c-14.7,24.1-27.5,44.9-28.9,46.6
	c-0.2,0.2-0.6,0.7-1.2,1.4c-3.6-3.7-8.8-8.8-14.7-14.2c2.2-2,5.2-5.1,6.6-7.4c1.9-3.3,33.2-64.5,34.5-67.1
	c0.7-1.4,18.1-33.7,25.2-52.1c3.4-8.9,13.4-24.9,23.3-39.9c11.4,7.2,20.4,13,21.9,14c1,0.7,1.9,1.5,2.8,2.5
	C543.4,112.6,528.2,138.3,517.2,156.8z M518,86.6c-10.8-7.3-15.2-10-17.2-11l8.8-14.4c5.9,3.7,12,7.6,17.6,11.1
	C524.1,77,520.9,81.8,518,86.6z M516.9,88.3c-3.7,5.9-7,11.6-9.6,16.4c-4.6-3.2-10.4-7.6-11.9-9.8c0-0.1-0.1-0.1-0.1-0.2
	c-0.1-0.1-0.1-0.3-0.2-0.4c-1.1-3.1-2-7.9-1.8-9.8c0.2-1.2,3.9-5,5.3-6.5c0.4-0.4,0.7-0.7,0.9-1C501.9,78.3,510.3,83.9,516.9,88.3z
	 M494.5,97.1c2.7,3,8.6,7.3,11.9,9.5c-1.2,2.4-2.2,4.6-2.9,6.5v0.1l-13.8-9.3C491.6,100.9,493.5,98.4,494.5,97.1z M502.6,115.1
	c-1.3,3.3-2.9,6.9-4.7,10.7l-15.2-10.3c0.6-1.2,1.1-2.1,1.4-2.8c1.2-2.3,2.7-4.8,4.3-7.2L502.6,115.1z M482.3,111.8
	c-0.3,0.6-0.7,1.5-1.3,2.5l-13.3-9l0,0l-10.9-7.4l6.3-9.3l23.5,15.7C485.1,106.8,483.5,109.4,482.3,111.8z M466,106.5
	c-1.9,4.6-1.6,5.1-1.4,5.5c0.1,0.2,0.4,0.7,12.1,10.9c-0.6,1.3-1.3,2.6-2,3.9c-0.3,0.6-0.6,1.3-1,1.9l-23.5-16.3l8.7-10.7L466,106.5
	z M455.3,118.5L442.6,142c-3.4-2.4-6.9-4.9-10.2-7.2l13.7-22.7L455.3,118.5z M430.8,133.6c-0.5-0.4-1.1-0.7-1.6-1.1
	c4.2-7.6,8.5-15.4,12.9-23.3l2.4,1.7L430.8,133.6z M421.1,127.2l-29.2-19.7l11.9-23l29.4,20C429.4,111.6,425.3,119.3,421.1,127.2z
	 M390.2,106.3l-8.8-6c4.6-7.1,9.3-14.5,13.9-21.7l6.8,4.6L390.2,106.3z M372.7,59.2l-13.2-8.9c1.5-2.8,3.2-6.4,4.9-10.2
	c9.1,5.2,13.4,7.5,15.4,8.6L372.7,59.2z M370.8,62l-26.1,38.1l-10.6-7.6c7.1-12.1,19.1-32.2,22.7-37.5c0.3-0.5,0.7-1.1,1.1-1.8
	L370.8,62z M353.4,52.7c-1.5,2.2-4.5,7-8,12.8l-2.5-1.7c3.3-4.8,8.1-11.8,9.7-14.1l1.9,1.3C354.1,51.6,353.7,52.2,353.4,52.7z
	 M344.4,67.2c-4.6,7.5-9.8,16.3-13.6,22.9l-10.5-7.5l15.5-21.3L344.4,67.2z M329.7,91.9c-2.2,3.7-3.8,6.5-4.4,7.6
	c-0.4,0.7-1.1,2-2,3.7l-11.7-7.8l7.5-11.1L329.7,91.9z M322.3,105c-1.9,3.4-4.5,7.9-7.3,12.8l-12.7-8.5l8.2-12.2L322.3,105z
	 M300.5,108.1l-3.2-2.2l8.3-12.1l3.1,2.1L300.5,108.1z M295.6,104.8l-12.1-8.2c3-5,5.2-9.1,6.3-11.7c0.2-0.4,0.4-0.9,0.6-1.4
	l13.6,9.1L295.6,104.8z M208.3,82.2l-24.1-16.5l6-9.8l23.9,16.6c0.1,0.2,0.1,0.4,0.3,0.6L208.3,82.2z M200.5,100.8l0.7,0.4l13.2,8
	l0.9,9.5l-17-14.3L200.5,100.8z M213.4,119.9c-3.1,0.4-7.8,1.4-9.8,4l-11-10.5l4.5-7.2L213.4,119.9z M202.4,125.5
	c-1.5,2.1-2.7,3.9-3.4,6.2l-5.2-3.8l-6.8-5.6l4.5-7.1L202.4,125.5z M198.6,133.9c0,0.3-0.1,0.7-0.1,1.1l-4.7,7.6
	c-0.3,0.5-0.1,1.1,0.3,1.4c0.5,0.3,1.1,0.1,1.4-0.3l4.2-6.9l19.4,13.3l-6.5,10.4l-26.5-18.9l7.3-11.4L198.6,133.9z M166.7,163.6
	c17.2,11.2,36.7,26.5,43.3,31.7c-3.6,5.3-7.6,11-11.8,17.1c-9-6.3-15-10.5-16-11.2c-4.5-3.3-33.8-21.4-40.3-25.4
	c1.3-1.4,2.4-2.6,3.3-3.5c4.6-4.5,8.1-8.4,10.9-11.6c0.9-1,1.7-1.8,2.4-2.7C161.4,160.1,164.2,162,166.7,163.6z M104.8,178.2
	c-0.7,0.9-7,9.6-8.6,12.9c-1.1,2.3-2.6,5.3-3.4,6.8l-7.2-4.9c1.6-3,8.9-12.7,13.6-18.8C100.7,175.2,102.6,176.6,104.8,178.2z
	 M111.3,213.1l34.2,23.5l-4.3,5.9c-0.1,0-0.1,0-0.2,0c-1.1-0.2-6.6-0.8-7.6,2c-0.8,2.1,1.1,4.6,2.1,5.7l-5,6.8l-35.3-23
	C98.7,229.2,104.6,221.5,111.3,213.1z M154.8,275.1c-5.5,8-10.8,15.6-15.5,22.4l-60-41.3c6.2-9,11.3-16.4,13.4-19.2
	c0.3-0.4,0.7-1,1.2-1.6L154.8,275.1z M125.5,291.2l12.3,8.5c-5.1,7.3-9.4,13.6-12.8,18.5c-4.3-2.8-8.3-5.5-12.2-8L125.5,291.2z
	 M136.7,310.9l8.3,5.8l0,0l0,0l2.7,1.9c-5.9,7.4-5.9,8.1-5.9,8.5c0,0.5,0.4,0.9,0.8,1.2c2.3,2,12.4,9.6,21.6,16.1
	c0.1,0.1,0.2,0.1,0.3,0.2c-1.6,3.8-3.3,8.4-4.5,12.2l-4.9-3c-7-4.3-26.5-13.4-36.2-16.8c1.7-2.7,2.8-4.7,3.3-5.2
	C122.8,330.9,128.5,322.8,136.7,310.9z M140.2,350.6c-3.1,3.8-10.6,13-19.4,23.7c-5.5-4.8-10.9-9.5-15.9-13.8
	c2.2-3.7,4.3-7.2,6.2-10.5c2-3.4,3.9-6.6,5.6-9.4C121.6,342.3,131.5,346.5,140.2,350.6z M121.5,377.7c5.1,4.4,10.2,8.8,15,13.1
	c-5.7,7.1-12.1,15.2-19.2,23.8c-5.5-4.1-11.2-8.3-16.3-12.1C107.6,394.6,114.9,385.8,121.5,377.7z M113.5,419.4
	c-5.6,6.9-11.4,14.1-17.4,21.4c-5.3-4.5-10.8-9-16.1-13.4c0.5-0.5,0.9-1,1.2-1.3c2.4-2.5,8.5-9.8,16-18.8
	C102.3,411,108,415.3,113.5,419.4z M92.6,445.1c-6,7.4-12.1,14.9-18.2,22.3l-17.2-13.3c7.5-8.9,14.5-17.1,19.2-22.5
	C81.2,435.5,86.8,440.2,92.6,445.1z M55.1,452.3l-6-4.7c1.7-1.8,4.7-4.8,6.1-5.7c0.7-0.4,1.5-0.7,2.4-1c1.7-0.6,3.7-1.2,5.3-3
	c2-2.1,7.5-8,9.4-10c0.7,0.6,1.3,1.1,2.1,1.7C69.6,435.2,62.6,443.5,55.1,452.3z M55.9,455.6l17.2,13.3
	c-5.5,6.7-10.9,13.3-16.2,19.8l-17.2-13.8C44.8,468.8,50.5,462.1,55.9,455.6z M76.3,471.4l20.2,15.7c-5.4,6.7-11,13.6-16.4,20.3
	L60,491.3C64.9,485.4,70.4,478.7,76.3,471.4z M133.6,471.4c-1-0.6-5.4-4.1-11.9-9.4c5.1-6,9.1-10.6,11.6-13.1
	c1.9-1.9,4.3-4.6,7.2-7.9c4.5,3.8,9.4,8,14.4,12.3c-1,1.4-1.8,2.7-2.6,3.9c-2.9,4.4-7.7,10.9-13.3,18
	C136.4,473.2,134.4,471.9,133.6,471.4z M144.5,436.3c5.4-6.4,11.8-14.3,18.4-22.6c2.1,1.8,3.5,3,3.9,3.4c0.9,0.8,4.9,3.8,10.4,8.1
	c-2.3,2.7-11.3,13.4-18.6,23.2C153.7,444.1,148.9,440,144.5,436.3z M178.8,426.4c5.3,4.1,11.8,9,18.4,14.1c4.3,3.3,8.6,6.6,12.6,9.6
	c-3.5,5.9-6.4,10.8-8.9,15.3c-2.7,4.8-5.1,8.9-7.6,12.9c-5.8-5.1-19.5-17-33.2-28.7C167.5,439.8,176.6,429,178.8,426.4z
	 M218.4,456.6c5.2,4,8.9,6.9,9.5,7.4c1.8,1.6,1.2,3-1.1,8.2l-0.1,0.3c-1.1,2.3-2.4,3.8-3.8,4.3c-1.2,0.4-2.4,0-3.1-0.4
	c-1.6-0.9-6.6-4.2-9.9-6.5C212.8,465.3,215.7,460.8,218.4,456.6z M212.4,446c-0.5,0.8-1,1.6-1.5,2.4c-3.9-3-8.1-6.2-12.4-9.5
	c-14-10.7-28.5-21.8-30.3-23.3c-0.4-0.4-1.8-1.6-4-3.4c8.7-11,17.6-22.6,25-32.3l47.6,29.4C225.9,425.2,217,438.6,212.4,446z
	 M191.6,376.5c5.6-7.5,10-13.7,12.3-17.3c0.2-0.2,0.3-0.5,0.5-0.8c6,4.2,12.4,8.6,18.8,13c10.4,7.2,19.4,13.4,26.8,18.4
	c-3.8,5.5-7.5,10.9-11,16L191.6,376.5z M205.6,356.6c2.5-3.7,6.9-10.1,12.6-18.4l8.8,6.2c-6.5,8.5-6.3,9.3-6.2,9.8
	c0.1,0.4,0.3,1.2,20.7,15.4c0.2,0.1,0.4,0.2,0.6,0.2c0.3,0,0.6-0.2,0.8-0.4c0.3-0.5,0.2-1.1-0.3-1.4c-6.8-4.8-17.7-12.4-19.7-14.3
	c0.7-1.3,3.2-4.9,5.7-8.1l34.8,24.5c-4.2,6.1-8.4,12.1-12.4,18C237.8,378.9,221,367.3,205.6,356.6z M280.1,363l19.6,13.4
	c-8.6,10.7-20.8,25.8-23.3,28.5c-1.9-1.1-8.1-5.2-16.8-11.2C266,384.2,273,373.6,280.1,363z M281.2,361.3
	c4.8-7.2,9.6-14.4,14.3-21.4l47.7,32.8l5.5,3.8c-0.8,1-7.8,9-16.9,19.5L281.2,361.3z M352.8,380.1c0.1-0.1,0.3-0.3,0.5-0.5
	l20.2,13.8c-5,2.9-10.2,5.1-13.8,6.7c-0.7,0.3-1.4,0.6-2,0.9c-5.2,2.3-30.4,16.7-44.5,24.8C331,405.1,351.8,381.3,352.8,380.1z
	 M349.3,454.2c-3.9,5.9-8.2,12.3-12.6,18.9c-1.2-0.8-2.8-1.9-4.7-3.3c-4.2-2.9-9.8-6.7-15.4-10.6c-8.1-5.6-16.2-11.1-20.1-13.7
	c3.6-4.3,8-9.4,12.7-15c0.8-0.5,1.7-1,2.7-1.6L349.3,454.2z M340.1,477.9c0.5,0.3,1,0.7,1.6,1.1c2.4,1.7,5.9,4,10.1,6.9
	c7.3,5,16.8,11.4,26.5,18c-2.2,3.5-10.6,15.5-14.6,21.1L326,499C330.8,491.9,335.5,484.8,340.1,477.9z M380,505
	c0.8,0.6,1.7,1.1,2.5,1.7c1.6,1.1,3.3,2.2,4.9,3.3c-4.5,8-8.7,15.7-12.4,22.7l-9.6-6.6C367.9,522.6,377.4,509.2,380,505z
	 M390.8,512.3c16.8,11.4,32,21.6,35.6,24.1l-14.7,21.7l-33.4-23C382,528,386.3,520.3,390.8,512.3z M406.3,520.4l35.4-56.6v-0.1
	l8.4-16.7c5.8,3,13.4,5.7,15.4,5.8c0.2,0,0.8,0.1,1.7,0.2l-37.9,78.8l-1.9,2.8C421.3,530.5,414,525.6,406.3,520.4z M462.6,467.7
	l18.2,22.3l-48.5,40.6L462.6,467.7z M463.6,465.7l5.9-12.2c2.2,0.4,5.2,0.9,8.4,1.5c0,0.1,0.1,0.2,0.2,0.3l17.9,22.1l-13.6,11.4
	L463.6,465.7z M480.9,455.4c1.1,0.2,2.2,0.4,3.3,0.6c11.3,2,16.7,3,17.5,3c0.3,0,1.7,0.2,3.9,0.5c-4,7.5-7,13-8.6,15.9L480.9,455.4z
	 M501.7,457c-0.8,0-9.5-1.6-17.2-3c-6-1.1-10.9-2-14.2-2.5l10-20.8l31.5,17.2c-1.9,3.5-3.6,6.7-5.3,9.7
	C503.8,457.2,502,457,501.7,457z M522,433.3c2.4-4.5,4.9-9.1,7.5-13.9l35.8,18.8c-2.4,5.3-4.7,10.6-6.2,14.9
	C548.3,447.4,535.4,440.5,522,433.3z M567.7,439.5l23.1,12.1c-0.4,2.6-0.9,5.4-1.5,7.9c-1.5,6.8-2.7,7.6-2.8,7.8
	c-1.3-0.5-11.1-5.5-24.9-12.9C563,450.2,565.2,444.9,567.7,439.5z M568.6,437.7c1.9-4.1,3.9-8.2,5.8-11.9c9.8,5,16.6,8.2,18.1,8.3
	c0.2,0,0.4,0,0.7,0c-0.2,2.2-0.6,6.1-1.2,10.2c-0.1,0.6-0.2,1.3-0.3,2.1c-0.1,0.9-0.3,1.9-0.5,3L568.6,437.7z M592.7,431.4
	c-1.3-0.1-7.5-3.1-17.1-8c3.2-6.3,5.7-10.9,5.8-11c0-0.1,0.4-0.9,1.1-2.2l13.2,7.1c-0.7,4.8-1.8,11.8-2.2,14.2
	C593.1,431.4,592.9,431.4,592.7,431.4z M598.3,412.9c0.1-0.8,0.3-1.5,0.7-2.2c0.5-1.1,1.1-2.5,1.3-5.1c0.2-2.1-0.5-3.6-1-4.8
	c-0.5-1.1-0.6-1.6-0.4-2l11.3,6c-1.1,8.5-2,21.8-2.2,25.8c-5.1,0.5-9.5,0.8-12.4,0.9C596.1,427.5,598.1,415,598.3,412.9z
	 M612.1,405.7l7.3,3.8c0.2,0.1,0.3,0.1,0.5,0.1c0.4,0,0.7-0.2,0.9-0.5c0.3-0.5,0.1-1.1-0.4-1.4l-7.9-4.2c0.3-2.1,0.6-3.7,0.9-4.7
	c1.6-5.1,8.8-8.2,8.9-8.2c0.5-0.2,0.8-0.8,0.6-1.3s-0.8-0.8-1.3-0.6c-0.3,0.1-8.2,3.4-10.1,9.5c-0.3,0.9-0.6,2.4-0.9,4.3l-10.2-5.4
	c1.8-2.6,1.9-6.6,1.9-6.8c0-0.6-0.5-1-1-1l0,0c-0.6,0-1,0.5-1,1c0,1.1-0.3,4.2-1.7,5.9l-7.2-3.8c5.9-11.9,12.5-25.3,14-28.3
	c0.3-0.7,0.7-1.6,0.9-2.8c9.4,4.4,12.6,7.1,16.5,18.3c0.7,2,1.4,4,2,5.9c2.9,10.2,6.9,24.8,11,41.9c-7.8,1.1-17.4,2.2-25.7,3
	C610.3,426.1,611.1,413.9,612.1,405.7z M620.6,364.3c-3.3-3.6-7.5-5.8-13.3-8.5c0.2-1.6,0.4-3.2,0.6-4.9c3.8,2.7,7.1,5.5,9.5,8.4
	C618.5,360.6,619.6,362.3,620.6,364.3z M620,354c2.8,0.9,6,1.9,8.4,2.8l-0.3,1.8c-1.5-0.3-3.4-0.4-4.7-0.4c-0.6-0.9-1.1-1.7-1.7-2.4
	C621.1,355.2,620.6,354.6,620,354z M630,359.3l0.3-1.7c0.2,0.1,0.3,0.1,0.5,0.2c2.8,1.4,11.3,5.9,14.9,7.8c-1.3,1.2-3.9,3.9-9.4,9.7
	C634.8,370.4,631.5,360.5,630,359.3C630.1,359.4,630,359.3,630,359.3z M637,377.9c0-0.1,0-0.2-0.1-0.2c3.5-3.8,8.8-9.3,10.4-10.7
	c1.8,1,8,4.9,11.9,7.4l0,0c-0.8,4.3-1.8,9-2.8,13.9C647.5,383.8,638.2,379,637,377.9z M649,365.5c2.2-4.9,4.8-9.1,5.7-9.4
	c1.6-0.1,5.7-0.1,7.5,0c-0.3,3.1-1.2,8.9-2.6,16C653.6,368.2,650.6,366.4,649,365.5z M654.6,354c-2.2,0.2-5.3,6.1-7.2,10.2
	c-3.1-1.7-12.5-6.7-15.6-8.3c-0.5-0.2-1-0.5-1.7-0.7l0,0c-3.7-1.5-10.1-3.5-13.2-4.4c-2.4-2.1-5.2-4.2-8.2-6.2
	c0.6-6.3,0.9-12.5,1.1-15.7c24.4,10.4,50.5,22.3,52.7,24.9v0.1C660.5,353.9,656.3,353.9,654.6,354z M607.7,325.3l-20.9-11.5
	c3.1-4.9,7.3-11.1,8.7-13.1l15,9.1C609.9,311.6,609,315.6,607.7,325.3z M572.6,284.4c1.2-1.7,2.3-3,3.1-4l1.6-1.9
	c1.5-1.9,3-3.7,4.5-5.5l31.3,17.7c-0.4,3.1-0.7,5.6-0.7,6.8c0,2.8-0.9,8-1.3,10.4L572.6,284.4z M614.4,297.3c0-0.9,0.2-3.1,0.6-5.7
	l41.6,23.5c-0.1,5.7-0.2,11-0.3,15.4c-3.6-1.9-12.1-6.5-20.7-11c-14.8-7.8-20.3-10.4-22.6-11.2C613.4,306.2,614.4,300.5,614.4,297.3
	z M615.2,289.5c0.8-5.9,2-13.3,2.4-16.3l9.4,5l0,0l29.9,16c-0.1,6.2-0.3,12.6-0.4,18.7L615.2,289.5z M643.8,214.1
	c1.7,7.9,3.8,16.9,6,23.3c-1.5,0.7-2.9,1.7-3.9,2.7l-33.1-18.6c4.2-8.7,7.8-17,10.2-22.6c0.5-1.1,0.9-2.2,1.3-3.1
	c7.7,2,15.5,3.6,17.6,4C642.3,205.4,643,210.5,643.8,214.1z M643.3,134.7c-1.7,6.7-2.9,14.5-3.3,22.1c-2.2,2.6-12.5,14.8-15.4,19.8
	c-0.9-0.6-1.9-1.2-2.9-2c1.2-2.5,4.7-10,5.7-12c1-2.2,11.8-24.7,14.1-29.4l2.1,0.8C643.4,134.2,643.3,134.4,643.3,134.7z M644,132
	l-12.1-4.7c3.2-10.1,8.3-26.4,9.8-31.1c2.7,1.9,8.2,5.6,10.4,7.1C649,113.8,645.7,125.8,644,132z M640.8,93.2
	c-1.7-0.9-5-2.5-9.1-4.4l2.5-5.2c4.1,2.6,7.4,4.5,8.2,4.9c0.2,0.1,0.6,0.3,1,0.4C642.2,90.8,641.3,92.3,640.8,93.2z M652.7,101.3
	c-2.5-1.8-7.7-5.4-10.2-7c0.6-0.9,1.5-2.6,2.8-4.6c3.2,1.3,7.9,3.2,9.7,4C654.3,96,653.5,98.5,652.7,101.3z M657.1,87.5
	c-0.4,1.2-0.9,2.6-1.4,4.2c-1.8-0.7-6.1-2.5-9.3-3.8c1.7-2.7,3.6-5.9,5.5-8.9l6.7,4.5C658,85.1,657.5,86.4,657.1,87.5z M660.7,59.3
	c-1,2.3-1.9,4.5-2.9,6.3l-12.2-7.7l3.2-5.7L660.7,59.3z M655.3,53.7l6.2-13l5.1,2.5c-1.4,4.4-3.3,9.4-5.1,14.1L655.3,53.7z
	 M656.5,68c-0.4,0.8-0.8,1.4-1.2,2c-1.1,1.6-2.5,3.8-4,6.2l-11.6-7.8l4.6-8.1L656.5,68z M671,35.7c0.8-3.3,2.2-7.6,3.5-11.4l7.6,3.2
	c-1.1,2.6-2.3,5.1-3.4,7.2c-3.4,6.5-13.9,32.9-19.3,46.9l-6.3-4.3c1.5-2.4,2.9-4.5,4-6.1C661.9,64.1,669.1,43.6,671,35.7z
	 M640.6,22.6l27.5,15.8c-0.3,0.9-0.5,1.8-0.9,2.9l-29.1-14.2C639,25.5,639.8,24.1,640.6,22.6z M637.1,28.8l22.6,11l-6.1,12.8
	L631,39.3C632.8,36.2,634.9,32.5,637.1,28.8z M626.9,46.2c0.7-1.2,1.8-3,3.1-5.2l17.1,10.2l-9.1,16L621.3,56
	C623.9,51.4,625.9,47.9,626.9,46.2z M620.3,57.8l29.9,20.1c-2,3.1-4,6.4-5.7,9.2c-0.5-0.2-1-0.4-1.2-0.5c-1.8-0.8-20.6-12.6-29-17.9
	C616.4,64.8,618.5,61.1,620.3,57.8z M613.3,70.5c3.2,2,12,7.6,19.2,12l-2.6,5.5c-7.7-3.6-16.9-7.8-20.9-9.6
	C610.4,75.7,611.9,73.1,613.3,70.5z M608,80.2c5.4,2.4,14,6.4,21,9.6l-2.9,6c-0.2,0.5,0,1.1,0.5,1.4c0.1,0.1,0.3,0.1,0.4,0.1
	c0.4,0,0.7-0.2,0.9-0.6l2.9-6.1c4.2,2,7.6,3.6,9.1,4.4c-1.2,3.9-6.6,20.9-9.9,31.5l-22.1-8.5l7.2-17.6c0.2-0.5,0-1.1-0.6-1.3
	c-0.5-0.2-1.1,0-1.3,0.6l-7.2,17.7l-15.1-5.8c1.7-3.2,4.2-7.7,7-12.9C601,93,604.5,86.6,608,80.2z M604.2,78.6
	c-3.4,6.3-6.9,12.6-9.8,18c-3.2,5.8-5.9,10.8-7.6,13.9c-2.4-0.7-7.5-2.3-12.3-5.4c8.6-13.9,19.1-28.5,21.4-31.8L604.2,78.6z
	 M593,71.5c-2.6,3.6-12.8,17.8-21.3,31.6c-0.5-0.4-1.1-0.9-1.6-1.4c-1.3-1.2-2.4-2.4-3.4-3.5c2.5-2.9,16.6-25.8,19.7-30.8L593,71.5z
	 M578.9,62.5l5.9,3.7c-5.2,8.4-16.9,27.3-19.3,30.3c-1.2-1.4-2.3-2.8-3.3-4c-0.1-0.2-0.3-0.3-0.4-0.5
	C568.8,80,575.1,69.3,578.9,62.5z M574.3,59.6c-1.4,2.5-3.2,5.6-5.3,9.2c-4.3-2.5-8.5-5-9.8-6c0.7-1.4,3.5-5.1,6.3-8.8L574.3,59.6z
	 M548.6,49.1c1-1.5,1.9-2.8,2.7-4l12.4,7.9c-7.1,9.2-6.9,9.9-6.7,10.4c0.1,0.4,0.3,1.1,10.9,7.2c-2.9,5-6.3,10.8-10,17.1
	c-0.8-0.8-1.6-1.5-2.6-2.2c-1.5-1.1-10.6-6.8-22-14.1C539.2,62.8,544.6,54.9,548.6,49.1z M493.8,21.9c4.8,3.5,11.5,8.5,14.2,10.5
	c4,2.9,27,16.8,32.5,20.1c-3.3,4.8-7.1,10.4-11,16.4c-3.2-2-6.5-4.1-9.8-6.2l3.3-6.5c0.3-0.5,0.1-1.1-0.5-1.4
	c-0.5-0.3-1.1-0.1-1.4,0.5l-3.2,6.3c-2.1-1.4-4.3-2.7-6.4-4l6.7-12.9c0.3-0.5,0.1-1.1-0.4-1.4c-0.5-0.3-1.1-0.1-1.4,0.4l-6.7,12.7
	c-2.2-1.4-4.3-2.7-6.4-4.1l5.6-9.6c0.3-0.5,0.1-1.1-0.4-1.4c-0.5-0.3-1.1-0.1-1.4,0.4l-5.5,9.5c-3.1-2-6.1-3.8-8.8-5.6
	c1.8-3,4.4-7.2,4.6-7.8c0.3-1-0.5-1.6-1.5-2.3c-1.3-0.9-3.2-2.3-3.2-4.1C492.7,29.1,493.4,24.4,493.8,21.9z M491,19.8
	c0.3,0.2,0.7,0.5,1,0.8c-0.3,2-1.3,7.9-1.3,11c0,2.9,2.5,4.7,4,5.8c0.2,0.1,0.4,0.3,0.6,0.4c-0.6,1.1-2.4,4-4.2,7
	c-4.2-2.7-7.8-4.9-10.1-6.4C484.9,31,488.3,24.7,491,19.8z M479,41.8c5.5,3.4,16.7,10.5,28.9,18.2l-9.4,15.4
	c-0.1,0.2-0.7,0.8-1.2,1.3c-2.9,3-5.6,5.9-5.9,7.6c-0.4,2.5,0.8,7.9,1.8,10.8c0,0.1,0.1,0.2,0.1,0.2c-0.9,1.1-3.1,4-5.4,7.4L457,82
	C465,67.4,472.6,53.5,479,41.8z M456.1,83.8l5.5,3.7l-6.3,9.3l-4.6-3.1C452.5,90.4,454.3,87.1,456.1,83.8z M449.7,95.5l7.6,5.2
	l-8.7,10.6l-5.5-3.8C445.3,103.4,447.5,99.4,449.7,95.5z M446.4,79.6c-2.8,5.2-6.8,12.9-11.6,21.8l-37.7-25.6
	c4.5-7.1,9-14,13.2-20.5L446.4,79.6z M374.5,17.2c0.6,0.3,1.3,0.7,1.9,1.1c5.8,3.4,11.2,6.6,12.9,7.2c2,0.7,6.2,0.3,10.7-0.2
	c1-0.1,1.9-0.2,2.3-0.2c1.2,0.1,10.2,3.7,18.6,7.5c-3.4,5.4-7.3,11.4-11.5,18l-38.1-25.7C372.5,21.9,373.6,19.3,374.5,17.2z
	 M369.8,28l16.6,11.2l-1.6,2.3l-17.5-7.8C368.2,31.7,369,29.8,369.8,28z M383.6,43.2L381,47c-2.9-1.6-10.1-5.7-15.7-8.8
	c0.4-0.9,0.8-1.8,1.2-2.6L383.6,43.2z M361.4,22.3l5,3.4c-3.4,7.7-7.3,16.6-10.3,22.3l-7.2-4.9L361.4,22.3z M350.9,48.5
	c-1.3,1.7-3.9,5.5-9.8,14.1l-4.3-2.9l10.1-13.9L350.9,48.5z M345.3,44.7l-18.9,26c-1.8-1.3-4-3.2-4.3-4.4c0-1.6,4.8-12.6,10.2-24
	c0-0.1,0.1-0.1,0.1-0.2c0.7-1.6,1.5-3.2,2.2-4.7L345.3,44.7z M332.9,36.2c-0.6,1.2-1.2,2.6-1.9,4.1l-8.6-5.4l1.9-4.5L332.9,36.2z
	 M315.7,24.6l6.8,4.6l-4.7,11.1c-0.2,0.5,0,1.1,0.5,1.3c0.1,0.1,0.3,0.1,0.4,0.1c0.4,0,0.8-0.2,0.9-0.6l1.8-4.3l8.6,5.4
	c-4.6,9.8-10.4,22.7-10,24.6c0.4,2.1,3.5,4.5,5.1,5.6l-6.6,9.1l-21.1-15C303.7,52,311.3,34.7,315.7,24.6z M317.4,83.1l-7.5,11.1
	l-4-2.6l0,0l0,0L291,81.7c1.5-3.7,3.5-8.3,5.6-13.3L317.4,83.1z M247.8,26.4l48,30.3c-2.9,6.7-5.7,13.2-7.9,18.6l-50-34.1
	L247.8,26.4z M236.3,43.4l4.9,3.3c-5.4,8.3-4.8,9.1-4.3,9.6c0.3,0.4,2.3,2,22.3,16.3c0.9,0.6,1.5,1,1.7,1.2c1,0.7,1.6,3.3,1.5,3.9
	c-0.9,1.2-9.3,13.7-11.8,17.4l-33.5-23.2L236.3,43.4z M234.1,41.9l-3.2,4.8L203,26.5l1.8-4.6L234.1,41.9z M196.9,16.5l6.1,4.2
	l-2.3,5.8c-0.2,0.4,0,0.9,0.4,1.2l28.6,20.7l-3,4.5l-36.6-26.2L196.9,16.5z M188.6,28.9l36.6,26.2l-10.3,15.4l-16.7-11.6l5-8
	c0.3-0.5,0.2-1.1-0.3-1.4c-0.5-0.3-1.1-0.2-1.4,0.3l-5,7.9l-18.6-12.9L188.6,28.9z M149.4,27.7l25.3,17.6c0.1,0.3,0.3,0.6,0.6,0.8
	c0.2,0.2,0.5,0.2,0.8,0.2h0.1l12.2,8.5l-6,9.8l-23.6-16.2c-0.5-0.3-1.1-0.2-1.4,0.3c-0.3,0.5-0.2,1.1,0.3,1.4l4.3,3l-1.4,1.7
	c-3.1-1.9-7.1-4.4-7.3-4.5c-0.5-0.3-1.1-0.2-1.4,0.3c-0.3,0.5-0.2,1.1,0.3,1.4c0.2,0.2,6.8,4.2,8.1,5c0.2,0.1,0.4,0.2,0.5,0.2
	c0.3,0,0.6-0.1,0.8-0.4l2-2.5l38.2,26.2l-4.8,7.4c-2.3-1.9-4.3-3.4-4.8-3.6c-1-0.4-3.8-0.2-4.9-0.1c-0.6,0.1-1,0.5-0.9,1.1
	s0.6,1,1.1,0.9c1.6-0.1,3.6-0.2,4-0.1c0.4,0.2,2.1,1.6,4.4,3.4l-6.6,10.2c-0.3,0.5-0.2,1.1,0.3,1.4c0.2,0.1,0.4,0.2,0.6,0.2
	c0.3,0,0.7-0.2,0.9-0.5l2.5-3.8l5.1,2.9L184.8,122c-0.3,0.4-0.2,1,0.2,1.3l6.8,5.6l-7.3,11.5l-6.7-4.8c0.5-2,0.9-4.2,1.2-6.8
	c1.8-15.6,0.2-43-1-48.2c-1.2-4.9-8.2-9.6-15.5-14.5c-1.1-0.7-2.1-1.4-3.1-2.1c-6.1-4.2-14.6-7.7-18.3-9.2
	C143.6,45.7,146.9,35.6,149.4,27.7z M137.5,66.8c0.7-2.4,1.4-5.2,2.3-8.1c3.7,1.5,11.6,4.9,17.2,8.6c1,0.7,2.1,1.4,3.2,2.1
	c6.1,4.1,13,8.7,13.8,12c0.9,3.7,2.3,25,1.4,40.7c-2.2-2.8-4.5-6-4.9-7.6c-0.3-1.1-0.6-6.3-0.9-11.8c-0.8-13.4-1.5-23-2.7-25
	c-2.1-3.2-19.8-13.6-23.7-12.5c-0.7,0.2-1.4,0.9-2.2,2.3c-3.4,6.1-9,27.7-8,30.9c0.6,1.9,5.6,5.7,13.2,11.3c3.2,2.4,7.2,5.3,7.7,6
	c0.4,0.9,1.3,2.8,2.1,4.6l-28.3-19.4C129.6,94.4,133.9,80.3,137.5,66.8z M126.1,105.2c0.1-0.1,0.1-0.2,0.2-0.3
	c0.6-0.2,1.3-0.5,1.9-1l45.5,31.3c-1.9,7.4-5.1,9.5-8.9,12c-0.5,0.3-1,0.6-1.4,1c-2.2,1.5-4.2,3.3-6.3,5.6
	c-16.2-11.6-36.6-27.4-42.7-32.1C118,116.3,122.6,110,126.1,105.2z M42.6,262.5c2.3-8.5,5.2-19,9.4-29.6
	c4.6-11.5,22.3-43.9,52.5-96.4c1.7-2.9,2.6-4.5,2.8-4.9c0.4-0.8,2.6-3.9,5.4-7.9c2.4,1.9,6.8,5.3,12.4,9.6l-10.2,13.3
	c-0.3,0.4-0.3,1.1,0.2,1.4c0.2,0.1,0.4,0.2,0.6,0.2c0.3,0,0.6-0.1,0.8-0.4l10.2-13.3c0.6,0.5,1.2,1,1.9,1.4
	c-4.1,5.1-20.7,25.9-22.5,29c-1.7,2.9-1,5.2-0.6,6.4c0,0.2,0.1,0.4,0.1,0.5c-0.3,0.5-1.5,2-2.7,3.2c-1.3-0.9-2.4-1.8-3.4-2.5
	c-0.1-0.1-0.2-0.2-0.3-0.3c-0.1-0.1-0.3-0.2-0.4-0.2c-1.6-1.2-2.5-1.8-2.5-1.9c-0.3-0.2-0.7-0.2-1,0.1s-0.2,0.7,0.1,1
	c0,0,0.8,0.6,2,1.5c-2.3,2.9-13.5,17.6-14.3,20.1c-0.1,0.4,0,0.9,0.4,1.1l24.2,16.6c-6.7,8.6-12.7,16.3-16.1,20.9l-19.2-12.5
	c-0.5-0.3-1.1-0.2-1.4,0.3s-0.2,1.1,0.3,1.4L90.4,233c-0.4,0.5-0.7,1-1,1.4c-3.8,5.1-17.2,24.5-28.6,41.6c-12.2-7.9-12.5-8-12.7-8
	c-1.7-0.3-2.6,0.7-5.1,4.5c-1,1.6-2.7,2.1-4.2,2.2C40.2,271.5,41.3,267.3,42.6,262.5z M19.4,345c-0.7-0.8-1.2-2.3-1.7-3.6
	c-1-2.6-2.1-5.5-5-5.7c-1.8-0.1-5.4,1.7-9.3,4.1c10.3-18.2,30.2-53.7,33.3-59.3c0.5-0.8,0.9-1.8,1.3-2.9c2.1,0,5.5-0.4,7.5-3.5
	c1.4-2.1,2-2.9,2.3-3.2c1.3,0.8,5.6,3.5,11.6,7.5c-6.9,10.4-12.9,19.6-15.3,23.8C39,311.1,26.3,333.3,19.4,345z M71.1,339.1
	l14.6-27.5c0.3-0.5,0.1-1.1-0.4-1.4s-1.1-0.1-1.4,0.4l-15.3,28.7c-15,1.3-28.9,2.6-32.8,3.2c-4.4,0.6-7.4,1.5-9.8,2.2
	c-0.8,0.2-1.4,0.4-2,0.6c7.1-12.1,18.9-32.6,23.7-41c2.3-4.1,8.3-13.2,15.2-23.6c7.6,4.9,17.1,11.2,26.8,17.5
	c-1.2,1.1-2.5,2.4-2.8,2.8c-0.4,0.7-1,3-1.2,4c-0.1,0.6,0.2,1.1,0.8,1.2c0.1,0,0.1,0,0.2,0c0.5,0,0.9-0.3,1-0.8
	c0.3-1.4,0.7-3.1,0.9-3.4c0.2-0.3,1.5-1.5,2.8-2.8c12,7.9,24,15.7,32.1,21.1c-3.2,4.7-5.3,7.6-5.7,8.1c-0.7,0.9-2.1,3.2-4.5,7.2
	C109.2,335.9,89.7,337.5,71.1,339.1z M87.6,345.5c-1.5-1.3-2.8-2.4-3.8-3.3c2-0.2,4-0.3,6-0.5L87.6,345.5z M89.2,346.9l3-5.4
	c8-0.7,14.8-1.2,18.5-1.4c-1.3,2.1-2.7,4.5-4.3,7.2c-1.8,3-3.7,6.3-5.7,9.6C96.3,353,92.4,349.6,89.2,346.9z M103.8,362.3
	c4.9,4.3,10.3,8.9,15.7,13.6c-6.7,8.2-14,17-20.6,25c-5.7-4.1-10.4-7.6-13-9.4C91.2,383.2,97.7,372.4,103.8,362.3z M81.3,398.4
	c0.4-0.6,0.8-1.2,1.2-1.8c2.6,1.9,7.1,5.1,12.4,9c-7.4,9-13.5,16.1-15.8,18.6c-0.3,0.4-0.8,0.9-1.3,1.4c-3.5-3-6.9-5.8-10.1-8.5
	C71.2,412.7,75.4,406.9,81.3,398.4z M50.7,411.6c-0.7-1.3-1.3-2.7-1.1-3.9c0.1-0.8,0.4-1.4,1.1-1.9c1.9-1.3,3.6-1.3,5.6,0
	L50.7,411.6z M52.2,413.6c-0.1-0.1-0.2-0.2-0.3-0.3l5.9-6.3c1.9,1.2,5.4,2.6,8.1,3.4c-3.8,5-6.6,8.4-9.7,11.6
	C55.4,419.3,53.9,415.3,52.2,413.6z M56.6,429.6c2.8-2.7,5.2-5.2,7.7-8.2c1.3,1.1,3.5,2.9,6.4,5.3c-2,2.1-7.4,7.9-9.3,9.9
	c-1.3,1.4-2.9,1.9-4.5,2.4c-1,0.3-2,0.7-2.9,1.2c-1.7,1.1-5.1,4.6-6.6,6.2l-5-3.9C49.2,436.4,54.6,431.5,56.6,429.6z M40.9,443.9
	l12.9,10c-5.5,6.5-11.1,13.2-16.2,19.3L22,460.7C28.5,455,35.1,449,40.9,443.9z M2,478.5c5-4.4,11.6-10.3,18.5-16.4l15.8,12.7
	c-6.9,8.3-12.7,15.2-15.4,18.5C13.6,487.5,7,482.4,2,478.5z M23,494.9c2.8-3.3,8.5-10.2,15.4-18.4l17.2,13.8
	c-5.2,6.4-10.3,12.6-15.2,18.5C34.6,504.1,28.6,499.4,23,494.9z M43.5,511.3c2.6-3.1,8-9.7,15.2-18.5L78.9,509
	c-5.4,6.7-10.6,13.2-15.2,19C58.5,523.5,51.3,517.6,43.5,511.3z M78.2,543.7c-2.2-3-4.3-5.8-6.1-7.9c-1-1.2-3-3.1-5.7-5.5
	c4.6-5.8,9.8-12.3,15.2-19.1l15.1,12.4C91.2,529.5,84.8,536.5,78.2,543.7z M133.9,580.5c-1.2,1.1-2,1.9-2.3,2.1
	c-1.4,0.4-11.1,2.7-18.7,4.5c-1.7-2.3-3.5-4.6-5.2-6.8c5.3-1.8,14.9-5.2,19.3-7.1L133.9,580.5z M129,569.6c-0.5,0.4-0.9,0.7-1.1,0.9
	c-0.1,0.1-0.5,0.3-1,0.5c0,0,0,0-0.1,0c-3.1,1.4-11.9,4.6-20.5,7.6c-3.4-4.3-6.4-7.8-8.1-9.1c-0.8-0.6-1.8-1.7-3-3.1
	c5.8-3.1,16.9-8.9,23.8-12.6L129,569.6z M116.9,544.6c-1.5,0.9-3,1.7-4.4,2.6c-7.7,4.4-15.1,8.7-22.1,13.2c-2.3-3.1-4.8-6.5-7.1-9.7
	c-1.3-1.8-2.6-3.5-3.8-5.2c6.8-7.4,13.5-14.7,19.1-20.7l25.2,7.4l6,4.3L116.9,544.6z M131.5,535.2l-8.7-6.4c2.3-3.4,5-7,6-7.8
	c1.5,0.7,7.5,4.5,12.7,7.9L131.5,535.2z M150,523.4l-6.6,4.2c-13.3-8.8-14.3-8.8-14.6-8.8c-0.5,0-1.6,0-7.6,8.8l-15.1-11
	c0.9-0.9,1.7-1.8,2.4-2.6c4.8-5,10.3-11.3,15.9-17.8l32.2,22C154.4,520,152.2,521.8,150,523.4z M165.7,510.2c-2.5,2.3-5,4.6-7.5,6.7
	l-32.5-22.3c3.9-4.6,7.9-9.4,11.6-14c9.3,6.9,25.7,19.8,32.7,25.5C168.6,507.5,167.2,508.8,165.7,510.2z M173.8,502.3
	c-6.9-5.6-23.4-18.6-33.2-25.9c5.7-7.2,10.5-13.7,13.4-18.1c0.7-1.1,1.6-2.4,2.5-3.6c14,12,28,24.2,33.4,28.9
	C185.9,489.2,181.1,495,173.8,502.3z M199.9,528.3c-4.1-5.7-11.6-13-19.1-19.8c4.3-4.2,8.1-8.3,10.9-12.1c1.3-1.8,2.7-3.7,4-5.6
	c2.2,3.3,4.7,7.4,5.7,10.4C202.7,504.9,201.3,518.5,199.9,528.3z M207,521.4c1-8.1,1.7-18,0.3-22.2c-1.5-4.3-5.2-10.1-7.8-13.8
	c3.1-4.5,6.2-9.1,9.2-13.6c3.4,2.3,8.3,5.6,10.1,6.6c1,0.6,2,0.8,3,0.8c0.6,0,1.2-0.1,1.7-0.3c2-0.7,3.7-2.5,5.1-5.4l0.1-0.3
	c2.3-5.1,3.6-7.9,0.6-10.6c-0.6-0.6-4.3-3.4-9.7-7.6c4.1-6.5,7.4-11.8,9.4-14.9c0.4-0.6,0.7-1.1,1-1.6l6,3.8
	c0.2,0.1,0.4,0.2,0.5,0.2c0.3,0,0.7-0.2,0.9-0.5c0.3-0.5,0.2-1.1-0.3-1.4l-6-3.8c1.4-2.1,6.8-10.2,14.5-21.7l33.6,23
	C273.4,444.5,230.3,494.9,207,521.4z M247.6,411.5c3.3-4.9,6.9-10.3,10.7-16.1c0.3,0.2,0.5,0.4,0.8,0.5
	c14.1,9.6,16.6,11.1,17.4,11.1c0.2,0,0.3-0.1,0.4-0.1c1-0.6,15.4-18.4,24.3-29.5l29.1,19.9c-2.5,2.9-5.1,5.9-7.8,9l-39.9,29
	L247.6,411.5z M285.3,437.4c-0.2-0.2-0.3-0.4-0.5-0.5c-0.1-0.1-0.1-0.1-0.2-0.2l32.1-23.4c-9,10.5-18.1,21.1-24.5,28.8L285.3,437.4z
	 M289.5,454c1.3-1.6,3.2-4,5.6-6.9c11.3,7.7,33.5,22.9,40.5,27.7c-4.6,6.9-9.3,14-14.1,21.2l-33.8-22.6c1.7-3.7,1.5-4.4,1.3-4.7
	c-0.1-0.2-0.4-0.8-6.6-6C285.9,458.4,288.4,455.4,289.5,454z M281.1,464.2c2.7,2.3,5.3,4.5,6,5.2c-0.2,0.7-1,2.7-1.8,4.4
	c-0.9,1.1-1.7,2.1-2.2,2.7c-1.3-0.6-4.7-2.7-8.1-4.9C277.2,468.9,279.3,466.4,281.1,464.2z M273.6,473.1c9.6,6.2,9.8,5.9,10.5,5.2
	c0.3-0.3,1.8-2.1,2.7-3.2l33.7,22.5c-3.9,5.9-7.9,11.8-11.7,17.6l-13.2-8.7c0.5-1,1.1-2.1,1.7-3.3c1.4-2.7,3.2-6.1,3.8-7
	c1.4,0.3,5.9,3.1,9.6,5.6c0.5,0.3,1.1,0.2,1.4-0.3s0.2-1.1-0.3-1.4c-10-6.9-11.2-6.1-11.8-5.8c-0.7,0.4-1.5,2-4.6,8
	c-0.5,0.9-1,2-1.6,3.1l-16-10.5l6.2-8.5c0.3-0.5,0.2-1.1-0.2-1.4c-0.5-0.3-1.1-0.2-1.4,0.2l-6.3,8.6l-12.8-8.4
	C267,481,270.4,476.9,273.6,473.1z M261.9,486.9l9.1,6l-11,15.7l-10.4-7.3C253.9,496.3,258,491.5,261.9,486.9z M248.3,502.9
	l10.6,7.4l-11.3,16.6l-6.8-5.3c-0.4-0.3-1.1-0.3-1.4,0.2c-0.3,0.4-0.3,1.1,0.2,1.4l6.9,5.3l-11.1,16.3c-3.9-3.1-10.6-7.5-14.4-9.9
	C230.3,524,239.6,513.1,248.3,502.9z M219.6,536.5c5.3,3.4,12.1,8,15.3,10.6c0,0.1,0.1,0.1,0.2,0.1l0,0c0.8,0.7,1.4,1.2,1.6,1.5
	c0.6,0.9,0.3,1.3-2.7,4.5c-1.5,1.6-3.6,3.8-6.1,7c-0.3,0.4-0.6,0.7-0.9,1.1c-1.5-1.5-3-3-4.5-4.5l0,0l0,0
	c-3.9-3.9-7.6-7.7-10.8-10.9C214.3,542.7,217,539.6,219.6,536.5z M192.5,568.2c5.7-6.6,11.7-13.7,17.8-20.8c2.1,2.2,5.7,5.8,9.8,10
	l-21.5,18.5L192.5,568.2z M204.4,583l-4.4-5.5l21.7-18.7c1.3,1.3,2.7,2.7,4,4c-3.6,4.1-7.1,7.2-10.9,10.4c-3,2.6-6.1,5.3-9.4,8.7
	C205,582.3,204.7,582.7,204.4,583z M210.4,589.8c-0.1,0.1-0.2,0.2-0.3,0.3l-4.4-5.5c0.4-0.4,0.8-0.8,1.1-1.2c3.3-3.3,6.4-6,9.3-8.6
	c3.7-3.3,7.3-6.4,11-10.5c2,2,4,4,5.9,5.8C228.9,573.6,212.1,588.3,210.4,589.8z M244.3,577.8c-0.1,0.1-0.1,0.2-0.2,0.3
	c-3.5-3.2-9.4-9.1-15.7-15.3c0.3-0.4,0.7-0.8,1-1.2c2.5-3.1,4.5-5.3,6-6.9c2.9-3.1,4.4-4.7,2.9-7c-0.2-0.4-0.7-0.9-1.4-1.5
	l23.6-34.7l20.1,14.1C276.7,531.2,248.3,570.9,244.3,577.8z M256,590.8c-2.3-3.2-6.2-8.4-8.9-10.2c-0.3-0.2-0.8-0.6-1.4-1.2
	c0.1-0.2,0.3-0.5,0.4-0.7c1-1.7,3.5-5.5,6.8-10.3l13.2,9.7C263.4,581.6,259.8,586.2,256,590.8z M269.8,573.4
	c-0.5,0.7-1.3,1.8-2.4,3.2l-13.3-9.8c0.8-1.2,1.7-2.4,2.6-3.7l13.9,9.2C270.2,572.9,269.9,573.2,269.8,573.4z M271.7,570.7
	l-13.9-9.2c3.9-5.5,8.1-11.6,12-17.1l13.4,9C278,561.2,274,567.3,271.7,570.7z M284.4,551.7l-13.4-9c5.4-7.7,10-14,11.3-15.9
	l12.7,8.9C291.2,541.5,287.6,546.9,284.4,551.7z M296.2,534l-34.4-24.2l11-15.8l20.1,13.2c-1.4,2.7-2.9,5.2-3.5,5.8
	c-1-0.2-3.6-1.5-5.6-2.7c-0.5-0.3-1.1-0.1-1.4,0.4s-0.1,1.1,0.4,1.4c0.8,0.5,5.1,3,6.9,3c1,0,2-1.2,5-6.8l13,8.6
	C303.6,522.9,299.8,528.6,296.2,534z M299.9,538.3c7.6-11.5,16.3-24.5,25-37.6l17.2,11.9c-2.5,3.9-13.5,20.4-24.3,36.7L299.9,538.3z
	 M332.9,586.7l-25.3-18.3c3.3-5,7-10.6,10.8-16.3l25.8,15.9L332.9,586.7z M356.5,573.2l-10.3-6.4l0,0l0,0l-26.7-16.4
	c10.8-16.3,21.7-32.7,24.2-36.7l30.2,20.9c-4.3,8.2-7.8,15.5-10.1,21.4C361.3,562.2,358.9,567.9,356.5,573.2z M387.1,594.5
	l-27.2-19.1c2.2-4.9,4.6-10.2,6.9-16l29.7,21.1L387.1,594.5z M398.1,578.3l-30.2-21.4c2.3-5.5,5.5-12.3,9.5-20l33.2,22.9
	L398.1,578.3z M410.4,591.7l-10.7-12.1l3.4-5l12.1,13.1L410.4,591.7z M417.2,585.9l-12.6-13.6l7.5-11l14.6,16.7L417.2,585.9z
	 M428.3,576.6l-15-17.1l15.9-23.6l68.1-57l19.7,22.8L428.3,576.6z M498.4,477.1c1.4-2.6,4.7-8.7,9.3-17.3c0.7,0.1,1.4,0.2,2.2,0.3
	l22.2,28.7l-13.6,11.6L498.4,477.1z M528.1,511.5l-8.3-9.6l38.8-32.8c0.9,1.8,2,3.5,3.3,5.3c1,1.4,2,2.8,3.1,4.6L528.1,511.5z
	 M570,496.4c-1-2-4.1-8.8-6.2-13.5l2.4-2.1c1.1,2,2.1,4.3,3.1,7.1c0.8,2.3,1.6,5,2.4,8C571,496.1,570.4,496.2,570,496.4z
	 M580.6,540.1c-0.1,1.3-0.3,3.5-0.7,6.4l-5.4-0.5C576.6,543.9,578.9,541.7,580.6,540.1z M570.4,550.5c0.5-0.7,1.3-1.6,2.3-2.6l7,0.7
	c-0.5,4-1.1,9-1.8,14.5l-19.6-0.9C564.8,556.1,569.6,551.6,570.4,550.5z M549.8,561c0.1-0.3,0.2-0.5,0.3-0.7
	c0.1-0.3,0.2-0.6,0.3-0.8c0.7,0.1,1.7,0.1,2.5,0.1c0.4,0,1.3,0.3,2.3,0.8c-1.2,1.1-2.5,2.3-3.8,3.5
	C550.4,562.8,549.7,561.6,549.8,561z M575,584.6l-36.5-4.5c6.2-5.6,12.4-11.2,17.7-16.1l21.5,0.9C576.8,571.3,575.9,578.1,575,584.6
	z M676.4,534.2l-37.3-4.7c-0.6-0.1-1.1,0.3-1.1,0.9c-0.1,0.6,0.3,1.1,0.9,1.1l37.3,4.7l-6.5,60l-92-11.2c2.4-18.1,5.7-42.8,5.7-45.9
	c0-0.4,0-0.9-0.1-1.5c0.4-0.6,0.3-1.4-0.2-2c0,0,0,0-0.1-0.1c-1.4-9.9-6.7-35-11.3-48.5c-2.3-6.8-5.2-10.9-7.6-14.2
	c-3-4.1-4.9-6.9-4.1-12.7c0.1-1,0.4-2.3,0.9-3.8c14.2,7.5,24.2,12.7,25.2,12.9c0.1,0,0.3,0,0.4,0c0.3,0,0.7-0.1,1.2-0.4
	c2.1-1.5,3.7-7.8,5.2-17.6c0-0.1,0-0.2,0-0.2c0.2-1.4,0.4-2.8,0.7-4.4c0.1-0.8,0.2-1.5,0.3-2.1c0.7-4.3,1.1-8.4,1.2-10.6
	c5.9-0.2,18.2-1.4,28.6-2.6c5-0.6,9.1-1.1,12.5-1.6c8.3,34.2,20.4,45.6,42.4,66.1l1.7,1.5L676.4,534.2z M681.5,486.3
	c-11.6-9.5-19-19.6-23.7-26c-3.6-4.9-8.3-17.8-12.7-31.7c6.2-1.1,6.7-1.8,7-2.1c1.8-2.3,3.2-17.3,3.7-22c2.5-11.3,10.6-48,9.1-51.7
	c-0.4-1-1.1-2.8-28.9-15.3c-11.6-5.2-23.2-10.2-26.3-11.5c0.9-6.9,2.1-13.7,2.7-15.7c4.3,1.5,28.3,14.2,43.8,22.5
	c-0.1,6-0.2,9.8-0.2,10c0,0.5,0.2,0.9,0.6,1.2c0.1,0.1,8.5,5.4,16.9,10.6c1.2,0.8,2.5,1.5,3.8,2.3c7.1,4.2,15.9,9.5,16.4,12.9
	c0.6,3.7-2.5,28.1-3.7,37.3L681.5,486.3z M722.2,507.2c-15.9-4.3-28.4-11.3-38.1-18.9l0.2-1.8c4.5,0.5,18.8,2,23.3,2.2
	c-0.1,2.6-0.3,8.4,1.2,10.4c1.2,1.6,3.6,1.8,6,1.9c1.6,0.1,3.3,0.2,4.2,0.7c1.2,0.7,4.5,3.7,7.5,6.5
	C725,508,723.5,507.6,722.2,507.2z M879.1,541.8c2,0.9,8,5.7,13.8,10.5c-2-0.9-4.1-1.7-6.2-2.5c-6-2.3-12.3-4.5-19-6.7l0,0
	c0,0-0.8-2.2-2.1-4.5C869.1,539.2,876,540.5,879.1,541.8z M876.3,505.6c1.1,7.7,2.1,16.4,1.3,17.8c-0.3,0.4-0.9,1-1.7,1.8
	c-3.1-3.8-7.5-9.6-7.8-11.4C868,512.5,872,508.7,876.3,505.6z M874.1,493.9c0.3,0.8,1.1,4.7,1.8,9.4c-3,2.1-10.3,7.6-9.8,10.7
	c0.4,2.8,6.1,9.8,8.3,12.5c-3.2,2.8-7.9,6.6-10.8,9c-0.1,0-0.1,0-0.2,0c-1-1.2-2.2-2.1-3.4-2.4c-0.8-0.2-3.1-0.6-6.4-1.2
	c-6.5-1.2-16.4-3.1-21.3-4.3l-0.4-0.1c-2.9-0.7-5.8-1.5-8.8-2.3c0.4-2.6,1.1-7.6,0.7-11.2c-0.1-0.9-0.8-3.9-1.8-8
	c0.4-0.2,0.8-0.3,1.1-0.5c3.8-1.9,27.3-25.6,32.4-30.7c2.1,1.9,3.6,3.2,3.8,3.4C860.6,479.2,873.5,492.2,874.1,493.9z M841.8,458.4
	c1.8-3,19.6-21.7,21.5-23c0.2-0.1,0.9-0.2,1.4,0.1c0.7,0.5,1.2,1.8,1.3,3.7c0.1,3,1.8,10.7,3.3,17.5c1,4.6,2,9.4,2,10.3
	c-0.1,1.3-5,6.5-9.6,10.6c-0.6-0.6-1-0.9-1.1-1c-0.4-0.3-2.1-1.8-4.3-3.8l0,0c0,0,0,0-0.1,0c-1-0.9-2.2-2-3.3-3.1l0,0l0,0
	C848.1,465.1,842.7,459.9,841.8,458.4z M821.6,504c-0.1-0.3-0.2-0.6-0.2-0.9l30.8-31.4c0.6,0.6,1.3,1.2,1.9,1.7
	c-8.5,8.6-28.7,28.7-31.8,30.3C822,503.8,821.8,503.9,821.6,504z M770.8,538.2c-1.5-2-5-6.5-7-7.6c-2.5-1.3-19.4-5.6-24.1-6.3
	c-2.6-0.4-2.8-1.4-3-3.2c0-0.3-0.1-0.7-0.2-1.1c2.4,0.6,4.9,1.2,7.5,1.8l23.7,7.3c2.3,2.5,3.6,6.8,4,8.5
	C771.4,537.8,771.1,538,770.8,538.2z M773.6,536.5c-0.4-1.5-1.3-4.1-2.7-6.4l11.5,3.5C779.4,534,776.2,535.2,773.6,536.5z
	 M768.8,527.3L768.8,527.3c3.1,0.7,6.2,1.3,9.3,2c5.4,1.2,10.9,2.3,16.3,3.5c0,0.7,0,1.6,0,2.4L768.8,527.3z M792.4,536.7l2.1,0.7
	c0,0.7,0.1,1.5,0.1,2.3C794,538.5,793.2,537.5,792.4,536.7z M769.5,518.3c-0.5-0.1-0.9-0.2-1.3-0.3c1.1-0.8,2.5-1.5,3.8-1.5
	c0.9,0,7.7,1,59.1,14.2l0.4,0.1c5,1.3,15,3.2,21.6,4.4c3,0.6,5.5,1,6.2,1.2c1,0.2,2.8,2.6,4.1,5.3
	C833.5,532.5,798.7,524.8,769.5,518.3z M794.4,591.5c1.1-1.5,2.2-3.4,3.1-5.7c0.7-1.8,1.2-3.5,1.5-5.1c0.5,3.6,0.9,6.7,1.2,9
	C798.2,590.3,796.3,590.9,794.4,591.5z M802.2,589.1c-0.2-1.5-0.4-3.3-0.7-5.3c1.3,1.9,2.9,3.3,4.3,4.3
	C804.6,588.5,803.4,588.8,802.2,589.1z M860.3,588.7c-5.1,0.7-7.3-0.4-10.3-2c-1.2-0.6-2.5-1.3-4-1.8c10.3-2.6,20.2-5.2,27-7.1
	c3.7-1,7.4-2.1,10.9-3.1C876,580.8,867,587.8,860.3,588.7z M817.6,585.6c-3.1,0.6-6.2,1.2-9.1,1.9c-2.9-1.7-7.3-5.3-8.3-12.5l0,0
	c-0.2-1.1-0.4-2.3-0.5-3.4l0,0l0,0c0-0.2-0.1-0.4-0.1-0.6c-0.8-5.1-1.7-13-2.3-20.6v-0.1c0-0.2,0-0.3-0.1-0.5
	c-0.3-4.1-0.6-8.2-0.7-11.6c4.8,1.7,20.3,7.4,35.1,12.8l-0.3,2.1c-0.6,0-1.2,0.1-1.9,0.2c-1.6,0.2-3.7,0.4-6.6-0.1
	c-4.1-0.8-4.9-0.8-6.2,1.1c-0.2,0.2-0.3,0.5-0.6,0.8c-1.6,1.9-3.7,4.2-3.8,4.2c-0.4,0.4-0.4,1.1,0,1.4c0.4,0.4,1.1,0.4,1.4,0
	c0.1-0.1,2.3-2.4,3.9-4.4c0.3-0.3,0.5-0.6,0.7-0.9c0.6-0.9,0.6-0.9,4.1-0.2c3.3,0.6,5.5,0.3,7.2,0.1c1-0.1,1.7-0.2,2.4-0.1
	c1.9,0.2,6,3.4,6,5.6c0,0.8,0,1.5-0.1,2.3c-0.1,2-0.3,3.9,1,5.5c1,1.4,4.1,4.6,5.9,6.4c-9.2,2.3-19.3,4.7-24.9,6
	c-0.8,0.2-1.4,0.3-2.1,0.5l-0.8-2.9l8.5-8.3c0.4-0.4,0.4-1,0-1.4s-1-0.4-1.4,0l-7.8,7.6l-0.1-0.1l-1.4-1.1c-0.4-0.3-1.1-0.3-1.4,0.2
	c-0.3,0.4-0.3,1.1,0.2,1.4l1.1,0.9l1.2,4.3c-3.6,0.8-4.1,1-4.3,1.1c-0.4,0.1-2.2,0-3.7-0.1c-0.6,0-1.1,0.4-1.1,0.9
	c0,0.6,0.4,1.1,0.9,1.1c1.1,0.1,2,0.1,2.8,0.1c0.9,0,1.5-0.1,1.9-0.2c0.4-0.1,3.8-0.9,8-1.9c32.7-7.7,44.8-10.9,46.1-12.1
	c1.5-1.4,1.6-5,1.6-7.1v-0.1c1.3,0.1,2.7,0.1,4.2,0.1c4.7,0,10.4,0,17.7,1.9c1,0.3,1.9,0.6,2.8,0.9
	C874.6,571.8,838.4,581.9,817.6,585.6z M833.4,553.3l0.2-1.7c13.5,5,26,9.6,28.4,10.7c1.3,0.6,2.6,0.9,4.1,1c0,0.1,0,0.2,0,0.4
	c0.1,3.1-0.4,5-0.9,5.5c-1,0.7-8.8,2.8-18,5.1c-1.3-1.3-5.4-5.5-6.6-7.1c-0.8-1-0.7-2.4-0.6-4.1c0.1-0.8,0.1-1.6,0.1-2.4
	C840.2,557.5,836.1,554.3,833.4,553.3z M862.9,560.4c-3.3-1.5-23.7-9-41.2-15.4c20.9,5.7,41.5,11.4,43,12.3c0.4,0.3,0.9,1.8,1.3,3.9
	C864.8,561.1,863.8,560.9,862.9,560.4z M897.7,564.9c-0.6,0.2-1.2,0.4-1.9,0.6c-1.6-0.8-3.3-1.5-5.2-2c-7.6-2-13.5-2-18.3-1.9
	c-1.6,0-3,0-4.3-0.1c-0.3-2.4-0.9-4.7-2.1-5.7c-2-1.6-51.3-14.8-66.4-18.8c-1.3-0.5-2.4-0.9-3.1-1.1c0-0.9,0-1.8,0-2.6
	c26.6,5.8,53.1,12.1,76,20.2c10,3.5,18.4,7.4,25.4,11.4C897.8,564.8,897.8,564.9,897.7,564.9z M908.3,590.3c-2,1-4.1,2.2-5.9,3.4
	c0.7-1.1,1.2-2.4,1.7-3.7c0.9-2.6,1.3-5.1,1.3-7.6c1.4,3.2,2.7,6.2,3.3,7.7C908.5,590.2,908.4,590.3,908.3,590.3z M921.1,586.7
	c-3.1-1.3-6.3,0.3-10.7,2.5c-1.4-3.9-5.8-13.3-6.4-14.6c-0.3-0.7-0.6-1.4-0.9-2.1c-0.6-1.1-1.3-2.1-2.1-3c1.1-0.4,2.1-0.7,2.9-0.9
	c0.1,0,0.1,0,0.2,0c0.1,0,0.1,0,0.2,0c12.7,8.3,20.3,16.8,24.7,23.5c0.3,0.4,0.6,0.9,0.8,1.3C926.3,590.2,922.7,587.4,921.1,586.7z"
	/>
</svg>
