<?xml version="1.0" encoding="utf-8"?>
<!-- Generator: Adobe Illustrator 23.0.3, SVG Export Plug-In . SVG Version: 6.00 Build 0)  -->
<svg version="1.1" id="Capa_1" xmlns="http://www.w3.org/2000/svg" xmlns:xlink="http://www.w3.org/1999/xlink" x="0px" y="0px"
	 viewBox="0 0 72.1 12" style="enable-background:new 0 0 72.1 12;" xml:space="preserve">
<style type="text/css">
	.st0{fill:none;}
	.st1{fill:#FFFFFF;}
</style>
<rect class="st0" width="72.1" height="12"/>
<g>
	<path class="st1" d="M14.8,1.3l-1.5,0.8c0,0-0.1-0.1-0.1-0.1c0,0,0,0,0,0c0,0,0,0,0,0c-1.1-1-2.5-1.6-4-1.6C6,0.4,3.5,2.9,3.5,6.1
		c0,0.8,0.2,1.6,0.5,2.3l0.9-0.5C4.6,7.3,4.5,6.7,4.5,6.1c0-2.6,2.1-4.7,4.7-4.7c1.6,0,3,0.8,3.9,2l0.9-0.5l4.2-2.3l-4-0.5L14.8,1.3
		z"/>
	<path class="st1" d="M13.5,4.3c0.2,0.6,0.4,1.2,0.4,1.8c0,2.6-2.1,4.7-4.7,4.7c-1.6,0-3-0.8-3.9-2L4.4,9.2l-4.2,2.3l4,0.5l-0.6-1.2
		L5.1,10c0,0,0.1,0.1,0.1,0.1c0,0,0,0,0,0c0,0,0,0,0,0c1.1,1,2.5,1.6,4,1.6c3.1,0,5.7-2.6,5.7-5.7c0-0.8-0.2-1.6-0.5-2.3L13.5,4.3z"
		/>
	<path class="st1" d="M10.7,9.7c0.9-0.4,1.6-1.1,2.1-1.9l0,0c-0.1,0.1-0.3,0.1-0.4,0.2l0,0c0,0,0,0,0,0c-0.7,1.1-1.7,1.7-3,1.7
		c-0.2,0-0.4,0-0.6,0l-0.1,0l0-0.1c0,0,0-0.1,0.1-0.1l0.2-0.1C8.9,9.2,9,9.1,9.1,9.1c0.1,0,0.1,0,0.2,0c0.2,0.1,0.3,0,0.4-0.1
		c0.1-0.1,0.2-0.3,0.1-0.4C9.8,8.3,9.6,8.2,9.4,8.2C9.2,8.2,9,8.4,9,8.6c0,0,0,0.1-0.1,0.1C8.6,9,8.3,9.3,7.9,9.6
		c0,0-0.1,0.1-0.1,0.1C8.7,10.1,9.7,10.1,10.7,9.7z"/>
	<path class="st1" d="M7.8,8.6C8.5,8,9.3,7.5,10.1,7.1c0.1,0,0.1,0,0.2,0c0.1,0,0.2,0.1,0.2,0.1c0,0,0,0,0,0c0.2,0,0.4-0.2,0.4-0.4
		c0-0.2-0.2-0.4-0.4-0.4c-0.2,0-0.4,0.1-0.5,0.3c0,0.1,0,0.1-0.1,0.2C9.2,7.2,8.5,7.7,7.8,8.2C7.5,8.5,7.1,8.8,6.7,9.1
		C6.8,9.2,6.9,9.2,7,9.3C7.2,9.1,7.5,8.8,7.8,8.6z"/>
	<path class="st1" d="M13,7c0-0.1,0-0.2,0.1-0.4c-0.3,0.1-0.5,0.2-0.8,0.3c-0.7,0.3-1.4,0.7-2.1,1.1c0.1,0.1,0.1,0.2,0.2,0.3
		c0.3-0.2,0.6-0.3,0.9-0.5C11.7,7.5,12.3,7.3,13,7C13,7,13,7,13,7z"/>
	<path class="st1" d="M6.7,3.1C5.7,3.8,5.2,5,5.3,6.2C5.6,6,5.9,5.7,6.2,5.5c0.5-0.3,0.9-0.7,1.5-1c0.1,0,0.1,0,0.2,0
		c0.2,0.1,0.3,0,0.5-0.1c0.1-0.1,0.2-0.3,0.1-0.4C8.4,3.7,8.2,3.6,8,3.6C7.8,3.7,7.6,3.8,7.6,4c0,0.1,0,0.1-0.1,0.2
		C6.9,4.5,6.4,4.9,5.9,5.3c0,0-0.1,0-0.1,0.1L5.7,5.4l0-0.1c0-0.1,0-0.1,0-0.1l0-0.1c0-0.1,0-0.1,0.1-0.2C6,4.2,6.4,3.6,7,3.2
		c0.7-0.5,1.5-0.8,2.3-0.7c0,0,0.1,0,0.1,0c0.2-0.1,0.3-0.1,0.5-0.2c0,0,0,0,0,0C9.7,2.2,9.4,2.2,9.2,2.2C8.3,2.2,7.4,2.5,6.7,3.1z"
		/>
	<path class="st1" d="M10.9,2.6C10.5,2.7,10.1,2.9,9.7,3C9.3,3.2,9,3.3,8.7,3.5c0.1,0.1,0.1,0.2,0.2,0.3c0.1-0.1,0.2-0.1,0.3-0.2
		c0.6-0.3,1.2-0.5,1.8-0.8c0.1,0,0.2-0.1,0.3-0.1C11.2,2.7,11.1,2.6,10.9,2.6C10.9,2.6,10.9,2.6,10.9,2.6z"/>
	<path class="st1" d="M11.8,4.7C10.8,5,9.9,5.5,9.1,6C8.7,6.1,8.4,6.3,8.2,6.5c0.1,0.1,0.1,0.2,0.2,0.3C8.8,6.5,9.2,6.3,9.6,6
		c0.8-0.4,1.6-0.8,2.4-1.1c0.3-0.1,0.6-0.2,0.8-0.3c0-0.1-0.1-0.2-0.1-0.3C12.4,4.5,12.1,4.6,11.8,4.7z"/>
	<path class="st1" d="M13.1,5.5C13,5.5,13,5.5,13.1,5.5c-0.4,0-0.8,0.2-1.3,0.4c-0.2,0.1-0.4,0.2-0.6,0.3c0,0,0.1,0.1,0.1,0.1
		c0,0.1,0.1,0.1,0.1,0.2c0.6-0.3,1.2-0.5,1.8-0.7C13.1,5.7,13.1,5.6,13.1,5.5z"/>
	<path class="st1" d="M9.5,4.7c0.1,0,0.1,0,0.2,0c0.1,0,0.2,0.1,0.2,0c0.2,0,0.4-0.2,0.4-0.4c0-0.2-0.1-0.4-0.4-0.4c0,0,0,0,0,0
		c-0.2,0-0.4,0.1-0.4,0.3c0,0.1-0.1,0.2-0.2,0.2l0,0c-0.6,0.3-1.2,0.7-1.8,1C7,5.9,6.5,6.2,6.1,6.6C5.8,6.8,5.6,7,5.4,7.2
		c0,0.1,0.1,0.2,0.1,0.3c0.3-0.3,0.7-0.6,1-0.9c0.5-0.4,1-0.8,1.6-1.1C8.6,5.3,9,5,9.5,4.7z"/>
	<path class="st1" d="M6.1,8.5c0.3-0.3,0.7-0.6,1.1-0.9c0.1-0.1,0.1-0.1,0.2,0c0.1,0,0.3,0,0.4-0.1C7.9,7.4,8,7.3,8,7.1
		c0,0,0-0.1,0-0.1C7.9,6.8,7.7,6.7,7.5,6.7C7.3,6.8,7.1,7,7.1,7.2c0,0.1,0,0.1-0.1,0.2c-0.3,0.3-0.7,0.6-1.1,1C6,8.3,6,8.4,6.1,8.4
		C6.1,8.5,6.1,8.5,6.1,8.5z"/>
	<path class="st1" d="M11.4,3.6c-0.2,0.1-0.5,0.2-0.7,0.3c0.1,0.1,0.1,0.2,0.1,0.3l0.2-0.1c0.4-0.2,0.8-0.3,1.3-0.5
		c-0.1-0.1-0.1-0.2-0.2-0.3C11.8,3.5,11.6,3.5,11.4,3.6z"/>
</g>
<g>
	<path class="st1" d="M26,9l-0.7-1c-2.6-3.9-3.9-5.9-4.1-6.1l0,0h-0.6v8.2h0.6V3l4.8,7.1l0,0h0.5V1.9H26V9z"/>
	<path class="st1" d="M35.1,3.7c-0.2-0.5-0.6-0.9-1.1-1.3C33.4,2.1,32.8,2,32.1,2h0c-0.3,0-0.6,0.1-1,0.2c-0.7,0.2-1.3,0.7-1.7,1.3
		c-0.3,0.6-0.5,1.2-0.5,1.9v1.4c0,1.1,0.4,2.1,1.2,2.7c0.6,0.4,1.3,0.6,1.8,0.6h0.2c0.9,0,1.7-0.3,2.4-0.9c0.6-0.6,0.9-1.4,0.9-2.3
		V5.1l0-0.4C35.3,4.3,35.2,3.9,35.1,3.7z M34.4,8.3c-0.1,0.2-0.4,0.5-0.6,0.7c-0.5,0.3-1,0.5-1.5,0.5h-0.2c-0.1,0-0.4,0-0.7-0.1
		c-1.3-0.4-1.9-1.3-1.9-2.7V5.3c0-0.4,0.1-0.8,0.2-1.2c0.3-0.6,0.8-1,1.4-1.3c0.4-0.1,0.8-0.2,1-0.2l0.3,0c0.4,0,0.8,0.2,1.4,0.5
		c0.7,0.6,1.1,1.3,1.1,2.1l0,1.8C34.8,7.7,34.6,8.1,34.4,8.3z"/>
	<path class="st1" d="M40.2,2.2c-0.9,0.4-1.6,1-2,1.9c-0.3,0.7-0.5,1.3-0.5,1.9c0,0.4,0.1,1,0.3,1.6c0.1,0.3,0.4,0.7,0.7,1.1
		c0.9,0.9,1.9,1.4,3,1.4h2.5V9.6h-2.2c-0.6,0-1.2-0.1-1.5-0.3C40,9.1,39.4,8.6,39,8c-0.3-0.5-0.5-1.1-0.6-1.7h4.1V5.7h-4.1l0-0.2
		C38.5,5,38.7,4.4,39,3.9c0.8-1,1.7-1.5,2.9-1.5h2.3V1.9H42C41.4,1.9,40.8,2,40.2,2.2z"/>
	<path class="st1" d="M52,9l-0.7-1c-2.6-3.9-3.9-5.9-4.1-6.1l0,0h-0.6v8.2h0.6V3l4.8,7.1l0,0h0.5V1.9H52V9z"/>
	<path class="st1" d="M60,2.4c-0.5-0.3-1-0.5-1.6-0.5h0c-0.6,0-0.8,0-0.8,0.1c-0.8,0.2-1.4,0.4-1.7,0.8c-0.6,0.6-0.9,1.5-0.9,2.5
		l0,4.8h0.6V6.3h5.3v3.8h0.6v-5C61.4,4,60.9,3.1,60,2.4z M60.8,5.8h-5.3V5.3c0-0.7,0.2-1.4,0.7-1.9c0.5-0.6,1.2-0.9,2.1-0.9
		c0.6,0,1.2,0.2,1.8,0.6c0.5,0.6,0.8,1.2,0.8,1.9V5.8z"/>
	<path class="st1" d="M65.2,2.6c0.2-0.1,0.6-0.2,1.1-0.2h3.9V1.9H66c-0.5,0-0.9,0.1-1.3,0.4c-0.6,0.5-0.9,1.1-0.9,1.8v0.1
		c0,0.5,0.2,1,0.5,1.4c0.4,0.4,0.9,0.7,1.3,0.7l2.5,0l0.3,0.1c0.4,0.1,0.7,0.4,0.9,0.6c0.2,0.4,0.3,0.7,0.3,0.9
		c0,0.8-0.3,1.3-0.9,1.6c-0.2,0.1-0.5,0.1-1.1,0.1h-3.9v0.5h4.5c0.2,0,0.5-0.1,0.9-0.2c0.7-0.4,1.1-1.1,1.1-2c0-0.7-0.3-1.3-0.8-1.8
		c-0.4-0.3-0.7-0.4-1-0.4h-2.6c-0.2,0-0.4,0-0.6-0.1c-0.6-0.3-0.9-0.8-0.9-1.5C64.4,3.4,64.6,2.9,65.2,2.6z"/>
</g>
</svg>
