<?xml version="1.0" encoding="utf-8"?>
<!-- Generator: Adobe Illustrator 23.0.3, SVG Export Plug-In . SVG Version: 6.00 Build 0)  -->
<svg version="1.1" id="Capa_1" xmlns="http://www.w3.org/2000/svg" xmlns:xlink="http://www.w3.org/1999/xlink" x="0px" y="0px"
	 viewBox="0 0 989 464.2" style="enable-background:new 0 0 989 464.2;" xml:space="preserve">
<style type="text/css">
	.st0{fill:url(#SVGID_1_);}
	.st1{fill:#FFFFFF;}
</style>
<linearGradient id="SVGID_1_" gradientUnits="userSpaceOnUse" x1="494.3984" y1="464.4204" x2="494.3984" y2="39.5798">
	<stop  offset="0" style="stop-color:#515151"/>
	<stop  offset="0.5867" style="stop-color:#515151;stop-opacity:0.5531"/>
	<stop  offset="0.6564" style="stop-color:#515151;stop-opacity:0.5"/>
	<stop  offset="1" style="stop-color:#515151;stop-opacity:0"/>
</linearGradient>
<path class="st0" d="M706.2,436.8C765.9,407,948.3,320,988.9,300.6v-5.9c-36,17.1-230,109.7-287.8,138.7c-1.3-0.8-2.6-1.6-4-2.2
	c-4.5-4-14.3-12.4-17.1-13.5c-2.5-1.1-7.8-2.1-10.6-2.5c2.2-1.8,5.6-4.6,7.9-6.6l0,0l0,0c1-1,1.8-1.7,2.2-2.2c1.1-1.6,0.2-9.6-1-16
	c0-0.1,0-0.3-0.1-0.4c-0.7-4.1-1.4-7.5-1.6-8c-0.5-1.4-6.7-7.7-9.9-11c2.5-2.3,7.9-7.4,7.9-9.2c0-0.9-0.6-3.5-1.6-8.3
	c-1.1-4.9-2.4-11.1-2.5-13.2c-0.1-2-0.7-3.4-1.7-4.1c-0.8-0.4-1.7-0.5-2.5-0.3c-1.1,0.4-17.5,17.5-17.6,19.1
	c-0.1,0.5-0.2,1.1,7.5,8.3c0.4,0.4,0.7,0.7,1.1,1l-23.1,23.5c-1.3-5.2-2.9-11.7-4.6-18.1c-2.9-11.3-5.8-22.9-6-24.3
	c-0.4-3.2,3.7-75.5,4.1-78.7c0.3-1.7,1.6-17.8,3-36.4c1.3,0,4.1,0.1,5.9,0.1c0.4,0,1.2,0.1,2.2,0.2c1.6,0.2,3.3,0.4,4.7,0.4
	c2.6,0,4.9-0.4,5.2-2.3c0.4-2.9,0-4.6-1.6-6.9c-0.8-1.1-0.7-1.6-0.6-3.5c0.1-1,0.2-2.1,0.2-3.8c0-2.4,0.4-4.5,0.7-7
	c0.4-2.7,0.9-5.7,1-9.5c0.2-5.4,0.1-6-0.8-7.5c-0.3-0.4-0.5-1-0.9-1.8c-1.4-3.4-0.6-6.6,0.4-10.2v-0.1c0.6-2.3,1.8-3.3,2.7-4.1
	c0.4-0.4,1-0.8,1.2-1.2c0.4-0.7,1-2.2,0.6-8.3c-0.2-3.1-1.8-3.3-4.9-3.9c-2.6-0.4-8.3-0.4-10.6-0.4c0.1-1.1,0.2-2.2,0.4-3.5
	c0.3,0.1,0.5,0.1,0.9,0.1s1-0.1,1.6-0.4c1-0.4,1.7-1.1,2.2-2.3c1-2.2,1.3-15.6,1.6-30.2c0.1-4.7,0.3-8.8,0.4-9.5
	c1-6.7,2.6-10,4-11.8c1-1.3,1.8-1.8,2.6-2.2c1.4-0.7,2.2-1.3,2.2-4.6c0-0.4-0.1-0.9-0.1-1.2c3.8-2.2,8.4-4.7,12-6.5
	c0.6-0.3,1.2-0.4,1.8-0.7c5.4-2,123.7-64.2,127.8-67.1c0.4-0.3,0.7-0.4,1.1-0.8c0.2,0.1,0.4,0.2,0.4,0.1c4.6-0.5,9.7-1,10.4-0.9
	c0.2,0.2-0.1,1.1-0.7,1.7c-0.2,0.1-1,0.1-1.6,0.1c-2-0.1-5.4-0.2-7.6,3.1c-1.1,1.7-1,3.6,0.4,5.4c1.6,2.2,5.2,4.1,6.7,3.7
	c1.4-0.4,1.8-2.9,2.4-6.8c0.2-1.1,0.4-2.1,0.4-2.9c0.1-0.4,0.2-0.5,0.4-0.6c0.4-0.3,1.3,0.1,2,0.4c1,0.4,1.8,0.5,2.4-0.1
	c0.4-0.4,0.5-1.4,0.6-3c5.4,1.7,20.1,4.6,30.9,6.7c3.1,0.6,5.8,1.1,7.9,1.6l-1.9,6.2l0,0l0,0c0,0.2-2.9,12.9-4,28.6
	c-1,16,0,44.4,2.7,54.8c2.9,11.2,7.5,15.6,10.9,15.9c1.3,0.2,2.7-0.3,4.1-0.6c2.5-0.7,4.8-1.3,7.1,0.4c2.8,2.2,2.2,12.5,1.9,18
	c-0.1,1.6-0.2,2.9-0.2,3.9c0,4.7,0,14.5,2.4,18.7c2.4,4.3,7.5,10.3,11.2,12.3c3.3,1.8,11.2,12,15.1,18.3c2.6,4.1,1.8,6.9,1.1,9.6
	c-0.3,0.7-0.4,1.4-0.5,2.1c-0.5,2.6,0.2,3.2,3.2,5.9c1.6,1.3,3.6,3.2,6.7,6.1c4.6,4.4,10.6,9.8,16.9,14.9c7.3,6,13.4,10.5,17.5,12.7
	c8.5,4.7,20.1,10.8,25.1,12c4.7,1.2,18.2,2.6,18.8,2.7h0.1c0.4,0,0.8-0.4,0.8-0.7c0.1-0.4-0.4-0.9-0.7-0.9c-0.2,0-13.9-1.4-18.6-2.6
	c-4.5-1.1-15.6-6.9-24.7-11.9c-3-1.7-7.4-4.7-12.6-8.8c4.7,1.6,12,4.1,17.6,5.1c1.8,0.4,3.3,0.4,4.5,0.4c2.1,0,3.5-0.4,4.7-1.3
	c1.8-1.5,2-4,2-6.4c0-3.3-1.7-12.5-3.2-20.6c-1-5.5-2-10.7-2.2-13.2c-0.3-2.3-0.4-5.1-0.6-8c-0.4-4.5-0.6-9.6-1.3-14.8
	c-0.4-3-2.2-10.2-4.4-18.5c-3.6-14.2-8.6-33.6-7.5-37.5c1.6-5.9,1-9.5-0.2-15.1c-0.2-0.8-0.4-1.6-0.4-2.4
	c-1.2-6.9-22.4-102.2-22.7-103.2c-0.1-0.4-0.5-0.7-1-0.6s-0.7,0.5-0.6,1c0.2,0.9,16.4,74.3,21.4,96.9c-1.8-0.2-4.3,0.3-5.1,2.8
	c-1,3.1,10.5,54.8,12.7,65.1c0,0.2,3.7,17.8,4.2,26.5c0.4,5.3-0.5,13.9-1.1,20.8c-0.4,4.7-0.9,8.6-0.7,10.1c0.4,4.6,2.9,6.1,4.3,6.7
	c1.5,0.5,5.4,2.1,6.7,2.6c0.1,0.5,0.1,1.1,0.1,1.5c0,2.8-0.4,4.3-1.5,5.2c-1.3,1.1-3.9,1.2-7.9,0.4c-8.3-1.6-20.6-6.2-21.8-6.7
	c-0.3-0.3-0.4-0.4-0.8-0.6c-6.1-4.9-12.3-10.5-16.8-14.8c-3.1-3-5.3-4.8-6.7-6.2c-3-2.6-3-2.6-2.6-4.4c0.2-0.6,0.4-1.2,0.4-1.9
	c0.8-2.7,1.8-6.2-1.2-10.9c-3.5-5.6-11.9-16.8-15.6-18.8c-3.5-1.9-8.3-7.6-10.5-11.8c-2.2-3.9-2.2-13.7-2.2-17.9
	c0-1,0.1-2.2,0.2-3.8c0.4-6.6,1-16.5-2.5-19.3c-2.9-2.3-6-1.5-8.5-0.8c-1.3,0.4-2.5,0.7-3.5,0.5c-2.8-0.4-6.9-4.3-9.6-14.7
	c-2.6-10.3-3.6-38.5-2.6-54.4c0.9-13.6,3.2-24.9,3.8-27.7c0.4,0,1.2,0,2,0c1.5,0,3.3-0.1,4.5-0.4c1.3-0.4,2.2-1.6,2.2-3.2
	c0-1.7-1-3.9-4.1-4.7c-0.4-0.1-1.1-0.3-2.1-0.4l0.4-1c0.1,0,0.2,0.1,0.4,0.1l0,0h0.1c11.8,3.3,29,7.7,36,8.6
	c1.8,0.3,3.6,0.4,5.4,0.4c2.8,1,6,2.4,6.4,3.2c0.3,0.4,0,1.1-0.2,1.8c-0.3,1-0.6,2.2,0.4,2.9c0.4,0.3,0.6,0.4,0.9,0.4
	c0.6,0.4,0.6,0.4,0.6,0.7s-0.1,0.9-0.2,1.4c-0.4,1.9-0.7,4.3,0.4,5.4c0.5,0.5,1.3,0.8,2.1,1.1c1.1,0.4,1.8,0.7,2.2,1.5
	c0.4,1.2,0.3,5.6,0,8.5c-1.2,0.4-4,1-5.2,2.2c-1.3,1.2-1.7,1.5-2.4,1.7c-0.4,0.1-0.6,0.4-1,0.6c-0.4,0.3-0.8,0.7-1,1.1
	c-0.4,0.4-0.5,1-0.6,1.5c-0.2,0.8-0.1,1.9,1.1,3c0.7,0.6,1.4,0.9,2.1,0.9c0.6,0,1.1-0.3,1.6-0.5c0.1-0.1,0.1-0.1,0.2-0.2
	c1.2,0.2,4.3,0.5,7.5,0.5c2.1,0,4.1-0.2,5.8-0.6c1.5-0.4,2.5-1.2,3.2-2.4c0.8-1.4,0.7-2.9,0.5-3.8c0.1-0.3,0.2-0.5,0.2-0.8
	c0.4-1.8,1.2-4,2.2-6.3c1.1-2.6,2.3-5.5,3-8.6c1-4.1,0-5.6-1.1-6.8c-0.3-0.3-0.4-0.4-0.4-0.5c0-0.3,0-0.6,0-1.1
	c0-2.2-0.1-6.6-2.5-10.9c-0.6-1.1-1.4-2-2.2-2.7c-0.6-1.3-2-2.3-4.2-3.2c0.4-1.3,1-2.6,1.4-2.9s0.4-0.8,0.2-1.1
	c-0.3-0.4-0.8-0.4-1.1-0.2c-0.8,0.6-1.5,2.5-1.8,3.6h-0.1c-1-0.4-1.8-0.5-2.5-0.8c-0.5-1.1-1.1-2.3-1.7-3.3
	c-2.1-3.5-4.7-5.4-7.9-5.4h-0.1c-3.7,0-19.2-2.8-20.6-3.1c-0.4-0.1-0.9,0.2-1,0.5c-0.1,0.4,0.2,0.9,0.5,1c1.5,0.4,17,3.2,20.9,3.2
	c0,0,0,0,0.1,0c3.2,0,5.4,2.5,6.6,4.7c0.4,0.6,0.7,1.2,1,1.8c-0.2-0.1-0.4-0.1-0.4-0.2c-1.2-0.4-1.8-0.7-2.5,0.4
	c-0.4,0.7-2,2.3-2.5,2.9c-0.2,0.3-0.3,0.4-0.3,0.7c0.1,0.3,0.3,0.4,0.5,0.5l1.1,0.4c-1.1,1.1-2.9,3.3-3.1,5.4
	c-1.7,0.3-3.6,0.4-5.7,0.4c-0.1,0-0.1,0-0.2,0c-1.6,0-3.3-0.2-5.1-0.4c-6.1-0.8-20-4.3-31.1-7.3c0.4-0.2,1-0.4,1.3-0.6
	c2.1-1.2,3.6-3.3,4.1-5.5c0.9-3.9-1.4-7.7-1.5-7.9c-0.3-0.4-0.7-0.4-1.1-0.4c-0.4,0.3-0.4,0.7-0.4,1.1c0,0,2,3.5,1.3,6.7
	c-0.4,1.8-1.7,3.5-3.4,4.6c-1.1,0.7-2.9,1.3-5.3,0.7c-0.1,0-0.3-0.1-0.4-0.1l3.9-12.5c0.2-0.4-0.1-0.9-0.5-1c-0.4-0.2-0.9,0.1-1,0.5
	l-3.9,12.5c-3.4-1-6.2-1.7-8-2.2l-0.4-0.1c-2.9-0.8-31.6-6.6-37-6.8c-6-0.4-10,2.1-13,4.1c-4.1,3-122.1,65-127.4,67
	c-1.2,0.4-7.7,2.9-13.9,6.2c-0.8-2.1-2.2-3.5-3.4-3.9c-0.9-0.3-1.6,0-2,0.7c-0.7,1.1-0.3,3.3,0.7,6.1c-3.3,2.2-6.1,4.7-7,7
	c-2.3,5.5-4.4,48.7-5,62.8c-0.1,2.1-0.2,3.5-0.2,3.9c-0.1,0.8-7.2,93-7.8,97.3c-0.4,3.5-4.7,75.6-4.1,79.1
	c0.2,1.6,2.9,12.2,6.1,24.5c1.6,6.6,3.5,13.6,4.7,19l-0.9,0.9l-2.6,1.7c-0.1,0.1-0.2,0.1-0.2,0.2c-1.1,0.2-1.8,0.3-1.8,0.4
	c-0.4,0.1-0.8,0.4-0.7,0.9c0.1,0.4,0.4,0.7,0.8,0.7h0.1c0.2,0,3.3-0.4,6.1-1.3c0.7,3,1.2,5.2,1.3,5.9c0.4,2.5-0.3,6.1-0.5,8
	c-5.9-1.5-11.8-3-17.1-4.3c0.4-5.4,2.6-33.7,2.1-44.2c-0.3-3.7-0.4-6.6-0.6-9.1c-0.4-5.4-0.8-9.2-0.4-16.9c0.4-6.1,1.9-27.3,3.5-48
	c1.3-17.7,2.6-34.4,3-40.4c0.8-13,7.8-99.8,7.8-100.5c0-0.4-0.4-0.9-0.7-0.9c-0.4,0-0.9,0.4-0.9,0.7c-0.1,0.9-7.1,87.6-7.8,100.6
	c-0.4,6.1-1.6,22.7-3,40.4c-0.6,8.3-1.3,16.8-1.8,24.3c-9.9-0.4-25.5-1.3-27.2-2.2c-0.4-0.2-0.5-0.3-0.8-0.4c-1.7-0.8-2.3-1-2.3-7.5
	c0-7.7,3.9-58.4,4-58.9c0-0.4-0.4-0.9-0.7-0.9c-0.4-0.1-0.9,0.4-0.9,0.7c-0.1,1-0.9,10.6-1.6,22c-5.4-0.3-5.8-2.2-5.8-5.3
	c0-4.7,3.8-58.4,4.6-61.4c0.6-0.5,4.4,0,5.9,0.2c0.6,0.1,1.2,0.2,1.7,0.3c0.3,0,0.4,0.1,0.6,0.1c1.8,0.2,2.2,0.3,4.1,4
	c0.4,0.7,0.7,1.3,1,1.9c1.8,3.4,2.9,5.7,1.9,10.9l-0.3,1.3c-1.1,5.8-2.1,11.2-6.3,14.4c-4.9,3.7-5,6.1-4.9,6.4
	c0.1,0.4,0.4,0.8,0.9,0.7c0.4-0.1,0.8-0.4,0.7-0.9c0,0,0.1-1.8,4.3-5c4.7-3.5,5.9-9.2,6.9-15.4l0.3-1.3c1.1-5.7-0.4-8.5-2.1-11.9
	c-0.4-0.6-0.6-1.2-1-1.9c-2.2-4.4-3-4.7-5.4-4.9c-0.3,0-0.4,0-0.6-0.1c-0.4-0.1-1-0.2-1.6-0.3c-3.9-0.5-6.7-0.9-7.5,0.6
	c-0.2,0.4-0.6,1.1-2.7,30.3c-1.1,15.4-2,30-2,32c0,4.1,1.2,6.6,7.3,6.8c-1.1,14.5-2.2,31.1-2.2,35.4c0,7.1,0.9,7.9,3.3,9
	c0.3,0.1,0.4,0.3,0.8,0.4c2.4,1.2,22.9,2.1,27.8,2.3c-0.8,10.4-1.4,18.6-1.6,22.1c-0.4,7.7-0.1,11.7,0.4,17.1
	c0.3,2.5,0.4,5.4,0.6,9.1c0.5,10.2-1.6,37.8-2.1,43.7c-10-2.5-17.8-4.2-19.3-4.2c-2.6,0-5,1.9-6.2,3.1c-9.8-2.2-18.5-4.1-25.8-6
	c-2.5-2.5-6.6-6.4-8-7.2c-1.1-0.6-2.5-0.7-4-0.8c-1.4-0.1-3-0.2-3.5-0.9c-0.7-1-0.8-4.6-0.6-7.2c2.5-0.6,4.1-3.7,4.6-4.7
	c1-2.2-2.2-7.4-3.2-9c-0.3-0.4-0.7-0.4-1.1-0.3c-0.4,0.3-0.4,0.7-0.3,1.1c1.8,2.9,3.5,6.5,3,7.5c-0.9,1.8-2.3,3.9-3.9,3.9
	c-1.5,0.1-12.3-1-18.7-1.7l6.4-59.6c0.4-2.6,3.5-25.8,2.9-29.4s-6.9-7.4-13.7-11.4c-1-0.6-2-1.1-2.9-1.8c-5.4-3.3-10.9-6.8-12.5-7.8
	c0.2-6.2,1.1-58.6,1.4-64.1c0.4-6-1.7-9-4-12.4l-0.3-0.4c-0.5-0.8-1.1-2-1.6-3.5c2.7-1,10-4.1,10.4-4.3s0.6-0.6,0.4-1
	c-0.2-0.4-0.6-0.6-1-0.4c-2.3,1-8,3.5-10.3,4.2c-1.6-4.9-3.3-12-4.6-17.7c-1.1-5.2-1.9-14.8-2.5-23.6c4.7-0.3,9.2-1,10.5-1.2
	c0.2,0,0.4-0.1,0.8-0.2l0,0c4.7-0.9,26.5-3.5,39.6-4.6c13.7-1,24.4-4,24.5-4c0.4-0.2,0.7-0.5,0.5-1c-0.2-0.4-0.5-0.7-1-0.5
	c-0.1,0-10.7,2.9-24.2,4c-11.8,1-32.3,3.4-38.8,4.4v-5.4c0-2.5,4-26.5,6.2-38.9c0.1-0.4-0.3-0.9-0.6-1c-0.4-0.1-0.9,0.3-1,0.6
	c-0.3,1.5-6.2,35.9-6.2,39.2v5.7c-0.1,0-0.2,0.1-0.3,0.1c-1.1,0.4-5.7,1-10.2,1.2c-0.3-4.6-0.4-8.9-0.4-12.2
	c-0.2-7.5,0.9-16.1,2.6-22.9c1-3.6,4.1-15.2,6.9-24.8l10.4,9.8c0.2,0.2,0.4,0.3,0.5,0.3h0.1l57.9-4.7c0.4,0,0.8-0.4,0.7-0.9
	c0-0.4-0.4-0.8-0.9-0.7L518,88.1L507.4,78c1.1-4,2.3-7.4,3.1-9.8c2.9-8,13.5-34.8,16.5-40.5c3-5.9,6.9-16.1,7.2-16.5
	c0.3-0.5-0.1-1.1-0.6-1.4c-0.5-0.3-1.1,0.1-1.4,0.6c0,0.1-1.8,4.6-3.9,9.3l-6-2.5c1.1-3.2,2.1-5.6,2.1-5.7c0.2-0.4-0.1-0.9-0.4-1
	c-0.4-0.1-0.9,0.1-1,0.4c-0.1,0.4-3.9,10.1-5.4,16.2c-0.1,0.4-0.2,0.6-0.3,1L506,21.5l5-8.3c0.3-0.4,0.1-0.9-0.3-1.1
	c-0.4-0.3-0.9-0.1-1.1,0.3l-5,8.3l-8.1-4.7c3.6-6.2,6.7-11.7,6.9-12.1c0.4-0.8,0.2-1.7-0.6-2.2c-0.8-0.4-1.7-0.2-2.2,0.6
	c-0.2,0.3-14.7,25.8-18.3,31.6c-0.7,1.1-2,3.5-3.8,6.6l-8.8-5.2c-0.4-0.3-0.9-0.1-1.1,0.4c-0.2,0.4-0.1,0.9,0.4,1.1l8.8,5.2
	c-2.5,4.4-5.5,10.1-8.8,15.9l-19.5-12.4c0.8-1.3,1.2-2.3,1.5-2.7c2.2-4.9,18.5-39.6,18.7-39.9c0.4-1.1,0.1-2.3-1-2.8
	c-1.1-0.4-2.3-0.1-2.8,1c-0.7,1.4-16.4,35-18.7,40c-0.2,0.4-0.5,1.1-1.1,2.2l-17.5-11.2c0.2-0.2,0.3-0.4,0.4-0.4
	c3.4-5.3,13.9-22,14.1-22.1c0.5-0.9,0.4-2-0.5-2.5s-2-0.4-2.5,0.5c-0.1,0.1-4.6,7.2-8.6,13.6l-18-10.5c-0.4-0.3-0.9-0.1-1.1,0.4
	c-0.3,0.4-0.1,0.9,0.4,1.1l17.9,10.5c-1.8,2.9-3.5,5.6-4.7,7.3c-0.1,0.2-0.3,0.4-0.4,0.5l-32-20.2c-0.8-0.4-1.7-0.3-2.2,0.4
	c-0.4,0.8-0.3,1.7,0.4,2.2l31.9,20.2c-0.6,0.9-1.2,1.8-2,2.9c-0.7,1.1-1.6,2.2-2.3,3.4c-4-2.4-22.1-13.4-25-15.6
	c-2.6-1.8-10-7.4-13.4-9.9c2.3-4.3,3.9-7.1,4.2-7.8c0.5-1,0.2-2.2-0.8-2.9c-1-0.5-2.2-0.3-2.9,0.7l-32.8,51.9c0,0.1-0.1,0.1-0.1,0.2
	c-0.1,0.1-0.7,1.2-1.7,3.3l-28.2-18.7c11.2-17.6,19.8-30.8,20-31.2c0.4-0.6,0.3-1.4-0.4-1.8c-0.6-0.4-1.4-0.3-1.8,0.4
	c-0.2,0.3-4.1,6.5-10.3,16c-4-1.8-13.7-6.1-15.3-6.1l0,0c-0.4,0-1.1,0.1-1.8,0.2c-2.2,0.3-6.2,0.7-7.6,0.3c-1.3-0.4-6.6-3.5-9.7-5.4
	c-0.7-0.4-1.2-0.8-1.7-1c0.6-1.5,1-2.5,1.1-2.7c0.4-0.8-0.1-1.7-0.9-2.1s-1.7,0.1-2.1,0.9c-0.1,0.1-1.7,4.1-4,9.4l-10.5-7
	c-0.6-0.4-1.4-0.3-1.8,0.4c-0.4,0.6-0.3,1.4,0.4,1.8l5.7,3.9l-9.7,16l-23.1-15.7c1.1-2.5,1.8-4.1,1.8-4.1c0.4-1.1,0-2.3-1.1-2.8
	s-2.3,0-2.8,1.1c0,0.1-0.6,1.3-1.6,3.5l-12.1-8.3c-0.6-0.4-1.4-0.3-1.8,0.4c-0.4,0.6-0.3,1.4,0.4,1.8l12.5,8.5
	c-1.3,2.9-3,6.8-4.8,11.2L205.5,9.9c-0.4-0.4-1.1-0.2-1.5,0.4c-0.4,0.4-0.2,1.1,0.4,1.5l30.5,18.5c-1.7,4-3.5,8.1-5.4,12.2
	l-36.7-23.2l4.1-6.1c0.4-0.4,0.3-1.1-0.4-1.5c-0.4-0.4-1.1-0.3-1.5,0.4l-4.1,6.2L178,10.1c-0.4-0.4-1.1-0.2-1.5,0.4
	c-0.4,0.4-0.2,1.1,0.4,1.5l12.9,8.1l-7.6,11.3l-13.7-9.3l3.1-4.1l7.7,4.7c0.2,0.1,0.4,0.2,0.4,0.2c0.3,0,0.5-0.2,0.7-0.4
	c0.3-0.4,0.1-0.9-0.3-1.1l-17.7-11.2c-0.4-0.3-0.9-0.1-1.1,0.3c-0.3,0.4-0.2,0.9,0.3,1.1l8.6,5.4l-3,4l-16.1-11
	c-0.4-0.4-1.1-0.3-1.5,0.4c-0.4,0.4-0.3,1.1,0.4,1.5l0.7,0.4l-5.3,7.8l-11.6-8.3c-0.4-0.4-1.1-0.3-1.5,0.3c-0.4,0.4-0.3,1.1,0.3,1.5
	l11.6,8.3l-8.3,12.4l-19.8-14c1.8-5.4,3.1-9.3,3.1-9.4c0.4-0.9-0.2-1.7-1-2c-0.9-0.4-1.7,0.2-2,1c0,0.1-1.1,3.3-2.7,8.1L99.4,9.7
	c-0.4-0.3-0.9-0.1-1.1,0.4c-0.2,0.5-0.1,0.9,0.4,1.1l14.3,8.5c-3,9.2-7.4,23-9.8,31.7c-3.5,13.1-7.8,26.8-8.4,28.8
	c-0.4,0.6-1.5,2-2.7,3.8c-1.2-1-2.5-2.1-3.7-3.3c0.1-0.7,0.4-2.2,0.8-3.5c0.3-0.6,1-1.7,1.7-2.8c1.4-2.1,3-4.6,3.2-6.5
	c0.3-3.1-3-6.9-3.2-7.1c-0.4-0.4-0.8-0.4-1.1-0.1c-0.4,0.4-0.4,0.8-0.1,1.1c0.9,1,2.9,4,2.8,6c-0.1,1.6-1.6,3.9-2.9,5.7
	c-0.9,1.2-1.6,2.3-1.8,3.2c-0.4,0.9-0.5,1.8-0.7,2.5c-0.5-0.7-1-1.3-1-1.8c-0.3-1.6,0.4-3.3,1.5-5.5c0.4-1,1-2.1,1.4-3.3
	c1.6-4.4-3.1-10.5-3.3-10.8c-0.3-0.4-0.8-0.4-1.1-0.2c-0.4,0.3-0.4,0.8-0.2,1.1c0.1,0.1,4.3,5.7,3.1,9.2c-0.4,1.1-1,2.2-1.3,3.3
	c-1.1,2.4-1.8,4.3-1.6,6.4c0.2,1.1,1.2,2.5,2.5,3.9l0,0c1.5,1.5,3.2,2.9,4.1,3.7c-1.6,2.2-3.5,4.9-5.4,7.4
	c-3.4-2.3-13.9-9.2-22.2-12.2c-8-2.8-47.7-11.5-63.5-14.9v2.2c16,3.5,55.1,12,62.8,14.8c8,2.8,18.4,9.7,21.8,12
	c-2.2,3.1-4,5.7-4.4,6.5c-0.2,0.3-1,1.6-2.2,3.7c-6.6,11.3-12.4,21.5-17.4,30.5c0.7-3.5,2.1-7.6,3.5-11.3c1.3-3.5,1.4-6.2,0.4-8.2
	c-0.8-1.2-2.1-2.1-3.8-2.3c-4.1-0.5-6.6,6.2-8.8,12.3l-0.3,0.6c-1.9,5.3-5,7.1-8,8.9l-0.2,0.1c-0.6,0.4-1.1,0.7-1.5,1
	c-1.2,0.4-10.5,4-17.8,11.8c-5.2,5.6-7.4,9.8-7.1,13.1c0.2,1.7,1,3.3,2.5,4.4c1.3,1,2.7,1.5,4.1,1.5s3-0.4,4.7-1.5
	c-0.4,0.6-0.7,1.3-1.1,2c-1.4,3-2.4,9.2-2.5,9.6s0.3,0.9,0.6,1c0.1,0,0.1,0,0.2,0c0.4,0,0.7-0.4,0.8-0.7c0-0.1,1.1-6.3,2.3-9.2
	c1-2.2,2.2-3.9,4-6.2c0.4-0.6,1-1.3,1.6-2.1c2.8-3.7,6.1-10.5,6.8-15.7c0.2-1,0.3-1.7,0.4-2.4c0.3-2.4,0.4-3.3,1.3-4.1
	c0,0,0.1,0,0.1-0.1c0.4-0.4,0.8-0.5,1.3-1l0.2-0.1c3.1-1.8,6.7-4,8.7-9.7l0.3-0.6c1.8-4.9,4.2-11.7,7-11.3c1.2,0.2,2.2,0.7,2.6,1.6
	c0.9,1.4,0.7,3.8-0.4,6.8c-2.1,5.4-4,11.2-4,15.5c-11.8,21-18.9,34.7-21.4,40.9c-0.4,1.1-0.9,2.2-1.2,3.3c-3,1.8-12.2,7-18.8,10.8
	c-4.9,3.5-12,9.2-17.3,13.5v2.8c5.3-4.5,13.1-10.9,18.2-13.7c5.4-3.1,12.7-7.3,16.7-9.6c-2.1,6.1-3.7,11.9-5,16.9
	c-1.6,5.7-2.9,10.6-4.3,13.2c-2.1,3.6-17.4,30.7-25.4,44.9v7.3c4.1-2.9,8.3-5.4,9.6-5.5c0.4,0.3,0.9,1.6,1.1,2.3
	c0.5,1.6,1.2,3.4,2.6,4.4c-0.5,0.9-1,1.6-1.2,2.1c-1.6,2.3-6.9,6.3-12.1,9.8v3.8c5.5-3.7,12.7-8.8,14.8-12c0.4-0.6,1-1.6,1.7-2.9
	c1.5,0,2.9-0.4,4.5-0.9c1.8-0.5,4-1.1,7.2-1.6c4.1-0.5,20-2,34.4-3.3c1,0.9,2.5,2.1,4.4,3.8l-3.5,6.3c-0.3,0.4-0.1,0.9,0.4,1.1
	c0.2,0.1,0.3,0.1,0.4,0.1c0.4,0,0.5-0.2,0.7-0.4l3.3-6.1c2.5,2.2,5.4,4.7,8.8,7.7c-5,8.4-10.5,17.5-14.8,24
	c-0.4,0.2-0.5,0.4-0.8,0.7c-0.3,0.4-0.4,0.7-0.4,1.1c-0.6,0.9-1.1,1.7-1.7,2.5c-1.3,1.8-2.5,3.5-3.5,5c-0.8-0.4-1.3-0.8-1.8-1
	c0.6-4.2-1-6.6-5.4-7.8c-1.7-0.4-3.3,0.2-4.1,1.8c-1,1.8-0.9,4.7,1.2,6.5c1.9,1.6,4.2,1.8,6.9,0.7c0.4,0.2,1.2,0.6,2.1,1.1
	c-1,1.5-2,2.8-2.9,4c-2.2-0.6-5.7-1.9-6.9-2.9c-2.3-2-4.7-2.2-6.9-0.6c-0.9,0.6-1.4,1.5-1.5,2.5c-0.3,2.2,1.1,4.5,2.5,5.8
	c1.1,1.1,2.2,4.1,2.9,6.3c-1.7-0.7-4-1.4-5.4-0.2c-1.7,1.7-7.3,4.6-8.2,4c-1.4-1.2-21.1-16.9-22-17.5c-0.4-0.3-0.9-0.3-1.1,0.2
	c-0.4,0.4-0.3,0.9,0.2,1.1c0.3,0.2,20.6,16.3,22,17.5c0.4,0.4,0.8,0.4,1.3,0.4c2.8,0,7.9-3.3,9-4.4c0.4-0.4,1.9-0.2,3.3,0.4
	c-0.2,0.2-0.4,0.4-0.5,0.5c-4.1,4-27.9,25.2-40.8,36.6v8.4c15.5,12,36.3,28.5,46.7,37.4c-5.8,7.2-10.2,12.7-10.8,13.4
	c-1.8,2.5-25,27-35.8,38.4v0.4h3.2c11.3-11.9,32.8-34.7,34.5-36.7c0.7-0.7,4.1-5.1,10.9-13.4c1.8,1.6,3.2,2.9,3.8,3.7
	c1.5,1.7,3.2,4,5,6.6c-0.5,0.6-1.1,1.2-1.7,1.8c-11.6,12.6-22.5,24.5-23.9,25.8c-1.1,1.1-1.6,0.6-2.4-0.2c-0.4-0.4-1.3-1.3-2.3-0.4
	c-0.7,0.7-6.7,8-10.6,12.8h2.2c4.1-5.1,8.5-10.4,9.5-11.4c0.1,0.1,0.3,0.2,0.4,0.3c0.8,0.7,2.3,2.2,4.6,0.2
	c1.5-1.4,12.5-13.3,24-25.8c0.5-0.5,1-1.1,1.6-1.6c0.8,1.1,1.6,2.2,2.4,3.3c1.8,2.5,3.7,5.1,5.4,7.4c-1.1,0.9-2.4,1.6-3.5,2.5
	c-10.5,7.7-21.3,17.8-28.7,25.2h6.1c3.9-3.8,8.3-8,13-12c2,1.7,5.1,4.1,6.7,4.7c0.6,0.3,1.1,0.4,1.6,0.4c0.3,0,0.4-0.1,0.7-0.1
	c1.1,2.5,5.4,5.1,7,6c-0.1,0.4-0.1,0.7-0.1,1.1H71c-0.1-0.4,0-1,0.4-1.4c1-1.2,2.8-1.8,4.8-1.8c0.4,0,0.8-0.4,0.8-0.8
	s-0.4-0.8-0.8-0.8c-1.4,0-2.6,0.3-3.7,0.7c-1.8-1.9-3.7-4-4-4.4s-0.6-2.2-0.9-3.8c0-1.1-0.4-2.3-0.9-3.5c-0.1-0.3-0.2-0.4-0.3-0.6
	c-0.5-1.6-1.8-3.1-2.9-4.1c0.6-0.4,1.2-1,1.9-1.4c1.1-0.9,2.4-1.7,3.6-2.5c1.7,2.2,3.3,3.9,4.4,4.7c2.4,1.5,9.7,11.1,15.7,19.5h5.2
	c-1.6-2.2-3.6-5-6-8.1c13.7-3.3,14.1-3.4,14.2-3.4c0.2-0.1,0.4-0.3,15.6-14.7c0.4-0.4,0.4-0.8,0-1.1c-0.4-0.4-0.8-0.4-1.1,0
	c-3.9,3.7-9.1,8.6-12.4,11.8l-5-5.4c0.1-0.1,0.2-0.1,0.3-0.2c1.5-1.1,14.5-12.1,14.7-12.3c0.4-0.4,0.4-0.8,0.1-1.1
	c-0.4-0.4-0.8-0.4-1.1-0.1c-0.1,0.1-8.5,7.1-12.6,10.5l-7.8-11.8c1.8-1,3.1-1.6,3.3-1.8c0,0,0.2-0.1,0.4-0.3
	c6.9-4.4,25.8-16.9,39.6-29.5c4.2,3.9,12.5,11.6,15.2,16.2c-0.5,0.6-1.1,1.1-1.5,1.6c-8,8.4-36.4,35.7-51,49.7h8.3
	c15.3-14.7,39.3-37.9,46.8-45.6c11-11.5,62.8-72.3,65.7-75.7l3.4,2.3c-1.4,1.7-2.5,3.1-3.3,4.1c-6.7,8.5-74.4,87.7-97.8,115h5.5
	c5.2-6.1,12-14,19.5-22.9l4.7,5.8l-15.4,16.9h2.2l14.4-15.8l3.5,4.3c-3.6,3.9-7.6,8.5-10,11.5h2.1c2.5-2.9,5.8-6.9,9.1-10.3l3.5,4.3
	c-1.2,1.6-3.1,4-4.5,6h1.9c1.2-1.7,2.5-3.4,3.5-4.7l3.7,4.7h2l-4.7-5.9c0.2-0.2,0.3-0.3,0.4-0.4c1.2-1.1,14.6-12.7,17.5-15.3
	c2.6,2.5,4.9,4.7,6.7,6.3c-3.4,4.4-11.3,11.5-15.6,15.1h2.4c4.4-3.8,11.2-9.9,14.3-14.1c0.5,0.4,1,0.8,1.1,1c2,1.2,5.1,5.4,6.7,7.8
	c-1.5,1.8-2.9,3.6-4.3,5.4h5.4c5.8-7.1,12.2-15.1,14-17.6c1-1.4,8.7-12.9,19-28.4l13.8,8.5c-8.4,12.7-16.5,25-17.4,26.3
	c-1.1,1.8-5.6,7.4-8.6,11.2h2c2.2-2.7,4.7-6.1,6.5-8.3l9.4,6l-1.3,2.5h1.8l0.9-1.6l2.5,1.6h3l-15.5-9.7c0.2-0.3,0.4-0.4,0.4-0.6
	c0.5-0.8,3.8-5.7,8.2-12.4l19.5,14.2l-5.1,8.5h1.8l14.2-23.6l7.5,4.7c-3.5,7.7-6.9,14-9.5,18.8h3.6c2.5-4.6,5.4-10.3,8.6-17.1
	l8.4,5.9l-7.6,11.2h1.9l7-10.3l11.1,7.8l-1.6,2.5h1.9l1.5-2.2l0,0l0,0l7.6-11.3l7.9,8.9l-5.4,4.7h2.5l18.3-15.5l5.9,6.7
	c0.2,0.2,0.4,0.3,0.6,0.3s0.4-0.1,0.5-0.3c0.4-0.4,0.4-0.8,0.1-1.1l-5.9-6.7l68.6-57.8l12.4,14.3c0.2,0.2,0.4,0.4,0.6,0.4
	s0.4-0.1,0.5-0.2c0.4-0.4,0.4-0.8,0.1-1.1l-4.8-5.7l25.2-22.2c4.6,10.2,5,11,5.6,11c0.1,0,0.1,0,0.2,0c0.3,0,1.1-0.3,1.9-0.5
	c2.8,10.3,5.4,23.5,6.3,29.3c-1.4,1.3-7.8,7.1-9.8,9.8c-0.4,0.6-3.6,3.6-8.3,8c-1-0.4-2.2-1-3-1c-0.6,0-1.5-0.1-2.1-0.1
	c-0.3-0.5-0.7-1.1-1.6-2c-2.1-2-4.7-5.1-4.8-5.2c-0.4-0.4-0.8-0.4-1.1-0.1c-0.4,0.4-0.4,0.8-0.1,1.1c0.1,0.2,2.8,3.3,4.9,5.3
	c1,1,1.2,1.4,1.2,1.6l0,0v0.1c0,0.3-0.1,0.4-0.3,0.8c-0.1,0.3-0.2,0.4-0.3,0.6c-0.4,1.3,0.6,2.8,1.5,3.7
	c-7.8,7.1-17.7,16.1-26.8,24.2l-6.7-9.5c-0.3-0.4-0.8-0.4-1.1-0.2c-0.4,0.3-0.4,0.8-0.2,1.1l6.8,9.7c-0.4,0.4-0.9,0.8-1.3,1.1h4
	c4.1-3.8,9.5-8.6,15-13.4l29.6,3.6c-0.4,3.5-1,6.8-1.3,9.9h2.2c0.4-2.4,0.8-5.8,1.3-9.6l71.1,8.6l-0.1,1h2.1l0.1-0.7l5.4,0.7h13.1
	l-18.4-2.2l8-74.6c7.6,6.1,21.9,10.7,39.7,15.1c0,0.1,0.1,0.2,0.1,0.3c0.2,0.4,0.2,0.8,0.3,1.2c0.3,1.4,0.4,3.3,3.6,3.8
	c3.6,0.5,16.4,3.9,18.1,4.7c1.1,0.5,3.5,3.5,4.9,5.4c-0.4,0.4-0.5,0.5-0.7,0.9c-1,1.7-0.8,6.1-0.4,11.5c0.2,2,0.4,4,0.3,4.8
	c-0.2,2.5-1.9,3.6-2,3.6c-0.4,0.3-0.4,0.7-0.3,1.1c0.2,0.3,0.4,0.4,0.7,0.4c0.2,0,0.4,0,0.4-0.1c0.1-0.1,2.5-1.6,2.8-4.8
	c0.1-1-0.1-2.9-0.3-5.1c-0.4-3.6-0.7-9.2,0.2-10.5c0.2-0.4,0.4-0.5,0.8-0.9l0,0l1.8-1.2l0,0c3-1.8,8-3.3,10.6-2.3
	c3.8,1.4,5.5,4.7,6.1,11.2l0,0c0.4,6.2,1.1,12.5,1.8,16.1c0,0.2,0.1,0.4,0.1,0.4l0,0c0,0.1,0.6,4.2-1.6,10.2c-1.1,2.9-2.7,4.8-4,6.1
	c-4.8,1.8-9,3.5-12.2,5H609c1.8-0.7,3.7-1.4,5.7-2c-1,0.7-2,1.4-2.9,2h7.6c5.6-3.5,12.5-6.7,19.6-7.8c6-0.9,9.4-0.5,11.9,0.2
	c-4.7,2.1-12.4,5.4-17.1,7.6h3.9c5.1-2.3,11.7-5.3,15.4-6.8c0.5,0.3,1.1,0.5,1.6,0.8c0.3,0.2,0.5,0.4,0.8,0.4l-8.1,5.6h10.5l3.1-4
	c1.1,0.1,2.5,0.1,4-0.2c6.3-0.9,13.4-6.3,20.3-11.8c3.2-2.4,6.3-4.9,9.1-6.6c0.7,0.7,1.3,1.6,1.8,2.4c1.8,3.4,2.1,7.9,0.6,12.2
	c-1.1,3.3-3.5,5.9-5.7,7.7h2.4l0.1-0.1c0.6-0.4,4.7-3.5,8.7-5.4c0.5-0.3,1-0.5,1.6-0.8c3.3-1.6,5.4-2.7,7.1-2
	c1.6,0.7,6.3,4.7,9.7,8.3h5.3c-1.1-4.4-3.1-9.2-6.7-14.3C716.1,445.1,711.7,440.8,706.2,436.8z M803.6,23.5c-0.2,0.9-0.4,1.8-0.4,3
	c-0.3,1.8-0.7,5.1-1.3,5.4c-0.6,0.1-3.8-1.3-5.2-3.4c-0.8-1.2-0.9-2.3-0.1-3.3c1.5-2.2,3.6-2.4,5.4-2.4c0.4,0,0.6,0,0.9,0
	c0.4,0,0.6,0,1,0C803.8,22.9,803.7,23.2,803.6,23.5z M952.5,238.5c-1.4-0.4-3-1.8-3.3-5.3c-0.1-1.4,0.4-5.4,0.7-9.8
	c0.7-7,1.5-15.7,1.1-21.2c-0.5-8.8-4.2-26.5-4.2-26.7c-5.4-24.5-13.3-61.8-12.7-64.3c0.6-2,3.3-1.7,4-1.6c0.4,2.3,0.9,3.9,1,4.6
	c0.2,0.9,0.4,1.6,0.4,2.4c1,5.4,1.7,9,0.3,14.4c-1.1,4,2.5,19.1,7.5,38.4c2.1,8.3,4,15.4,4.3,18.3c0.7,5.1,1,10.2,1.3,14.7
	c0.2,2.9,0.4,5.7,0.6,8c0.3,2.5,1.2,7.7,2.2,13.3c1.1,6.1,2.4,12.8,2.9,17.1C956.8,240.3,953.8,239,952.5,238.5z M901.9,42.6
	c-0.1-0.1-0.3-0.1-0.4-0.2c-0.3-0.1-0.4-0.3-0.7-0.4c-0.1-0.2,0.2-0.7,0.3-1.1s0.3-0.8,0.4-1.1c0.4,0.4,0.5,0.6,0.6,1.1
	C902.2,41.6,902.1,42.2,901.9,42.6z M904.3,51c-0.6-0.3-1.1-0.4-1.5-0.7c-0.4-0.4-0.2-3,0.1-4.1c0.1-0.7,0.2-1.2,0.2-1.6
	c0-0.3,0-0.4-0.1-0.6c0.4-0.5,0.8-1.7,0.5-3.2c-0.2-1-0.7-1.6-1.1-2.1c-0.1-0.1-0.3-0.3-0.4-0.4c0.1-0.1,0.2-0.2,0.4-0.3
	c1.5-1.1,8.4-0.2,9.3,0.7c1,1,1.6,1.4,1.6,3.3c0.1,1.8,0.2,3.9,2.2,4.1c-0.4,0.6-0.6,1.6-0.9,2.9c-0.4,2.1-0.1,3.3,0.1,4.1
	c0.2,0.8,0.2,1-0.2,1.1c-1.2,1.1-2.4,2.5-2.2,4.3c0,0.3,0.1,0.5,0.2,1c0.4,1.5,1.1,6.1-0.1,7c-0.4,0.4-1.3,0.1-2-0.3
	c-1-1-2.1-2.3-3.2-3.7c0.2-1.6,0.7-7.6-0.1-9.5C906.9,51.8,905.5,51.3,904.3,51z M899.6,71.4c-0.6,0.4-1.2,0.1-1.6-0.3
	c-0.5-0.4-0.7-1-0.6-1.5c0.1-0.4,0.3-0.6,0.4-1c0,0,0-0.1,0.1-0.1c0.2-0.3,0.4-0.4,0.6-0.7c0.2-0.1,0.4-0.2,0.5-0.2
	c0.5,0,0.9,0.4,1,0.9C900.5,69.9,900.2,71.1,899.6,71.4z M900.5,67c0.4-0.4,0.9-0.7,1.5-1.2c0.9-0.8,3.3-1.5,4.5-1.8
	c0.8,1,2.1,2.6,3.3,3.7c0,0.1,0.1,0.1,0.2,0.2c0.7,0.7,1.4,1.2,1.8,1.3c0,0,0.1,0,0.2,0c-0.2,0.1-0.4,0.2-0.4,0.3
	c-0.5,0.2-5.1,0.3-9.4,0.4c-0.1-0.4-0.2-1-0.4-1.5C901.2,67.7,900.9,67.2,900.5,67z M916.2,69.6c-0.4,1-1.3,1.6-2.5,1.8
	c-3.5,1-9.7,0.4-12.2,0.2c0.2-0.4,0.3-0.6,0.4-1c2.5,0,9-0.1,9.8-0.4c0.6-0.2,1.3-0.7,1.8-1c0.1,0,0.1,0,0.2,0
	c0.9,0,1.8-0.2,2.6-0.8c0.3-0.2,0.4-0.4,0.5-0.4C916.6,68.6,916.4,69.2,916.2,69.6z M916.4,32.9c0.4-0.6,0.6-1.1,0.8-1.8
	c0.3,0.4,0.4,0.6,0.6,1c2.2,4,2.3,8,2.3,10.1c0,0.6,0,1,0.1,1.3c0.1,0.5,0.4,1,0.8,1.3c0.6,0.8,1.6,1.8,0.7,5.4
	c-0.6,2.9-1.8,5.7-2.9,8.3c-1,2.5-2,4.7-2.3,6.7c-0.2,1-0.5,1.6-1.1,2c-0.4,0.3-0.8,0.4-1.2,0.4c1.6-1.8,0.8-6,0.4-8.3
	c-0.1-0.4-0.2-0.8-0.2-1c-0.1-1,0.4-1.8,1.7-3c1-0.9,0.8-1.7,0.6-2.6c-0.2-0.8-0.4-1.8-0.1-3.7c0.3-1.9,0.9-2.7,1.1-3.2
	c0.2-0.2,0.4-0.4,0.4-0.9c0,0,0-0.1,0.1-0.1c0.1-0.3,1.6-5.4-0.9-9.1c-0.7-1-1.2-1.8-1.8-2.4C915.7,33.6,916,33.2,916.4,32.9z
	 M912.1,28.2c1,0,2.2,0.4,3.5,1.3c0.2,0.7,0,1.5-0.6,2.5c-0.4,0.6-1.8,0.5-3.3-0.1c-1-0.4-2-1.4-1.9-2.2v-0.1v-0.1
	c0.3-0.7,1-1.1,2-1.3C912,28.2,912,28.2,912.1,28.2z M910.7,26.4c0.4,0.1,0.5,0.2,0.9,0.3c-0.7,0.1-1.3,0.4-1.8,0.6
	c-0.1-0.4-0.3-0.9-0.4-1.3C909.8,26.1,910.2,26.3,910.7,26.4z M908.8,31.6c0.4,0.4,0.7,0.8,1.2,1.1c-0.8-0.1-1.6-0.2-2.5-0.2
	c0.3-0.2,0.4-0.4,0.7-0.4l0.1-0.1C908.5,31.8,908.7,31.8,908.8,31.6z M904.9,24.4L904.9,24.4c0.2,0.1,0.4,0.2,0.7,0.3
	c0.4,0.2,1.1,0.4,1.9,0.7c0.6,1.6,0.9,2.7,0.9,3.5c-0.1-0.3-0.3-0.4-0.4-0.6c-0.8-1-2.1-1.3-3.8-1.1l-1.1-0.4
	C903.7,26,904.5,25,904.9,24.4z M904.3,28.5c1.1-0.1,1.9,0.2,2.4,0.6c0.4,0.5,0.4,1.4,0.4,1.8c-1,0.7-2.6,1.5-4.7,2
	c-0.4,0.1-1,0.2-1.3,0.3C901.3,31.5,903.3,29.4,904.3,28.5z M902.6,34.5c3.7-0.6,9.1-1,11,1.4c2.5,3.1,2.7,7.3,2.7,8.6h-0.2
	c-1,0-1.1-0.4-1.1-2.7c-0.1-2.3-0.9-3.3-2.1-4.3c-1.5-1.3-9.2-2.3-11.3-0.8c-0.3,0.2-0.5,0.4-0.7,0.7c-0.7-0.7-2-1.5-3.4-2.1
	C899.3,35.2,901.2,35,902.6,34.5z M851,28.9c1,0.3,1.7,0.4,2.2,0.4c2.2,0.5,2.9,1.9,2.9,3.1c0,0.9-0.4,1.5-1,1.6
	c-1.5,0.4-4.2,0.4-5.7,0.3L851,28.9z M841.8,23.6l0.4,0.1c1.8,0.5,4.7,1.3,8,2.2l-0.4,1c-2.1-0.4-4.8-1-8-1.6
	c-11.2-2.2-26.5-5.1-31.3-6.7c0-0.4,0-0.7-0.1-1.1C820.5,19.1,839.6,23,841.8,23.6z M808.8,22.1c-0.3-0.1-0.5-0.2-0.8-0.3
	c-0.5-0.2-1.2-0.4-1.8-0.4c0.4-0.7,0.6-1.4,0.6-2.1c0.7,0.1,1.5,0.3,2.2,0.4C809,20.9,808.9,21.7,808.8,22.1z M805.3,16.9
	c0.8,0,2,0.2,3.6,0.4c0,0.4,0,0.6,0,0.9c-3.6-1-7.3-0.8-10-0.4C800.8,17.1,802.9,16.9,805.3,16.9z M650.2,96.4
	c0.1,2.2-0.3,2.5-1.1,3c-0.1-0.4-0.4-1.1-0.7-2.3c0.5-0.4,1.1-0.7,1.8-1.1C650.2,96.2,650.2,96.3,650.2,96.4z M646.9,90.4
	c0-0.1,0.1-0.1,0.2-0.1c0,0,0.1,0,0.2,0c0.7,0.3,1.8,1.3,2.5,3.2c-0.7,0.4-1.4,0.8-2,1.1C647.2,93,646.6,91,646.9,90.4z M640,113.5
	c0.8-9.3,2.3-11,3.8-12.6c0.4-0.4,0.7-0.7,1-1.1c0.4-0.4,1.1-1,2.3-1.8c0.4,0.8,0.5,1.6,0.5,1.8c0,0.2,0,0.4,0.1,0.4
	c-0.6,0.4-1.3,1-2,1.9c-2,2.6-3.5,6.9-4.2,12.5c-0.1,0.8-0.2,4-0.4,9.7c-0.3,10.3-0.7,27.6-1.6,29.7c-0.8,1.8-2.2,1.8-3,1.6
	C637.7,142.8,639.3,121.4,640,113.5z M635.5,169.5c0-0.4,0.1-1.8,0.3-3.9v-0.1c0,0,0.1-1.2,0.3-3.3c2.2,0,8-0.1,10.5,0.4
	c3.3,0.5,3.5,0.7,3.6,2.4c0.4,5.7-0.3,7-0.4,7.3c-0.2,0.3-0.4,0.5-1,0.9c-1.1,0.9-2.5,2.1-3.3,4.9v0.1c-1,3.8-1.8,7.3-0.3,11.2
	c0.4,1,0.7,1.6,1,1.9c0.6,1.2,0.8,1.4,0.6,6.7c-0.1,3.7-0.5,6.7-1,9.3c-0.4,2.5-0.7,4.7-0.7,7.3c0,1.6-0.1,2.8-0.2,3.7
	c-0.2,1.9-0.3,2.9,0.9,4.5c1.1,1.8,1.6,3.1,1.2,5.8c-0.2,1.4-6.1,0.9-8.3,0.6c-1-0.1-1.8-0.2-2.3-0.2c-1.6,0-4.4-0.1-5.7-0.1
	C633.1,201.7,635.5,170,635.5,169.5z M40.2,142c-0.1,0.7-0.2,1.5-0.4,2.4c-0.6,5-3.9,11.5-6.5,15c-0.3,0.4-0.4,0.7-0.7,1
	c-3.2,3.7-7.9,7.4-11.9,4.2c-1.2-1-1.8-2-1.9-3.3c-0.3-2.8,1.9-6.7,6.7-11.8c5.2-5.6,11.8-9.1,15.1-10.5
	C40.4,139.8,40.4,140.8,40.2,142z M52.7,310.2c-0.1,0-0.2,0.1-0.4,0.2c-0.8,0.4-3.2,1.4-5.4-0.4c-1.4-1.2-1.6-3.3-1-4.5
	c0.3-0.4,0.8-1.1,1.7-1.1c0.3,0,0.4,0,0.7,0.1C51.9,305.4,53,306.8,52.7,310.2z M66.7,456.5c0.4,0.7,2.6,3.1,3.9,4.4
	c-0.4,0.3-0.6,0.5-0.9,0.8c-2.5-1.4-5.9-3.8-6.3-5.3c0.2-0.1,0.4-0.3,0.4-0.4c0.4-0.4,1-0.7,1.6-1.1c0.4-0.2,0.5-0.4,0.7-0.5
	C66.4,455.3,66.5,456,66.7,456.5z M64.8,448.3c0.1,0.3,0.2,0.4,0.3,0.6c0.9,2.4,1.2,3.7-0.4,4.7c-0.8,0.4-1.3,0.9-1.7,1.2
	c-0.2,0.2-0.4,0.3-0.4,0.4c-0.1,0.1-0.2,0.1-0.3,0.2l-0.1,0.1c-0.4,0.4-0.9,0.4-1.8,0c-1.3-0.4-4-2.6-6.1-4.3
	c2.5-2.2,5.3-4.4,7.9-6.5C63,445.6,64.3,447.1,64.8,448.3z M504.4,190l0.3,0.4c2.2,3.3,4,5.8,3.7,11.1c-0.1,2.3-0.4,13.1-0.6,25.3
	l-21.7-11.6c1.3-2.5,2.7-5.4,4.1-8.2l0,0l0,0c1.8-3.5,3.5-6.9,5.1-9.9l0,0l0,0c2.5-4.7,4.3-8.4,4.7-8.8c0.5-0.7,1.6-1.6,2.8-2
	C503.1,187.7,503.7,189,504.4,190z M492.6,311.7c-0.2-1-4-21.4-10-32.3c1.2,0.1,2.4,0.2,2.9,0.4c0.1,0,0.2,0.1,0.3,0.1
	s0.1,0.1,0.2,0.1c0.9,0.9,4,10.3,4.7,12.9l0,0c0.1,0.3,0.1,0.4,0.2,0.5c0.1,0.4,0.3,1.5,16.3,9.1c-0.8,3.5-1.6,7.2-2.3,10.6
	c0,0.1,0,0.1,0,0.2c-0.6,6.7-1.6,14.5-2.3,15.8c-0.5,0.4-2.2,0.6-4.4,1c-1.8-6.1-3.7-12.2-5.2-17.6v-0.6
	C492.6,312,492.6,311.8,492.6,311.7z M430.6,356.4c-0.3,1.6-0.2,2.8,0,4c-5.1-0.8-25.2-3.7-36-5.3l0,0c-0.4-0.1-1-0.2-1.4-0.3
	c2.7-5,6-11.1,9.5-17.6c10.2,5.4,20.4,10.9,28.9,15.5C431,354.1,430.8,355.3,430.6,356.4z M431,362.1l-18.6,15.6l-16.2-20.8
	c9.1,1.3,23.7,3.4,34.8,5C431,362,431,362.1,431,362.1z M75.9,404.5l-11.8-9.7c9.3-11.7,19.4-24.2,27.2-33.6c5.2,4.1,9,7.2,9.8,7.7
	c0.5,0.4,1.8,1.2,3.6,2.5c-7.2,9-15.6,18.8-22.1,25.7C80.9,399.1,78.6,401.6,75.9,404.5z M80.9,401.4l11,8l-14.5-4.2
	C78.7,403.8,79.8,402.5,80.9,401.4z M80,234c0.4,0.1,0.8,0.2,1.2,0.2s1-0.1,1.3-0.4c0.4-0.2,0.6-0.4,1-0.9c0.4,0.5,1,1.1,1.5,1.7
	c0.2,0.3,0.4,0.4,0.6,0.4s0.4-0.1,0.4-0.2c0.4-0.3,0.4-0.8,0.2-1.1c-0.7-0.9-3-3.8-4.3-4.2c-1-0.4-2.1-0.3-2.7-0.1
	c-0.1-0.4-0.3-0.6-0.3-0.8c-0.2-0.4-0.6-0.6-1-0.4c-0.4,0.2-0.6,0.6-0.4,1c0.4,1.4,1.1,3.7,1,4.4c-0.1,0.4-0.4,0.8-0.5,1.1
	c-13.2-8.6-22.1-14.5-28.1-18.4c3.4-5.1,7.1-10.5,10.5-15.4l35.3,24.3l-9.8,14.7c-2.3-1.6-4.6-3-6.7-4.4
	C79.6,235.1,79.9,234.6,80,234z M79.6,230.9c0.4-0.1,1.1-0.2,1.7,0.1c0.3,0.1,0.5,0.4,1,0.8c-0.1,0.4-0.4,0.6-0.4,0.7
	c-0.5,0.4-1.6,0-1.9-0.2C79.8,231.8,79.7,231.3,79.6,230.9z M80.8,153.5c-0.1-0.2-0.3-0.4-0.3-0.4c-0.2-0.4-0.1-1.1,0.1-1.6
	c0.1-0.4-0.1-0.5-0.4-0.6c-0.4-0.1-0.5,0.1-0.6,0.4c-0.1,0.3-0.4,1.6,0.1,2.3c0.1,0.2,0.2,0.4,0.4,0.5c0.4,0.5,1,1.8,0.9,2.2
	c-0.2,0.4-0.8,2-1.2,3l-6.3-4.3c0.6-1.1,1.8-3.5,2.8-5.4c1.1-2.4,6.1-9.1,6.5-9.7c3.8,2.7,8.4,6.1,13.1,9.2
	c-3.6,4.4-7.4,9.2-11,13.7l-4.1-2.9c0.4-1,1.1-2.8,1.4-3.3C81.9,155.7,81.4,154.7,80.8,153.5z M83,135.2c1.2-0.6,4-2.2,4.5-3.4
	c0.4-1.1-0.4-4.9-0.8-6.9c3.8-4.9,9.9-12.7,14-17.7c6.1,4.6,13,9.8,19.2,14.2c-0.5,0.5-1.1,1.1-1.6,1.8c-2.2,2.5-4.8,5.4-8.3,8.8
	c-2.9,2.9-8.2,9.1-13.9,16.2c-5.5-3.9-11.2-7.8-15.1-10.8c0.9-0.9,1.5-1.6,1.8-2.1C82.8,135.2,82.9,135.2,83,135.2z M83.4,129.4
	c0.3-0.4,1-1.5,2-2.8c0.4,2.1,0.7,4.1,0.5,4.7c-0.2,0.4-1.4,1.2-2.9,2.1c0-0.1,0-0.1,0-0.2C82.8,132.3,82.5,131.1,83.4,129.4z
	 M136.9,107.5l16.1,11.4l-5.4,7.7l0,0l0,0l-5.4,7.6c-4-2.9-8.2-5.8-12.2-8.4c-1.8-1.1-3.9-2.5-6.1-4.1c1.4-1.5,2.7-2.7,4.1-3.5
	c0.4-0.3,0.7-0.4,1.1-0.7C132.2,115.4,135.1,113.5,136.9,107.5z M134.6,103.9l-11.6-8c-0.4-1-2.2-4.7-2.7-6c-0.4-0.7-2-2-6.4-5.3
	c-3.5-2.5-9.2-6.8-9.6-8c-0.5-2,4.7-22.6,6.8-23.6c1.8-0.5,15,6.7,16.6,9.1c0.9,1.2,1.5,12,1.8,18.5c0.4,5.3,0.5,8.5,0.8,9.4
	c0.4,1.8,3.4,5.6,5.2,7.8c-0.1,0.8-0.2,1.6-0.3,2.3C135,101.6,134.8,102.8,134.6,103.9z M157.2,72.8c-1-0.9-2.3-1.9-3.5-2.9l3.8-5.8
	l3.1,2.2c0.2,0.6,0.5,2.3,0.1,4.1c-0.4,1.9-2.3,6.5-3.1,8.3l-1.2-0.8l0,0l0,0l-1.1-0.7c-0.1-0.1-0.2-0.1-0.3-0.1l-4.4-2.5l2.2-3.4
	c1.1,1,2.2,1.8,3.4,2.9c0.2,0.2,0.4,0.2,0.5,0.2c0.3,0,0.4-0.1,0.6-0.4C157.5,73.6,157.5,73.2,157.2,72.8z M179.4,77.6
	c1.8,1.6,4.2,3.5,4.7,3.7c0.1,0,0.3,0.1,0.4,0.1c0.8,0,1.7-0.9,3.6-3.3c0.6-0.8,1.8-2.5,2.5-3.5l16.9,11.8
	c-4.9,7.6-10.7,16.2-16.4,24.5l-6.3-4.7l3.2-6.4l2.9-0.8c0.2-0.1,0.4-0.2,0.4-0.4l6.2-9.5c0.2-0.4,0.2-0.6,0-1l-2.6-3.4
	c-0.2-0.3-0.4-0.4-0.6-0.4c-0.3,0-0.4,0.2-0.6,0.4l-1.9,3l-3.4-1.9c-0.4-0.3-0.9-0.1-1.1,0.4l-1.8,3.1h-0.1l-3.7,0.4
	c-1-1.1-4.7-5.3-8.6-6.2c-3.4-0.9-5.4,0.2-6.3,0.8l-7.5-4.6c0.8-1.8,2.8-6.7,3.3-8.8s0.1-4-0.1-4.8l5-7.6l22.2,15.4
	c-0.7,1-1.8,2.7-2.5,3.4c-1.5,1.8-2.1,2.4-2.4,2.5c-0.6-0.4-2.5-1.9-4.1-3.3c-0.4-0.4-0.9-0.3-1.1,0.1C179,76.8,179,77.2,179.4,77.6
	z M204.4,71c-1-0.8-2.4-3.3-3.2-4.6c1.6-2.3,2.7-4,2.9-4.2c0.4-0.4,0.4-1,0.3-1.8c-0.2-1-0.5-2-1.1-2.9l5.1-5.4l13.3,9.1
	c-0.6,1.5-1.1,2.8-1.6,4c-1.4,3.5-5.8,10.8-11.6,19.7l-13.4-9.2c1.6-2.5,3.5-5.4,5.3-7.8c0.8,1.3,2.2,3.5,3.1,4.3
	c0.6,0.5,1.1,3.4,1.2,5.7c0,0.4,0.4,0.8,0.8,0.8l0,0c0.4,0,0.8-0.4,0.8-0.9C206.1,77,205.9,72.3,204.4,71z M202,56.6
	c-0.3-0.2-0.4-0.4-0.7-0.5c-10-7.2-15.6-11.2-16.8-12.2c0.4-0.9,1.8-3.4,3.3-5.7L207,51.3L202,56.6z M312.9,45.5
	c-0.5,1-1.1,1.8-1.8,2.7c-11-7.3-14.2-9.4-15.3-10l0.9-1.2L312.9,45.5z M297.6,35.7l2.3-3.4l15,10.1c-0.4,0.6-0.8,1.2-1.1,1.8
	L297.6,35.7z M310.3,49.6c-1.8,2.9-3.7,5.7-5.5,8.6l-15.5-10.5l5.6-8.3C296.1,40.2,304.5,45.7,310.3,49.6z M494.3,128.7
	c0.1,3.3,0.3,7.6,0.4,12.3c-2.1,0.1-4.1,0-5.5-0.3c-0.5-0.1-1.1-0.3-2-0.6c-0.1,0-0.1-0.1-0.2-0.1c-0.9-0.4-1.9-1-3.3-1.7
	c1.6-2.7,6.8-9.1,10.5-13.5C494.3,126.2,494.3,127.4,494.3,128.7z M494.8,142.5c0.3,3.8,0.4,7.6,0.8,11.2c-2.1-0.4-7.5-1.6-12.8-2.9
	c2.2-5.2,3.7-8,4.2-9.1c0.7,0.3,1.3,0.4,1.8,0.5c1.1,0.2,2.5,0.3,4.1,0.3C493.7,142.6,494.2,142.6,494.8,142.5z M485.7,141.2
	c-0.7,1.2-2.1,4-4.4,9.2c-1-0.3-1.8-0.5-2.8-0.8c2-4.2,3.7-8,4.6-9.9C484.1,140.3,484.9,140.9,485.7,141.2z M461.6,311.4
	c0.4,0.9,0.8,1.8,0.7,3c-0.2,1.7-0.5,2.6-0.9,3.5c-0.4,0.6-0.5,1.3-0.6,2.2c0,0.4-0.2,1-0.3,1.8l-9.8-5.3c1.3-2.6,3.3-6.6,5.4-10.9
	l5.2,2.7C460.7,309.4,461.2,310.5,461.6,311.4z M298.7,381.2c-0.4-0.3-0.9-0.1-1.1,0.3c-0.2,0.3-3.2,5.1-4.5,7.6
	c-13.4-9.1-25.2-17.1-29.4-20c6.7-10,12.8-19.3,17.7-26.6l11.5,7.5c-0.4,0.4-0.7,1-1,1.5c-9.8,13.6-9.2,14.3-8.7,14.9
	c1,1.4,11.2,9.5,13.7,9.8c0.1,0,0.2,0,0.3,0c0.4,0,0.5-0.1,0.7-0.3c0.8-0.6,5.8-8.9,8.1-12.7l8.8,5.5c-4.9,8.3-9.9,16.9-14.7,25.2
	c-1.9-1.3-3.9-2.6-5.7-3.9c1.3-2.3,4.5-7.6,4.6-7.6C299.1,382,299,381.3,298.7,381.2z M76.7,343.7c0.6-0.7,1.1-1.5,1.8-2.2
	c1.7-2.1,3.3-4.1,4.8-6.1l15.2,13.3c-1.8,1.9-4,4.6-6.6,7.6C87.7,352.8,82.4,348.4,76.7,343.7z M89.4,359.6
	c-4.1,4.8-8.8,10.6-13.7,16.7L60,364.2c4.5-5.4,9.2-11.3,14.1-17.1C79.5,351.4,84.7,355.9,89.4,359.6z M84.4,334.3
	c2.1-2.5,4-4.9,6-7.3c2.7,2.1,5.3,4,7.5,5.8s5.4,4.3,8.8,7.3c-2.2,2.5-4,4.6-5.4,6c-0.4,0.4-1,1-1.6,1.6L84.4,334.3z M100.7,329.1
	c-2.2-1.8-4.7-3.7-7.5-5.8c6-7.3,10.7-13.3,14.7-18.2c6.4,5.6,12.1,10.5,16,13.9c-5.1,6.4-10,12.5-14.3,17.6
	C106.2,333.5,103.1,331,100.7,329.1z M122.4,281.1c-0.7,1.6-6.8,9.3-15.8,20.7c-3.7-3.3-7.6-6.7-11.6-10
	c7.1-8.6,13.1-16.1,15.4-18.8c3.1,1.6,5.9,3,7.8,4.1l4.5,2.8C122.5,280.4,122.4,280.7,122.4,281.1z M125.4,281.8L125.4,281.8
	l11.3,6.9l-7.2,9.9l-10.5-7.8C125.3,282.9,125.4,282.2,125.4,281.8z M108.9,303.9c3.8-4.7,6.7-8.5,9-11.3l11.3,8.5l0,0l0,0l5.5,4.1
	c-3.3,4.1-6.6,8.5-9.9,12.7C121,314.4,115.3,309.4,108.9,303.9z M131.3,299.9l7.3-10l5.4,3.3c-2.4,3.3-5.1,6.7-7.9,10.4L131.3,299.9
	z M126.3,278.5c0.9-2.7,2.2-6.2,3.4-9.2c10.6,7.5,12.5,8.1,13.1,8.1c0.1,0,0.1,0,0.2,0c0.4-0.1,1.2-0.2,5.8-6c2.2,1.6,4.7,3.3,7.2,5
	c-0.2,0.4-0.4,0.5-0.4,0.7c-1.8,2.8-5.3,7.6-9.6,13.4L126.3,278.5z M113.8,184.8l17.6,12c-3.6,5.3-7.3,10.5-10.7,15.6l-18.3-12
	L113.8,184.8z M105.7,193.1c-0.7-0.8-1.4-1.9-1.1-2.6c0.2-0.5,1.8-0.7,3.5-0.5L105.7,193.1z M170.9,116.2L155,105.3
	c0.3-2.7,1.3-4.2,3-6.7l0.4-0.7c1.5-2.1,6.4-2.7,8.6-2.8l15.8,11.6c0.1,0.2,0.2,0.4,0.4,0.4l6.9,4.9c-5.2,7.6-10.3,14.9-14.5,20.9
	l-9.9-7.1l5.4-8.7C171.4,116.9,171.3,116.4,170.9,116.2z M179.3,93l2.8,2.5l0,0l4.2,3.8l-2.9,6l-15.3-11.4l-0.8-8.5
	c0.6-0.4,2.2-1.2,5-0.5c3.3,0.8,6.6,4.4,7.6,5.5l-0.9,1.5C179,92.4,179,92.7,179.3,93z M193.9,91.7l-3.9,5.9l-2.5,0.7l-3.9-3.5
	l4.3-7l3.3,1.9L193.9,91.7z M192.8,88.7l1.4-2.1l1.6,2.1l-1,1.6L192.8,88.7z M182.5,93.7l-1.6-1.4l0.6-1.1l2.6-0.3L182.5,93.7z
	 M372.3,91.7l11.8,8c-1.6,3.3-3.3,6.8-4.8,10l-11.9-8.3c0.4-0.5,0.5-1.1,0.9-1.6C369.8,96.8,371.2,93.9,372.3,91.7z M369.1,94.7
	c-3.1-2.7-7.6-6.7-8.6-7.6c0.1-0.4,0.4-1.6,1-2.7l9.6,6.5C370.4,92,369.8,93.2,369.1,94.7z M378.6,111.3c-2.1,4.1-4.1,8-5.6,11.1
	l-12.2-7.6c1.9-3.9,4-8,6-11.7L378.6,111.3z M289,331c2.8,1.8,7.6,4.7,12.2,7.7c-1,1.1-4,5.3-7.3,9.9l-11.6-7.5
	C285,336.9,287.3,333.4,289,331z M279.2,337.9l-3.3-2.1l6.5-9.5l3.1,2.2C284,330.9,281.8,334.1,279.2,337.9z M294.6,350.1
	C294.6,350.1,294.7,350.1,294.6,350.1c0.1-0.1,0.1-0.1,0.1-0.2c2.5-3.4,5.2-7,7.8-10.5c4.9,3.1,9.4,6,11.1,6.9
	c-1.6,3.6-14.7,25.8-16.6,28c-1.9-0.4-10.9-7.3-12.5-9.1C285,363.9,289.3,357.6,294.6,350.1z M307.1,361.2c5.8-9.8,7.5-13.1,8-14.3
	c1,0.1,3.4,0.3,4.2,0.4c0.6,0.4,2.9,2.9,5.1,5.4c-2.9,4.7-5.8,9.6-8.9,14.7l-8.8-5.5C306.9,361.5,307,361.3,307.1,361.2z
	 M319.7,345.7c-1.1-0.3-4.7-0.4-4.8-0.4s-0.2,0-0.3,0c-1.8-1.1-15-9.4-24.8-15.6c1-1.4,1.6-2.3,1.8-2.7c0,0,0,0,0-0.1
	c0.1-0.2,4-6.4,8.6-13.8l34.1,23.3c-2.7,4.3-5.8,9.3-9.1,14.8C323.1,348.5,320.6,345.7,319.7,345.7z M289.4,238.7l-2.7-1.9
	c0.9-0.4,1.7-0.7,2.6-1.1C289.3,236.5,289.4,237.6,289.4,238.7z M285.2,235.7l-1.8-1.2c4.8-1.6,12.1-4,14.9-5.2l1.1,0.8
	C296.3,231.2,290.1,233.6,285.2,235.7z M164.4,230.7c-0.4-0.3-0.9-0.2-1.1,0.3l-3.4,5.2l-6.9-4.7c2.9-4.6,6-9.1,8.7-13.4l23.6,16.3
	c-3.2,4.6-6.2,9-9.1,13.1l-15-10.3l3.4-5.2C164.8,231.4,164.6,230.9,164.4,230.7z M132.3,195.5l-6.8-4.7l9.7-16.3
	c2.5,1.8,5.2,3.5,7.9,5.4C139.5,185.2,135.8,190.4,132.3,195.5z M146.4,182.4c7.2,5,14.6,10.2,21.5,15c0.8,0.5,1.6,1.1,2.4,1.6
	c-2.5,3.6-5.9,8.9-9.8,14.8l-24.3-16.7C139.7,192.2,143.2,187.2,146.4,182.4z M134.7,199.4l24.4,16.8c-2.8,4.2-5.8,8.9-8.7,13.4
	l-24.7-16.9C128.6,208.3,131.7,203.8,134.7,199.4z M163.1,215.8c3.9-5.9,7.3-11.1,9.8-14.8c10.8,7.6,19.6,13.7,22.1,15.2
	c0.4,0.4,1.1,0.7,1.9,1.2c-3.5,4.9-6.9,9.8-10.1,14.5L163.1,215.8z M195.6,215.4c-2.5-1.6-11.3-7.6-22.1-15.2c1.1-1.6,2-2.9,2.5-3.7
	c0.7-1,2.2-3,4.1-5.8c0.7-1,1.4-2,2.2-3.1c7.9,5.4,16.1,11.2,23.9,16.6c-2.9,4.1-5.8,8.3-8.7,12.5
	C196.7,216.1,196,215.6,195.6,215.4z M166.8,152.9c0.4-0.6,0.7-1,0.9-1.2c0.4-0.7,3.5-4.9,8-11.3c4.1,2.9,14.9,10.4,24.5,17
	c-2.9,4.1-6,8.3-8.7,12.2C180.7,162.4,171.1,155.9,166.8,152.9z M188.1,169.9C188.1,169.9,188,170,188.1,169.9
	C188,170,188,170,188.1,169.9l-2.2-1.5C186.7,168.9,187.3,169.4,188.1,169.9z M223.9,114.4l-6.5-4.5l7.7-11.7l10.5,7.3
	c-2.5,4.1-4.7,8-6.4,10.5c-1.5,2.3-4.9,7.3-9.4,13.8l-10.8-7.2l7.7-11.7l6.4,4.4c0.2,0.1,0.4,0.2,0.4,0.2c0.3,0,0.4-0.2,0.6-0.4
	C224.3,115.1,224.3,114.7,223.9,114.4z M272.3,113.5l10.3,7.6c-2.8,4.1-5.4,8.1-7.3,10.9l-10.2-7.3
	C266.4,122.9,269,118.9,272.3,113.5z M267.7,115.7c-1-0.6-2.5-1.8-2.5-3.7c-0.1-1.6,0.2-2.5,0.4-3l4.6,3.1
	C269.3,113.5,268.5,114.6,267.7,115.7z M461.3,150.1c-0.4-0.3-0.9-0.1-1.1,0.4c-3.1,6.1-2.7,6.7-2.5,7c0.2,0.2,0.4,0.7,5.4,3.2
	l-0.6,1c-0.6,1-1.1,1.8-1.8,2.7c-3.7-2.5-7.1-4.7-8.4-5.9c-0.2-0.1-0.3-0.3-0.4-0.4l8.5-13.5c2.6,1,5.4,2.1,8,3.2
	c-2.2,5.4-3.9,9.8-4.7,11.6c-2-1-4.1-2.1-4.7-2.5c0.3-0.9,1.4-3.4,2.4-5.4C461.8,150.7,461.6,150.3,461.3,150.1z M408.4,183.7
	c0.7-1.4,1.4-2.8,2.1-4.2l13.7,7.6c-1.1,2.2-2.2,4.1-2.5,4.7c-0.1,0.2-0.4,0.4-0.5,0.9L408.4,183.7z M420.1,194
	c-3.9,5.7-14.6,21-21.4,30.8c-0.4-0.2-0.5-0.4-0.8-0.4c-1-0.4-4.3-2.3-8.3-4.5c1.8-3.5,3.7-6.8,5.4-9.8c2.1-3.4,6.9-13.1,12.6-24.9
	L420.1,194z M411.2,178c1-2.1,2-4.1,3-6.2l14.4,6.8c-0.7,1.2-2.2,4.2-3.7,7.1L411.2,178z M429.5,160.6c0.7-1,1.1-1.6,1.3-1.8
	c0.6-0.7,4.1-7.1,5.5-9.8c5.5,3.8,10.8,7.3,13.5,9.2l-6.9,11.2L429.5,160.6z M442.1,170.8l-6,9.5l-15.5-7.3
	c2.5-3.6,5.8-8.3,7.9-11.3L442.1,170.8z M429.7,157.7c-0.2,0.2-0.7,1-1.5,1.9l-6.3-4.2c2.1-4.4,4-8.6,5.8-12.3
	c2.4,1.6,4.9,3.3,7.5,5C432.7,152.6,430.1,157.2,429.7,157.7z M427.2,160.9c-2.6,3.7-6.7,9.5-8,11.4l-4.5-2.1
	c2.2-4.6,4.3-9.1,6.3-13.4L427.2,160.9z M430,179.1l16.3,7.6c-0.1,0.2-0.2,0.4-0.3,0.4c-0.7,1-2.8,3.7-5.4,7.2l-14.3-8
	C427.8,183.5,429.4,180.4,430,179.1z M437.5,181l13.6-21.7c0.1,0.1,0.3,0.2,0.4,0.3c1.4,1.1,4.8,3.5,8.6,6.1
	c-6.6,10.1-10.9,16.8-12.9,20L437.5,181z M461.4,166.4c1.8,1.2,3.7,2.5,5.4,3.5c-0.2,0.2-0.3,0.4-0.4,0.5
	c-2.5,3.7-10,15.9-11.8,18.6l-6.1-2.9C450.7,183,454.9,176.3,461.4,166.4z M450.8,157c-1.6-1.2-4.1-2.9-7.1-4.9l8.6-10.6
	c1.1,0.4,3.7,1.3,6.7,2.5L450.8,157z M451.6,139.6c-0.7,0.1-3.4,0.1-6.5-3.1c-0.9-1-2.3-2.2-4.1-3.5c1.6-1.4,3.4-2.9,4.7-4
	c0.2,0.1,3.3,0.7,5.2,1c0.5,0.1,3,1.2,6.2,2.8L451.6,139.6z M443.9,137.6c2.5,2.6,4.8,3.4,6.3,3.5l-2.5,3l-11.2-7.5
	c0.6-0.5,1.8-1.6,3.2-2.7C441.7,135.5,443.2,136.8,443.9,137.6z M435.3,135.9l-3.3-2.2c0.8-1.6,1.4-3,1.9-4.1
	c1.6,1.1,3.2,2.4,4.6,3.5C436.9,134.5,435.7,135.5,435.3,135.9z M446.9,145.4l-4.6,5.6c-4.4-3-9.5-6.4-14-9.4
	c1.1-2.5,2.2-4.7,3.1-6.6L446.9,145.4z M425.7,140c-3.3-2.2-6-4-7.4-4.9c1.6-3.3,2.6-5.5,2.8-5.9c0-0.1,1.3-2.7,3.3-6.7
	c1.5,1.1,4.2,3,7.2,5.2C430.3,130,428.3,134.4,425.7,140z M425,141.4c-3.6,7.7-8.3,17.6-12.8,27.2l-8.8-4.5
	c2.7-3.6,9.9-18.5,14.2-27.7C419.3,137.6,421.9,139.4,425,141.4z M411.4,170.1c-3.1,6.5-6.2,13-9,18.7l-12.8-6.4
	c0.4-0.4,0.5-0.6,0.8-0.9c2.9-3.2,5.9-7.3,8.4-11.1c1.2-1.8,2.5-3.5,3.6-5L411.4,170.1z M401.7,190.1c-4.2,8.7-7.7,15.6-9.3,18.2
	c-0.1,0.1-0.2,0.3-0.2,0.4l-16.8-8.3c4.7-6.1,9.9-13.1,13.1-16.9L401.7,190.1z M391.5,210c-1.6,2.6-3.1,5.4-4.6,8.3
	c-6.6-3.7-13.9-8-15.6-9.3c-0.4-0.4-0.9-0.7-1.4-1.2c1-1.3,2.1-2.8,3.3-4.5c0.1-0.1,0.2-0.2,0.3-0.4c0.4-0.4,0.6-0.9,1-1.2
	L391.5,210z M391.7,260.1c-3.8-2.6-8-5.5-11.7-8.2c1.4-2,2.4-3.6,2.6-4c0.4-0.5,3.7-3.5,7.1-6.4c2.5,1.4,4.5,2.8,6.6,4
	c1.4,0.9,2.7,1.7,4.1,2.5C397.7,252,394.6,256.3,391.7,260.1z M401.8,249.1c1.8,1.1,3.8,2.1,6.1,3.2c1.7,0.8,4.4,2,7.7,3.5
	l-10.5,13.6c-1.2-0.9-6.1-4.2-12-8.3C396.3,256.7,399.7,251.9,401.8,249.1z M379.2,253.4c3.7,2.6,7.8,5.4,11.6,8.1
	c-3.2,4.3-5.8,7.9-6.6,8.7c-1.4-0.4-6.7-3.6-11.5-6.8c0.1-0.4,0.2-0.5,0.3-0.9C374.3,260.6,377,256.6,379.2,253.4z M374.9,256.9
	c0.6-1.6,1.4-3.3,2.2-4.9c0.3,0.2,0.5,0.4,0.8,0.5C376.9,253.8,375.9,255.4,374.9,256.9z M381.3,247.2c-0.3,0.4-1.2,1.8-2.5,3.9
	c-0.4-0.3-0.7-0.4-1-0.7c2.2-4.9,4.5-9.9,5.6-12.5c1,0.7,2,1.3,3.2,1.9c0.6,0.4,1.2,0.7,1.8,1C385.8,243,381.9,246.4,381.3,247.2z
	 M383.8,224.3c-1.1,2.1-2,4.1-2.9,6.2c-2.9-2.8-4.7-5.5-6.2-7.6c-0.4-0.4-0.6-1-1-1.3c-1-1.4-2.9-3.5-5.1-6.1
	c1.2,0.7,2.5,1.4,3.7,2.2C376.1,219.8,380,222,383.8,224.3z M368,205.9c-1.1-1-2.2-2.2-3.5-3.3l5.5,0.6
	C369.3,204.1,368.6,205,368,205.9z M370.3,223.8c0.4,0.4,0.5,0.9,0.9,1.2c1.8,2.5,4.1,6.1,7.8,9.4c-1.1,2.6-2.1,5-2.8,6.9
	c-0.5,1.6-1.2,3.8-2,6.5c-2-1.4-3.7-2.6-4.8-3.4c1.7-2.7,2.9-5,2.9-6c0-2.3-9.1-9.2-14.1-12.9c1.9-2.9,4.1-6.3,5.8-9.1
	C366.8,219.7,369.2,222.4,370.3,223.8z M370.6,238.5c0,0.6-1.1,2.6-2.6,5c-0.1-0.1-0.3-0.2-0.4-0.3c-2.5-1.8-5.4-1.6-8-1.4
	c-0.9,0.1-1.6,0.2-2.4,0.2c-2.2,0-7.4-0.8-10.5-1.2c3.8-4.8,7.6-9.9,9.8-12.9c0.3-0.4,0.4-0.5,0.6-0.9
	C363.8,231.8,370.4,237.3,370.6,238.5z M348.3,242.7c3.1,0.4,7.1,1,9,1c0.9,0,1.7-0.1,2.5-0.2c2.5-0.3,4.8-0.4,6.9,1.1
	c0.1,0.1,0.3,0.2,0.4,0.3c-2.7,4.1-6.1,8.8-7.3,9.9c-1.5-0.8-6.7-4.2-10.1-6.4c-0.4-0.3-0.9-0.2-1.1,0.3c-0.3,0.4-0.2,0.9,0.3,1.1
	c2.9,1.9,9.9,6.5,10.7,6.7c0.1,0,0.2,0.1,0.3,0.1c0.3,0,0.4-0.1,0.6-0.3c1-0.7,4.8-5.9,7.9-10.5c1.2,1,3.1,2.2,5.3,3.7
	c0,0.2-0.1,0.3-0.1,0.4c-2,6.7-4.7,15.5-8,24.1c-4.1-2.9-15.6-11.2-21-14.8l0,0l0,0c-1.3-0.9-2.2-1.5-2.5-1.7
	c-1.1-0.7-2.1-1.1-2.7-1.3L348.3,242.7z M344.4,260.9c5.6,4,17,12,20.7,14.5c-1,2.6-2.1,5.2-3.3,7.6c-1.2-0.7-2.5-1.4-3.8-2.1
	l-0.4-0.2c-1-0.5-11.2-5.4-20.1-9.6L344.4,260.9z M336.1,270.6c-1.7-0.9-3.4-1.6-4.9-2.3l7.3-10.7c0.5,0.3,1.6,0.6,2.9,1.3
	c0.4,0.2,1,0.6,1.8,1.2L336.1,270.6z M329.7,267.6c-0.1-0.1-0.3-0.1-0.4-0.2c4.1-7.4,8-14.4,9.9-17.1c0.9-1.1,1.8-2.4,2.9-3.8
	s2.2-2.9,3.4-4.4c0.4,0.1,0.5,0.1,1,0.2L329.7,267.6z M324.2,265.2c-0.8-0.4-6.9-4.6-15-10.4c0.1-0.2,0.3-0.3,0.4-0.4
	c2.9-3.4,6.2-7.2,9.8-11.2l13.8,9.1c-2.1,3.5-4.7,8.3-7.4,13.1c-0.1,0.1-0.1,0.2-0.2,0.3C324.9,265.4,324.5,265.2,324.2,265.2z
	 M324.5,267.5c-1.6,2.8-3.1,5.5-4.6,8.2l-4.7-3.5l4.3-7.5c2,1.4,3.4,2.2,3.7,2.4C323.6,267.2,324.1,267.3,324.5,267.5z M320.4,242
	c1.8-2.1,3.7-4.2,5.5-6.3l12.7,8.8c-1,1.2-1.8,2.4-2.6,3.4c-0.6,0.8-1.3,1.8-2.1,3.1L320.4,242z M339.7,243.2l-12.7-8.8
	c1.5-1.7,2.9-3.4,4.4-5l12.3,8.6C342.3,239.8,340.9,241.6,339.7,243.2z M316.9,239.7l-15.1-9.9c0.7-1,1.1-1.6,1.3-2
	c0.7-1.6,5.2-10.1,6.9-13.4l18,12.6C324.2,231.2,320.5,235.5,316.9,239.7z M261.1,152.7l-4.3,6.2l-2.2-1.4l-8.7-5.3
	c2.9-4.1,5.4-7.9,7.8-11.2c1.5,0.9,3.1,1.8,4.7,2.9c-0.9,1.5-1.4,2.7-1.4,3.4C257.2,149.8,259.7,151.8,261.1,152.7z M286.2,161.3
	c-1.1-0.2-2,1.1-3.5,3.5c-0.5,0.8-1.3,1.9-1.7,2.3c-1.1-0.4-5.7-3.3-9.9-6.1c5.6-7.5,5.1-8.1,4.7-8.6c-0.3-0.4-1.7-1.2-8.7-5.4
	l2.2-3.1c0.2,0.3,0.4,0.4,0.5,0.5c0.2,0.1,5.4,3.4,12.6,7.7c2.1,1.7,4,3.2,5.4,4.3c1.2,1,2.3,2,3.5,3.1c-0.6,1-1.3,2-2.1,3.1
	C288.2,162.1,287,161.4,286.2,161.3z M288.2,164c-2.1,3.2-4.5,6.7-6.9,10.3l-13.8-8.9c1-1.1,1.7-2.2,2.5-3.2
	c3.8,2.5,9.8,6.2,10.8,6.4c0.1,0,0.1,0,0.2,0c0.9,0,1.6-1,2.9-3.1c0.6-1,1.7-2.5,2.2-2.8C286.6,162.9,287.5,163.5,288.2,164z
	 M274.1,153.3c-0.6,1.5-4.4,6.7-8.1,11.4l-8-5l8-11.3C269.8,150.6,273.2,152.7,274.1,153.3z M280.5,175.7c-2.2,3.3-4.5,6.7-6.8,10.1
	l-22.6-16l6.2-8.8L280.5,175.7z M295.6,164.2c3,3,7,6.7,13.8,10.8l-17.7,23.5l-13.8-9.7C282.4,182.3,289.6,172.3,295.6,164.2z
	 M304.6,151.2c1.6-2.6,3.5-5.9,5.5-9.5l14.2,10.6l-4.7,8L304.6,151.2z M317.8,163.2l-2.5,4.1c-3.7-2.2-9.2-5.5-15.2-9.1
	c0.7-1,1.7-2.5,2.9-4.5l6.2,3.9c0,0,0.1,0,0.1,0.1C311.8,158.9,314.8,160.9,317.8,163.2z M299,147.8l-13.7-8.4l-8.7-6.3
	c2.3-3.5,4.7-7.3,7.2-10.9l16.2,12c0.1,0.1,0.2,0.1,0.2,0.1c1.8,0.7,3.5,1.4,5.4,2.2C302.7,141.5,300.3,145.4,299,147.8z M277,136.4
	c1.5,1.5,2.7,2.5,3.6,3.2c0.1,0.3,0.4,0.4,0.5,0.6l16.3,10c-0.7,1.1-1.8,2.6-3,4.5c-3.4-2.1-6.7-4.1-9.8-6c-4-3.3-8.7-7-12-9.8
	l1.1-1.5c0.5-0.9,1.1-1.7,1.7-2.6C276,135.5,276.6,136,277,136.4z M272.3,136.7l-1,1.4c-1.8-1.6-3.1-2.5-3.2-2.5
	c-0.5-0.4-1.2-0.5-1.8-0.4c1.1-1.6,2.3-3.2,3.5-4.7c1.5,1.1,3,2.4,4.3,3.5C273,135.7,272.3,136.7,272.3,136.7z M269,141.5l-3.3,4.7
	c-0.7-0.4-1.5-0.9-2.2-1.3c-0.9-0.4-1.8-1-2.7-1.6c1.1-1.7,2.5-3.9,4.1-6.1c0.1,0.5,0.4,1.1,0.8,1.5
	C265.6,138.9,266.9,139.9,269,141.5z M262.5,146.3c0.7,0.4,1.5,0.9,2.2,1.2l-2.7,3.8c-1.2-0.9-3.3-2.5-3.3-4.1
	c0-0.4,0.4-1.3,1.1-2.5C260.7,145.3,261.6,145.8,262.5,146.3z M253.8,158.8l2.1,1.3l-6.1,8.7l-10.4-7.3c1.9-2.8,3.8-5.4,5.6-8
	L253.8,158.8z M243.6,150.9l-24.4-14.7c0.4-0.7,1-1.4,1.5-2l23.9,15.4C244.3,150,244,150.5,243.6,150.9z M242.8,152.2
	c-1.8,2.5-3.6,5.2-5.4,7.9l-23.7-15.9c1.6-2.3,3.2-4.5,4.7-6.7L242.8,152.2z M235.7,162.2c-2.2,3.1-4.5,6.3-6.8,9.8
	c-0.5,0.8-1.1,1.6-1.6,2.2c-4-2.5-7.6-4.7-8.9-5.8s-7.5-5.4-14.7-10.5c2.8-4,5.6-7.9,8.3-11.7L235.7,162.2z M239.4,183.6l-7.9,12.7
	c-2.9-1.8-6.7-4.5-11.3-7.6c2.9-4.1,5.6-8.1,8.4-12l0,0C232.3,179.1,236.3,181.7,239.4,183.6z M217.4,169.6c0.5,0.4,1.4,1,2.4,1.7
	l-7.6,12.1c-5.8-3.9-12.1-8.1-18.2-12.1c2.8-3.9,5.7-8,8.7-12.1C210,164.3,216,168.6,217.4,169.6z M221.1,172.3
	c1.5,1,3.3,2.1,5.2,3.3c-2.7,3.9-5.4,7.9-8.3,11.9c-1.5-1-2.9-2-4.5-3L221.1,172.3z M233.9,206.2l-7.3,10.3
	c-5.2-3.6-11.1-7.6-17.2-12c2.5-3.5,4.9-7.1,7.4-10.5L233.9,206.2z M235.1,207.1l16.3,11.7c-0.4,0.4-0.5,0.9-0.9,1.2
	c-0.2,0.3-2.5,3.5-6.2,8.9c-3.1-2.2-9.1-6.2-16.5-11.5L235.1,207.1z M234.3,198.3c-0.4-0.4-1-0.6-1.5-1l7.9-12.7
	c1.6,1.1,2.9,2,3.8,2.8c3.9,3.3,14.4,12.5,17.8,15.3c-2.6,3.9-5.1,7.5-7.3,10.7C248,207.4,235.9,199.3,234.3,198.3z M245.5,186.1
	c-1-0.9-2.6-2-4.7-3.3l0,0l0,0c-3.3-2.2-7.4-4.7-11.3-7.1c0.5-0.7,1-1.5,1.5-2.2c2.3-3.3,4.7-6.6,6.8-9.8l34.3,24.3
	c-3,4.5-6.1,9.1-9,13.3C259.6,198.3,249.3,189.3,245.5,186.1z M273.2,195.4c0.1-0.1,1.2-1.8,3.2-4.5L308,213
	c-3.5,5.4-8.4,12.8-9.7,14.3l-31.7-22.6L273.2,195.4z M304.6,221.2c-1.4,2.7-2.6,5.1-3,5.9c-0.2,0.4-0.5,1-1.1,1.8l-0.8-0.5
	C300.5,227,302.5,224.2,304.6,221.2z M308.9,210.4L293,199.2l17.8-23.5c0.5,0.4,1.1,0.6,1.6,1c4,2.2,7.6,4.7,11,7L308.9,210.4z
	 M314.6,173.2c-6.1-3.5-10-6.5-13.1-9.2c5.5,3.4,10.5,6.3,13.4,8c4.2,2.5,10.5,7.3,16.5,12.5C326.5,180.8,320.9,176.9,314.6,173.2z
	 M317.1,168.4c-0.2-0.1-0.4-0.2-0.4-0.3l2.4-4c8.9,6.9,18.1,15.8,21.4,19.1c-0.7,0.7-1.3,1.3-1.9,1.8
	C331.1,178.5,322.8,171.7,317.1,168.4z M320.5,161.9l5.5-9.2l8.3-11.3c2.9,1.8,6.1,3.3,9.5,4c-4.9,9.8-10.9,21.4-12.9,25.3
	C327.6,167.7,324,164.5,320.5,161.9z M329.2,145.4c-0.5-0.4-7.7-3.8-16.8-7.8c1.5-2.5,3-5.4,4.7-8.2c4.4,2.8,7.7,4.8,8.7,5.6
	c0.5,0.4,1.1,0.9,1.6,1.3c1.6,1.2,3.4,2.6,5.4,4L329.2,145.4z M327.8,146.5l-2.7,4.5l-14.2-10.7c0.3-0.4,0.4-0.9,0.8-1.3
	C319.3,142.4,325.6,145.4,327.8,146.5z M306.2,135c-1.8-0.8-3.5-1.5-5.4-2.2l-16.2-12c1.8-2.8,3.6-5.4,5.4-8
	c6.6,4,14.4,8.8,21.2,12.9C309.5,129.1,307.8,132.2,306.2,135z M285.3,117.1c-0.6,1-1.2,1.9-1.9,2.9l-10.3-7.6
	c1.4-2.2,2.9-4.5,4.5-6.9c2.1,1.3,6.2,3.7,11.1,6.7C287.7,113.5,286.5,115.2,285.3,117.1z M268.5,129.4c-1.8,2.5-6.5,8.6-9.2,13.1
	c-1.6-1-3.1-1.8-4.7-2.8c5-7.2,8.5-12.1,9.6-13.7C265.2,126.8,266.8,128.1,268.5,129.4z M252.4,138.4c-5.2-3.1-9.6-5.8-10.4-6.6
	c0.2-1.5,5-8.4,9.8-14.3l9.9,7.3C260.5,126.8,257.2,131.6,252.4,138.4z M245.4,123.3c-5.8,8-5.2,8.8-4.7,9.4c0.4,0.7,3.7,2.8,10.8,7
	c-1.8,2.6-3.9,5.4-6.1,8.6l-23.9-15.4c4.9-7,8.7-12.5,10.3-15c1.7-2.6,3.9-6.3,6.3-10.5l12.5,9.2
	C249.6,117.8,247.5,120.5,245.4,123.3z M218.8,131.3c-0.6,0.9-1.2,1.8-1.8,2.6l-10.5-7.3l1.7-2.5L218.8,131.3z M216,135.2
	c-1.6,2.2-3.3,4.7-5,7.1l-10.4-6.9l4.8-7.3L216,135.2z M209.5,144.6c-2.7,3.8-5.4,7.7-8.3,11.6c-9.6-6.7-20.4-14.2-24.5-17
	c2.4-3.3,5-7.2,8-11.3L209.5,144.6z M214.6,192.3c-2.5,3.5-4.9,7.1-7.4,10.6c-7.8-5.4-16-11.2-23.8-16.6c2.3-3.2,4.9-6.9,7.9-10.9
	L214.6,192.3z M208.4,205.7c15.8,11.1,29.7,20.7,35,24.4c-2.5,3.5-5.5,8-9.1,12.9c-3.8-2.8-7.7-5.6-11.6-8.4l0,0l0,0
	c-9.2-6.7-17.8-12.9-23.1-16.4C202.6,214.1,205.5,209.9,208.4,205.7z M248.8,233.3l21.9,14.7c-3.5,4-7.6,8.9-11.3,13.4
	c-1.3-1-5.2-3.8-10.4-7.6l0,0c-2.8-2-5.9-4.3-9.2-6.8C243,241.9,246.1,237.2,248.8,233.3z M249.4,232.4c2.9-4.2,5.2-7.7,6.8-10.1
	l22.8,16.3c-0.3,0.2-0.4,0.3-0.4,0.4c-0.4,0.4-3.3,3.7-7.1,8.2L249.4,232.4z M259.2,217.3c-0.1-0.1-0.2-0.2-0.2-0.3
	c-0.2-0.2-0.4-0.4-0.5-0.6l7.3-10.4l31.1,22.1c-2.7,1.1-8.9,3.2-14.9,5.1L259.2,217.3z M290.9,235.1c2.2-0.9,4.5-1.8,6.8-2.7
	c-1.8,2.4-4.1,5.4-6.2,7.8l-0.4-0.4C290.9,237.8,290.8,235.8,290.9,235.1z M300.6,231.2c0.2-0.1,0.3-0.1,0.4-0.2l14.9,9.8
	c-3.2,3.5-6.2,7-8.9,10.2l-14.1-9.9C294.9,238.5,298.3,234.3,300.6,231.2z M307.9,256.4c4.1,2.9,7.8,5.4,10.5,7.4l-4.3,7.4
	l-11.5-8.7C304,260.8,305.9,258.6,307.9,256.4z M319.2,277.1c-1.3,2.3-2.6,4.4-3.7,6.2L296.9,269c0.3-0.4,0.4-0.5,0.6-0.7
	c0.4-0.5,1.8-2.2,4-4.6L319.2,277.1z M304.7,279.6l8.6,6.7c-0.2,0.2-0.3,0.4-0.4,0.4c-2.8,3.3-9.1,13-14.8,21.8l-5.8-4
	c4.2-2.8,8-6.2,9.2-10.1c1.2-4,1.6-7.3,2-9.9C304,282.4,304.1,280.7,304.7,279.6z M301.7,310.9c5.5-8.7,11.8-18.3,14.5-21.4
	c0.3-0.4,0.5-0.7,0.9-1.1l32.4,20.1c-2.7,6.1-4.4,10.5-4.7,11.3c-0.5,1-4,6.2-9,14.2L301.7,310.9z M318,287.1
	c2.8-4.1,6.7-10.9,10.5-17.8c9.2,4.2,27.1,12.7,28.3,13.4l0.4,0.2c1.1,0.6,2.5,1.4,4,2.2c-0.4,1-0.9,1.8-1.3,2.6
	c-3.6,6.9-6.9,13.7-9.4,19.4L318,287.1z M362.3,289.1c0.4-0.9,0.9-1.7,1.3-2.5c6.2,3.4,14,7.7,22.5,12.5l-10.5,22
	c-8.7-4.7-16.7-9-22.7-12.3C355.4,303,358.7,296.1,362.3,289.1z M364.6,284.8c2.9-6.3,5.4-13.3,7.6-19.8c8.8,5.8,11.3,6.9,12.4,6.9
	c0.4,0,0.4-0.1,0.5-0.3c0.4-0.4,3.5-4.4,6.9-9.2c5.7,4,10.5,7.3,11.9,8.3l-3.9,4.9l0,0l-7,9c0,0.1-0.1,0.1-0.1,0.2l-6,12.4
	C379.7,293.1,372.1,288.9,364.6,284.8z M393.5,287.4l26.5,14.3c-1.8,3.5-3.7,6.9-5.5,10.4c-8-4.4-16.9-9.2-25.9-14.2L393.5,287.4z
	 M394.2,286l0.3-0.4l6.6-8.4l25.3,12.9c-1.8,3.4-3.7,6.9-5.5,10.4L394.2,286z M401.9,275.9l7.6-9.8l22.9,12.5
	c-1.7,3.3-3.5,6.6-5.4,10L401.9,275.9z M410.5,264.8l6.5-8.3c6.2,2.9,14.2,6.6,21.9,10.1c-1.8,3.3-3.6,6.8-5.7,10.5L410.5,264.8z
	 M419.5,253c0.8-1.1,1.9-2.8,3.3-4.7c4.6,2.3,9.1,4.5,13,6.4l1.9,1c1.6,0.8,3.5,1.7,5.6,2.6c-0.8,1.5-1.6,3-2.5,4.7
	C433.4,259.4,425.7,255.8,419.5,253z M418.1,252.4c-0.2-0.1-0.4-0.2-0.4-0.3c-3.5-1.6-6.2-2.9-8-3.7c-4.3-2-7.4-4-11-6.2
	c-2.8-1.8-6-3.8-10-6.1c-2-1.1-3.7-2.2-5.3-3.5c1-2.2,2.1-4.5,3.3-6.8c7,4.1,13.1,8,16.1,10.2c5.1,4,12,7.9,18.8,11.5
	C420,249.6,418.9,251.2,418.1,252.4z M400,225.6c0.7-1,1.6-2.3,2.8-4l11.3,9.1c-0.9,1.2-1.7,2.4-2.4,3.3c-0.1-0.1-0.1-0.2-0.2-0.3
	C411.2,233.7,404,228.2,400,225.6z M403.6,220.3c5.5-8,14.2-20.2,17.7-25.4l12.2,8.7c-3.8,4.9-7.3,9.5-8.6,11.7
	c-1.8,2.7-6.2,9.1-9.9,14.3L403.6,220.3z M422.2,193.6c0.4-0.4,0.5-0.9,0.6-1c0.4-0.7,1.5-2.6,2.6-4.7l14.2,7.8
	c-0.5,0.7-1.1,1.4-1.6,2.2c-1.1,1.5-2.3,3-3.5,4.6L422.2,193.6z M441,196.3l13.2,6.6c-1,1.4-1.9,2.7-2.8,3.9l-12-8.3
	C440,197.7,440.6,196.9,441,196.3z M442,195.1c2.5-3.3,4.6-6.1,5.3-7c0.1-0.2,0.3-0.4,0.4-0.5l12.7,6.1c-0.1,0.2-0.2,0.4-0.3,0.4
	c-1.8,2.9-3.4,5.4-4.9,7.6L442,195.1z M456.1,189.7c1.8-3,9.1-14.9,11.6-18.4c0.1-0.2,0.3-0.4,0.4-0.5c1.4,1,2.5,1.6,3.3,2.1
	c-3.3,6.8-6.9,13.8-10.1,19.3L456.1,189.7z M467.5,168.6c-1.6-1.1-3.5-2.2-5.4-3.5c0.5-0.9,1.1-1.8,1.8-2.7l1-1.4
	c0-0.1,0.1-0.2,0.2-0.4c0,0,0,0,0-0.1s0.1-0.1,0.1-0.2c0.7-1.6,2.5-6.2,4.8-12.2c0.8,0.4,1.6,0.6,2.2,1c1.1,0.5,2.6,1,4.1,1.6
	C473.2,157.3,469.6,164.8,467.5,168.6z M469.2,146.1c-2.7-1.1-5.9-2.3-8.6-3.4l0,0c-3-1.1-5.7-2.1-7.1-2.6l5.4-6.7
	c4.1,2,9,4.6,12.8,6.6C470.7,142.1,470,144.1,469.2,146.1z M451.2,128.4c-1.1-0.1-2.6-0.4-3.7-0.6c0.2-0.1,0.3-0.2,0.4-0.3
	c1.6-1.1,7.1-5.9,8.8-7.3c5.1,3.5,9,6.3,10,7.2c2.7,2.2,5.3,4.3,7.5,6.1c-0.7,1.7-1.3,3.4-2,5.1C467.6,136.2,453,128.6,451.2,128.4z
	 M446.8,126.2c-1,0.7-4.2,3.4-7,5.8c-1.6-1.2-3.4-2.6-5.1-4c0.3-0.4,0.4-0.8,0.4-1c0.4-0.6,4.1-7.7,8.5-15.9c4,2.8,8,5.5,11.6,8
	C453.3,120.9,448.3,125.3,446.8,126.2z M441.8,108.1c-2.9-1.9-5.6-3.9-8.2-5.6c1-2.1,1.8-4.1,2.6-6c0.4-1,0.9-1.9,1.4-3l9.6,4.6
	C445.4,101.2,443.6,104.7,441.8,108.1z M441,109.5c-4.6,8.5-8.6,16.1-8.7,16.3c0,0,0,0.1-0.1,0.1c0,0-0.1,0.2-0.2,0.4
	c-3-2.2-5.8-4.1-7.2-5.2c2.3-4.7,5.3-11.2,8-17.1C435.5,105.7,438.2,107.6,441,109.5z M418.5,128c0,0.1-1.1,2.3-2.5,5.5
	c-1.4-1-3.6-2.5-6.1-4.1c2.5-4.2,10.7-18.6,11-19.3l0.1-0.3c0.4-1,1.3-4.1,2.9-5.8c0.3-0.3,0.2-0.5,0-0.8c-0.3-0.3-0.5-0.2-0.8,0
	c-1.4,1.5-2.3,3.8-2.9,5.3l-5.8-3.1c1.9-3.2,4-6.6,6-10.1c2.1,1.4,5.8,4,10.2,6.9C425.2,114.4,418.7,127.9,418.5,128z M419.9,109.6
	L419.9,109.6c-0.3,0.8-6.5,11.6-10.9,19.2c-1.8-1.3-3.9-2.7-5.9-4.1c2.1-3.5,6.1-10.2,10.8-18.3L419.9,109.6z M415.3,135.1
	c-4.3,9.2-11.8,24.5-14.2,27.7c-0.1,0.1-0.1,0.2-0.2,0.3l-16-8.2c8-13.1,14.9-24.5,16.6-27.3c0.1-0.2,0.4-0.6,0.8-1.3
	C407.4,129.6,412.8,133.3,415.3,135.1z M399.9,164.2c-1.1,1.5-2.2,3.1-3.4,4.7c-0.5,0.7-1,1.5-1.6,2.2l-14.7-8.9
	c1.2-2.1,2.5-4.1,3.8-6.2L399.9,164.2z M394.1,172.4c-0.4,0.7-1,1.3-1.5,2l-14.9-8.1c0.5-1,1.1-1.8,1.7-2.8L394.1,172.4z
	 M391.7,175.7c-1.1,1.4-2.2,2.8-3.3,4c-2.9,3.2-11.3,14.1-17.2,22l-8.4-1c-1.5-1.5-2.9-2.8-3.8-3.8c3.5-5.4,10.5-17.1,18.1-29.3
	L391.7,175.7z M359.6,212c0.4,0.4,1,1,1.4,1.5c-2.1,3.4-5.4,8.8-7.7,12c-1.8,2.5-4.7,6.4-8,10.5l-12.2-8.5
	c7.5-8.6,14.5-16.6,18.9-21.7c1.1,0.7,2.2,1.4,3.5,2.2C356.9,209.2,358.3,210.6,359.6,212z M329.6,225l-19-13.3l14.5-26.5
	c5.9,4.1,11,8.3,15.4,12c2.6,2.2,4.9,4,7,5.5c0.4,0.3,0.6,0.4,1,0.7C344,208.5,337.1,216.5,329.6,225z M332.1,171.5
	c1.8-3.7,8.2-16,13.4-26.3c5.4,0.6,11.1,3.3,13.4,4.4c-6.9,13.6-14.9,28.9-15.6,30.3c-0.3,0.4-0.5,0.8-1,1.2
	C340.3,179.4,336.6,175.7,332.1,171.5z M346.2,143.9c3.5-6.8,6.2-12.5,6.7-13.3c0.3-0.7,1.8-3.6,3.8-7.7c1.1,0.8,1.9,1.2,2.2,1.4
	c1.1,0.4,5.9,4.1,9.4,7.1c-1.8,3.5-5.1,10-8.7,17.1C357.2,147.2,351.8,144.7,346.2,143.9z M359.4,122.7c-0.3-0.1-1-0.5-2.1-1.3
	c0.9-1.6,1.7-3.5,2.7-5.4l12.2,7.6c-1.5,2.8-2.4,4.6-2.5,4.7c0,0.1-0.4,0.5-0.8,1.5C366.3,127.6,360.9,123.3,359.4,122.7z
	 M356,120.5c-3-2-7.6-5.3-12.6-8.7l9.8-18.2l12.1,8.5C362.1,108.3,358.7,115.1,356,120.5z M355.3,121.9c-2.2,4.2-3.6,7.3-4,8
	c-0.4,1-3.3,6.7-6.8,13.7c-6.2-0.9-11.8-5.3-16-8.5c-0.2-0.2-0.4-0.4-0.5-0.4c1.4-2,5.7-8.3,6.2-9.2c0.7-1.1,0.5-4.5,0.4-5.4
	c0-0.4-0.2-0.5-0.4-0.7l-9.2-4.2c1.8-3.3,3.8-6.8,5.7-10.3C336.4,108.9,348.9,117.8,355.3,121.9z M333.2,120.7c0.1,1.7,0,3.6-0.4,4
	c-0.4,0.8-4.7,6.9-6.2,9.1c-1.1-0.9-4.5-3-8.8-5.7c2.1-3.6,4.2-7.5,6.4-11.4L333.2,120.7z M311.9,124.4c-6.7-4.1-14.5-8.9-21-12.8
	c4.7-6.9,8.3-12.1,9.2-13.1c0.7,0.2,2.5,1.3,4,2.2c4,2.4,5.7,3.3,6.7,2.7c1.2-0.8,4.9-5.5,6.2-7.4l7.4,5
	C320.3,109,315.9,117.1,311.9,124.4z M310.2,101.9L310.2,101.9c-0.8,0-3.5-1.6-5.2-2.6c-3.1-1.8-4.3-2.5-5.2-2.4
	c-0.4,0.1-1,0.3-10.3,13.9c-4.8-2.9-9-5.4-11.2-6.7c4.6-7.1,9.8-15.4,15.4-23.9l22,14.9C313.9,97.6,311.1,101.2,310.2,101.9z
	 M292.6,77.2l-16-10.8L287.9,50l15.6,10.5C299.7,66.1,296.1,71.7,292.6,77.2z M291.7,78.6c-2.7,4.2-5.4,8.4-8,12.4l-16.2-11.5
	l8-11.8L291.7,78.6z M282.9,92.3c-1.7,2.6-3.4,5.3-4.9,7.6l-14.3-9.8l-11.2-7.5c0.8-1.5,1.4-2.5,1.7-3.1c0.4-0.9,1.6-2.9,3.2-5.5
	L282.9,92.3z M262.7,91.4l14.3,9.8c-0.4,0.6-0.8,1.2-1.1,1.8c-0.1,0.1-0.1,0.1-0.2,0.2c0,0.1-0.1,0.2-0.1,0.2
	c-1.7,2.6-3.3,5-4.7,7.3l-25-16.8c2.2-3.8,4.1-7.3,5.6-9.8L262.7,91.4z M264.2,108.1c-0.4,0.7-0.7,1.9-0.5,4
	c0.2,2.5,1.9,4.1,3.3,4.9c-2,3.1-3.5,5.4-4.2,6.6L239.1,106c2.1-3.5,4.2-7.3,6.3-10.8L264.2,108.1z M236.3,104.3L225.9,97l6.7-10.1
	l9.9,6.7C240.6,97,238.4,100.7,236.3,104.3z M224.7,96.1l-12.7-9c2.3-3.6,4.4-6.9,6.2-9.9l9.9,6.7l0,0l0,0l3.2,2.2L224.7,96.1z
	 M223.9,97.5l-7.7,11.7l-12.8-8.8c2.7-4.1,5.4-8,7.8-11.8L223.9,97.5z M215.3,110.3l-7.7,11.7l-13.1-8.6c2.7-4,5.4-7.9,8-11.8
	L215.3,110.3z M206.6,123.3l-1.6,2.5l-13-9c0.5-0.8,1-1.5,1.6-2.2L206.6,123.3z M204.2,127.2l-4.8,7.4l-13.3-9
	c1.7-2.4,3.4-4.8,5.1-7.4L204.2,127.2z M166.3,128.3l-2.6,3.9l1.4-4.7L166.3,128.3z M161.1,135.6l-11.8-8.6l5-7.1l9.3,6.7
	L161.1,135.6z M160.5,137l-4.8,7.2c-3.5-2.7-7.6-5.9-12.1-9.1l4.8-6.9L160.5,137z M167.5,129.3l7.2,5.1
	c-6.1,8.7-10.4,14.7-10.5,14.9c-0.3,0.4-0.5,0.7-0.8,1.1c-1.5-1.2-3.8-3-6.7-5.2L167.5,129.3z M164.5,156.3l24.1,17.3
	c-2.9,4-5.5,7.7-7.9,10.9c-9-6.2-17.3-12-24.1-16.9C159.9,163,162.5,159.1,164.5,156.3z M179.7,185.8c-0.8,1.1-1.6,2.1-2.2,3
	c-2,2.8-3.4,4.7-4.1,5.8c-0.5,0.8-1.4,2-2.5,3.8c-0.8-0.5-1.6-1.1-2.3-1.6c-6.9-4.8-14.3-10-21.5-15c3.2-4.6,6.1-8.8,8.7-12.7
	C162.4,173.7,170.9,179.6,179.7,185.8z M143.5,179.2c-2.8-1.9-5.4-3.8-8-5.5c0-0.3-0.2-0.4-0.4-0.5s-0.4-0.2-0.6-0.1
	c-9.8-6.7-17.8-12-21.4-14.1c-3.9-2.1-9.1-5.4-14.3-9.1c3.7-4.6,7.2-8.7,9.9-11.8c4.4,2.7,27.8,17.1,31.3,19.7
	c0.8,0.5,5.4,3.9,12.5,8.7C149.4,170.7,146.5,174.9,143.5,179.2z M112.5,159.9c3.6,1.9,11.6,7.3,21.3,13.9l-4.7,8.1H129
	c-0.1,0-1.1,0.2-1.4-1c-0.2-0.4-0.5-0.6-1-0.5c-0.4,0.2-0.7,0.5-0.5,1c0.4,1.3,1.3,1.8,2.1,2l-4,6.7l-10-6.9l0,0l0,0l-27.1-18.5
	c3.5-4.6,7.3-9.2,11-13.7C103.4,154.4,108.6,157.8,112.5,159.9z M124.7,213.9l24.8,17c-2.5,4-5,7.8-7.4,11.3l-18.7-12.8l0,0l0,0
	L117,225C119.5,221.5,122.1,217.7,124.7,213.9z M118.4,238.1l4.7-6.9l18.1,12.5c-3.8,5.9-7,10.9-9.2,14.3l-13.4-9.3
	c1-1.6,3.5-5.9,3.7-6.5C122.6,241.6,122.9,240.9,118.4,238.1z M132.1,263.7c0.2-0.4,0.8-1.2,1.6-2.7c2.2,1.6,7.2,5,13.6,9.5
	c-2.3,2.9-4,4.8-4.7,5.3c-1.1-0.4-6.4-3.9-12.4-8C131.1,266,131.8,264.6,132.1,263.7z M134.7,259.7c2.1-3.3,5.4-8.4,9.2-14.3
	l14.8,10.1c-3.5,4.9-7.3,9.9-10.3,13.7C143.2,265.7,138.4,262.4,134.7,259.7z M121.8,230.3l-9.5,13.8l-5.7-4
	c2.9-4.1,6.1-8.8,9.5-13.7L121.8,230.3z M117.4,239.4c1.4,0.9,2.9,1.8,3.3,2.4c-0.5,1-2.2,3.8-3.4,5.9l-3.8-2.6L117.4,239.4z
	 M131.2,259.3c-1,1.6-1.6,2.6-1.8,3c-0.4,0.9-1,2.1-1.6,3.6c-7.2-5.1-14.6-10.5-16.3-12.2c0.6-1,2.4-3.3,4.1-5.4L131.2,259.3z
	 M149.7,270.2c0.9-1.1,1.8-2.4,2.9-3.9c3.2-4.1,6.2-8.3,7.3-9.8l6.7,4.6c-4.4,6.4-7.8,11.3-9.8,14.2
	C154.3,273.5,152,271.8,149.7,270.2z M144.7,244.1c2.3-3.6,4.8-7.5,7.4-11.3l23.2,15.8c-2.8,4-5.4,7.8-7.8,11.2L144.7,244.1z
	 M177.4,249.9l35.3,24.1c-2.7,3.9-5.4,7.7-8,11.7l-35-24.5C172,257.8,174.6,254.1,177.4,249.9z M178.3,248.6c2.9-4.1,6-8.5,9.1-13.1
	l35.2,24.2c-2.9,4.1-6,8.6-9.1,13L178.3,248.6z M189,233.5c3.3-4.7,6.7-9.6,10.2-14.5c5.1,3.5,13.6,9.6,22.7,16.2l-4.7,6
	c-0.2,0.3-0.2,0.5,0.1,0.8c0.1,0.1,0.3,0.2,0.4,0.2c0.2,0,0.4-0.1,0.4-0.3l4.8-6.1c3.7,2.7,7.6,5.4,11.2,8.2
	c-2.9,4.2-6.2,8.9-9.7,13.8L189,233.5z M239.1,247.7c3.3,2.4,6.3,4.7,9.1,6.7c0.1,0.6,0.3,2.3-0.4,3.7c-0.4,1-0.7,2-0.9,2.9
	c-0.2,1-0.4,1.8-0.7,2.3c-0.6,0.8-4.3,3.4-6.5,4.9l-9.8-6.7C233.1,256.8,236.2,252.1,239.1,247.7z M247,264c0.6-0.8,0.8-1.8,1-2.9
	c0.2-1,0.4-1.8,0.7-2.6c0.5-1.1,0.7-2.5,0.6-3.4c4.7,3.4,8.1,6,9.3,6.9c-4.6,5.4-8.6,10.2-10.3,12.2l-7.8-5.4
	C242.6,267.5,246.2,265,247,264z M279.6,240.1c0.1-0.1,0.4-0.3,0.8-0.4l22.4,16.2c-4.6,5.2-7.7,8.9-8.4,9.7
	c-2.5,2.9-17.8,19.1-23,24.6l-4.7-3.2l-17.1-11.8C260.1,263,278.4,241.2,279.6,240.1z M294.4,271.7l9.1,6.9c-0.8,1.5-1,3.3-1.3,5.7
	c-0.4,2.5-0.8,5.7-1.9,9.7c-1.1,3.6-4.7,6.9-9.1,9.7l-16.3-11.2C279.2,287.7,289.1,277.4,294.4,271.7z M296.8,310.7
	c-4.6,7.1-8.3,13.2-8.7,13.9c-0.2,0.2-0.7,1.1-1.8,2.6l-15.9-11.3c3.2-1.7,5.5-3,6.7-3.5c0.4-0.3,1-0.4,1.6-0.7
	c2.9-1.3,7.3-3.2,11.4-5.6L296.8,310.7z M281.1,325.5l-6.5,9.6l-18.1-11.4c4.3-2.5,8.6-4.8,12.3-6.9L281.1,325.5z M273.7,336.3
	l-7.7,11.2l-23.5-15.8c3.5-2,7.9-4.6,12.5-7.1L273.7,336.3z M275.1,337.2l3.3,2.1c-2.2,3.4-4.7,7.3-7.6,11.4l-3.5-2.3L275.1,337.2z
	 M311.7,380.1l10.3,7.3l-9.2,14.8c-3.3-2.2-6.6-4.5-9.9-6.7C305.6,390.5,308.6,385.3,311.7,380.1z M312.4,378.8c1.8-3,3.5-6,5.3-8.9
	l10.9,6.9l-5.8,9.2L312.4,378.8z M318.5,368.6c3-5.1,6.1-10,8.9-14.7l11.3,6.8l-9.2,14.9L318.5,368.6z M328.3,352.5
	c3-4.9,5.9-9.6,8.4-13.7c1.8,1.5,5.4,4.1,8.3,6.1c0.4,0.4,1,0.6,1.5,1l-6.5,12.9l-0.4,0.6L328.3,352.5z M345.9,343.5
	c-3-1.9-6.6-4.7-8.3-6.1c4-6.3,6.9-11.2,8.6-13.8l8.8,5.2l-7.7,15.5C346.7,344.1,346.2,343.7,345.9,343.5z M356.3,329.7l11.8,6.9
	l-6.2,13c-1-0.2-1.7-0.3-2-0.4c-1.2-0.1-6.9-2.1-11.3-4.3L356.3,329.7z M346.9,322.4c0.4-0.5,0.5-0.8,0.5-0.9
	c0.1-0.1,0.1-0.2,0.2-0.4c0-0.1,1.8-4.6,4.7-11.1c4,2.1,12.3,6.7,22.7,12.2l-6.2,12.8L346.9,322.4z M376.3,323.2
	c7.6,4.1,16.3,8.7,24.9,13.4c-1.7,3.3-3.4,6.3-4.9,9.2l-24.4-13.3L376.3,323.2z M377,321.8l5.2-10.7l25.6,13.4
	c-2,3.6-4,7.3-5.8,10.6C393.5,330.6,385,326,377,321.8z M382.9,309.6l4.7-9.8c8.3,4.6,17.2,9.5,25.8,14.2c-1.6,3.1-3.3,6.1-4.9,9.1
	L382.9,309.6z M414.8,314.7c10,5.4,19.5,10.5,27.1,14.3c-1.4,2.9-2.9,6-4.5,9.2l-27.6-14.4C411.5,320.8,413.2,317.8,414.8,314.7z
	 M415.7,312.9c1.8-3.5,3.7-6.9,5.5-10.4L448,317c-0.5,1.1-0.9,1.7-0.9,1.8c-0.3,0.4-2.1,3.9-4.5,8.5
	C435.7,323.5,426.4,318.6,415.7,312.9z M422.2,301.1c1.8-3.5,3.8-6.9,5.5-10.4l26.5,14c-2.2,4.3-4.1,8.3-5.4,10.9L422.2,301.1z
	 M454.9,303.3l-26.5-14c1.8-3.5,3.7-6.8,5.4-10l6.4,2.9c0.1,0.1,0.3,0.1,0.4,0.1c0.4,0,0.6-0.2,0.7-0.4c0.2-0.4,0-0.9-0.4-1
	l-6.3-2.8c2-3.8,4-7.3,5.7-10.5c7.6,3.5,14.8,6.9,19.9,9.2c1.7,0.8,3.3,1.6,4.7,2.2c0.5,0.3,1.1,0.4,1.6,0.7c-0.3,1-0.4,1.6-0.7,2.1
	C464.6,283.8,459.5,294.1,454.9,303.3z M462,272.7c-5-2.3-12.1-5.6-19.6-9.1c1-1.6,1.7-3.3,2.5-4.7c6.9,3.2,15.7,7.3,22.8,11.9
	c-0.2,1.5-0.4,2.9-0.5,4.2c-0.2-0.1-0.4-0.2-0.5-0.3C465.2,274.2,463.6,273.5,462,272.7z M446.9,255.2c2.4-4.4,3.9-7.2,4.1-7.6
	c0.4-0.6,0.9-1.6,1.6-2.6l16.4,9.1c-0.2,2.8-0.4,7.5-0.8,12.2C461.4,261.9,453.5,258.2,446.9,255.2z M452,242.8l-13.8-7.6
	c-0.4-0.3-0.9-0.1-1.1,0.4c-0.3,0.4-0.1,0.9,0.4,1.1l13.7,7.6c-0.7,1.1-1.2,2.1-1.6,2.7c-0.3,0.4-1.7,3.3-4.1,7.7
	c-2.2-1-4.1-1.9-5.8-2.7l-1.9-1c-3.8-1.8-8-3.9-12.4-6.1c5-7.3,11.8-16.7,16.2-22.7l17.2,10.5C457.6,234.2,454.3,239,452,242.8z
	 M423.9,244.1c-4.2-2.2-8.6-4.6-12.4-6.9c2.9-4.1,11.9-16.9,14.7-21c1.4-2.1,4.8-6.7,8.6-11.6l11.8,8.4c-0.6,0.8-1.2,1.5-1.8,2.2
	l-1.2,1.5C440,221.1,430.5,234.7,423.9,244.1z M435.8,203.3c1-1.1,1.8-2.4,2.8-3.5l12,8.4c-1,1.2-1.9,2.5-2.9,3.6L435.8,203.3z
	 M457.1,201.4l18.6,9.8c-0.4,1.8-1.2,7.6-1.8,12.5l-23.5-13.1C452.6,207.9,454.7,205.1,457.1,201.4z M458,200.2
	c1.1-1.6,2.2-3.4,3.4-5.4c0.1-0.2,0.3-0.4,0.4-0.5l17.8,8.5l-3.3,7.1L458,200.2z M480.4,204.7l3.2,9.1l-6-3.2L480.4,204.7z
	 M481.7,203.8l6.6,3.2c-1.3,2.5-2.5,4.7-3.3,6.3L481.7,203.8z M462.6,192.9c1.5-2.5,3-5.3,4.6-8.2l26.2,12.2
	c-1.4,2.8-2.9,5.8-4.3,8.6L462.6,192.9z M467.9,183.2c1.6-3.2,3.3-6.4,4.7-9.6l25.3,14.2c-0.8,1.3-2.2,4.1-4,7.6L467.9,183.2z
	 M472,171.5c-0.7-0.4-1.8-1.1-3.2-2c2.2-3.9,5.9-11.5,9.1-18.3c1,0.4,1.8,0.5,2.8,0.8c-0.4,0.7-0.6,1.5-1,2.2
	C478,158.5,475.1,164.8,472,171.5z M477.1,149.2c-1.6-0.5-3.1-1-4.2-1.6c-0.7-0.4-1.5-0.6-2.2-1c0.9-2.1,1.7-4.3,2.6-6.7l0,0
	c0-0.1,0.1-0.2,0.1-0.2c0.7-1.8,1.4-3.5,2.1-5.4c1.1,1,2.3,1.7,3.4,2.5l0,0c1.1,0.8,2.1,1.5,3,2
	C480.9,140.9,479.2,144.7,477.1,149.2z M475.9,132.9c1.3-3.3,2.5-6.6,3.7-9.7l4.1,1.5c-0.4,0.6-0.5,1.1-0.6,1.3
	c-0.7,1.5-3.3,6.9-4.2,9.1C478,134.5,477,133.8,475.9,132.9z M480.2,121.8c3.3-8.4,5.8-15,6.1-15.9c0.2-0.5,0.7-2.3,1.5-4.8l6.2,2.4
	c-1.5,3.1-6.9,14.4-9.5,19.9L480.2,121.8z M484.7,105.5c-0.3,0.9-2.9,7.9-6.2,16.5l0,0l0,0c-1.2,3.2-2.5,6.5-3.9,9.9
	c-2.1-1.6-4.5-3.5-7.1-5.7c-2-1.6-12.5-9-23.2-16.3c4.3-8,9-16.6,11.2-20.7c0.1-0.2,0.2-0.4,0.3-0.4l30.4,11.8
	C485.5,103,484.9,104.9,484.7,105.5z M447.9,96.7l-9.6-4.6c1.1-2.2,2.5-4.6,4-7c3.5,2.3,7.3,3.7,9.6,4.3
	C450.8,91.3,449.4,93.9,447.9,96.7z M433.8,95.5c-0.8,1.7-1.6,3.5-2.4,5.4c-1.3-0.9-2.5-1.7-3.6-2.5c2.7-6.1,6.4-14.3,8.6-18.6
	c0.6,0.7,1.3,1.4,2.1,2.2c0.5,0.5,1.1,1.1,1.8,1.6C437.4,87.9,435.2,92.1,433.8,95.5z M426.4,97.5c-2.2-1.5-3.9-2.6-5.1-3.5
	c3.7-6.2,7.5-12.7,11.2-18.8c0.8,1,1.7,2.2,2.8,3.4C432.4,83.6,427.9,94.2,426.4,97.5z M399.7,122.3c-4.9-3.4-9.1-6.2-9.1-6.3
	c-0.4-0.3-0.9-0.2-1.1,0.3s-0.2,0.9,0.3,1.1c0.1,0.1,4.2,2.9,9.2,6.4c-0.4,0.5-0.6,1.1-1,1.6c-0.9,1.5-1.8,2.9-2.7,4.5
	c-2.2-1.5-6.2-4.1-8.9-6c-0.3-0.2-0.5-0.1-0.7,0.2c-0.2,0.3-0.1,0.5,0.2,0.7c1.7,1.1,6.3,4.2,9,6c-1,1.6-1.9,3.2-2.9,4.7l-3.4-2
	c-0.3-0.2-0.5-0.1-0.7,0.2s-0.1,0.5,0.2,0.7l3.4,2c-1.3,2.1-2.6,4.2-4,6.4l-8.9-5.9c-0.4-0.3-0.9-0.2-1.1,0.3
	c-0.3,0.4-0.2,0.9,0.3,1.1l8.9,5.9c-1.8,2.9-3.5,5.8-5.4,8.7L373,148c-0.4-0.3-0.9-0.1-1.1,0.4s-0.1,0.9,0.4,1.1l8.3,4.9
	c-1.1,1.9-2.4,4-3.5,5.9l-7.5-4.6c-0.4-0.3-0.9-0.1-1.1,0.3c-0.3,0.4-0.1,0.9,0.3,1.1l7.5,4.6c-11.3,18.6-21.3,34.7-22.3,36
	c-0.2,0.2-0.4,0.5-1,1.1c-2.8-2.9-6.8-6.8-11.3-11c1.7-1.6,4-4,5.1-5.7c1.5-2.5,25.7-49.8,26.6-51.9c0.5-1.1,14-26,19.4-40.3
	c2.6-6.9,10.4-19.2,18-30.8c8.8,5.5,15.7,10,16.9,10.8c0.8,0.5,1.5,1.1,2.2,1.9C419.9,88.1,408.1,108,399.7,122.3z M400.3,68.1
	c-8.3-5.6-11.8-7.7-13.3-8.5l6.8-11.2c4.6,2.9,9.2,5.9,13.6,8.6C404.9,60.6,402.5,64.3,400.3,68.1z M399.4,69.4
	c-2.9,4.6-5.4,9-7.4,12.7c-3.5-2.5-8-5.9-9.2-7.6c0-0.1-0.1-0.1-0.1-0.2c-0.1-0.1-0.1-0.3-0.2-0.4c-0.9-2.4-1.6-6.1-1.4-7.6
	c0.2-1,3-3.9,4.1-5c0.4-0.4,0.5-0.5,0.7-0.8C387.8,61.7,394.3,66,399.4,69.4z M382.1,76.2c2.1,2.3,6.7,5.6,9.2,7.3
	c-1,1.8-1.7,3.5-2.2,5v0.1l-10.6-7.2C379.9,79.1,381.3,77.2,382.1,76.2z M388.3,90.1c-1,2.5-2.2,5.4-3.6,8.3l-11.8-8
	c0.4-1,0.9-1.6,1.1-2.2c1-1.8,2.1-3.7,3.3-5.5L388.3,90.1z M372.7,87.5c-0.3,0.4-0.5,1.1-1,1.9l-10.3-6.9l0,0l-8.4-5.7l4.8-7.2
	L376,81.7C374.9,83.7,373.6,85.7,372.7,87.5z M360.1,83.4c-1.5,3.5-1.2,4-1.1,4.2s0.4,0.5,9.3,8.4c-0.4,1-1,2-1.6,3
	c-0.3,0.4-0.4,1-0.8,1.5l-18.2-12.6l6.7-8.3L360.1,83.4z M351.8,92.7l-9.8,18.2c-2.6-1.8-5.4-3.8-7.9-5.5l10.5-17.6L351.8,92.7z
	 M332.9,104.4c-0.4-0.4-0.9-0.5-1.2-0.9c3.3-5.9,6.6-11.9,9.9-18l1.8,1.3L332.9,104.4z M325.4,99.4l-22.6-15.2l9.2-17.8l22.7,15.5
	C331.8,87.3,328.6,93.3,325.4,99.4z M301.5,83.3l-6.8-4.7c3.5-5.4,7.2-11.2,10.7-16.8l5.3,3.5L301.5,83.3z M288,46.9L277.8,40
	c1.1-2.2,2.5-4.9,3.8-7.9c7,4,10.4,5.8,11.9,6.7L288,46.9z M286.5,49l-20.1,29.4l-8.2-5.9c5.4-9.3,14.8-24.9,17.6-29
	c0.3-0.4,0.5-0.9,0.9-1.4L286.5,49z M273.1,41.9c-1.1,1.7-3.5,5.4-6.2,9.9l-1.9-1.3c2.5-3.7,6.2-9.1,7.5-10.9l1.5,1
	C273.6,41,273.4,41.5,273.1,41.9z M266.1,53.1c-3.5,5.8-7.6,12.6-10.5,17.7l-8.1-5.8l12-16.4L266.1,53.1z M254.8,72.1
	c-1.7,2.9-2.9,5-3.4,5.9c-0.4,0.5-0.9,1.6-1.6,2.9l-9.1-6.1l5.8-8.6L254.8,72.1z M249.1,82.3c-1.5,2.6-3.5,6.1-5.6,9.9l-9.8-6.6
	l6.3-9.4L249.1,82.3z M232.2,84.7l-2.5-1.7l6.4-9.3l2.4,1.6L232.2,84.7z M228.4,82.2l-9.3-6.3c2.3-3.9,4-7,4.8-9.1
	c0.2-0.4,0.4-0.7,0.4-1.1l10.5,7L228.4,82.2z M161,64.7L142.4,52l4.7-7.6l18.5,12.8c0.1,0.2,0.1,0.4,0.3,0.4L161,64.7z M155,79
	l0.5,0.4l10.2,6.2l0.7,7.3l-13.1-11.1L155,79z M165,93.8c-2.4,0.4-6.1,1.1-7.6,3.1l-8.5-8.1l3.5-5.5L165,93.8z M156.5,98.1
	c-1.1,1.6-2.1,3-2.6,4.7l-4-2.9l-5.3-4.3l3.5-5.4L156.5,98.1z M153.6,104.6c0,0.3-0.1,0.5-0.1,0.9l-3.6,5.9
	c-0.3,0.4-0.1,0.9,0.3,1.1c0.4,0.3,0.9,0.1,1.1-0.3l3.3-5.4l15,10.3l-5,8l-20.5-14.6l5.6-8.8L153.6,104.6z M128.9,127.5
	c13.3,8.6,28.4,20.5,33.5,24.5c-2.8,4.1-5.9,8.5-9.1,13.2c-6.9-4.8-11.6-8.1-12.4-8.6c-3.5-2.5-26.1-16.5-31.1-19.6
	c1-1.1,1.8-2,2.5-2.7c3.5-3.5,6.2-6.5,8.4-9c0.7-0.8,1.3-1.4,1.8-2.1C124.8,124.9,126.9,126.3,128.9,127.5z M81,138.9
	c-0.5,0.7-5.4,7.4-6.7,9.9c-0.9,1.8-2,4.1-2.6,5.3l-5.5-3.8c1.2-2.3,6.9-9.8,10.5-14.5C77.9,136.5,79.4,137.6,81,138.9z M86.1,165.7
	l26.5,18.2l-3.3,4.6c-0.1,0-0.1,0-0.2,0c-0.9-0.2-5.1-0.6-5.9,1.6c-0.6,1.6,0.9,3.5,1.6,4.4l-3.9,5.3L73.7,182
	C76.3,178.2,80.9,172.3,86.1,165.7z M119.7,213.6c-4.2,6.2-8.3,12-12,17.3L61.4,199c4.7-6.9,8.7-12.7,10.4-14.9
	c0.3-0.4,0.5-0.8,1-1.2L119.7,213.6z M97,226.1l9.5,6.6c-4,5.6-7.3,10.5-9.9,14.3c-3.3-2.2-6.4-4.2-9.4-6.2L97,226.1z M105.7,241.3
	l6.4,4.5l0,0l0,0l2.1,1.5c-4.6,5.7-4.6,6.2-4.6,6.6s0.4,0.7,0.6,1c1.8,1.6,9.6,7.4,16.7,12.5c0.1,0.1,0.2,0.1,0.3,0.2
	c-1.2,2.9-2.5,6.5-3.5,9.4l-3.8-2.3c-5.4-3.3-20.5-10.4-27.9-13c1.3-2.1,2.2-3.6,2.5-4C94.9,256.8,99.3,250.6,105.7,241.3z
	 M108.4,272c-2.4,2.9-8.2,10-15,18.3c-4.2-3.7-8.4-7.3-12.3-10.6c1.7-2.9,3.3-5.5,4.7-8.1c1.6-2.6,3-5.1,4.3-7.3
	C94.1,265.6,101.7,268.8,108.4,272z M94,292.9c4,3.4,7.9,6.8,11.6,10.1c-4.4,5.4-9.3,11.8-14.9,18.4c-4.2-3.2-8.6-6.4-12.6-9.3
	C83.2,306,88.9,299.2,94,292.9z M87.8,325.2c-4.3,5.4-8.8,10.9-13.4,16.5c-4.1-3.5-8.3-6.9-12.5-10.4c0.4-0.4,0.7-0.8,1-1
	c1.8-1.9,6.6-7.6,12.4-14.5C79.1,318.7,83.5,322,87.8,325.2z M71.6,345c-4.7,5.7-9.3,11.5-14.1,17.2l-13.3-10.3
	c5.8-6.9,11.2-13.2,14.9-17.4C62.9,337.6,67.2,341.2,71.6,345z M42.6,350.6l-4.7-3.6c1.3-1.4,3.6-3.7,4.7-4.4
	c0.5-0.4,1.1-0.5,1.8-0.8c1.3-0.4,2.9-1,4.1-2.3c1.6-1.6,5.8-6.2,7.3-7.7c0.5,0.4,1,0.9,1.6,1.3C53.9,337.3,48.4,343.7,42.6,350.6z
	 M43.3,353.1l13.3,10.3c-4.2,5.2-8.4,10.3-12.5,15.3l-13.3-10.6C34.7,363.3,39.1,358.1,43.3,353.1z M59.1,365.3l15.6,12.1
	c-4.1,5.2-8.5,10.5-12.7,15.6l-15.6-12.5C50.2,376.2,54.5,371,59.1,365.3z M103.3,365.3c-0.8-0.4-4.1-3.2-9.2-7.3
	c4-4.7,7-8.2,9-10.1c1.5-1.5,3.3-3.5,5.5-6.1c3.5,2.9,7.3,6.2,11.2,9.5c-0.8,1.1-1.4,2.1-2,3c-2.2,3.4-6,8.4-10.3,13.9
	C105.5,366.7,103.9,365.7,103.3,365.3z M111.7,338.2c4.1-4.9,9.1-11.1,14.2-17.5c1.6,1.4,2.7,2.3,3,2.6c0.7,0.6,3.8,2.9,8,6.2
	c-1.8,2.1-8.7,10.4-14.3,17.9C118.8,344.3,115.1,341.1,111.7,338.2z M138.2,330.5c4.1,3.2,9.1,6.9,14.2,10.9
	c3.3,2.5,6.7,5.1,9.8,7.4c-2.7,4.6-4.9,8.3-6.9,11.8c-2.1,3.7-4,6.9-5.9,9.9c-4.5-4-15-13.1-25.7-22.1
	C129.5,340.9,136.5,332.6,138.2,330.5z M168.9,353.9c4,3.1,6.9,5.4,7.3,5.7c1.4,1.2,1,2.3-0.9,6.3l-0.1,0.3
	c-0.9,1.8-1.8,2.9-2.9,3.3c-1,0.4-1.8,0-2.4-0.4c-1.2-0.7-5.1-3.3-7.6-5C164.5,360.6,166.7,357.1,168.9,353.9z M164.2,345.7
	c-0.4,0.6-0.8,1.2-1.1,1.8c-3-2.3-6.2-4.7-9.6-7.3c-10.8-8.3-22-16.9-23.4-18c-0.4-0.4-1.4-1.2-3.1-2.6c6.7-8.5,13.6-17.5,19.3-25
	l36.7,22.7C174.6,329.7,167.7,339.9,164.2,345.7z M148.1,292c4.3-5.8,7.7-10.5,9.5-13.4c0.2-0.2,0.3-0.4,0.4-0.6
	c4.7,3.3,9.6,6.7,14.5,10c8,5.5,15,10.4,20.7,14.2c-2.9,4.2-5.8,8.4-8.5,12.4L148.1,292z M158.9,276.7c1.9-2.9,5.4-7.8,9.8-14.2
	l6.8,4.7c-5,6.6-4.8,7.2-4.7,7.6s0.3,1,16,11.9c0.2,0.1,0.4,0.2,0.4,0.2c0.3,0,0.4-0.2,0.6-0.4c0.3-0.4,0.2-0.9-0.3-1.1
	c-5.3-3.7-13.7-9.6-15.2-11.1c0.5-1,2.5-3.8,4.4-6.2l26.9,18.9c-3.3,4.7-6.5,9.3-9.6,13.9C183.8,293.9,170.8,284.9,158.9,276.7z
	 M216.5,281.6l15.1,10.4c-6.7,8.3-16.1,20-18,22c-1.5-0.9-6.2-4-13-8.6C205.6,297.9,210.9,289.8,216.5,281.6z M217.3,280.3
	c3.7-5.5,7.4-11.2,11.1-16.5l36.8,25.3l4.2,2.9c-0.6,0.8-6.1,6.9-13.1,15L217.3,280.3z M272.6,294.8c0.1-0.1,0.3-0.3,0.4-0.4
	l15.6,10.6c-3.9,2.2-7.9,4-10.6,5.2c-0.5,0.3-1.1,0.4-1.6,0.7c-4,1.8-23.5,12.9-34.4,19.2C255.8,314.1,271.9,295.7,272.6,294.8z
	 M269.9,352c-3,4.6-6.3,9.5-9.8,14.6c-1-0.6-2.2-1.5-3.6-2.5c-3.3-2.2-7.6-5.2-11.9-8.2c-6.2-4.3-12.5-8.6-15.6-10.5
	c2.8-3.3,6.2-7.3,9.8-11.6c0.6-0.4,1.3-0.8,2.1-1.2L269.9,352z M262.8,370.4c0.4,0.3,0.8,0.5,1.2,0.9c1.8,1.3,4.6,3.1,7.8,5.4
	c5.6,3.9,13,8.8,20.5,13.9c-1.7,2.7-8.2,12-11.3,16.3l-29.1-20.1C255.6,381.2,259.3,375.6,262.8,370.4z M293.7,391.3
	c0.6,0.4,1.3,0.9,1.9,1.3c1.2,0.9,2.5,1.7,3.8,2.5c-3.5,6.2-6.7,12.1-9.6,17.6l-7.4-5.1C284.3,404.9,291.6,394.5,293.7,391.3z
	 M302,396.9c13,8.8,24.7,16.7,27.5,18.6l-11.3,16.8l-25.8-17.8C295.1,409,298.5,403.1,302,396.9z M314,403.1l27.3-43.7v-0.1
	l6.5-12.9c4.5,2.3,10.4,4.4,11.9,4.5c0.2,0,0.6,0.1,1.3,0.2L331.7,412l-1.5,2.2C325.6,411,319.9,407.2,314,403.1z M357.5,362.4
	l14.1,17.2L334.1,411L357.5,362.4z M358.3,361l4.6-9.4c1.7,0.4,4,0.7,6.5,1.1c0,0.1,0.1,0.2,0.2,0.3l13.8,17.1l-10.5,8.8L358.3,361z
	 M371.6,353c0.9,0.2,1.7,0.4,2.5,0.4c8.7,1.6,12.9,2.3,13.5,2.3c0.3,0,1.3,0.2,3,0.4c-3.1,5.8-5.4,10-6.7,12.3L371.6,353z
	 M387.6,354.2c-0.6,0-7.3-1.2-13.3-2.3c-4.7-0.9-8.4-1.6-11-1.9l7.7-16.1l24.3,13.3c-1.5,2.7-2.8,5.2-4.1,7.5
	C389.3,354.4,387.9,354.2,387.6,354.2z M403.3,335.9c1.8-3.5,3.8-7,5.8-10.7l27.7,14.5c-1.8,4.1-3.6,8.2-4.7,11.5
	C423.6,346.8,413.7,341.4,403.3,335.9z M438.7,340.6l17.8,9.3c-0.4,2-0.7,4.1-1.1,6.1c-1.1,5.3-2.1,5.9-2.2,6.1
	c-1-0.4-8.6-4.2-19.2-9.9C435,348.9,436.7,344.9,438.7,340.6z M439.3,339.2c1.5-3.2,3-6.3,4.5-9.2c7.6,3.9,12.8,6.3,14,6.4
	c0.2,0,0.4,0,0.5,0c-0.2,1.7-0.4,4.7-1,7.9c-0.1,0.4-0.2,1-0.3,1.6c-0.1,0.7-0.3,1.5-0.4,2.3L439.3,339.2z M457.9,334.4
	c-1-0.1-5.8-2.4-13.2-6.2c2.5-4.8,4.4-8.4,4.5-8.5c0-0.1,0.4-0.7,0.9-1.7l10.2,5.4c-0.5,3.7-1.4,9.1-1.7,11
	C458.3,334.4,458.1,334.4,457.9,334.4z M462.2,320.1c0.1-0.6,0.3-1.1,0.5-1.7c0.4-0.9,0.9-1.9,1-4c0.2-1.6-0.4-2.8-0.8-3.7
	s-0.4-1.2-0.4-1.6l8.7,4.7c-0.9,6.6-1.6,16.9-1.7,20c-4,0.4-7.3,0.6-9.6,0.7C460.6,331.4,462.1,321.8,462.2,320.1z M473,314.5
	l5.6,2.9c0.2,0.1,0.3,0.1,0.4,0.1c0.4,0,0.5-0.2,0.7-0.4c0.3-0.4,0.1-0.9-0.4-1.1l-6.1-3.3c0.3-1.6,0.4-2.9,0.7-3.6
	c1.2-4,6.8-6.3,6.9-6.3c0.4-0.2,0.6-0.6,0.4-1s-0.6-0.6-1-0.4c-0.3,0.1-6.3,2.6-7.8,7.3c-0.3,0.7-0.4,1.8-0.7,3.3l-7.9-4.1
	c1.4-2,1.5-5.1,1.5-5.3c0-0.4-0.4-0.8-0.8-0.8l0,0c-0.4,0-0.8,0.4-0.8,0.8c0,0.9-0.3,3.3-1.3,4.6l-5.5-2.9
	c4.6-9.2,9.7-19.5,10.8-21.9c0.3-0.5,0.5-1.2,0.7-2.2c7.3,3.4,9.8,5.4,12.7,14.2c0.5,1.6,1.1,3.1,1.6,4.6c2.2,7.9,5.4,19.2,8.5,32.3
	c-6.1,0.9-13.4,1.7-19.9,2.3C471.5,330.3,472.2,320.9,473,314.5z M479.5,282.6c-2.5-2.8-5.8-4.5-10.3-6.6c0.2-1.2,0.4-2.5,0.4-3.8
	c2.9,2.1,5.4,4.2,7.3,6.5C477.9,279.7,478.8,281.1,479.5,282.6z M479,274.6c2.2,0.7,4.7,1.5,6.5,2.2l-0.3,1.4
	c-1.1-0.3-2.6-0.4-3.6-0.4c-0.4-0.7-0.9-1.3-1.3-1.8C479.9,275.5,479.5,275.1,479,274.6z M486.8,278.7l0.3-1.3
	c0.2,0.1,0.3,0.1,0.4,0.2c2.2,1.1,8.7,4.6,11.5,6.1c-1,1-3,3-7.3,7.5C490.4,287.3,487.9,279.7,486.8,278.7
	C486.8,278.8,486.8,278.7,486.8,278.7z M492.2,293.1c0-0.1,0-0.2-0.1-0.2c2.7-2.9,6.8-7.2,8-8.3c1.4,0.8,6.2,3.8,9.2,5.7l0,0
	c-0.6,3.3-1.4,6.9-2.2,10.7C500.3,297.7,493.1,294,492.2,293.1z M501.4,283.5c1.7-3.8,3.7-7,4.4-7.3c1.2-0.1,4.4-0.1,5.8,0
	c-0.3,2.4-1,6.9-2,12.4C505,285.6,502.7,284.2,501.4,283.5z M505.7,274.6c-1.7,0.2-4.1,4.7-5.5,7.9c-2.4-1.3-9.7-5.2-12-6.4
	c-0.4-0.2-0.8-0.4-1.3-0.5l0,0c-2.9-1.1-7.8-2.7-10.2-3.4c-1.8-1.6-4-3.3-6.3-4.7c0.4-4.8,0.7-9.7,0.9-12.1
	c18.8,8,39,17.2,40.7,19.2v0.1C510.3,274.6,507.1,274.6,505.7,274.6z M469.5,252.5l-16.2-8.9c2.4-3.8,5.6-8.6,6.7-10.1l11.6,7
	C471.2,241.9,470.6,244.9,469.5,252.5z M442.5,220.9c1-1.3,1.8-2.3,2.4-3.1l1.2-1.5c1.1-1.5,2.3-2.9,3.5-4.2l24.2,13.7
	c-0.4,2.4-0.5,4.3-0.5,5.3c0,2.2-0.7,6.2-1,8L442.5,220.9z M474.7,230.8c0-0.7,0.2-2.4,0.4-4.4l32.2,18.2c-0.1,4.4-0.2,8.5-0.3,11.9
	c-2.8-1.5-9.3-5-16-8.5c-11.4-6.1-15.6-8-17.5-8.6C473.9,237.7,474.7,233.3,474.7,230.8z M475.3,224.8c0.6-4.6,1.6-10.3,1.8-12.6
	l7.3,3.9l0,0l23.1,12.4c-0.1,4.7-0.3,9.8-0.4,14.4L475.3,224.8z M497.4,166.5c1.3,6.1,2.9,13.1,4.7,18c-1.1,0.5-2.2,1.3-3,2.1
	l-25.6-14.3c3.3-6.7,6.1-13.1,7.9-17.5c0.4-0.9,0.7-1.7,1-2.4c6,1.6,12,2.8,13.6,3.1C496.2,159.9,496.8,163.8,497.4,166.5z
	 M497,105.2c-1.3,5.2-2.2,11.2-2.5,17.1c-1.7,2-9.7,11.4-11.9,15.3c-0.7-0.4-1.5-1-2.2-1.6c1-1.9,3.6-7.7,4.4-9.2
	c0.8-1.7,9.1-19.1,10.9-22.7l1.6,0.6C497.1,104.8,497,105,497,105.2z M497.6,103.2l-9.3-3.6c2.5-7.8,6.4-20.4,7.6-24
	c2.1,1.5,6.3,4.3,8,5.4C501.4,89.1,498.9,98.3,497.6,103.2z M495.1,73.2c-1.3-0.7-3.9-1.9-7-3.4l1.9-4c3.2,2,5.7,3.5,6.3,3.8
	c0.2,0.1,0.4,0.3,0.8,0.4C496.2,71.4,495.5,72.5,495.1,73.2z M504.3,79.4c-1.9-1.4-6-4.1-7.9-5.4c0.4-0.7,1.1-2,2.2-3.5
	c2.5,1,6.1,2.5,7.5,3.1C505.6,75.3,504.9,77.2,504.3,79.4z M507.7,68.8c-0.4,1-0.7,2-1.1,3.3c-1.4-0.5-4.7-1.9-7.2-2.9
	c1.3-2.1,2.8-4.6,4.2-6.9l5.2,3.5C508.4,66.9,508,67.9,507.7,68.8z M510.5,47c-0.8,1.8-1.5,3.5-2.2,4.8l-9.4-6l2.5-4.4L510.5,47z
	 M506.3,42.6l4.7-10l4,1.9c-1.1,3.4-2.5,7.3-4,10.9L506.3,42.6z M507.2,53.7c-0.4,0.6-0.6,1.1-1,1.6c-0.9,1.2-1.9,2.9-3.1,4.7
	l-9-6.1l3.5-6.2L507.2,53.7z M518.4,28.7c0.6-2.5,1.7-5.9,2.7-8.8l5.9,2.5c-0.9,2-1.8,4-2.6,5.5c-2.6,5-10.7,25.4-14.9,36.2
	l-4.8-3.3c1.1-1.8,2.2-3.5,3.1-4.7C511.4,50.7,517,34.9,518.4,28.7z M494.9,18.6l21.3,12.2c-0.3,0.7-0.4,1.4-0.7,2.2L493,22
	C493.7,20.9,494.3,19.8,494.9,18.6z M492.3,23.5l17.5,8.5l-4.7,9.9l-17.5-10.3C488.9,29.2,490.5,26.3,492.3,23.5z M484.4,36.9
	c0.5-1,1.4-2.3,2.4-4l13.2,7.9l-7,12.4l-12.9-8.6C482,40.9,483.6,38.1,484.4,36.9z M479.3,45.8l23.1,15.6c-1.6,2.4-3.1,4.9-4.4,7.1
	c-0.4-0.2-0.8-0.4-1-0.4c-1.4-0.6-15.9-9.8-22.4-13.8C476.3,51.2,477.9,48.3,479.3,45.8z M473.8,55.6c2.5,1.6,9.2,5.9,14.9,9.2
	l-2,4.2c-6-2.8-13.1-6.1-16.2-7.4C471.6,59.7,472.8,57.6,473.8,55.6z M469.8,63.1c4.1,1.8,10.8,4.9,16.3,7.4l-2.2,4.7
	c-0.2,0.4,0,0.9,0.4,1.1c0.1,0.1,0.3,0.1,0.4,0.1c0.4,0,0.5-0.2,0.7-0.4l2.2-4.7c3.3,1.6,5.9,2.8,7,3.4c-1,3-5.1,16.2-7.6,24.3
	l-17.1-6.6l5.5-13.6c0.2-0.4,0-0.9-0.4-1c-0.4-0.2-0.9,0-1,0.4l-5.5,13.7l-11.7-4.5c1.3-2.5,3.3-6,5.4-9.9
	C464.3,73,467.1,68.1,469.8,63.1z M466.8,61.9c-2.6,4.8-5.4,9.8-7.6,13.9c-2.5,4.5-4.6,8.3-5.9,10.7c-1.8-0.5-5.8-1.8-9.5-4.1
	c6.7-10.7,14.8-22,16.5-24.5L466.8,61.9z M458.2,56.4c-2,2.8-9.9,13.7-16.4,24.4c-0.4-0.4-0.9-0.7-1.2-1.1c-1-1-1.8-1.8-2.6-2.7
	c1.9-2.2,12.8-20,15.2-23.8L458.2,56.4z M447.3,49.5l4.6,2.9c-4,6.5-13.1,21.1-14.9,23.4c-1-1.1-1.8-2.2-2.5-3.1
	c-0.1-0.2-0.3-0.3-0.4-0.4C439.5,63,444.4,54.7,447.3,49.5z M443.8,47.2c-1.1,1.9-2.5,4.3-4.1,7.1c-3.3-1.9-6.6-3.9-7.6-4.7
	c0.5-1.1,2.7-4,4.8-6.8L443.8,47.2z M423.9,39.1c0.8-1.1,1.5-2.2,2.1-3.1l9.6,6.1c-5.4,7.1-5.4,7.6-5.2,8c0.1,0.4,0.3,0.9,8.4,5.5
	c-2.2,3.9-4.8,8.3-7.7,13.2c-0.6-0.6-1.2-1.1-2-1.7c-1.1-0.9-8.2-5.3-17-10.9C416.6,49.6,420.8,43.6,423.9,39.1z M381.5,18.1
	c3.7,2.7,8.9,6.6,11,8.1c3.1,2.2,20.8,13,25.1,15.6c-2.5,3.7-5.4,8-8.5,12.7c-2.5-1.6-5-3.2-7.6-4.7l2.5-5c0.3-0.4,0.1-0.9-0.4-1.1
	c-0.4-0.3-0.9-0.1-1.1,0.4l-2.5,4.8c-1.6-1.1-3.3-2.1-4.9-3.1l5.2-9.9c0.3-0.4,0.1-0.9-0.4-1.1c-0.4-0.3-0.9-0.1-1.1,0.4l-5.2,9.8
	c-1.7-1.1-3.3-2.1-4.9-3.2l4.3-7.4c0.3-0.4,0.1-0.9-0.4-1.1c-0.4-0.3-0.9-0.1-1.1,0.4l-4.2,7.3c-2.4-1.6-4.7-2.9-6.8-4.3
	c1.4-2.3,3.4-5.5,3.5-6.1c0.3-0.8-0.4-1.2-1.1-1.8c-1-0.7-2.5-1.8-2.5-3.2C380.7,23.6,381.3,20,381.5,18.1z M379.3,16.4
	c0.3,0.2,0.5,0.4,0.8,0.6c-0.3,1.6-1,6.1-1,8.5c0,2.2,1.9,3.6,3.1,4.5c0.2,0.1,0.4,0.3,0.4,0.4c-0.4,0.9-1.8,3.1-3.3,5.4
	c-3.3-2.1-6.1-3.8-7.8-4.9C374.7,25.1,377.3,20.3,379.3,16.4z M370.1,33.5c4.2,2.6,12.9,8.1,22.3,14.1l-7.3,11.9
	c-0.1,0.2-0.5,0.6-1,1c-2.2,2.3-4.3,4.6-4.6,5.9c-0.4,1.9,0.6,6.1,1.4,8.3c0,0.1,0.1,0.2,0.1,0.2c-0.7,0.9-2.4,3.1-4.1,5.7l-23.9-16
	C359.3,53.2,365.2,42.5,370.1,33.5z M352.5,65.9l4.2,2.9l-4.8,7.2l-3.5-2.4C349.6,71,351,68.5,352.5,65.9z M347.4,75l5.9,4l-6.7,8.2
	l-4.2-2.9C344.1,81,345.8,77.9,347.4,75z M344.9,62.7c-2.2,4-5.3,9.9-9,16.9l-29.1-19.8c3.5-5.4,6.9-10.8,10.2-15.8L344.9,62.7z
	 M289.4,14.5c0.4,0.3,1,0.5,1.5,0.9c4.5,2.6,8.6,5.1,9.9,5.5c1.6,0.5,4.7,0.3,8.3-0.2c0.8-0.1,1.5-0.2,1.8-0.2
	c1,0.1,7.9,2.9,14.3,5.8c-2.6,4.1-5.6,8.8-8.9,13.9l-29.4-19.9C287.9,18.1,288.7,16.1,289.4,14.5z M285.7,22.8l12.8,8.6l-1.2,1.8
	l-13.5-6.1C284.5,25.6,285.1,24.2,285.7,22.8z M296.4,34.5l-2,2.9c-2.2-1.2-7.8-4.4-12.1-6.8c0.4-0.7,0.6-1.4,1-2L296.4,34.5z
	 M279.2,18.4l3.9,2.6c-2.6,6-5.6,12.8-8,17.2l-5.5-3.8L279.2,18.4z M271.2,38.7c-1,1.3-3,4.2-7.6,10.9l-3.3-2.2l7.8-10.7L271.2,38.7
	z M266.8,35.7l-14.6,20.1c-1.4-1-3.1-2.5-3.3-3.4c0-1.2,3.7-9.8,7.9-18.5c0-0.1,0.1-0.1,0.1-0.2c0.5-1.2,1.1-2.5,1.7-3.6L266.8,35.7
	z M257.3,29.2c-0.4,1-1,2-1.5,3.2l-6.7-4.2l1.5-3.5L257.3,29.2z M244,20.2l5.3,3.5l-3.6,8.6c-0.2,0.4,0,0.9,0.4,1
	c0.1,0.1,0.3,0.1,0.4,0.1c0.4,0,0.6-0.2,0.7-0.4l1.4-3.3l6.7,4.1c-3.5,7.6-8,17.6-7.7,19c0.4,1.6,2.7,3.5,4,4.3l-5.1,7l-16.3-11.6
	C234.7,41.3,240.6,27.9,244,20.2z M245.3,65.4l-5.8,8.6l-3.1-2l0,0l0,0l-11.5-7.6c1.1-2.9,2.7-6.4,4.3-10.3L245.3,65.4z M191.5,21.5
	l37.1,23.4c-2.2,5.2-4.4,10.2-6.1,14.3l-38.6-26.4L191.5,21.5z M182.6,34.7l3.8,2.5c-4.1,6.4-3.7,7-3.3,7.4
	c0.3,0.4,1.8,1.6,17.2,12.6c0.7,0.4,1.1,0.8,1.3,1c0.8,0.5,1.2,2.5,1.1,3c-0.7,1-7.2,10.5-9.1,13.4l-25.8-17.9L182.6,34.7z
	 M181,33.6l-2.5,3.7l-21.6-15.6l1.4-3.5L181,33.6z M152.2,13.9l4.7,3.3l-1.8,4.5c-0.2,0.4,0,0.7,0.4,1l22.1,16l-2.3,3.5l-28.2-20.3
	L152.2,13.9z M145.8,23.5l28.3,20.2l-8,11.9l-12.9-9l3.9-6.2c0.3-0.4,0.2-0.9-0.3-1.1c-0.4-0.2-0.9-0.2-1.1,0.3l-3.9,6.1l-14.3-9.9
	L145.8,23.5z M115.5,22.6L135,36.2c0.1,0.3,0.3,0.4,0.4,0.6c0.2,0.2,0.4,0.2,0.6,0.2h0.1l9.4,6.6l-4.7,7.6l-18.2-12.5
	c-0.4-0.3-0.9-0.2-1.1,0.3c-0.3,0.4-0.2,0.9,0.3,1.1l3.3,2.3l-1.1,1.3c-2.4-1.5-5.4-3.4-5.6-3.5c-0.4-0.3-0.9-0.2-1.1,0.3
	c-0.2,0.4-0.2,0.9,0.3,1.1c0.2,0.2,5.3,3.3,6.2,3.9c0.2,0.1,0.4,0.2,0.4,0.2c0.3,0,0.4-0.1,0.6-0.4l1.6-1.9l29.5,20.2l-3.7,5.7
	c-1.8-1.5-3.3-2.6-3.7-2.8c-0.8-0.4-2.9-0.2-3.8-0.1c-0.4,0.1-0.8,0.4-0.7,0.9c0.1,0.4,0.4,0.8,0.9,0.7c1.2-0.1,2.8-0.2,3.1-0.1
	c0.4,0.2,1.6,1.2,3.4,2.6l-5.1,7.9c-0.3,0.4-0.2,0.9,0.3,1.1c0.2,0.1,0.4,0.2,0.4,0.2c0.3,0,0.5-0.2,0.7-0.4l1.9-2.9l4,2.2l-11,17.1
	c-0.3,0.4-0.2,0.8,0.2,1l5.3,4.3l-5.6,8.9l-5.2-3.7c0.4-1.6,0.7-3.3,1-5.3c1.4-12,0.2-33.2-0.8-37.3c-1-3.8-6.3-7.4-12-11.2
	c-0.9-0.5-1.6-1.1-2.4-1.6c-4.7-3.3-11.3-6-14.2-7.1C111,36.5,113.6,28.6,115.5,22.6z M106.3,52.8c0.5-1.8,1.1-4,1.8-6.2
	c2.9,1.1,9,3.8,13.3,6.7c0.8,0.5,1.6,1.1,2.5,1.6c4.7,3.2,10,6.7,10.6,9.2c0.7,2.9,1.8,19.3,1.1,31.5c-1.7-2.2-3.5-4.7-3.8-5.9
	c-0.3-0.9-0.4-4.8-0.7-9.1c-0.6-10.4-1.1-17.8-2.1-19.3c-1.6-2.5-15.3-10.5-18.3-9.7c-0.5,0.2-1.1,0.7-1.7,1.8
	c-2.6,4.7-6.9,21.4-6.2,23.9c0.4,1.5,4.3,4.4,10.2,8.7c2.5,1.8,5.5,4.1,6,4.7c0.4,0.7,1,2.2,1.6,3.5l-21.9-15
	C100.2,74.1,103.5,63.2,106.3,52.8z M97.5,82.4c0.1-0.1,0.1-0.2,0.2-0.3c0.4-0.2,1-0.4,1.5-0.8l35.2,24.2c-1.5,5.7-4,7.3-6.9,9.2
	c-0.4,0.3-0.8,0.4-1.1,0.8c-1.7,1.1-3.3,2.5-4.8,4.3c-12.5-9-28.3-21.2-33-24.8C91.2,91,94.8,86.1,97.5,82.4z M33,204
	c1.8-6.6,4-14.7,7.3-22.9c3.5-8.9,17.2-33.9,40.5-74.4c1.3-2.2,2-3.5,2.2-3.8c0.4-0.6,2-3,4.1-6.1c1.8,1.5,5.3,4.1,9.6,7.4
	l-7.9,10.3c-0.3,0.4-0.3,0.9,0.2,1.1c0.2,0.1,0.4,0.2,0.4,0.2c0.3,0,0.4-0.1,0.6-0.4l7.9-10.3c0.4,0.4,1,0.8,1.5,1.1
	c-3.2,4-16,20-17.4,22.4c-1.3,2.2-0.8,4-0.4,4.9c0,0.2,0.1,0.4,0.1,0.4c-0.3,0.4-1.1,1.6-2.1,2.5c-1-0.7-1.8-1.4-2.6-1.9
	c-0.1-0.1-0.2-0.2-0.3-0.3s-0.3-0.2-0.4-0.2c-1.2-1-1.9-1.4-1.9-1.5c-0.3-0.2-0.5-0.2-0.8,0.1s-0.2,0.5,0.1,0.8c0,0,0.6,0.4,1.6,1.1
	c-1.8,2.2-10.5,13.6-11.1,15.6c-0.1,0.4,0,0.7,0.4,0.9l18.7,12.8c-5.2,6.7-9.8,12.6-12.5,16.2l-14.9-9.8c-0.4-0.3-0.9-0.2-1.1,0.3
	c-0.3,0.4-0.2,0.9,0.3,1.1l14.8,9.6c-0.4,0.4-0.5,0.8-0.8,1.1c-2.9,4-13.3,18.9-22.1,32.2c-9.4-6.1-9.7-6.2-9.8-6.2
	c-1.3-0.3-2,0.5-4,3.5c-0.8,1.2-2.1,1.6-3.3,1.7C31.1,210.9,32,207.7,33,204z M15.1,267.7c-0.5-0.6-1-1.8-1.3-2.8
	c-0.8-2-1.6-4.2-3.9-4.4c-1.4-0.1-4.1,1.3-7.2,3.2c8-14.1,23.3-41.5,25.8-45.8c0.4-0.6,0.7-1.4,1-2.2c1.6,0,4.2-0.4,5.8-2.7
	c1.1-1.6,1.6-2.2,1.8-2.5c1,0.6,4.3,2.7,9,5.8c-5.4,8-9.9,15.1-11.8,18.4C30.2,241.5,20.4,258.6,15.1,267.7z M55,263.1l11.3-21.3
	c0.3-0.4,0.1-0.9-0.4-1.1c-0.4-0.3-0.9-0.1-1.1,0.4l-11.7,22.2c-11.6,1-22.3,2-25.3,2.5c-3.4,0.4-5.7,1.1-7.6,1.7
	c-0.6,0.2-1.1,0.4-1.6,0.4c5.4-9.3,14.6-25.2,18.3-31.6c1.8-3.2,6.4-10.2,11.8-18.2c5.9,3.8,13.2,8.6,20.7,13.5
	c-1,0.9-1.9,1.8-2.2,2.2c-0.4,0.5-0.8,2.3-1,3.1c-0.1,0.4,0.2,0.9,0.6,1c0.1,0,0.1,0,0.2,0c0.4,0,0.7-0.3,0.8-0.6
	c0.3-1.1,0.5-2.4,0.7-2.6c0.2-0.3,1.1-1.1,2.2-2.2c9.2,6.1,18.5,12.1,24.8,16.3c-2.5,3.6-4.1,5.9-4.4,6.2c-0.5,0.7-1.6,2.5-3.5,5.5
	C84.5,260.7,69.4,261.9,55,263.1z M67.8,268.1c-1.1-1-2.2-1.8-2.9-2.5c1.6-0.2,3.1-0.3,4.7-0.4L67.8,268.1z M69,269.1l2.3-4.1
	c6.2-0.5,11.4-1,14.3-1.1c-1,1.6-2.1,3.5-3.3,5.5c-1.4,2.3-2.9,4.8-4.4,7.4C74.5,273.9,71.5,271.2,69,269.1z M80.3,281.1
	c3.8,3.3,8,6.9,12.1,10.5c-5.2,6.3-10.8,13.1-15.9,19.3c-4.4-3.2-8-5.9-10-7.3C70.6,297.1,75.6,288.9,80.3,281.1z M62.9,308.9
	c0.4-0.4,0.6-1,1-1.4c2,1.5,5.4,4,9.6,6.9c-5.7,6.9-10.5,12.5-12.2,14.3c-0.3,0.4-0.6,0.7-1,1.1c-2.7-2.3-5.4-4.5-7.8-6.6
	C55.1,320,58.4,315.5,62.9,308.9z M39.3,319.1c-0.5-1-1-2.1-0.9-3c0.1-0.6,0.4-1.1,0.9-1.5c1.5-1,2.8-1,4.3,0L39.3,319.1z
	 M40.4,320.7c-0.1-0.1-0.2-0.2-0.3-0.3l4.6-4.8c1.5,1,4.1,2,6.2,2.6c-2.9,3.9-5.1,6.5-7.5,9C42.9,325.1,41.8,322,40.4,320.7z
	 M43.8,333c2.2-2.1,4-4,6-6.3c1,0.9,2.7,2.2,4.9,4.1c-1.6,1.6-5.7,6.1-7.2,7.6c-1,1.1-2.2,1.5-3.5,1.8c-0.8,0.3-1.6,0.5-2.2,1
	c-1.3,0.9-4,3.5-5.1,4.7l-3.9-3C38.1,338.3,42.3,334.5,43.8,333z M31.7,344.1l9.9,7.7c-4.2,5-8.6,10.2-12.5,14.9l-12-9.7
	C22.1,352.6,27.2,348,31.7,344.1z M1.7,370.8c3.9-3.4,9-8,14.3-12.7l12.2,9.8c-5.4,6.4-9.8,11.8-11.9,14.3
	C10.6,377.7,5.5,373.8,1.7,370.8z M17.9,383.5c2.2-2.5,6.6-7.9,11.9-14.2l13.3,10.6c-4,4.9-8,9.8-11.8,14.3
	C26.8,390.6,22.2,387,17.9,383.5z M33.7,396.1c2-2.4,6.2-7.5,11.8-14.3l15.6,12.5c-4.2,5.3-8.3,10.3-11.8,14.8
	C45.3,405.6,39.7,401,33.7,396.1z M60.5,421.2c-1.7-2.3-3.3-4.5-4.7-6.1c-0.8-1-2.3-2.4-4.4-4.2c3.5-4.5,7.6-9.5,11.8-14.8l11.7,9.5
	C70.6,410.2,65.6,415.6,60.5,421.2z M103.5,449.6c-1,0.9-1.6,1.5-1.8,1.6c-1.1,0.4-8.6,2.1-14.4,3.5c-1.3-1.8-2.7-3.5-4-5.3
	c4.1-1.4,11.5-4,14.9-5.4L103.5,449.6z M99.8,441.2c-0.4,0.4-0.7,0.5-0.9,0.7c-0.1,0.1-0.4,0.3-0.8,0.4c0,0,0,0-0.1,0
	c-2.4,1.1-9.2,3.5-15.8,5.9c-2.6-3.3-4.9-6.1-6.2-7c-0.6-0.4-1.4-1.3-2.3-2.4c4.5-2.4,13.1-6.9,18.4-9.8L99.8,441.2z M90.4,421.9
	c-1.1,0.7-2.3,1.3-3.4,2c-6,3.4-11.7,6.7-17.1,10.2c-1.8-2.4-3.7-5-5.4-7.5c-1-1.4-2-2.7-2.9-4c5.3-5.7,10.5-11.3,14.8-16l19.4,5.7
	l4.7,3.3L90.4,421.9z M101.7,414.6l-6.7-4.9c1.8-2.6,3.9-5.4,4.7-6.1c1.1,0.5,5.8,3.5,9.8,6.1L101.7,414.6z M115.9,405.5l-5.1,3.3
	c-10.3-6.8-11.1-6.8-11.3-6.8c-0.4,0-1.2,0-5.9,6.8L82,400.2c0.7-0.7,1.3-1.4,1.8-2c3.7-3.9,8-8.7,12.3-13.7l24.9,17
	C119.4,402.9,117.7,404.3,115.9,405.5z M128.1,395.3c-1.9,1.8-3.9,3.5-5.8,5.2l-25.2-17.2c3-3.5,6.1-7.3,9-10.8
	c7.2,5.4,19.9,15.3,25.2,19.7C130.4,393.2,129.3,394.2,128.1,395.3z M134.4,389.2c-5.4-4.3-18.1-14.3-25.7-20
	c4.4-5.5,8.1-10.5,10.4-14c0.5-0.9,1.2-1.8,1.9-2.8c10.8,9.2,21.6,18.7,25.8,22.3C143.7,379.1,140,383.5,134.4,389.2z M154.5,409.3
	c-3.2-4.4-9-10-14.8-15.3c3.3-3.3,6.2-6.4,8.4-9.3c1-1.4,2.1-2.9,3.1-4.3c1.7,2.5,3.6,5.7,4.4,8
	C156.7,391.2,155.6,401.7,154.5,409.3z M160,403.9c0.8-6.2,1.3-13.9,0.3-17.1c-1.1-3.3-4-7.8-6.1-10.6c2.4-3.5,4.7-7,7.1-10.5
	c2.6,1.8,6.4,4.3,7.8,5.1c0.8,0.4,1.6,0.6,2.3,0.6c0.4,0,1-0.1,1.3-0.3c1.6-0.5,2.9-1.9,4-4.1l0.1-0.3c1.8-4,2.8-6.1,0.4-8.2
	c-0.4-0.4-3.3-2.6-7.5-5.9c3.2-5,5.7-9.1,7.3-11.5c0.4-0.4,0.5-0.9,0.8-1.2l4.7,2.9c0.2,0.1,0.4,0.2,0.4,0.2c0.3,0,0.5-0.2,0.7-0.4
	c0.3-0.4,0.2-0.9-0.3-1.1l-4.7-2.9c1.1-1.6,5.3-7.9,11.2-16.8l25.9,17.8C211.3,344.5,178,383.5,160,403.9z M191.4,319
	c2.5-3.8,5.4-8,8.3-12.5c0.3,0.2,0.4,0.4,0.6,0.4c10.9,7.4,12.8,8.6,13.4,8.6c0.2,0,0.3-0.1,0.4-0.1c0.8-0.4,11.9-14.2,18.8-22.8
	l22.5,15.4c-1.9,2.2-4,4.6-6.1,6.9l-30.8,22.4L191.4,319z M220.5,339.1c-0.2-0.2-0.3-0.4-0.4-0.4c-0.1-0.1-0.1-0.1-0.2-0.2
	l24.8-18.1c-6.9,8.1-14,16.3-18.9,22.2L220.5,339.1z M223.7,351.9c1-1.2,2.5-3.1,4.3-5.4c8.7,6,25.8,17.7,31.3,21.4
	c-3.5,5.4-7.2,10.8-10.9,16.3l-26.1-17.5c1.3-2.9,1.1-3.4,1-3.6s-0.4-0.6-5.1-4.7C221,355.2,222.9,353,223.7,351.9z M217.3,359.7
	c2.1,1.8,4.1,3.5,4.7,4c-0.2,0.5-0.8,2.1-1.4,3.4c-0.7,0.9-1.3,1.6-1.7,2.1c-1-0.4-3.6-2.1-6.2-3.8
	C214.2,363.4,215.9,361.5,217.3,359.7z M211.5,366.7c7.4,4.7,7.6,4.6,8.1,4c0.3-0.3,1.4-1.6,2.1-2.5l26,17.4
	c-3,4.6-6.1,9.1-9.1,13.6l-10.2-6.7c0.4-0.8,0.9-1.6,1.3-2.5c1.1-2.1,2.5-4.7,2.9-5.4c1.1,0.3,4.6,2.4,7.4,4.3
	c0.4,0.3,0.9,0.2,1.1-0.3c0.3-0.4,0.2-0.9-0.3-1.1c-7.7-5.4-8.6-4.7-9.1-4.5c-0.5,0.4-1.1,1.6-3.5,6.2c-0.4,0.7-0.8,1.6-1.2,2.4
	l-12.4-8.1l4.7-6.6c0.3-0.4,0.2-0.9-0.2-1.1c-0.4-0.3-0.9-0.2-1.1,0.2l-4.8,6.7l-9.8-6.5C206.4,372.7,209,369.6,211.5,366.7z
	 M202.4,377.3l7,4.7l-8.5,12.1l-8-5.6C196.3,384.5,199.4,380.8,202.4,377.3z M191.9,389.6l8.2,5.7l-8.7,12.8l-5.3-4.1
	c-0.4-0.3-0.9-0.3-1.1,0.2c-0.3,0.4-0.3,0.9,0.2,1.1l5.4,4.1L182,422c-3-2.4-8.2-5.8-11.2-7.6C178,406,185.2,397.5,191.9,389.6z
	 M169.7,415.6c4.1,2.6,9.3,6.2,11.8,8.2c0,0.1,0.1,0.1,0.2,0.1l0,0c0.6,0.5,1.1,1,1.2,1.1c0.4,0.7,0.3,1-2.1,3.5
	c-1.1,1.2-2.8,2.9-4.7,5.4c-0.3,0.4-0.4,0.5-0.7,0.9c-1.1-1.1-2.3-2.3-3.5-3.5l0,0l0,0c-3-3-5.9-6-8.3-8.4
	C165.6,420.4,167.7,418,169.7,415.6z M148.8,440.1c4.4-5.1,9.1-10.5,13.7-16.1c1.6,1.7,4.4,4.5,7.6,7.7L153.5,446L148.8,440.1z
	 M158,451.5l-3.4-4.2l16.8-14.4c1,1,2.1,2.1,3.1,3.1c-2.8,3.2-5.4,5.5-8.4,8c-2.3,2-4.7,4.1-7.3,6.7
	C158.5,451,158.2,451.3,158,451.5z M162.6,456.8c-0.1,0.1-0.2,0.2-0.3,0.3l-3.4-4.2c0.4-0.4,0.6-0.6,0.9-1c2.5-2.5,4.9-4.7,7.2-6.7
	c2.9-2.5,5.6-4.9,8.5-8.1c1.6,1.6,3.1,3.1,4.6,4.5C176.9,444.3,163.9,455.6,162.6,456.8z M188.8,447.5c-0.1,0.1-0.1,0.2-0.2,0.3
	c-2.7-2.5-7.3-7-12.1-11.8c0.3-0.4,0.5-0.6,0.8-1c1.9-2.4,3.5-4.1,4.7-5.4c2.2-2.4,3.4-3.6,2.2-5.4c-0.2-0.4-0.5-0.7-1.1-1.1
	l18.2-26.8l15.6,10.9C213.9,411.5,191.9,442.2,188.8,447.5z M197.9,457.5c-1.8-2.5-4.7-6.5-6.9-7.9c-0.3-0.2-0.6-0.4-1.1-1
	c0.1-0.2,0.3-0.4,0.4-0.5c0.8-1.3,2.7-4.2,5.3-8l10.2,7.5C203.6,450.4,200.8,454,197.9,457.5z M208.5,444.1c-0.4,0.5-1,1.4-1.8,2.5
	l-10.3-7.6c0.6-1,1.3-1.8,2-2.9l10.7,7.1C208.8,443.7,208.6,443.9,208.5,444.1z M210,442l-10.7-7.1c3-4.2,6.2-9,9.2-13.2l10.4,6.9
	C214.8,434.7,211.7,439.4,210,442z M219.8,427.3l-10.4-6.9c4.1-6,7.7-10.8,8.7-12.3l9.8,6.9C225,419.5,222.3,423.6,219.8,427.3z
	 M228.9,413.7L202.4,395l8.5-12.2l15.6,10.2c-1.1,2.1-2.2,4-2.7,4.5c-0.8-0.2-2.8-1.1-4.3-2.1c-0.4-0.3-0.9-0.1-1.1,0.4
	c-0.3,0.4-0.1,0.9,0.4,1.1c0.6,0.4,4,2.3,5.4,2.3c0.8,0,1.6-1,3.9-5.3l10,6.7C234.6,405.1,231.7,409.5,228.9,413.7z M231.8,417
	c5.9-8.9,12.6-18.9,19.3-29l13.3,9.2c-1.9,3-10.5,15.7-18.8,28.4L231.8,417z M257.3,454.4l-19.5-14.2c2.5-3.9,5.4-8.2,8.3-12.6
	l20,12.3L257.3,454.4z M275.5,443.9l-8-4.9l0,0l0,0l-20.7-12.7c8.3-12.6,16.8-25.2,18.7-28.4l23.3,16.2c-3.3,6.3-6.1,12-7.8,16.5
	C279.2,435.5,277.3,439.9,275.5,443.9z M299.1,460.4l-21-14.8c1.7-3.8,3.5-7.9,5.4-12.4l22.9,16.3L299.1,460.4z M307.6,447.9
	l-23.3-16.5c1.8-4.2,4.2-9.5,7.3-15.5l25.7,17.7L307.6,447.9z M317.1,458.2l-8.3-9.3l2.6-3.9l9.3,10.1L317.1,458.2z M322.4,453.8
	l-9.8-10.5l5.8-8.5l11.3,12.9L322.4,453.8z M330.9,446.6l-11.6-13.2l12.3-18.2l52.6-44l15.2,17.6L330.9,446.6z M385.1,369.7
	c1.1-2,3.6-6.7,7.2-13.4c0.5,0.1,1.1,0.2,1.7,0.3l17.1,22.1l-10.5,9L385.1,369.7z M408.1,396.3l-6.4-7.4l30-25.4
	c0.7,1.4,1.6,2.7,2.5,4.1c0.8,1.1,1.6,2.2,2.4,3.5L408.1,396.3z M440.4,384.6c-0.8-1.6-3.2-6.8-4.7-10.5l1.8-1.6
	c0.9,1.6,1.6,3.3,2.4,5.4c0.6,1.8,1.2,3.9,1.8,6.2C441.2,384.4,440.7,384.5,440.4,384.6z M448.6,418.3c-0.1,1-0.3,2.7-0.5,4.9
	l-4.1-0.4C445.5,421.3,447.3,419.6,448.6,418.3z M440.7,426.4c0.4-0.5,1-1.2,1.8-2l5.4,0.5c-0.4,3.1-0.9,6.9-1.4,11.2l-15.1-0.7
	C436.4,430.7,440.1,427.3,440.7,426.4z M424.8,434.5c0.1-0.3,0.2-0.4,0.3-0.5c0.1-0.3,0.2-0.4,0.3-0.6c0.5,0.1,1.3,0.1,1.9,0.1
	c0.4,0,1,0.3,1.8,0.6c-1,0.9-1.9,1.8-2.9,2.7C425.3,435.9,424.7,435,424.8,434.5z M444.3,452.8l-28.2-3.5c4.7-4.3,9.6-8.6,13.7-12.5
	l16.6,0.7C445.7,442.5,445,447.7,444.3,452.8z M522.6,413.9l-28.8-3.6c-0.4-0.1-0.9,0.3-0.9,0.7c-0.1,0.4,0.3,0.9,0.7,0.9l28.8,3.6
	l-5,46.3l-71.1-8.6c1.8-14,4.4-33,4.4-35.4c0-0.4,0-0.7-0.1-1.1c0.4-0.4,0.3-1.1-0.2-1.6c0,0,0,0-0.1-0.1
	c-1.1-7.6-5.2-27.1-8.7-37.4c-1.8-5.3-4-8.4-5.9-11c-2.3-3.2-3.8-5.4-3.2-9.8c0.1-0.8,0.4-1.8,0.7-2.9c11,5.8,18.7,9.8,19.4,9.9
	c0.1,0,0.3,0,0.4,0c0.3,0,0.5-0.1,1-0.4c1.6-1.1,2.9-6.1,4-13.6c0-0.1,0-0.2,0-0.2c0.2-1.1,0.4-2.2,0.5-3.4c0.1-0.6,0.2-1.1,0.3-1.6
	c0.5-3.3,0.9-6.5,1-8.2c4.6-0.2,14.1-1.1,22.1-2c3.9-0.4,7-0.9,9.7-1.2c6.4,26.5,15.7,35.2,32.8,51.1l1.3,1.1L522.6,413.9z
	 M526.6,376.9c-9-7.3-14.7-15.1-18.3-20.1c-2.8-3.8-6.4-13.7-9.8-24.5c4.7-0.9,5.2-1.4,5.4-1.6c1.4-1.8,2.5-13.4,2.9-17
	c1.9-8.7,8.2-37.1,7-39.9c-0.4-0.8-0.9-2.2-22.3-11.8c-9-4-17.9-7.9-20.3-8.9c0.7-5.4,1.6-10.5,2.1-12.1c3.3,1.1,21.9,11,33.8,17.4
	c-0.1,4.7-0.2,7.6-0.2,7.7c0,0.4,0.2,0.7,0.4,1c0.1,0.1,6.6,4.1,13.1,8.2c1,0.6,1.9,1.1,2.9,1.8c5.4,3.3,12.3,7.3,12.7,9.9
	c0.4,2.9-1.9,21.7-2.9,28.8L526.6,376.9z M557.9,392.9c-12.3-3.3-22-8.7-29.4-14.6l0.2-1.4c3.5,0.4,14.5,1.6,18,1.7
	c-0.1,2-0.3,6.5,1,8c1,1.2,2.8,1.4,4.7,1.5c1.2,0.1,2.5,0.2,3.3,0.5c1,0.5,3.5,2.9,5.8,5C560.1,393.6,559,393.3,557.9,392.9z
	 M679.1,419.7c1.6,0.7,6.2,4.4,10.6,8.1c-1.6-0.7-3.2-1.3-4.7-1.9c-4.7-1.8-9.5-3.5-14.7-5.2l0,0c0,0-0.6-1.7-1.6-3.5
	C671.5,417.7,676.8,418.7,679.1,419.7z M677,391.7c0.9,6,1.6,12.7,1,13.7c-0.3,0.4-0.7,0.8-1.3,1.4c-2.4-2.9-5.8-7.4-6.1-8.8
	C670.6,397.1,673.7,394.1,677,391.7z M675.4,382.7c0.3,0.6,0.9,3.6,1.4,7.3c-2.3,1.6-8,5.9-7.6,8.3c0.4,2.2,4.7,7.6,6.4,9.7
	c-2.5,2.2-6.1,5.1-8.3,6.9c-0.1,0-0.1,0-0.2,0c-0.8-1-1.7-1.6-2.6-1.8c-0.6-0.2-2.4-0.4-4.9-1c-5-1-12.7-2.4-16.4-3.3l-0.4-0.1
	c-2.2-0.5-4.5-1.1-6.8-1.8c0.4-2,0.9-5.9,0.5-8.6c-0.1-0.7-0.6-3-1.4-6.2c0.4-0.2,0.6-0.3,0.9-0.4c2.9-1.5,21.1-19.8,25-23.7
	c1.6,1.5,2.8,2.5,2.9,2.6C664.9,371.3,674.8,381.3,675.4,382.7z M650.4,355.2c1.4-2.3,15.1-16.8,16.6-17.8c0.2-0.1,0.7-0.2,1.1,0.1
	c0.5,0.4,1,1.4,1,2.9c0.1,2.3,1.4,8.3,2.5,13.5c0.8,3.5,1.6,7.3,1.6,8c-0.1,1-3.9,5-7.4,8.2c-0.4-0.4-0.8-0.7-0.9-0.8
	c-0.4-0.3-1.6-1.4-3.3-2.9l0,0c0,0,0,0-0.1,0c-0.8-0.7-1.7-1.6-2.5-2.4l0,0l0,0C655.2,360.4,651.1,356.5,650.4,355.2z M634.8,390.5
	c-0.1-0.3-0.2-0.4-0.2-0.7l23.8-24.3c0.4,0.4,1,1,1.5,1.3c-6.6,6.7-22.1,22.1-24.5,23.4C635.1,390.3,634.9,390.4,634.8,390.5z
	 M595.6,416.9c-1.1-1.6-3.9-5-5.4-5.9c-1.9-1-15-4.3-18.6-4.8c-2-0.4-2.2-1.1-2.3-2.5c0-0.3-0.1-0.5-0.2-0.9c1.8,0.4,3.8,1,5.8,1.4
	l18.3,5.6c1.8,1.9,2.8,5.3,3.1,6.6C596,416.6,595.7,416.8,595.6,416.9z M597.7,415.6c-0.4-1.1-1-3.2-2.1-4.9l8.9,2.7
	C602.2,413.7,599.7,414.6,597.7,415.6z M594,408.5L594,408.5c2.4,0.5,4.7,1,7.2,1.6c4.1,1,8.4,1.8,12.6,2.7c0,0.5,0,1.2,0,1.8
	L594,408.5z M612.2,415.8l1.6,0.5c0,0.5,0.1,1.1,0.1,1.8C613.5,417.1,612.8,416.4,612.2,415.8z M594.5,401.6c-0.4-0.1-0.7-0.2-1-0.3
	c0.9-0.6,1.9-1.1,2.9-1.1c0.7,0,6,0.8,45.6,11l0.4,0.1c3.9,1,11.6,2.5,16.7,3.4c2.3,0.4,4.2,0.8,4.7,1c0.8,0.2,2.2,2,3.2,4.1
	C644,412.5,617.1,406.6,594.5,401.6z M613.8,458.1c0.9-1.1,1.7-2.6,2.4-4.4c0.5-1.4,1-2.7,1.1-4c0.4,2.8,0.7,5.2,1,6.9
	C616.7,457.2,615.2,457.6,613.8,458.1z M619.8,456.2c-0.2-1.1-0.4-2.5-0.5-4.1c1,1.5,2.2,2.5,3.3,3.3
	C621.7,455.8,620.7,456,619.8,456.2z M664.6,456c-4,0.5-5.6-0.4-8-1.6c-1-0.4-1.9-1-3.1-1.4c8-2,15.6-4,20.8-5.4
	c2.9-0.8,5.7-1.6,8.4-2.4C676.8,449.8,669.8,455.3,664.6,456z M631.7,453.5c-2.4,0.4-4.7,1-7,1.5c-2.2-1.3-5.6-4.1-6.4-9.7l0,0
	c-0.2-0.9-0.4-1.8-0.4-2.6l0,0l0,0c0-0.2-0.1-0.4-0.1-0.4c-0.6-4-1.3-10-1.8-15.9v-0.1c0-0.2,0-0.3-0.1-0.4c-0.3-3.2-0.4-6.3-0.5-9
	c3.7,1.3,15.6,5.7,27.1,9.8l-0.3,1.6c-0.4,0-1,0.1-1.5,0.2c-1.2,0.2-2.9,0.4-5.1-0.1c-3.2-0.6-3.8-0.6-4.7,0.9
	c-0.2,0.2-0.3,0.4-0.4,0.6c-1.2,1.5-2.9,3.3-2.9,3.3c-0.4,0.4-0.4,0.9,0,1.1c0.4,0.4,0.9,0.4,1.1,0c0.1-0.1,1.8-1.8,3-3.4
	c0.3-0.3,0.4-0.4,0.5-0.7c0.4-0.7,0.4-0.7,3.2-0.2c2.5,0.4,4.2,0.3,5.5,0.1c0.8-0.1,1.3-0.2,1.8-0.1c1.5,0.2,4.7,2.6,4.7,4.3
	c0,0.6,0,1.1-0.1,1.8c-0.1,1.6-0.3,3,0.8,4.2c0.8,1.1,3.2,3.5,4.6,4.9c-7.1,1.8-14.9,3.6-19.2,4.7c-0.6,0.2-1.1,0.3-1.6,0.4
	l-0.6-2.2l6.6-6.4c0.4-0.4,0.4-0.8,0-1.1s-0.8-0.4-1.1,0l-6.1,5.9l-0.1-0.1l-1.1-0.9c-0.4-0.3-0.9-0.3-1.1,0.2
	c-0.3,0.4-0.3,0.9,0.2,1.1l0.9,0.7l1,3.3c-2.8,0.6-3.2,0.8-3.3,0.9c-0.4,0.1-1.7,0-2.9-0.1c-0.4,0-0.9,0.4-0.9,0.7
	c0,0.4,0.4,0.9,0.7,0.9c0.9,0.1,1.6,0.1,2.2,0.1c0.7,0,1.1-0.1,1.5-0.2s2.9-0.7,6.2-1.5c25.2-6,34.6-8.4,35.6-9.3
	c1.1-1.1,1.2-3.9,1.2-5.4v-0.1c1,0.1,2.1,0.1,3.3,0.1c3.6,0,8,0,13.7,1.5c0.8,0.3,1.5,0.4,2.2,0.7
	C675.7,442.9,647.8,450.7,631.7,453.5z M643.9,428.5l0.2-1.3c10.5,3.9,20.1,7.4,22,8.3c1,0.4,2,0.7,3.2,0.8c0,0.1,0,0.2,0,0.4
	c0.1,2.4-0.4,3.9-0.7,4.2c-0.8,0.5-6.8,2.2-13.9,4c-1-1-4.1-4.2-5.1-5.4c-0.6-0.8-0.5-1.8-0.4-3.2c0.1-0.6,0.1-1.2,0.1-1.8
	C649.2,431.8,646,429.3,643.9,428.5z M666.7,434.1c-2.5-1.1-18.3-6.9-31.8-11.9c16.2,4.4,32.1,8.8,33.2,9.5c0.4,0.3,0.7,1.4,1,3
	C668.2,434.6,667.4,434.4,666.7,434.1z M693.6,437.5c-0.4,0.2-1,0.4-1.5,0.4c-1.2-0.6-2.5-1.1-4-1.6c-5.9-1.6-10.5-1.6-14.2-1.5
	c-1.2,0-2.3,0-3.3-0.1c-0.3-1.8-0.7-3.6-1.6-4.4c-1.6-1.2-39.6-11.4-51.3-14.5c-1-0.4-1.8-0.7-2.4-0.9c0-0.7,0-1.4,0-2
	c20.6,4.5,41,9.3,58.7,15.6C681.7,431.4,688.2,434.4,693.6,437.5L693.6,437.5z M701.7,457.2c-1.6,0.8-3.2,1.7-4.6,2.6
	c0.5-0.9,1-1.8,1.3-2.9c0.7-2,1-4,1-5.9c1.1,2.5,2.1,4.7,2.5,6C701.9,457.1,701.8,457.2,701.7,457.2z M711.7,454.4
	c-2.4-1-4.8,0.3-8.3,1.9c-1.1-3-4.5-10.3-4.9-11.3c-0.3-0.5-0.4-1.1-0.7-1.6c-0.4-0.9-1-1.6-1.6-2.3c0.9-0.4,1.6-0.5,2.2-0.7
	c0.1,0,0.1,0,0.2,0c0.1,0,0.1,0,0.2,0c9.8,6.4,15.6,13,19.1,18.2c0.3,0.4,0.4,0.7,0.6,1C715.6,457.1,712.9,454.9,711.7,454.4z"/>
<circle class="st1" cx="483.5" cy="191.8" r="5.4">
<animate  accumulate="none" additive="replace" attributeName="r" begin="0s" calcMode="linear" dur="1.5s" fill="remove" from="5" repeatCount="indefinite" restart="always" to="18">
	</animate>
<animate  accumulate="none" additive="replace" attributeName="opacity" begin="0s" calcMode="linear" dur="1.5s" fill="remove" from="1" repeatCount="indefinite" restart="always" to="0">
	</animate>
</circle>
<circle class="st1" cx="483.5" cy="191.8" r="5.4"/>
</svg>
