<?xml version="1.0" encoding="utf-8"?>
<!-- Generator: Adobe Illustrator 23.0.3, SVG Export Plug-In . SVG Version: 6.00 Build 0)  -->
<svg version="1.1" id="Capa_1" xmlns="http://www.w3.org/2000/svg" xmlns:xlink="http://www.w3.org/1999/xlink" x="0px" y="0px"
	 viewBox="0 0 35.7 23.1" style="enable-background:new 0 0 35.7 23.1;" xml:space="preserve">
<style type="text/css">
	.st0{fill:#FFFFFF;}
</style>
<g>
	<path class="st0" d="M9.8,14.7c-0.4-1-0.7-2.1-0.7-3.3C9,6.8,12.8,3,17.4,3c2.8,0,5.3,1.3,6.9,3.6l1.6-0.8l7.6-4.1L26.3,1l1.1,2.1
		l-2.6,1.5c-0.1-0.1-0.1-0.1-0.1-0.2l-0.1-0.1c-1.9-1.9-4.4-2.9-7-2.9C12,1.4,7.5,6,7.5,11.5c0,1.4,0.3,2.8,0.9,4.1L9.8,14.7z"/>
	<path class="st0" d="M25,8.2c0.4,1,0.7,2.1,0.7,3.3c0,4.7-3.8,8.4-8.4,8.4c-2.8,0-5.3-1.3-6.9-3.6l-1.6,0.8l-7.5,4.1L8.5,22
		l-1.1-2.1l2.6-1.5c0.1,0.1,0.1,0.1,0.1,0.2l0.1,0.1c1.9,1.9,4.4,2.9,7,2.9c5.6,0,10.1-4.6,10.1-10.1c0-1.4-0.3-2.8-0.9-4.1L25,8.2z
		"/>
	<path class="st0" d="M20,18c1.6-0.7,2.9-1.9,3.6-3.5c-0.1,0.1-0.4,0.1-0.7,0.3c-1.3,2-3.2,3-5.5,3.1c-0.4,0-0.7,0-1-0.1h-0.1v-0.1
		c0-0.1,0-0.1,0.1-0.1l0.4-0.2c0.2-0.1,0.4-0.3,0.6-0.4c0.1-0.1,0.2-0.1,0.3-0.1c0.3,0.1,0.6,0.1,0.8-0.1s0.3-0.4,0.2-0.7
		c-0.1-0.4-0.4-0.6-0.8-0.5c-0.4,0.1-0.7,0.4-0.7,0.7c0,0.1,0,0.1-0.1,0.3c-0.7,0.4-1.3,1-1.9,1.4c-0.1,0.1-0.1,0.1-0.3,0.2
		C16.5,18.8,18.3,18.8,20,18z"/>
	<path class="st0" d="M15,16c1.3-1,2.7-1.9,4.1-2.7c0.1-0.1,0.2-0.1,0.3,0s0.3,0.1,0.4,0.1c0.4,0,0.8-0.3,0.8-0.7S20.3,12,19.9,12
		c-0.4-0.1-0.7,0.2-0.8,0.6c0,0.1-0.1,0.2-0.2,0.3c-1.3,0.7-2.6,1.6-3.8,2.4c-0.7,0.5-1.3,1-2,1.6c0.1,0.1,0.3,0.2,0.4,0.4
		C13.9,16.8,14.4,16.4,15,16z"/>
	<path class="st0" d="M24.4,12.5c-0.4,0.1-1,0.4-1.5,0.6c-1.3,0.4-2.6,1.1-3.8,1.9c0.1,0.1,0.2,0.3,0.3,0.5c0.5-0.3,1-0.6,1.6-0.9
		c1-0.5,2.1-1,3.2-1.4C24.3,13.1,24.3,12.8,24.4,12.5z"/>
	<path class="st0" d="M12.9,6.2c-1.7,1.4-2.6,3.5-2.5,5.7c0.5-0.4,1.1-1,1.6-1.3c0.9-0.7,1.8-1.3,2.7-1.9c0.1-0.1,0.2-0.1,0.4,0
		c0.3,0.1,0.6,0.1,0.8-0.1c0.2-0.2,0.3-0.4,0.2-0.8c-0.1-0.4-0.4-0.6-0.8-0.5c-0.4,0-0.7,0.3-0.7,0.7c0,0.1-0.1,0.2-0.2,0.3
		c-1,0.6-1.9,1.3-2.7,1.9c-0.1,0.1-0.1,0.1-0.1,0.1l-0.3,0l-0.1-0.1c-0.1-0.1,0-0.1,0-0.2V9.9c0-0.1,0.1-0.2,0.1-0.4
		c0.4-1.3,1.2-2.3,2.2-3c1.3-0.9,2.7-1.3,4.1-1.3c0.1,0,0.1,0,0.1,0C18,5.1,18.3,5,18.6,4.8h0.2c-0.4-0.1-1-0.1-1.5-0.1
		C15.8,4.5,14.2,5.1,12.9,6.2z"/>
	<path class="st0" d="M20.4,5.3c-0.7,0.3-1.5,0.5-2.1,0.8S17.1,6.7,16.5,7c0.1,0.1,0.2,0.3,0.3,0.5c0.2-0.1,0.4-0.2,0.6-0.3
		c1-0.5,2.1-1,3.3-1.4c0.1-0.1,0.3-0.1,0.4-0.1C21,5.4,20.7,5.4,20.4,5.3C20.5,5.2,20.4,5.2,20.4,5.3z"/>
	<path class="st0" d="M15.6,12.3c0.1,0.1,0.2,0.3,0.3,0.4c0.7-0.5,1.5-1,2.2-1.3c1.4-0.7,2.8-1.4,4.3-1.9c0.6-0.2,1-0.4,1.5-0.5
		c-0.1-0.1-0.1-0.4-0.2-0.5c-0.6,0.1-1.1,0.4-1.6,0.5c-1.7,0.7-3.3,1.4-4.8,2.3C16.7,11.6,16.1,11.9,15.6,12.3z"/>
	<path class="st0" d="M24.4,10.5C24.3,10.5,24.3,10.5,24.4,10.5c-0.8,0.1-1.6,0.4-2.3,0.7c-0.4,0.1-0.7,0.3-1.1,0.5
		c0.1,0.1,0.1,0.1,0.1,0.1c0.1,0.1,0.1,0.2,0.1,0.3c1-0.4,2.1-0.9,3.2-1.3C24.4,10.7,24.4,10.6,24.4,10.5z"/>
	<path class="st0" d="M12.7,12.5c0.9-0.7,1.8-1.4,2.8-2c0.8-0.5,1.6-1,2.6-1.5c0.1-0.1,0.2-0.1,0.3,0s0.3,0.1,0.4,0.1
		c0.4-0.1,0.7-0.4,0.7-0.7c0-0.4-0.2-0.7-0.7-0.7h-0.1c-0.4,0-0.7,0.2-0.7,0.6c-0.1,0.3-0.2,0.4-0.4,0.4h-0.1
		c-1,0.5-2.1,1.1-3.1,1.9c-0.9,0.6-1.7,1.2-2.5,1.9c-0.4,0.4-0.8,0.7-1.2,1c0.1,0.1,0.1,0.4,0.2,0.6C11.5,13.6,12.1,13.1,12.7,12.5z
		"/>
	<path class="st0" d="M12,15.9c0.6-0.6,1.3-1.1,1.9-1.7c0.1-0.1,0.3-0.1,0.4-0.1c0.2,0.1,0.4,0,0.7-0.1c0.2-0.1,0.3-0.4,0.3-0.6
		c0-0.1,0-0.1-0.1-0.2c-0.1-0.4-0.5-0.6-0.8-0.5c-0.4,0.1-0.7,0.4-0.7,0.8c0,0.1,0,0.2-0.1,0.3c-0.6,0.4-1.3,1-2,1.7
		c0.1,0.1,0.1,0.2,0.2,0.3C11.9,15.9,11.9,15.9,12,15.9z"/>
	<path class="st0" d="M21.4,7.1c-0.4,0.1-0.9,0.3-1.3,0.5c0.1,0.1,0.1,0.3,0.2,0.5L20.6,8c0.7-0.3,1.5-0.6,2.4-0.8
		c-0.1-0.1-0.2-0.3-0.4-0.4C22.2,6.9,21.8,6.9,21.4,7.1z"/>
</g>
</svg>
