<?xml version="1.0" encoding="utf-8"?>
<!-- Generator: Adobe Illustrator 23.0.3, SVG Export Plug-In . SVG Version: 6.00 Build 0)  -->
<svg version="1.1" id="Capa_1" xmlns="http://www.w3.org/2000/svg" xmlns:xlink="http://www.w3.org/1999/xlink" x="0px" y="0px"
	 viewBox="0 0 135.8 31.3" style="enable-background:new 0 0 135.8 31.3;" xml:space="preserve">
<style type="text/css">
	.st0{fill:#FFFFFF;}
</style>
<g>
	<g>
		<g>
			<g>
				<g>
					<path class="st0" d="M43.9,2.1L34.1,1l1.5,2.8l-3.5,2c-0.1-0.1-0.2-0.2-0.2-0.3c0,0,0,0,0,0c0,0-0.1-0.1-0.1-0.1
						c-2.5-2.5-5.9-3.9-9.5-3.9c-7.6,0-13.7,6.2-13.7,13.7c0,1.9,0.4,3.8,1.2,5.5l2.1-1.1c-0.6-1.4-0.9-2.9-0.9-4.4
						C10.9,9,16,3.9,22.2,3.9c3.8,0,7.2,1.8,9.3,4.9l2.1-1.1h0L43.9,2.1z"/>
				</g>
				<path class="st0" d="M0.6,28.4l9.7,1.1l-1.5-2.8l3.5-2c0.1,0.1,0.2,0.2,0.2,0.3c0,0,0,0,0,0c0,0,0.1,0.1,0.1,0.1
					c2.5,2.5,5.9,3.9,9.5,3.9C29.8,29,36,22.8,36,15.3c0-1.9-0.4-3.8-1.2-5.5l-2.1,1.1c0.6,1.4,0.9,2.9,0.9,4.4
					c0,6.3-5.1,11.3-11.3,11.3c-3.8,0-7.2-1.8-9.3-4.9l-2.1,1.1h0L0.6,28.4z"/>
				<g>
					<path class="st0" d="M30.7,19.3c-0.4,0.1-0.7,0.3-1.1,0.4l0,0c0,0-0.1,0-0.1,0.1c-1.7,2.6-4.2,4-7.3,4.1c-0.5,0-1,0-1.4-0.1
						l-0.2,0l0-0.2c0-0.1,0-0.2,0.1-0.2l0.5-0.3c0.3-0.2,0.6-0.4,0.8-0.6c0.2-0.1,0.3-0.1,0.4-0.1c0.4,0.1,0.8,0.1,1.1-0.2
						c0.3-0.3,0.4-0.6,0.3-1c-0.1-0.5-0.6-0.8-1.1-0.7c-0.5,0.1-0.9,0.5-0.9,1c0,0.1,0,0.2-0.2,0.4c-0.9,0.6-1.7,1.3-2.6,1.9
						c-0.1,0.1-0.2,0.2-0.4,0.3c2.3,0.9,4.7,0.9,7-0.1C28,23.1,29.8,21.4,30.7,19.3L30.7,19.3z"/>
					<path class="st0" d="M19,21.3c1.7-1.3,3.5-2.6,5.5-3.6c0.1-0.1,0.3-0.1,0.4,0c0.2,0.1,0.4,0.1,0.5,0.1c0,0,0,0,0,0
						c0.6,0,1.1-0.4,1.1-1c0-0.5-0.4-1-0.9-1c-0.5-0.1-1,0.3-1.1,0.8c0,0.2-0.1,0.3-0.3,0.4c-1.8,1-3.5,2.1-5.1,3.3
						c-0.9,0.7-1.7,1.4-2.7,2.2c0.2,0.2,0.4,0.3,0.6,0.5C17.6,22.5,18.2,21.9,19,21.3z"/>
					<path class="st0" d="M27,19.5c1.4-0.7,2.8-1.4,4.3-1.9c0,0,0,0,0,0c0.1-0.2,0.1-0.5,0.2-0.9c-0.6,0.2-1.3,0.5-2,0.8
						c-1.7,0.7-3.5,1.6-5.1,2.6c0.2,0.2,0.3,0.4,0.4,0.7C25.6,20.3,26.3,19.9,27,19.5z"/>
					<path class="st0" d="M18.6,11.4c0.1-0.1,0.3-0.1,0.5,0c0.4,0.2,0.8,0.1,1.1-0.2c0.3-0.3,0.4-0.6,0.3-1.1
						c-0.1-0.5-0.6-0.8-1.1-0.7c-0.5,0-0.9,0.4-0.9,0.9c0,0.2-0.1,0.3-0.3,0.4c-1.3,0.8-2.5,1.7-3.7,2.6c-0.1,0.1-0.1,0.1-0.2,0.2
						L14,13.7l-0.1-0.2c-0.1-0.1,0-0.2,0-0.3l0-0.2c0-0.2,0.1-0.3,0.1-0.5c0.6-1.7,1.6-3.1,3-4.1c1.7-1.2,3.6-1.8,5.6-1.7
						c0.1,0,0.1,0,0.2,0c0.4-0.2,0.8-0.3,1.2-0.5c0,0,0.1,0,0.1,0c-0.6-0.1-1.3-0.2-2-0.2c-2.1,0-4.2,0.7-6,2.1
						c-2.3,1.9-3.5,4.7-3.4,7.7c0.7-0.6,1.5-1.3,2.2-1.8C16.1,13,17.3,12.2,18.6,11.4z"/>
					<path class="st0" d="M21.1,9.1c0.2,0.2,0.3,0.4,0.4,0.7c0.3-0.1,0.5-0.3,0.8-0.4c1.4-0.7,2.8-1.3,4.4-1.9
						c0.2-0.1,0.4-0.1,0.6-0.2C27,7.2,26.8,7,26.4,6.8c0,0-0.1,0-0.1,0c-1,0.4-2,0.7-2.9,1.1C22.6,8.3,21.8,8.7,21.1,9.1z"/>
					<path class="st0" d="M22,15c-0.8,0.5-1.5,0.9-2.2,1.4c0.2,0.2,0.3,0.4,0.4,0.6c1-0.7,2-1.3,3-1.8c1.9-1,3.8-1.9,5.8-2.6
						c0.8-0.3,1.4-0.5,2-0.7c-0.1-0.2-0.2-0.5-0.3-0.7c-0.8,0.2-1.5,0.5-2.2,0.7C26.2,12.8,24,13.8,22,15z"/>
					<path class="st0" d="M27,15.6c0.1,0.1,0.1,0.2,0.2,0.2c0.1,0.2,0.2,0.3,0.2,0.4c1.3-0.6,2.8-1.2,4.3-1.7c0-0.2,0-0.4-0.1-0.6
						c0-0.1,0-0.1,0-0.2c-1,0.3-2,0.7-3,1.1C28,15.1,27.5,15.3,27,15.6z"/>
					<path class="st0" d="M19.7,14c1.1-0.7,2.2-1.3,3.5-2c0.2-0.1,0.3-0.1,0.4,0c0.2,0.1,0.4,0.1,0.6,0.1c0.5-0.1,0.9-0.5,0.9-1
						c0-0.5-0.3-1-1-1c0,0-0.1,0-0.1,0c-0.5,0-0.9,0.3-1,0.8c-0.1,0.4-0.3,0.5-0.5,0.6l-0.1,0c-1.4,0.7-2.9,1.6-4.3,2.5
						c-1.2,0.8-2.3,1.6-3.4,2.5c-0.6,0.5-1.1,1-1.6,1.4c0.1,0.2,0.2,0.5,0.3,0.8c0.8-0.7,1.6-1.4,2.4-2C17.1,15.7,18.4,14.8,19.7,14
						z"/>
					<path class="st0" d="M18.1,18.8c0.3,0.1,0.6,0,0.9-0.2c0.3-0.2,0.4-0.5,0.4-0.8c0-0.1,0-0.2-0.1-0.3c-0.2-0.5-0.7-0.8-1.1-0.7
						c-0.5,0.1-0.9,0.6-0.9,1.1c0,0.2,0,0.3-0.2,0.4c-0.8,0.6-1.7,1.4-2.7,2.3c0.1,0.1,0.2,0.3,0.3,0.4c0.1,0.1,0.1,0.2,0.2,0.2
						c0.8-0.8,1.7-1.5,2.6-2.3C17.7,18.8,17.9,18.8,18.1,18.8z"/>
					<path class="st0" d="M26.1,10.7l0.4-0.2c1-0.4,2-0.8,3.2-1.1c-0.2-0.2-0.3-0.4-0.5-0.6C28.6,9,28,9.2,27.5,9.3
						C27,9.5,26.4,9.8,25.8,10C25.9,10.2,26,10.5,26.1,10.7z"/>
				</g>
			</g>
			<g>
				<path class="st0" d="M61.7,20.2l-1.2-1.7c-4.2-6.4-6.5-9.7-6.7-10l0,0h-0.9v13.6h1V10.3L61.7,22l0,0.1h0.9V8.5h-0.9V20.2z"/>
				<path class="st0" d="M76.7,11.5c-0.3-0.8-1-1.5-1.9-2.1c-1-0.5-2-0.8-3.1-0.8h0c-0.5,0-1,0.1-1.7,0.3C68.9,9.3,68,10,67.3,11
					c-0.5,0.9-0.8,2-0.8,3.1v2.4c0,1.9,0.7,3.4,2,4.5c1.1,0.7,2.1,1,3,1h0.3c1.6,0,2.9-0.5,3.9-1.5c1-1,1.5-2.3,1.5-3.8v-3.1l0-0.6
					C77.1,12.4,76.9,11.8,76.7,11.5z M75.6,19.1c-0.2,0.4-0.6,0.8-1,1.1C73.7,20.7,72.9,21,72,21h-0.2c-0.2,0-0.6-0.1-1.2-0.1
					c-2.1-0.7-3.1-2.1-3.1-4.4v-2.4c0-0.7,0.1-1.4,0.4-2.1c0.5-1,1.3-1.7,2.3-2.1c0.7-0.2,1.2-0.3,1.7-0.3l0.4,0.1
					c0.6,0,1.4,0.3,2.2,0.8c1.1,1,1.7,2.1,1.8,3.5l0,3.1C76.2,18,75.9,18.7,75.6,19.1z"/>
				<path class="st0" d="M85.2,9c-1.4,0.7-2.6,1.7-3.4,3.1c-0.5,1.1-0.8,2.2-0.8,3.1c0,0.7,0.2,1.6,0.5,2.6c0.2,0.6,0.6,1.2,1.1,1.9
					c1.5,1.6,3.2,2.3,5,2.3h4.1v-0.9h-3.6c-1.1,0-1.9-0.1-2.5-0.4c-1-0.4-1.9-1.1-2.6-2.1c-0.6-0.9-0.9-1.8-1-2.8h6.7v-1h-6.7l0-0.3
					c0.1-1,0.5-1.9,1.1-2.6c1.3-1.6,2.9-2.4,4.8-2.4h3.9v-1h-3.8C87.1,8.5,86.1,8.7,85.2,9z"/>
				<path class="st0" d="M104.6,20.2l-1.2-1.7c-4.2-6.4-6.5-9.7-6.7-10l0,0h-0.9v13.6h1V10.3l7.9,11.7l0,0.1h0.9V8.5h-0.9V20.2z"/>
				<path class="st0" d="M117.8,9.4c-0.8-0.5-1.7-0.8-2.7-0.9h0c-1.1,0-1.2,0.1-1.3,0.1c-1.3,0.3-2.2,0.7-2.9,1.4
					c-1,1-1.6,2.4-1.6,4.1l0,8h1v-6.2h8.8v6.2h1v-8.3C120.1,11.9,119.4,10.4,117.8,9.4z M119.2,14.9h-8.8v-0.8
					c0-1.2,0.4-2.3,1.1-3.1c0.8-1,2-1.5,3.4-1.5c1,0,2,0.4,2.9,1c0.9,1,1.4,2,1.4,3.1V14.9z"/>
				<path class="st0" d="M126.4,9.7c0.3-0.2,0.9-0.3,1.9-0.3h6.4V8.5h-7c-0.8,0-1.5,0.2-2.2,0.6c-1,0.8-1.5,1.8-1.5,3v0.2
					c0,0.8,0.3,1.6,0.9,2.4c0.7,0.7,1.4,1.1,2.2,1.1l4.1,0l0.6,0.1c0.7,0.2,1.2,0.6,1.4,1.1c0.3,0.6,0.5,1.1,0.5,1.5
					c0,1.3-0.5,2.1-1.5,2.6c-0.3,0.2-0.9,0.2-1.9,0.2H124v0.9h7.4c0.4,0,0.9-0.1,1.4-0.4c1.2-0.7,1.8-1.8,1.8-3.2
					c0-1.2-0.4-2.2-1.3-3c-0.7-0.5-1.2-0.7-1.7-0.7h-4.3c-0.3,0-0.6-0.1-1-0.2c-1-0.6-1.5-1.4-1.5-2.4C125,11,125.5,10.2,126.4,9.7z
					"/>
			</g>
		</g>
	</g>
</g>
</svg>
